<?xml version="1.0" encoding="utf-8"?>
<!-- Generator: Adobe Illustrator 16.0.3, SVG Export Plug-In . SVG Version: 6.00 Build 0)  -->
<!DOCTYPE svg PUBLIC "-//W3C//DTD SVG 1.1//EN" "http://www.w3.org/Graphics/SVG/1.1/DTD/svg11.dtd">
<svg version="1.1" id="flag-icon-css-wf" xmlns="http://www.w3.org/2000/svg" xmlns:xlink="http://www.w3.org/1999/xlink" x="0px"
	 y="0px" width="640px" height="480px" viewBox="0 0 640 480" enable-background="new 0 0 640 480" xml:space="preserve">
<g>
	<rect y="-0.685" fill="#002395" width="640" height="484.433"/>
	<path fill="#FECB00" d="M66.75-0.685h484.434v484.433L66.75-0.685z"/>
	<g id="g">
		<g>
			<path id="s_1_" fill="#FFFFFF" d="M13.055,91.651l27.05-83.253l27.051,83.253l-70.82-51.454h87.538L13.055,91.651z"/>
		</g>
		<g>
			<path id="s_2_" fill="#FFFFFF" d="M73.609,152.205l27.051-83.253l27.05,83.253l-70.82-51.454h87.539L73.609,152.205z"/>
		</g>
	</g>
	<g>
		<g id="g_1_">
			<path id="s_3_" fill="#FFFFFF" d="M134.163,212.759l27.051-83.253l27.051,83.253l-70.82-51.454h87.538L134.163,212.759z"/>
			<g>
				<path id="s_4_" fill="#FFFFFF" d="M194.718,273.313l27.05-83.252l27.051,83.252l-70.819-51.453h87.538L194.718,273.313z"/>
			</g>
			<g>
				<path id="s_5_" fill="#FFFFFF" d="M255.271,333.867l27.05-83.253l27.051,83.253l-70.819-51.452h87.538L255.271,333.867z"/>
			</g>
		</g>
		<g>
			<g id="g_2_">
				<path id="s_6_" fill="#FFFFFF" d="M315.826,394.421l27.05-83.252l27.051,83.252l-70.819-51.452h87.538L315.826,394.421z"/>
				<g>
					<path id="s_7_" fill="#FFFFFF" d="M376.38,454.976l27.05-83.253l27.051,83.253l-70.819-51.452h87.538L376.38,454.976z"/>
				</g>
				<g>
					<path id="s_8_" fill="#FFFFFF" d="M436.934,515.529l27.051-83.253l27.051,83.253l-70.819-51.452h87.538L436.934,515.529z"/>
				</g>
			</g>
		</g>
	</g>
</g>
</svg>
