<?xml version="1.0" encoding="utf-8"?>
<!-- Generator: Adobe Illustrator 16.0.3, SVG Export Plug-In . SVG Version: 6.00 Build 0)  -->
<!DOCTYPE svg PUBLIC "-//W3C//DTD SVG 1.1//EN" "http://www.w3.org/Graphics/SVG/1.1/DTD/svg11.dtd">
<svg version="1.1" id="flag-icon-css-ad" xmlns="http://www.w3.org/2000/svg" xmlns:xlink="http://www.w3.org/1999/xlink" x="0px"
	 y="0px" width="640px" height="480px" viewBox="0 0 640 480" enable-background="new 0 0 640 480" xml:space="preserve">
<rect fill-rule="evenodd" clip-rule="evenodd" fill="#FE6666" width="640" height="480"/>
<g>
	<path fill-rule="evenodd" clip-rule="evenodd" fill="#FEFEFE" d="M487.831,270.905c-5.622,21.243-12.519,42.027-24.768,60.486
		c-23.311,35.133-54.359,59.985-95.879,70.318c-5.619,1.398-10.416,5.91-16.771,4.45c-5.998,2.871-12.723-0.665-18.729,2.128
		c-5.494,0-10.989,0-16.484,0c-5.186-2.584-11.029,0.416-16.243-1.92c-29.505-3.196-54.601-15.482-78.085-33.689
		c-18.261-14.158-32.164-31.129-43.726-50.431c-9.848-16.437-13.962-35.06-18.091-53.562c-2.09-3.701,0.377-8.141-1.92-11.807
		c-0.1-2.721-0.199-5.442-0.299-8.164c-1.323-6.073-1.625-12.137,0.209-18.173c0.029-1.894,0.06-3.787,0.09-5.681
		c2.573-4.485-0.533-9.816,2.129-14.288c5.834-33.077,21.564-60.757,43.977-85.621c24.742-27.448,56.156-41.259,91.013-49.369
		c4.473-2.661,9.804,0.444,14.29-2.128c2.719-0.1,5.441-0.199,8.163-0.299c4.492-1.376,8.979-1.376,13.47,0
		c2.723,0.1,5.442,0.199,8.162,0.299c4.428,2.466,9.572-0.316,14.025,1.92c16.762,4.953,33.575,9.627,49.148,17.981
		c46.006,24.682,73.551,62.868,84.194,113.679c0.282,1.356,1.395,2.539,2.124,3.803c2.088,3.701-0.379,8.141,1.918,11.807
		c0.1,1.982,0.199,3.963,0.299,5.945c1.396,8.188,1.396,16.375,0,24.563c-0.1,1.982-0.199,3.965-0.299,5.948
		C487.452,262.765,489.919,267.206,487.831,270.905z"/>
	<path fill-rule="evenodd" clip-rule="evenodd" fill="#CB6666" d="M490.048,253.153c0-8.186,0-16.372,0-24.561
		C493.315,236.778,493.315,244.966,490.048,253.153z"/>
	<path fill-rule="evenodd" clip-rule="evenodd" fill="#CB6666" d="M157.046,230.543c-0.069,6.057-0.14,12.112-0.209,18.17
		C153.714,242.622,153.622,236.563,157.046,230.543z"/>
	<path fill-rule="evenodd" clip-rule="evenodd" fill="#CB6666" d="M331.685,408.288c5.968-3.115,12.447-1.718,18.724-2.128
		C344.585,410.531,337.922,407.525,331.685,408.288z"/>
	<path fill-rule="evenodd" clip-rule="evenodd" fill="#CB6666" d="M298.957,406.368c5.466,0.186,11.09-0.976,16.237,1.92
		C309.786,407.638,303.985,410.276,298.957,406.368z"/>
	<path fill-rule="evenodd" clip-rule="evenodd" fill="#CB6666" d="M352.364,75.376c-4.75-0.057-9.65,0.979-14.02-1.92
		C343.028,73.996,348.112,71.662,352.364,75.376z"/>
	<path fill-rule="evenodd" clip-rule="evenodd" fill="#CB6666" d="M308.544,73.456c-4.441,2.847-9.447,1.92-14.285,2.128
		C298.534,71.625,303.752,73.982,308.544,73.456z"/>
	<path fill-rule="evenodd" clip-rule="evenodd" fill="#CB6666" d="M330.177,73.157c-4.486,0-8.978,0-13.469,0
		C321.199,70.091,325.687,70.091,330.177,73.157z"/>
	<path fill-rule="evenodd" clip-rule="evenodd" fill="#CB6666" d="M159.265,210.574c-0.209,4.834,0.72,9.839-2.129,14.286
		C157.663,220.073,155.305,214.854,159.265,210.574z"/>
	<path fill-rule="evenodd" clip-rule="evenodd" fill="#CB6666" d="M487.831,270.905c-0.079-4.049-0.924-8.223,1.918-11.803
		C489.354,263.074,491.278,267.428,487.831,270.905z"/>
	<path fill-rule="evenodd" clip-rule="evenodd" fill="#CB6666" d="M489.749,222.646c-2.841-3.577-1.997-7.753-1.918-11.805
		C491.278,214.318,489.354,218.67,489.749,222.646z"/>
	<path fill-rule="evenodd" clip-rule="evenodd" fill="#CB6666" d="M157.136,256.88c2.84,3.578,1.999,7.753,1.92,11.805
		C155.608,265.207,157.531,260.856,157.136,256.88z"/>
	<path fill-rule="evenodd" clip-rule="evenodd" fill="#FEFEFE" d="M238.968,142.194c7.474-5.246,14.948-10.489,22.422-15.735
		c2.518-2.151,5.859-2.617,8.636-4.238c1.927-0.089,3.71-0.468,4.683-2.413c4.219-2.123,8.973-2.615,13.32-4.348l-0.172,0.104
		c17.52-4.95,35.235-7.534,53.423-4.439l-0.173-0.1c4.09,2.899,9.16-0.354,13.321,2.126c4.712,3.405,10.288,3.876,15.778,4.633
		c3.42,1.912,7.289,2.684,10.848,4.242c21.715,11.789,39.559,28.185,55.592,46.736c0.769,0.544,1.373,1.235,1.829,2.057
		c1.36,3.398,2.974,6.665,5.187,9.609c0.547,0.758,0.98,1.573,1.332,2.433c0.914,3.097,2.336,6.037,2.916,9.241
		c0,0.465-0.004,0.928-0.012,1.394c-1.18,8.331,6.646,14.006,6.502,22.031c1.643,15.508,1.817,31.011-0.1,46.511l0.1-0.174
		c-1.801,5.809-2.24,11.957-4.438,17.668c-4.33,17.644-13.523,32.363-26.822,44.614c-2.838,4.412-6.465,8.036-10.875,10.875
		c-1.502,2.241-3.006,4.481-4.51,6.72c-2.164,3.342-4.979,5.818-8.965,6.738c-6.189-0.059-9.634,6.268-15.61,6.71
		c-3.487,1.737-7.358,2.505-10.847,4.242c-3.854,3.495-8.612,4.343-13.559,4.634c-3.313,2.529-7.756-0.574-11.012,2.216l0.178-0.103
		c-6.55,1.988-13.137,1.432-19.728,0.313c-1.699-5.63,2.472-8.191,6.146-10.185c17.977-9.743,34.771-21.611,53.579-29.824
		c6.39-2.703,11.596-7.317,17.49-10.775c3.349-1.963,3.22-4.227,2.977-7.112c1.159-3.649,3.979-6.933,2.303-11.161
		c-0.376-2.52,0.198-4.951,0.653-7.395c0.144-1.482,0.267-2.966,0.33-4.457c0.012-2.035,0.007-4.064-0.01-6.097
		c-0.043-2.092-0.029-4.181-0.037-6.271c-0.059-1.604-0.043-3.205-0.022-4.809c-0.026-2.187-0.018-4.367-0.03-6.552
		c-0.063-1.704-0.064-3.403-0.072-5.108c-0.141-2.38-0.061-4.758-0.123-7.141c-0.319-3.179-0.045-6.36-0.226-9.538
		c-0.524-22.122-0.082-44.241-0.257-66.356c-0.111-14.175-0.619-14.522-15.15-14.799c-23.203-0.447-46.433,1.165-69.615-0.937
		c-16.651-3.486-33.502-0.841-50.238-1.603c-4.743-0.215-9.5-0.014-14.226-0.029c-3.218,0.005-6.456-0.139-9.697-0.134
		c-12.358,0.015-12.578,0.274-11.229,13.104c0.308,1.033,0.511,2.087,0.67,3.148c0.357,2.593,0.365,5.209,0.37,7.815
		c0.059,0.981,0.05,1.974,0.049,2.955c0.058,1.903,0.34,3.79,0.589,5.682c0.101,2.312-0.048,4.63,0.069,6.948
		c-0.133,2.739-0.883,5.412-0.836,8.171c0.041,0.914,0.019,1.827-0.002,2.738c0.022,1.363,0,2.727,0.014,4.085
		c0.031,2.297,0.587,4.45,1.73,6.457c1.176,2.184,1.914,4.418,0.854,6.871c-1.604,2.506-2.502,5.219-2.354,8.244
		c-0.041,3.25-0.209,6.479-0.873,9.666c-0.354,2.314-0.9,4.59-0.985,6.949c0.409,20.746-1.162,41.508,0.936,62.181
		c3.757,6.528,10.732,8.8,16.659,12.351c18.369,11.006,37.162,21.289,55.545,32.273c3.881,2.318,9.027,4.088,8.094,10.367
		c-9.854,3.08-19.229-0.13-28.695-2.14c-3.162-0.398-6.798,0.985-9.162-2.427c-3.491-1.74-7.359-2.506-10.85-4.242
		c-12.897-2.633-21.926-12.514-33.391-17.83l-0.018-0.055c-14.476-15.221-27.53-31.432-35.594-51.115
		c-2.787-6.439-4.834-13.125-6.652-19.887l0.099,0.171c-2.871-4.134,0.671-9.372-2.318-13.485l0.1,0.174
		c-2.86-14.956-0.742-29.686,2.027-44.383c3.403-4.715,3.875-10.29,4.631-15.78c1.915-3.422,2.684-7.289,4.241-10.849
		c5.984-8.956,11.967-17.91,17.951-26.865C228.051,151.695,233.155,146.591,238.968,142.194z"/>
	<path fill-rule="evenodd" clip-rule="evenodd" fill="#080808" d="M448.113,180.03c3.141-0.899,6.577-1.262,9.364-2.797
		c10.043-5.532,15.977-3.07,17.266,8.465c0.615,5.512,9.24,12.549-1.355,16.363c-18.883,6.797-13.104,8.212-21.211-6.788
		c-2.295-3.521-4.737-6.969-5.797-11.144C446.218,182.454,446.433,180.929,448.113,180.03z"/>
	<path fill-rule="evenodd" clip-rule="evenodd" fill="#0E0E0E" d="M436.751,163.98c-2.009-3.729-5.19-7.527,0.637-10.788
		c0.65-1.01,1.387-1.033,2.206-0.201c2.907-2.152,5.813-4.304,8.722-6.453c3.295-2.429,5.821-2.1,7.682,1.853
		c0.922,1.963,2.282,3.725,3.494,5.549c5.717,8.613,6.042,9.053-1.057,14.192c-4.318,3.127-5.885,10.16-12.941,9.443
		c-2.061-0.371-3.239-1.853-4.37-3.406C438.565,171.248,438.206,167.38,436.751,163.98z"/>
	<path fill-rule="evenodd" clip-rule="evenodd" fill="#050505" d="M246.063,115.175c-0.236-1.075-0.516-2.143-0.701-3.227
		c-0.667-3.885-7.007-7.395-1.985-11.467c4.759-3.858,10.532-4.891,16.077-0.249c2.163,1.81,4.895,2.943,7.354,4.375
		c2.843-3.989-0.643-6.521-1.648-9.376c-0.843-2.398-1.44-3.752,1.485-5.044c2.29-1.012,4.131-1.798,5.417,0.927
		c2.482,5.266,5.271,10.457,7.039,15.967c1.29,4.02-7.627,8.162-13.135,6.293c-4.138-1.404-6.839-5.65-12.028-5.88
		c-2.518,4.837,9.174,13.622-3.818,15.681C246.438,121.688,246.944,118.078,246.063,115.175z"/>
	<path fill-rule="evenodd" clip-rule="evenodd" fill="#060606" d="M378.188,112.826c-4.973-1.272-10.008-2.329-14.896-3.854
		c-12.212-3.813-14.72-11.517-7.6-22.056c1.407-2.08,2.96-3.365,5.29-3.146c8.154,0.762,15.9,3.143,22.824,7.471
		c4.039,2.524,0.91,6.779,1.301,10.219c-0.484,2.861-0.16,5.926-2.076,8.438C381.919,111.699,380.337,112.739,378.188,112.826z"/>
	<path fill-rule="evenodd" clip-rule="evenodd" fill="#050505" d="M214.707,154.785c0.095,7.079-11.667,23.475-16.155,22.982
		c-7.133-0.78-13.663-3.798-15.425-11.503c-1.287-5.631,12.106-23.516,16.521-22.396
		C206.26,145.544,212.479,148.646,214.707,154.785z"/>
	<path fill-rule="evenodd" clip-rule="evenodd" fill="#070707" d="M199.261,184.808c-0.593,2.656-1.785,3.568-4.096,4.71
		c-5.592,2.761-9.996,6.953-3.719,13.484c1.604,1.668,1.324,4.034-0.026,4.896c-6.869,4.398-12.088-2.464-18.294-3.136
		c-3.577-0.388-5.182-2.218-3.563-6.064c1.283-3.049,2.095-6.292,3.142-9.44c4.294-12.915,14.706-15.734,25.129-6.761
		C198.562,183.124,198.898,184.202,199.261,184.808z"/>
	<path fill-rule="evenodd" clip-rule="evenodd" fill="#070707" d="M439.594,152.991c-0.741-0.011-1.478,0.057-2.206,0.201
		c-11.188,0.17-16.24-8.465-21.97-15.759c-3.108-3.961-0.669-7.908,2.569-10.66c3.718-3.157,7.052-9.216,12.882-6.067
		c6.103,3.296,10.942,8.637,14.731,14.637c2.231,3.536,1.224,6.955-2.334,8.189c-3.375,1.176-4.766-2.114-5.539-4.988
		c-0.258-0.959,0.105-2.51-0.439-2.889c-3.111-2.162-3.987-8.011-9.109-6.503c-2.114,0.624-4.906,3.305-5.088,5.266
		c-0.43,4.545,3.979,8.682,6.9,8.888C436.905,143.797,438.124,148.095,439.594,152.991z"/>
	<path fill-rule="evenodd" clip-rule="evenodd" fill="#090909" d="M288.51,107.409c-6.412-0.156-12.112-11.755-9.657-18.975
		c1.786-5.248,23.111-10.475,26.584-6.357c1.061,1.255,1.916,3.615,1.459,5.008c-0.796,2.434-3.672,2.503-5.628,1.849
		c-5.657-1.89-10.949-1.797-14.497,3.328c-0.929,1.343,0.35,6.196,1.771,6.829c5.517,2.446,10.507,0.693,14.734-3.781
		c1.717-1.815,4.741-3.356,6.397-0.219c1.409,2.67,0.757,5.813-2.405,7.572C301.334,105.966,294.686,106.419,288.51,107.409z"/>
	<path fill-rule="evenodd" clip-rule="evenodd" fill="#070707" d="M177.723,239.993c-4.503-1.365-12.7,1.555-13.093-4.158
		c-0.496-7.205-1.027-15.551,3.106-22.439c2.305-3.84,6.612-2.665,10.133-1.987c4.119,0.796,5.888,3.55,5.92,7.963
		c0.037,5.3-0.119,9.854,3.237,15.618C191.128,242.033,181.542,238.653,177.723,239.993z"/>
	<path fill-rule="evenodd" clip-rule="evenodd" fill="#060606" d="M477.501,230.782c2.13,0.936,6.753-3.251,7.48,2.438
		c0.824,6.398-4.682,3.969-7.694,4.728c-5.262,1.323-11.889,4.233-15.029-1.812c-3.493-6.711-4.642-14.745-2.976-22.482
		c0.755-3.504,18.222-8.036,20.906-5.635c0.924,0.825,1.283,2.666,1.293,4.047c0.018,4.034-3.254,3.195-5.6,3.284
		c-7.33,0.277-12.13,1.925-9.417,11.202C468.468,233.405,473.052,230.502,477.501,230.782z"/>
	<path fill-rule="evenodd" clip-rule="evenodd" fill="#0A0A0A" d="M222.856,136.829c2.928-8.118-8.574-16.153,2.579-23.191
		c2.272,6.791,4.375,13.294,6.629,19.742c2.43,6.951-3.228,11.258-7.203,10.941c-7.424-0.591-14.62-4.285-21.854-6.854
		c-1.904-0.676-1.35-2.192-0.337-3.423c1.685-2.044,3.45-3.935,6.517-2.697C213.608,133.132,218.039,134.899,222.856,136.829z"/>
	<path fill-rule="evenodd" clip-rule="evenodd" fill="#070707" d="M338.788,89.147c0.012,1.311,0.024,2.62,0.033,3.931
		c0.291,1.69-4.041,0.884-1.957,2.994c1.597,1.612,3.578,2.661,2.574,5.233c-0.813,2.073-2.875,1.812-4.664,1.963
		c-1.475,0.125,0.375,0.025-1.096-0.021c-23.816-0.771-20.293,5.243-19.771-23.026c7.104-2.782,14.483-0.665,21.714-1.198
		c1.978-0.147,3.717,0.629,4.122,2.768c0.296,1.526-0.589,2.74-1.822,3.73C336.474,86.68,336.88,88.209,338.788,89.147z"/>
	<path fill-rule="evenodd" clip-rule="evenodd" fill="#121212" d="M387.68,104.365c3.849-1.833,2.669-10.308,8.239-8.26
		c6.688,2.456,12.937,6.845,18.381,11.549c1.956,1.692-1.563,4.015-4.4,4.143c-2.205,0.156-4.066-0.868-5.854-1.688
		c-0.789-1.106,1.074-0.896-0.313-0.441c-0.682,0.225-0.416,0.862,0.499,0.841c1.438,0.713,2.763,1.449,3.692,2.728
		c2.612,4.359,1.048,7.774-3.522,5.551c-5.997-2.914-10.882-7.256-17.058-0.742c-0.295,0.31-2.928-1.604-4.473-2.481
		c-1.424-2.526-0.226-4.761,0.783-7.014C384.53,106.705,385.935,105.372,387.68,104.365z"/>
	<path fill-rule="evenodd" clip-rule="evenodd" fill="#F5F5F5" d="M303.352,379.5c0.553-0.069,1.103-0.064,1.655,0.017
		c4.844,6.539,3.69,13.255,0.586,20.031c-2.838-1.613-1.859-7.125-6.765-6.619c-2.69,2.303-5.756,2.292-8.96,1.465
		c-9.51-5.132-6.684-12.031-2.73-19.088c2.34-2.474,5.341-2.412,8.387-2.169C299.222,373.91,301.503,376.441,303.352,379.5z"/>
	<path fill-rule="evenodd" clip-rule="evenodd" fill="#CBCBCB" d="M314.606,80.108c-0.024,1.107-0.064,2.217-0.07,3.323
		c-0.088,20.927,2.982,23.063,25.278,16.797c-5.269-5.98-12.996-0.206-20.237-6.08c7.756-0.431,13.504-0.751,19.244-1.07
		c3.916,6.966,4.25,11.332-6.079,11.479c-21.827,0.314-25.252-4.036-18.978-26.049c0.086-0.294,0.525-0.487,0.8-0.728
		c0.778,0.502,1.042,1.016,0.796,1.538C315.112,79.844,314.86,80.108,314.606,80.108z"/>
	<path fill-rule="evenodd" clip-rule="evenodd" fill="#181818" d="M455.484,272.438c19.163,5.126,19.163,5.126,11.687,20.015
		c-4.547-5.038-4.547-5.038-11.775-5.109C458.573,283.289,464.063,279.921,455.484,272.438z"/>
	<path fill-rule="evenodd" clip-rule="evenodd" fill="#0E0E0E" d="M183.79,275.174c2.955,3.64,5.822,1.031,8.709-0.123
		c0.751-0.727,1.375-0.628,1.871,0.29c-0.898,8.068-2.463,15.729-12.336,17.906c-0.186-4.355-3.094-8.02-7.934-10.151
		c0.153-0.281,0.242-0.715,0.475-0.814c0.658-0.28,1.375-0.423,2.068-0.62C181.311,282.015,178.627,274.272,183.79,275.174z"/>
	<path fill-rule="evenodd" clip-rule="evenodd" fill="#171717" d="M276.924,368.054c-0.729,0.002-1.49-0.135-2.18,0.031
		c-4.033,0.961-8.054-7.675-11.54-0.824c-2.946,5.787,6.67,3.688,6.881,9.008c-3.973,3.137-7.361-3.961-11.241-1.24
		c-4.022-0.02-3.161-2.234-2.052-4.559c0.68-4.44,5.603-9.204-1.646-13.668c7.922,2.977,15.938,3.723,21.557,9.872
		C276.777,367.132,276.85,367.594,276.924,368.054z"/>
	<path fill-rule="evenodd" clip-rule="evenodd" fill="#0C0C0C" d="M248.66,124.32c-3.037,6.793-6.413,7.183-10.332,0.636
		c-1.509-2.523-3.642-4.724-4.842-7.365c-1.22-2.691-7.19-5.07-1.327-8.763c5.226-3.291,5.881,2.267,8.128,4.544
		c1.265,1.283,2.19,2.901,3.27,4.367C246.37,119.068,247.818,121.458,248.66,124.32z"/>
	<path fill-rule="evenodd" clip-rule="evenodd" fill="#E7E7E7" d="M398.79,348.479c2.125-3.396,4.584-6.342,8.965-6.737
		c0.793,0.05,1.584,0.104,2.377,0.157c1.939,6.461,12.717,8.11,9.476,17.398c-4.072,2.244-7.067-0.551-10.323-2.169
		c-3.24-2.455-7.428-3.382-10.365-6.339C398.876,350.021,398.831,349.251,398.79,348.479z"/>
	<path fill-rule="evenodd" clip-rule="evenodd" fill="#C1C1C1" d="M314.606,80.108c-0.015-0.776-0.028-1.552-0.042-2.327
		c5.753,0.011,11.526,0.296,17.264-0.026c9.747-0.553,11.736,3.262,6.96,11.393c-5.694-0.355-11.389-0.711-19.373-1.209
		c7.152-6.021,14.361-1.263,22.26-6.554C331.101,79.364,322.893,79.411,314.606,80.108z"/>
	<path fill-rule="evenodd" clip-rule="evenodd" fill="#1E1E1E" d="M321.103,382.153c5.871-4.377,5.871-4.377,9.436,7.389
		c1.091,2.979-0.38,3.739-3.021,3.473c-7.344-4.197-9.116,6.221-15.044,5.738c-0.003-0.385-0.006-0.77-0.009-1.153
		c2.822-4.476,0.73-12.132,8.63-13.315c0.485,0.817,0.983,0.853,1.177,0.029C322.497,383.333,321.704,382.763,321.103,382.153z"/>
	<path fill-rule="evenodd" clip-rule="evenodd" fill="#C9C8C9" d="M292.591,364.078c9.448-1.577,18.953,6.392,28.374-0.17
		c1.011-1.177,2.349-1.601,3.843-1.664c0.975,0.081,1.894,0.347,2.756,0.813c0.299,0.381,0.597,0.764,0.893,1.148
		c6.115,4.387,13.02,1.003,19.484,1.973C329.338,369.47,310.798,371.185,292.591,364.078z"/>
	<path fill-rule="evenodd" clip-rule="evenodd" fill="#0A0A0A" d="M421.479,360.626c-1.166-7.828-11.389-10.171-11.348-18.727
		c3.383,0.168,4.939,2.979,6.871,5.033c5.293,5.619,9.525,15.089,19.553,3.072c-4.039,5.841-5.733,11.988-13.021,11.911
		C421.778,363.196,421.601,361.957,421.479,360.626z"/>
	<path fill-rule="evenodd" clip-rule="evenodd" fill="#CBCBCB" d="M341.279,111.125c-18.056-1.519-35.707,1.842-53.423,4.439
		C305.163,108.044,322.975,106.59,341.279,111.125z"/>
	<path fill-rule="evenodd" clip-rule="evenodd" fill="#373737" d="M312.464,397.6c0.261,0.384,0.265,0.768,0.009,1.153
		c-2.294,0.264-4.587,0.529-6.88,0.795c-0.195-6.678-0.393-13.356-0.586-20.031c1.086-2.359,2.605-4.165,5.428-4.414
		C313.09,382.501,306.76,390.592,312.464,397.6z"/>
	<path fill-rule="evenodd" clip-rule="evenodd" fill="#EBEBEB" d="M382.433,379.72l-0.814-0.279
		c-5.909,1.139-11.71,0.098-17.516-0.843c-1.613-1.04-2.082-2.59-1.935-4.399c2.426-7.984,10.624-1.787,14.628-5.931l-0.258,0.208
		C382.501,370.128,384.516,373.851,382.433,379.72z"/>
	<path fill-rule="evenodd" clip-rule="evenodd" d="M345.499,399.177c-8.199,2.281-11.087-1.672-10.979-9.273
		c0.07-4.787,0.012-9.576,0.869-14.435c3.774,5.256,3.54,11.256,3.728,17.162C339.082,396.919,345.843,394.585,345.499,399.177z"/>
	<path fill-rule="evenodd" clip-rule="evenodd" fill="#CBCBCB" d="M454.3,262.038c0.031-15.505,0.066-31.01,0.1-46.513
		C457.887,231.04,458.007,246.542,454.3,262.038z"/>
	<path fill-rule="evenodd" clip-rule="evenodd" fill="#CBCBCB" d="M196.832,210.999c-1.204,14.769-2.953,29.514-2.028,44.382
		C190.375,240.354,191.659,225.588,196.832,210.999z"/>
	<path fill-rule="evenodd" clip-rule="evenodd" fill="#111111" d="M245.934,357.657c4.284,10.153-9.411,7.963-9.023,16.83
		c-4.558-7.42,2.452-10.068,2.066-14.581c-1.184-4.161,2.12-4.429,4.652-5.367C245.501,354.761,246.815,355.397,245.934,357.657z"/>
	<path fill-rule="evenodd" clip-rule="evenodd" fill="#282828" d="M288.276,375.19c-0.961,6.137-6.063,12.691,1.809,17.938
		c0.26,2.21-0.406,3.293-2.786,2.279c-8.865-6.072-7.614-13.065-1.867-20.471C286.475,373.954,287.422,374.038,288.276,375.19z"/>
	<path fill-rule="evenodd" clip-rule="evenodd" fill="#1B1B1B" d="M421.479,360.626c0.684,0.429,1.369,0.857,2.055,1.29
		c0.695,3.813-0.902,5.11-4.137,3.087c-3.182-1.996-6-2.434-9.037-0.074c-0.961-0.488-1.669-1.232-2.178-2.181
		c-0.851-1.966-1.407-3.996-1.264-6.171c0.621-1.623,1.426-2.871,3.404-1.584C414.041,356.871,417.761,358.747,421.479,360.626z"/>
	<path fill-rule="evenodd" clip-rule="evenodd" fill="#1B1B1B" d="M363.284,377.558c6.174,0.002,12.407-0.57,18.33,1.884
		c-0.227,0.786-0.455,1.576-0.685,2.364c-0.839,0.969-0.96,2.555-2.508,2.92c-4.235-6.533-12.704,0.729-17.109-5.25
		C361.687,378.544,362.343,377.903,363.284,377.558z"/>
	<path fill-rule="evenodd" clip-rule="evenodd" fill="#0C0C0C" d="M218.998,345.907c3.606-8.729,10.122-9.439,17.957-6.515
		c0.688,0.785,1.001,1.706,0.99,2.741c0.002,1.044-0.419,1.881-1.257,2.506c-6.06-0.811-10.966,2.546-16.259,4.535
		C218.864,348.562,217.762,347.745,218.998,345.907z"/>
	<path fill-rule="evenodd" clip-rule="evenodd" fill="#141414" d="M236.789,344.396c0.072-0.891,0.146-1.783,0.216-2.677
		c0.656-0.71,1.252-0.662,1.787,0.141c4.399,2.537,0.907,8.433,4.765,11.203c0.662,0.466,0.882,0.932,0.663,1.399
		c-0.218,0.469-0.437,0.701-0.658,0.701c-1.526,1.582-3.055,3.162-4.585,4.743c-1.378,0.018-2.757,0.035-4.136,0.05
		c-0.706-0.762-1.074-1.656-1.063-2.701C235.358,353.108,235.648,348.653,236.789,344.396z"/>
	<path fill-rule="evenodd" clip-rule="evenodd" fill="#111111" d="M382.433,379.72c-0.711-4.404-3.29-7.828-5.895-11.244
		c-0.309-1.967-1.299-4.227,1.996-4.643c2.724-0.856,3.309,0.409,2.77,2.788c1.138,2.596,2.275,5.009,5.251,6.275
		c3.249,1.383,0.346,2.42-0.557,3.497c1.028,2.644-0.179,3.412-2.632,3.141L382.433,379.72z"/>
	<path fill-rule="evenodd" clip-rule="evenodd" fill="#1D1D1D" d="M410.054,363.009c0.068,0.646,0.168,1.286,0.307,1.92
		c-4.054,1.406-0.883,7.045-5.795,9.135c-1.104-4.355-2.115-8.339-3.125-12.322c0.686-1.217,1.046-2.764,2.867-2.844
		C406.793,359.47,408.601,360.991,410.054,363.009z"/>
	<path fill-rule="evenodd" clip-rule="evenodd" fill="#CBCBCB" d="M238.968,142.194c-4.141,6.071-9.244,11.176-15.314,15.313
		C226.273,149.917,231.375,144.812,238.968,142.194z"/>
	<path fill-rule="evenodd" clip-rule="evenodd" fill="#CBCBCB" d="M194.37,275.341l-0.976,0.119l-0.896-0.409
		c1.468-2.183,5.098-2.897,4.426-6.528c3.822,6.092,6.039,12.723,6.652,19.887C198.259,285.638,201.097,277.119,194.37,275.341z"/>
	<path fill-rule="evenodd" clip-rule="evenodd" fill="#3E3E3E" d="M279.604,377.555c-1.192,4.711-0.984,9.996-6.796,15.065
		c-0.904-6.83,0.793-11.215,3.911-15.329C277.768,376.441,278.729,376.528,279.604,377.555z"/>
	<path fill-rule="evenodd" clip-rule="evenodd" fill="#1B1B1B" d="M403.642,358.901c-0.733,0.946-1.466,1.895-2.201,2.84
		c-1.346-3.533-2.902-7.018-2.521-10.951c4.985-1.813,8.047,1.599,11.404,4.203c-0.854,0.617-1.702,1.234-2.555,1.852
		C406.98,358.708,404.906,357.996,403.642,358.901z"/>
	<path fill-rule="evenodd" clip-rule="evenodd" fill="#2A2A2A" d="M279.604,377.555c-0.96-0.088-1.922-0.176-2.885-0.264
		c0.067-3.079,0.137-6.158,0.205-9.237c-0.263-0.43-0.335-0.891-0.221-1.38C289.334,367.19,279.798,373.617,279.604,377.555z"/>
	<path fill-rule="evenodd" clip-rule="evenodd" fill="#111111" d="M234.692,357.435c0.049,0.84,0.099,1.681,0.148,2.521
		c-4.748,7.314-9.149,4.158-13.502-0.445c0.373-0.373,0.748-0.746,1.118-1.125C226.442,356.895,230.446,355.593,234.692,357.435z"/>
	<path fill-rule="evenodd" clip-rule="evenodd" fill="#1F1F1F" d="M376.796,368.268c-0.008,3.169-0.25,6.352-4.588,3.557
		c-3.434-2.212-5.992-0.103-8.828,1.062c-1.326-1.057-1.391-2.191-0.204-3.399C367.327,364.734,372.253,368.669,376.796,368.268z"/>
	<path fill-rule="evenodd" clip-rule="evenodd" fill="#505050" d="M288.276,375.19c-0.948-0.084-1.896-0.168-2.845-0.254
		c3.932-5.023,8.546-5.92,13.913-2.31c-0.175,1.45-1.512,1.677-2.447,2.326C294.025,375.032,291.151,375.111,288.276,375.19z"/>
	<path fill-rule="evenodd" clip-rule="evenodd" fill="#2F2F2F" d="M377.228,390.94c-5.805,3.619-10.905,3.965-16.525-3.565
		c6.191-1.03,9.716,4.188,13.893,1.43C375.669,389.272,376.948,389.489,377.228,390.94z"/>
	<path fill-rule="evenodd" clip-rule="evenodd" fill="#CBCBCB" d="M412.265,335.021c2.813-4.44,6.436-8.063,10.875-10.875
		C422.121,330.378,418.497,334.003,412.265,335.021z"/>
	<path fill-rule="evenodd" clip-rule="evenodd" fill="#191919" d="M218.998,345.907c0.715,0.852,1.429,1.703,2.144,2.555
		c3.694,3.707,2.961,7.46,0.119,11.236c0,0,0.08-0.188,0.079-0.188C216.271,355.714,215.575,351.164,218.998,345.907z"/>
	<path fill-rule="evenodd" clip-rule="evenodd" fill="#CBCBCB" d="M449.962,279.532c-0.207-6.313,1.25-12.209,4.438-17.668
		C454.471,268.142,454.331,274.368,449.962,279.532z"/>
	<path fill-rule="evenodd" clip-rule="evenodd" fill="#3C3C3C" d="M287.299,395.407c0.931-0.761,1.859-1.52,2.786-2.279
		c2.916-0.068,5.828-0.135,8.743-0.199C296.622,401.366,291.74,397.365,287.299,395.407z"/>
	<path fill-rule="evenodd" clip-rule="evenodd" fill="#FEFEFE" d="M447.979,183.663c2.764,3.379,3.859,7.358,4.197,11.61
		c-2.804,2.714-2.379-2.33-4.28-1.781c0.001,0.004-0.152-0.239-0.152-0.239c-1.553-1.988-1.315-4.404-1.599-6.699
		C446.379,185.351,446.993,184.388,447.979,183.663z"/>
	<path fill-rule="evenodd" clip-rule="evenodd" fill="#191919" d="M381.304,366.621c-0.924-0.929-1.845-1.858-2.77-2.788
		c3.34-2.914,7.048-4.935,12.373-3.891C387.703,362.171,384.507,364.396,381.304,366.621z"/>
	<path fill-rule="evenodd" clip-rule="evenodd" fill="#292929" d="M256.792,370.47c0.059,1.8,0.295,3.521,2.052,4.559
		c-1.583,2.422-0.805,6.564-5.701,7.191C251.658,377.36,254.359,373.95,256.792,370.47z"/>
	<path fill-rule="evenodd" clip-rule="evenodd" d="M363.176,369.486c0.069,1.132,0.136,2.267,0.204,3.399
		c-0.033,1.558-0.064,3.113-0.096,4.672c-0.658,0.639-1.314,1.277-1.972,1.918C356.165,375.067,359.058,372.164,363.176,369.486z"/>
	<path fill-rule="evenodd" clip-rule="evenodd" fill="#232323" d="M243.562,355.163c0.009-0.699,0.005-1.402-0.005-2.101
		c2.42-1.88,5.377-5.777,7.799-1.348c2.538,4.646-4.464,3.062-5.422,5.942C245.142,356.827,244.353,355.995,243.562,355.163z"/>
	<path fill-rule="evenodd" clip-rule="evenodd" fill="#FEFEFE" d="M447.979,183.663c-0.064,0.807-0.133,1.612-0.195,2.418
		c-4.594,2.076-2.479-3.371-4.584-4.086l0.114,0.158c-1.529-2.672-4.12-4.965-3.046-8.563c0.772-0.93,1.656-1.009,2.641-0.357
		c0.859,1.448,1.719,2.896,2.584,4.343c0.873,0.818,1.746,1.638,2.62,2.455C448.069,181.241,448.025,182.452,447.979,183.663z"/>
	<path fill-rule="evenodd" clip-rule="evenodd" fill="#383838" d="M345.499,399.177c-1.535-2.761-7.824-0.881-6.382-6.546
		c1.764,3.825,6.085,1.315,8.493,3.435c0.828,0.729,1.374,1.774,2.047,2.676C348.269,398.888,346.886,399.032,345.499,399.177z"/>
	<path fill-rule="evenodd" clip-rule="evenodd" fill="#4C4C4C" d="M183.79,275.174c-3.228,1.23-1.469,7.954-7.146,6.487
		c2.395-1.595,3.371-3.646,2.661-6.602c-0.28-1.169-0.511-3.387,1.719-2.912C182.11,272.379,182.878,274.119,183.79,275.174z"/>
	<path fill-rule="evenodd" clip-rule="evenodd" fill="#BCBCBC" d="M248.66,124.32c-2.688-1.428-4.364-3.642-5.104-6.581
		c0.834-0.855,1.671-1.711,2.506-2.564c2.433,2.117,3.583,4.886,4.056,8C250.451,124.596,249.704,124.647,248.66,124.32z"/>
	<path fill-rule="evenodd" clip-rule="evenodd" fill="#CBCBCB" d="M288.028,115.46c-3.862,3.225-8.349,4.535-13.322,4.348
		C278.23,115.548,283.081,115.358,288.028,115.46z"/>
	<path fill-rule="evenodd" clip-rule="evenodd" d="M393.468,381.422c2.391-3.352,6.107-3.89,10.461-6.105
		c-0.897,5.423-3.715,6.223-6.827,6.671C395.722,382.887,394.511,382.699,393.468,381.422z"/>
	<path fill-rule="evenodd" clip-rule="evenodd" fill="#CBCBCB" d="M205.704,184.37c0.381,4.318-0.691,8.068-4.241,10.852
		C201.192,190.944,202.395,187.245,205.704,184.37z"/>
	<path fill-rule="evenodd" clip-rule="evenodd" fill="#CBCBCB" d="M381.054,122.026c-4.318,0.379-8.072-0.694-10.853-4.242
		C374.481,117.513,378.181,118.716,381.054,122.026z"/>
	<path fill-rule="evenodd" clip-rule="evenodd" fill="#CBCBCB" d="M354.428,113.151c-4.47-0.535-9.431,2.027-13.321-2.126
		C345.521,111.892,350.499,109.21,354.428,113.151z"/>
	<path fill-rule="evenodd" clip-rule="evenodd" fill="#CBCBCB" d="M194.705,255.208c4.222,3.902,1.431,9.009,2.318,13.485
		C192.803,264.791,195.593,259.682,194.705,255.208z"/>
	<path fill-rule="evenodd" clip-rule="evenodd" fill="#CBCBCB" d="M372.333,359.432c2.867-3.333,6.578-4.506,10.85-4.242
		C380.397,358.739,376.649,359.81,372.333,359.432z"/>
	<path fill-rule="evenodd" clip-rule="evenodd" fill="#CBCBCB" d="M272.579,357.409c4.275-0.266,7.983,0.909,10.85,4.242
		C279.112,362.027,275.36,360.958,272.579,357.409z"/>
	<path fill-rule="evenodd" clip-rule="evenodd" fill="#EEEEEE" d="M442.909,173.232l-0.859,0.024l-0.854-0.057
		c-2.461,1.592-3.242-0.629-4.415-1.948c-0.046-0.83-0.091-1.659-0.136-2.489c0.031-1.595,0.068-3.189,0.105-4.782
		C438.803,167.063,440.854,170.147,442.909,173.232z"/>
	<path fill-rule="evenodd" clip-rule="evenodd" fill="#FEFEFE" d="M321.103,382.153c2.855,1.387,3.93,3.762,3.588,6.791
		c-0.027,0.259-1.305,0.705-1.818,0.529c-2.742-0.926-2.168-3.113-1.778-5.189C321.138,383.573,321.14,382.863,321.103,382.153z"/>
	<path fill-rule="evenodd" clip-rule="evenodd" fill="#0C0C0C" d="M377.228,390.94c-0.879-0.712-1.754-1.426-2.633-2.136
		c1.277-1.36,2.553-2.722,3.827-4.079c0.837-0.973,1.671-1.947,2.508-2.92C381.955,385.767,381.716,389.215,377.228,390.94z"/>
	<path fill-rule="evenodd" clip-rule="evenodd" fill="#1E1E1E" d="M393.468,381.422c1.213,0.188,2.421,0.378,3.634,0.565
		c-2.638,2.428-5.309,4.773-9.315,4.045c-1.209-1.698-1.313-3.333,0.263-4.879C389.858,381.243,391.663,381.334,393.468,381.422z"/>
	<path fill-rule="evenodd" clip-rule="evenodd" fill="#FEFEFE" d="M407.925,113.235c-1.935-0.023-3.598-0.55-4.521-2.444
		c-0.631-0.622-0.818-1.215-0.563-1.784c0.252-0.556,0.489-0.832,0.717-0.832c2.113,1.206,4.227,2.415,6.342,3.622
		C409.241,112.276,408.583,112.757,407.925,113.235z"/>
	<path fill-rule="evenodd" clip-rule="evenodd" fill="#CBCBCB" d="M347.763,366.281c3.041-3.854,7.297-1.696,11.012-2.216
		C355.735,367.948,351.428,365.517,347.763,366.281z"/>
	<path fill-rule="evenodd" clip-rule="evenodd" fill="#CBCBCB" d="M270.025,122.221c-2.154,2.891-5.122,4.124-8.638,4.241
		C263.008,122.479,266.315,121.938,270.025,122.221z"/>
	<path fill-rule="evenodd" clip-rule="evenodd" fill="#232323" d="M327.517,393.015c1.008-1.157,2.016-2.316,3.021-3.473
		c2.65,2.638,2.6,5.771,1.636,9.511C328.494,398.536,329.033,394.917,327.517,393.015z"/>
	<path fill-rule="evenodd" clip-rule="evenodd" fill="#080808" d="M296.897,374.953c0.816-0.773,1.632-1.55,2.447-2.326
		c3.439,1.065,5.181,3.118,4.007,6.873C299.968,379.734,299.44,375.913,296.897,374.953z"/>
	<path fill-rule="evenodd" clip-rule="evenodd" fill="#D6D6D6" d="M387.68,104.365c-0.743,1.497-1.485,2.994-2.227,4.491
		c-1.28,1.246-2.566,1.358-3.851,0.002c1.17-2.465,2.338-4.932,3.506-7.398C385.966,102.428,386.824,103.396,387.68,104.365z"/>
	<path fill-rule="evenodd" clip-rule="evenodd" fill="#D6D6D6" d="M381.603,108.858c1.284,0,2.567-0.002,3.851-0.002
		c-0.861,2.236-1.72,4.47-2.581,6.706c-1.561-0.912-3.125-1.825-4.684-2.736C379.327,111.504,380.466,110.181,381.603,108.858z"/>
	<path fill-rule="evenodd" clip-rule="evenodd" fill="#1E1E1E" d="M388.049,381.153c-0.085,1.625-0.175,3.251-0.263,4.879
		c-3.045-1.098-3.256-4.123-4.42-6.498c0.877-1.048,1.754-2.094,2.632-3.141C387.782,377.508,387.932,379.323,388.049,381.153z"/>
	<path fill-rule="evenodd" clip-rule="evenodd" fill="#282828" d="M238.792,341.859c-0.599-0.029-1.194-0.075-1.787-0.138
		c-0.015-0.777-0.032-1.555-0.05-2.329c0.738,0.042,1.477,0.088,2.216,0.132l0.018,0.055
		C239.056,340.339,238.923,341.099,238.792,341.859z"/>
	<path fill-rule="evenodd" clip-rule="evenodd" fill="#6600CB" d="M325.576,364.415c-1.535-0.166-3.07-0.332-4.608-0.504
		c-25.273-14.751-50.557-29.479-75.79-44.288c-2.134-1.253-3.942-3.058-5.903-4.605c-2.774-15.158-0.466-30.452-1.226-45.663
		c-0.382-7.621,0.887-15.295-0.771-22.871c-0.674-2.289-0.18-4.404,0.973-6.418c21.811-3.26,43.725-1.119,65.594-1.302
		c1.416,0.005,2.831,0.022,4.247,0.024c5.542,0.602,11.56-1.119,16.321,3.322c2.757,4.323,2.092,9.207,2.115,13.926
		c0.088,21.282,0.029,42.569,0.047,63.855c0.002,4.404-0.073,8.816,1.468,13.053C328.169,343.506,331.411,354.321,325.576,364.415z"
		/>
	<path fill-rule="evenodd" clip-rule="evenodd" fill="#6600CB" d="M326.312,155.088c25.811-0.004,51.629,0.427,77.422-0.247
		c9.074-0.235,10.904,2.764,10.723,11.14c-0.549,25.429-0.248,50.875-0.279,76.315c-2.922,2.662-6.582,2.965-10.23,2.965
		c-18.547,0-37.103,0.602-55.617-0.321c-1.18-0.085-2.368-0.308-3.514-0.598c-5.136-1.966-10.427-2.296-15.83-1.247
		c-1.08,0.1-2.132-0.041-3.156-0.393c-0.355-0.395-0.71-0.799-1.064-1.195c-0.604-0.875-1.035-1.833-1.322-2.858
		c-0.057-6.216-2.297-12.058-3.216-18.131c0.703-3.351,2.825-6.313,2.687-9.899c0.053-1.955,0.073-3.904,0.026-5.857
		c-0.018-2.973-0.782-5.835-1.301-8.734c-0.134-0.998-0.124-1.999-0.04-3c0.486-2.932,1.418-5.795,1.364-8.819
		c-0.052-1.024-0.034-2.04-0.018-3.063c-0.023-2.105-0.042-4.203-0.073-6.31c-0.063-2.217-0.074-4.427-0.105-6.646
		c-0.117-2.346-0.044-4.681,0.155-7.021C323.297,158.718,323.765,156.317,326.312,155.088z"/>
	<path fill-rule="evenodd" clip-rule="evenodd" fill="#FDFD01" d="M390.044,328.271c-20.969,11.232-41.939,22.462-61.596,35.936
		c0.008-0.001-0.359-0.702-0.359-0.702c-2.998-12.568-0.387-25.437-2.105-38.141c-1.022-7.572,5.316-8.674,11.159-8.717
		c14.679-0.112,29.362-0.563,44.038,0.245C386.859,318.554,392.139,320.548,390.044,328.271z"/>
	<path fill-rule="evenodd" clip-rule="evenodd" fill="#F8F802" d="M306.105,241.225c-22.63,0.237-45.292,2.401-67.854-1.152
		c0.318-2.989,0.635-5.974,0.953-8.955c1.09-1.314,2.467-2.157,4.137-2.526c1.62-0.332,3.258-0.429,4.904-0.446
		c2.16-0.057,4.324-0.046,6.487-0.05c2.149-0.039,4.3-0.02,6.448-0.015c2.146-0.026,4.292-0.003,6.439,0.008
		c1.605-0.046,3.213-0.023,4.82,0.005c2.14-0.013,4.28,0.018,6.42,0.018c1.613-0.053,3.226-0.037,4.839-0.016
		c2.174-0.023,4.349-0.002,6.524,0.023c2.246,0.012,4.469,0.181,6.658,0.72C302.118,231.352,307.474,233.791,306.105,241.225z"/>
	<path fill-rule="evenodd" clip-rule="evenodd" fill="#E9E902" d="M343.847,242.936c23.434-1.763,46.887-0.579,70.33-0.64
		c-0.077,2.515-0.16,5.028-0.238,7.542c-1.508,4.653-5.621,4.595-9.369,5.208c-3.561-0.176-7.093-1.411-10.717-0.38
		c-3.618,0.29-7.086-0.993-10.679-0.981c-2.073-0.031-4.14-0.055-6.208-0.053c-1.567,0.05-3.133,0.026-4.697-0.002
		c-2.08,0-4.159-0.03-6.239-0.041c-1.547,0.046-3.1,0.025-4.651,0.039c-3.115-0.051-6.211,0.926-9.35,0.252
		C347.871,251.303,343.582,248.817,343.847,242.936z"/>
	<path fill-rule="evenodd" clip-rule="evenodd" fill="#FAFAF8" d="M390.044,328.271c-0.455-4.122-3.484-6.302-6.442-8.536
		c-2.442-1.917-6.048-1.365-8.229-3.863c-1.494-1.623-2.463-3.482-2.574-5.729c0.116-2.317,0.978-4.138,3.35-4.927
		c5.286-0.66,7.688,3.356,10.7,6.503c1.737,1.815,3.973,2.089,5.772,0.151c1.615-1.736,0.428-3.514-0.863-4.834
		c-2.922-2.994-4.99-6.322-5.061-10.643c0.172-2.156,1.164-3.895,2.754-5.32c1.486-0.934,2.791-0.477,4.025,0.523
		c2.256,2.344,4.391,4.809,6.409,7.367c1.436,2.17,2.726,4.467,5.004,5.929c1.849,1.143,3.996,1.89,5.149,3.929
		c2.918,6.336-2.752,8.338-6.072,10.934C399.709,323.083,394.718,325.476,390.044,328.271z"/>
	<path fill-rule="evenodd" clip-rule="evenodd" fill="#FEFE00" d="M239.206,210.741c0.027-1.241,0.058-2.482,0.085-3.727
		c5.986-6.385,14.325-1.805,21.089-4.557c2.353-0.674,4.758-0.932,7.195-0.908c5.116,0.27,9.182,1.929,10.061,7.718
		c-0.517,3.772-4.088,4.492-6.438,6.432c-0.892,0.443-1.854,0.622-2.847,0.593c-2.693-0.678-4.975-2.582-7.877-2.682
		c-1.863-0.139-3.724-0.146-5.59-0.146c-1.449,0.048-2.894,0.037-4.344,0.03c-0.996,0.055-1.984,0.031-2.977,0.002
		c-1.523,0.005-3.033-0.105-4.533-0.373C241.466,212.796,240.196,211.989,239.206,210.741z"/>
	<path fill-rule="evenodd" clip-rule="evenodd" fill="#F9F9F9" d="M239.171,173.315c-0.032-0.854-0.068-1.707-0.101-2.562
		c-1.392-1.963-0.75-4.247-1.044-6.388c-0.998-7.257,1.188-11.266,9.383-10.061c2.876,0.425,5.865,0.067,8.791,0.067
		c1.226-0.009,2.464,0.011,3.684,0.05c1.277,0.213,2.097,0.954,2.44,2.206c0.173,1.796-0.479,3.239-1.909,4.325
		c-5.63,1.762-11.403,3.36-13.333,10.07c-1.23,1.799-2.838,3.034-5.037,3.39C240.961,174.376,240.005,174.011,239.171,173.315z"/>
	<path fill-rule="evenodd" clip-rule="evenodd" fill="#E4E412" d="M398.542,300.13c-2.999-1.694-5.879-3.499-6.608-7.261
		c1.919-2.358,4.409-3.749,7.365-4.359c2.923-0.567,5.866-0.628,8.829-0.392c2.303,0.503,4.87,0.649,5.344,3.756
		c-0.252,1.857-0.502,3.715-0.749,5.571c0.876,2.613,0.433,4.659-2.433,5.673C405.996,303.624,402.14,302.396,398.542,300.13z"/>
	<path fill-rule="evenodd" clip-rule="evenodd" fill="#989898" d="M261.036,156.067c-0.693-0.039-1.33-0.256-1.908-0.646
		c-0.77-0.507-1-0.96-0.689-1.365c0.289-0.377,0.58-0.565,0.873-0.565c18.803,0.035,37.605-0.013,56.405,0.183
		c3.525,0.036,7.39-1.443,10.591,1.414c-0.222,2.128-0.447,4.253-0.67,6.38c-0.947,1.243-2.061,1.416-3.344,0.53
		c-3.329-3.888-7.879-3.255-12.238-3.259c-12.103-0.007-24.208-0.027-36.314-0.027C269.32,158.712,264.903,158.726,261.036,156.067z
		"/>
	<path fill-rule="evenodd" clip-rule="evenodd" fill="#660098" d="M237.278,246.483c3.901,9.109,1.396,18.656,1.738,27.984
		c0.491,13.5,0.209,27.029,0.258,40.549C236.1,292.245,237.204,269.35,237.278,246.483z"/>
	<path fill-rule="evenodd" clip-rule="evenodd" fill="#C9C905" d="M413.912,269.245c-0.036,1.094-0.073,2.184-0.108,3.273
		c-1.45,2.328-3.766,2.919-6.273,3.135c-2.461,0.125-4.875-0.181-7.254-0.785c-9.468-2.344-19.217,0.071-28.716-1.66
		c-1.72-0.512-3.188-1.377-4.096-3c0.062-3.855,3.429-3.721,5.784-4.813c1.024-0.241,2.072-0.312,3.122-0.265
		c2.489,0.401,4.997,0.411,7.511,0.114c2.982,0.135,5.963,0.302,8.949-0.05c3.046,0.085,6.051,0.745,9.113,0.646
		c2.15-0.023,4.293-0.041,6.439,0.168C410.663,266.349,412.799,266.93,413.912,269.245z"/>
	<path fill-rule="evenodd" clip-rule="evenodd" fill="#373737" d="M403.339,252.856c3.584-0.834,6.535-3.889,10.6-3.014
		c0.1,2.45,0.203,4.902,0.305,7.357c-1.363,2.01-3.302,3.422-5.124,4.973c-0.797,0.605-1.679,1.036-2.624,1.353
		c-2.052,0.446-4.006,0.275-5.801-0.919c-1.535-1.455-2.386-3.247-2.623-5.345C398.165,253.812,401.692,254.46,403.339,252.856z"/>
	<path fill-rule="evenodd" clip-rule="evenodd" fill="#333333" d="M240.722,195.565c-4.387-2.225-0.436-4.316,0.104-6.461
		c2.778-2.302,5.657-1.74,8.579-0.302c2.694,2.568,3.234,5.58,1.857,8.992c-1.732,2.546-3.979,3.859-7.142,2.96
		C241.793,199.81,242.692,196.748,240.722,195.565z"/>
	<path fill-rule="evenodd" clip-rule="evenodd" fill="#CBCBCB" d="M259.312,153.491c-0.106,0.64-0.165,1.283-0.184,1.931
		c-1.436-0.002-2.871-0.011-4.307,0c-17.988,0.132-15.427-1.614-15.751,15.334c-5.302-14.954-3.604-17.576,11.396-17.514
		C253.414,153.256,256.364,153.405,259.312,153.491z"/>
	<path fill-rule="evenodd" clip-rule="evenodd" fill="#A6A623" d="M248.055,188.883c-2.371,1.372-4.808,0.579-7.231,0.219
		c-2.831-1.156-2.264-3.339-1.667-5.528c3.388-2.229,7.249-2.338,11.11-2.49c2.731,0.585,3.596,2.368,3.176,4.971
		C252.338,188.311,250.729,189.61,248.055,188.883z"/>
	<path fill-rule="evenodd" clip-rule="evenodd" fill="#464646" d="M407.306,300.854c2.963,0.705,4.432-0.965,5.412-3.409
		c2.191,4.521,0.619,8.151-2.68,11.376c-2.486-0.688-5.478,0.132-7.338-2.441C402.286,302.915,405.311,302.314,407.306,300.854z"/>
	<path fill-rule="evenodd" clip-rule="evenodd" fill="#CBCB00" d="M261.765,204.245c-7.029,4.665-15.119,0.724-22.474,2.766
		c-0.035-0.814-0.072-1.635-0.111-2.453c1.036-1.365,2.395-2.174,4.101-2.384c2.145-0.106,4.296-0.18,6.427-0.513
		c2.127-0.15,4.255-0.062,6.383,0.097c1.616,0.126,3.155,0.516,4.575,1.321C261.036,203.463,261.4,203.854,261.765,204.245z"/>
	<path fill-rule="evenodd" clip-rule="evenodd" fill="#2F2F2F" d="M413.912,269.245c-2.144-0.297-4.292-0.596-6.439-0.895
		c-0.938-1.092-1.388-2.344-1.248-3.791c0.271-0.889,0.716-1.676,1.365-2.346l0.278-0.396c2.223-1.661,4.395-1.685,6.507,0.201
		C414.222,264.427,414.069,266.836,413.912,269.245z"/>
	<path fill-rule="evenodd" clip-rule="evenodd" fill="#D2D2D2" d="M414.173,279.299c0.027,2.442,0.056,4.884,0.085,7.325
		c-1.56,1.336-3.316,1.74-5.302,1.143c-0.904-0.381-1.647-0.963-2.219-1.768c-0.898-1.863-0.895-3.753-0.167-5.669
		c0.491-0.87,1.206-1.507,2.099-1.954C410.659,277.746,412.512,277.95,414.173,279.299z"/>
	<path fill-rule="evenodd" clip-rule="evenodd" fill="#101010" d="M414.173,279.299c-2.184,0.147-4.367,0.293-6.548,0.44
		c-1.724-2.18-1.712-4.285,0.274-6.307c1.965-0.303,3.936-0.605,5.904-0.913C413.925,274.776,414.05,277.04,414.173,279.299z"/>
	<path fill-rule="evenodd" clip-rule="evenodd" fill="#303024" d="M243.283,223.12c-0.771-1.766-1.547-3.534-2.32-5.303
		c0.603-0.881,1.421-1.476,2.429-1.824c1.588-0.318,3.105-0.115,4.547,0.64c1.764,1.335,2.67,3.17,3.08,5.296
		c-0.044,1.774-0.992,2.92-2.542,3.655c-1.604,0.505-3.192,0.459-4.774-0.124c-0.858-0.384-1.201-0.859-1.041-1.426
		C242.835,223.425,243.043,223.12,243.283,223.12z"/>
	<path fill-rule="evenodd" clip-rule="evenodd" d="M239.171,173.315c0.673-0.07,1.35-0.088,2.023-0.053
		c3.393,1.433,5.383,3.824,5.248,7.668c-1.887,3.095-4.438,2.586-7.128,1.301C239.268,179.261,239.219,176.288,239.171,173.315z"/>
	<path fill-rule="evenodd" clip-rule="evenodd" fill="#CBCBCB" d="M436.781,171.252c1.468,0.648,2.942,1.298,4.413,1.948
		c0.708,2.984,1.412,5.967,2.117,8.953C438.94,179.835,437.321,175.868,436.781,171.252z"/>
	<path fill-rule="evenodd" clip-rule="evenodd" fill="#242424" d="M244.21,204.051c-1.678,0.169-3.354,0.337-5.03,0.507
		c-1.271-3.305-0.357-6.231,1.542-8.992c2.584,0.711,2.939,2.893,3.334,5.051C244.935,201.724,244.992,202.869,244.21,204.051z"/>
	<path fill-rule="evenodd" clip-rule="evenodd" fill="#CBCBCB" d="M443.2,181.995c1.527,1.365,3.055,2.732,4.584,4.093
		c-0.014,2.384-0.027,4.773-0.04,7.163C444.135,190.346,443.121,186.392,443.2,181.995z"/>
	<path fill-rule="evenodd" clip-rule="evenodd" fill="#111111" d="M407.776,286.201c2.158,0.142,4.32,0.282,6.481,0.423
		c-0.261,1.748-0.519,3.491-0.782,5.244c-1.932-0.381-3.861-0.769-5.787-1.158C406.419,289.183,406.567,287.681,407.776,286.201z"/>
	<path fill-rule="evenodd" clip-rule="evenodd" fill="#FEFE00" d="M239.314,182.231c2.122-0.77,5.079,1.186,6.461-1.986
		c2.81-1.361,4.109,0.027,4.756,2.607c-3.65,2.467-7.525,1.413-11.375,0.722C238.902,183.089,238.954,182.643,239.314,182.231z"/>
	<path fill-rule="evenodd" clip-rule="evenodd" d="M243.823,230.511c-1.539,0.201-3.08,0.402-4.619,0.606
		c-1.859-4.306-0.929-7.185,4.078-7.991c0.001-0.006-0.135,0.954-0.135,0.954l0.851,0.462
		C245.513,226.576,245.349,228.563,243.823,230.511z"/>
	<path fill-rule="evenodd" clip-rule="evenodd" fill="#111100" d="M243.515,217.587c-0.854,0.077-1.703,0.154-2.554,0.23
		c-4.564-1.369-2.313-4.433-1.755-7.076c1.538,0.26,3.078,0.518,4.615,0.777C245.523,213.634,245.264,215.649,243.515,217.587z"/>
	<path fill-rule="evenodd" clip-rule="evenodd" fill="#DDDDDD" d="M414.375,262.019c-2.168-0.068-4.339-0.134-6.507-0.201
		c-1.229-6.168,3.748-3.773,6.375-4.617C414.29,258.806,414.334,260.411,414.375,262.019z"/>
	<path fill-rule="evenodd" clip-rule="evenodd" fill="#B1B1B1" d="M461.815,198.268c-3.929-4.968-5.457-8.658-4.08-14.853
		C461.366,188.118,463.108,191.745,461.815,198.268z"/>
	<path fill-rule="evenodd" clip-rule="evenodd" fill="#F2F2F2" d="M377.083,97.626c-0.646,5.006-1.865,7.848-6.379,6.746
		c-4.338-1.061-9.989-0.929-10.593-6.761c-0.265-2.579,1.031-7.68,5.558-6.104C369.819,92.952,376.419,91.787,377.083,97.626z"/>
	<path fill-rule="evenodd" clip-rule="evenodd" fill="#F1F1F1" d="M199.252,152.49c3.199,1.066,6.953,1.745,6.843,4.923
		c-0.184,5.313-3.248,10.158-7.977,12.177c-2.416,1.034-7.254-2.04-6.97-5.308C191.58,159.292,195.08,155.303,199.252,152.49z"/>
	<path fill-rule="evenodd" clip-rule="evenodd" fill="#D7D7D7" d="M184.938,188.816c-1.748,3.222-0.939,8.159-5.124,9.96
		c-1.511,0.65-3.445-1.533-2.475-3.59c1.579-3.348,0.652-8.33,5.432-9.619C184.127,185.202,185.011,187.011,184.938,188.816z"/>
	<path fill-rule="evenodd" clip-rule="evenodd" fill="#DCDCDC" d="M175.057,217.058c2.637,5.926,3.177,10.111-0.138,14.072
		c-0.39,0.467-2.623,0.304-2.886-0.18C169.513,226.344,170.748,222.225,175.057,217.058z"/>
	<path fill-rule="evenodd" clip-rule="evenodd" fill="#FEFEFE" d="M403.558,108.175c-0.051,0.873-0.104,1.743-0.154,2.616
		c-2.557-1.079-5.32-1.881-6.813-5.603C399.92,104.476,401.753,106.287,403.558,108.175z"/>
	<path fill-rule="evenodd" clip-rule="evenodd" fill="#A5A525" d="M377.315,315.804c2.021,1.434,5.285,0.866,6.285,3.93
		c-15.775-0.086-31.558,0.057-47.322-0.367c-6.709-0.182-9.195,2.172-8.883,8.905c0.553,11.731,0.498,23.489,0.693,35.233
		c-0.837,0.303-1.675,0.603-2.513,0.908c-0.142-10.507-0.282-21.018-0.427-31.527c-0.357-5.846-2.257-11.828,1.508-17.3
		c2.133-0.7,4.508-1.001,5.795-3.269c0.961-0.271,1.919-0.291,2.886-0.054c4.286,3.322,8.367,0.668,12.503-0.435
		c4.36,2.274,8.758-0.705,13.131,0.048C366.524,312.733,372.675,311.145,377.315,315.804z"/>
	<path fill-rule="evenodd" clip-rule="evenodd" fill="#DBDBDB" d="M403.642,358.901c-0.394-4.242,1.921-3.044,4.127-2.057
		c1.585,1.75,3.268,3.465,2.285,6.164C405.534,365.358,405.312,360.996,403.642,358.901z"/>
	<path fill-rule="evenodd" clip-rule="evenodd" fill="#F7F7F7" d="M221.261,359.698c1.9-3.765-0.748-7.484-0.119-11.236
		c4.287-4.932,8.458-10.312,15.647-4.066c4.094,5.117,1.539,9.165-2.097,13.039C230.721,361.187,225.587,358.046,221.261,359.698z"
		/>
	<path fill-rule="evenodd" clip-rule="evenodd" fill="#989698" d="M262.938,273.989c2.949-6.322-8.152-6.742-5.226-13.739
		c5.667,0.581,6.118,9.356,12.434,8.456c3.445,1.892,5.597,5.389,9.035,7.254c2.331,1.669,3.873,0.585,5.111-1.516
		c1.824-2.67,2.71-5.977,5.49-7.967c6.192,0.019,10.954-3.35,15.553-6.849c1.863-1.418,3.005-5.485,5.756-3.212
		c3.046,2.515-0.053,5.485-1.754,7.601c-4.101,5.101-9.954,8.962-10.913,16.175c-4.19,3.246-7.687,6.787-5.399,12.771
		c1.777,10.431,13.701,13.698,17.122,24.196c-5.839-0.132-8.969-2.523-11.483-7.09c-1.798-3.266-3.268-7.623-8.286-7.761
		c-2.563-0.337-4.086-2.302-5.946-3.735c-2.295-1.474-4.484-0.899-6.622,0.331c-1.987,1.118-3.454,3.059-5.741,3.714
		c-5.061,6.628-13.007,6.991-22.89,10.964c7.866-8.45,13.599-14.608,19.333-20.769C275.391,283.954,265.588,280.03,262.938,273.989z
		"/>
	<path fill-rule="evenodd" clip-rule="evenodd" fill="#F6F6F5" d="M306.105,241.225c-1.112-5.332-5.276-8.198-9.132-11.314
		c0.125-1.055,0.6-1.897,1.48-2.507c4.902-2.006,11.027-1.869,13.68-7.826c0.516-0.903,1.15-1.701,1.882-2.434
		c0.915-0.535,1.896-0.827,2.957-0.859c2.234,0.407,3.893,1.457,4.294,3.889c4.303,5.714,4.455,12.316,4.068,19.033
		c-5.342,4.04-11.855-0.238-17.389,2.447C307.294,241.681,306.68,241.536,306.105,241.225z"/>
	<path fill-rule="evenodd" clip-rule="evenodd" fill="#39089B" d="M329.626,315.296c-7.328,4.377-2.743,11.786-4.477,17.59
		c-3.4-5.076-1.59-10.766-1.619-16.129c-0.14-24.702,0.082-49.402,0.172-74.105c0.219-1.614,0.881-1.822,1.988-0.627
		c0.422,0.055,0.84,0.129,1.254,0.226c2.813,5.868,1.075,12.287,2.265,18.353c0.281,2.765-0.404,5.459-0.589,8.188
		c-0.05,1.603-0.113,3.203-0.154,4.805c-0.019,2.654-0.027,5.306-0.001,7.96c0.056,1.577,0.029,3.157,0,4.733
		c0.009,2.055-0.044,4.114-0.062,6.17c-0.082,2.978,0.148,5.937,0.63,8.878c0.214,2.877,0.071,5.8,1.096,8.579
		C330.337,311.742,331.541,313.673,329.626,315.296z"/>
	<path fill-rule="evenodd" clip-rule="evenodd" fill="#C0BCC2" d="M272.067,302.618c0.196-2.943,1.221-5.178,4.611-5.378
		c3.228,8.153,6.246-0.727,9.382-0.117c1.437,1.729,2.878,3.456,4.316,5.186c-0.791,6.668-2.712,11.026-11.262,10.69
		C270.575,312.665,272.894,307.049,272.067,302.618z"/>
	<path fill-rule="evenodd" clip-rule="evenodd" fill="#C7C7C9" d="M289.782,266.478c0.394,3.691-1.389,6.436-3.864,8.878
		c-2.314,0.958-4.705,1.687-7.086,2.446c-4.965-1.055-8.081-3.877-8.685-9.098C276.061,262.413,282.456,260.351,289.782,266.478z"/>
	<path fill-rule="evenodd" clip-rule="evenodd" fill="#C9C9C9" d="M262.938,273.989c4.708,2.049,9.279,4.694,11.077,9.604
		c1.658,4.536,0.616,8.713-5.507,9.22C265.95,286.746,261.27,281.309,262.938,273.989z"/>
	<path fill-rule="evenodd" clip-rule="evenodd" fill="#C3C1C3" d="M293.024,292.963c-6.395-5.96-5.551-7.96,5.399-12.774
		C296.624,284.449,294.823,288.704,293.024,292.963z"/>
	<path fill-rule="evenodd" clip-rule="evenodd" fill="#666666" d="M325.69,242.024c-0.668,0.197-1.333,0.402-1.994,0.624
		c-5.248-0.329-10.502-0.661-15.752-0.991c5.474-3.115,11.863,0.268,17.391-2.451C325.452,240.146,325.569,241.084,325.69,242.024z"
		/>
	<path fill-rule="evenodd" clip-rule="evenodd" fill="#989698" d="M377.048,206.271c1.801,8.591,10.164,12.008,14.607,18.519
		c1.396,2.042,4.014,4.055,0.975,6.455c-3.367,2.661-4.527-1.154-5.617-2.832c-3.305-5.096-5.051-11.514-12.253-12.859
		c-6.876-5.604-13.187-6.544-18.316,2.221c-5.944,5.597-16.659,2.451-20.978,11.522c1.406-11.057,8.795-17.349,17.14-22.931
		c7.313-8.617-1.453-13.453-4.61-19.611c-0.771-2.315-1.542-4.633-2.313-6.948l-0.144,0.104c2.892,0.662,5.784,1.325,8.681,1.986
		c3.639,0.613,5.953,3.424,8.814,5.278c0.666,0.509,1.318,1.079,1.943,1.607c1.09,0.583,2.09,0.366,3.023-0.45
		c0.506-0.674,1.008-1.307,1.484-1.982c1.473-2.208,2.506-4.734,4.797-6.293c6.719-3.031,13.441-6.063,21.85-9.855
		c-3.439,10.807-13.961,15.6-14.751,25.712C376.87,198.083,375.059,201.383,377.048,206.271z"/>
	<path fill-rule="evenodd" clip-rule="evenodd" fill="#F9F9F9" d="M326.849,262.583c-1.418-6.781-1.951-13.563,0.092-20.333
		c0.004,0,0.383-0.29,0.383-0.29c5.361-1.69,10.736-1.558,16.115-0.082c0.018,0.398,0.155,0.748,0.408,1.058
		c2.958,3.325,5.912,6.651,8.867,9.978c4.797,2.14,7.916,6.289,11.646,9.707c1.724,1.791,3.675,3.425,4.419,5.945
		c-1.064,1.746,0.321,2.08,1.473,2.548c2.588,2.18,6.225,1.493,8.974,3.252c1.776,1.429,3.352,3.069,4.847,4.788
		c1.264,1.863,1.844,4.074,3.078,5.953c1.078,1.488,2.344,2.828,3.354,4.37c0.546,0.932,0.386,1.723-0.469,2.37
		c-0.362,1.111-0.722,2.221-1.083,3.332c-5.654,2.158-10.158,5.619-12.762,11.237c-0.656,1.629-1.309,3.259-1.963,4.888
		c-2.834,1.335-4.554-0.203-6.06-2.322c-1.377-2.513-3.718-4.186-5.59-6.283c-0.604-0.789-1.096-1.633-1.524-2.527
		c-0.826-1.887-1.41-3.809-0.893-5.9c0.623-1.512,1.767-2.492,3.208-3.178c6.972-2.449,8.448-5.242,2.296-11.156
		c-3.975-3.822-7.303-7.692-13.071-8.268c-0.792-0.65-1.33-1.477-1.626-2.454c0.322-4.519-0.947-8.408-4.586-11.347
		c-0.934-1.088-1.719-2.303-2.776-3.27c-1.972-1.805-4.302-3.155-6.571-0.899c-2.227,2.215-1.216,4.585,0.814,6.528
		c1.287,1.232,2.881,2.114,4.068,3.479c1.238,1.862,1.542,3.925,1.343,6.103c-0.194,1.059-0.583,2.045-1.148,2.957
		c-0.784,0.748-1.722,1.15-2.802,1.219c-3.186-0.494-5.688-2.189-7.838-4.496C329.15,267.714,329.786,263.959,326.849,262.583z"/>
	<path fill-rule="evenodd" clip-rule="evenodd" fill="#CAC0C3" d="M356.443,217.774c-0.8-6.26,3.618-10.301,8.128-10.801
		c4.32-0.481,8.525,3.582,10.188,8.582c-2.156,3.838-0.453,11.055-8.215,10.015C361.89,224.946,355.896,225.41,356.443,217.774z"/>
	<path fill-rule="evenodd" clip-rule="evenodd" fill="#C7C6C9" d="M362.692,188.825c-4.269-0.545-6.492-3.587-8.473-6.928
		c6.139-6.569,12.504-10.726,20.063-1.84c0.004,3.57-1.48,6.436-4.146,8.741C367.653,188.575,365.174,188.362,362.692,188.825z"/>
	<path fill-rule="evenodd" clip-rule="evenodd" fill="#C7C7CA" d="M347.995,186.755c5.97,1.272,8.724,6.73,11.328,10.866
		c3.637,5.776-4.758,5.448-6.718,8.745C351.444,199.743,344.007,194.593,347.995,186.755z"/>
	<path fill-rule="evenodd" clip-rule="evenodd" fill="#E3E31A" d="M325.148,182.379c-0.009,0.491,0,0.981,0.023,1.471
		c-1.019,2.052-2.96,2.505-4.945,2.897c-1.904,0.331-3.821,0.635-5.747,0.869c-2.352,0.107-4.636-0.492-6.962-0.666
		c-1.798-0.096-3.596-0.153-5.391-0.049c-1.827,0.186-3.54,0.746-5.198,1.54c-3.562,1.753-6.795,0.985-9.846-1.269
		c-1.473-1.644-2.646-3.364-1.387-5.68c1.289-1.076,2.808-1.598,4.435-1.855c1.591-0.247,3.194-0.311,4.8-0.321
		c3.655,0.003,7.305-0.06,10.841-1.193c2.623-0.626,5.252-0.713,7.894-0.13c2.036,0.475,4.049,1.074,6.125,1.408
		C321.896,179.815,323.89,180.444,325.148,182.379z"/>
	<path fill-rule="evenodd" clip-rule="evenodd" fill="#EDED16" d="M325.16,204.991c-0.041,1.82-0.083,3.638-0.124,5.455
		c-1.299,2.215-3.467,2.757-5.785,3.029c-2.296,0.197-4.569,0.052-6.818-0.492c-3.955-1.488-7.325-3.497-7.28-8.441
		c0.665-0.971,1.548-1.666,2.643-2.1c2.184-0.752,4.452-0.881,6.739-0.934c1.703-0.071,3.403-0.026,5.104,0.147
		C321.923,202.024,324.161,202.49,325.16,204.991z"/>
	<path fill-rule="evenodd" clip-rule="evenodd" fill="#303030" d="M307.23,185.041c2.816-1.382,4.857,0.481,7.06,1.678
		c1.872,0.574,3.643,1.378,5.354,2.324c1.893,0.876,2.909,2.488,3.635,4.343c0.277,0.588,0.293,1.179,0.043,1.777
		c-0.815,1.997-2.005,3.613-4.232,4.189c-1.521,0.389-3.053,0.405-4.586,0.091c-0.979-0.269-1.867-0.732-2.679-1.339
		c-1.795-2.329-3.118-4.975-4.802-7.397C306.178,188.785,305.966,186.886,307.23,185.041z"/>
	<path fill-rule="evenodd" clip-rule="evenodd" fill="#C8C8C8" d="M377.048,206.271c-2.799-0.67-5.353-2.583-3.873-5.198
		c1.537-2.724,2.76-7.896,8.209-5.161C379.938,199.368,378.493,202.819,377.048,206.271z"/>
	<path fill-rule="evenodd" clip-rule="evenodd" fill="#000010" d="M318.589,211.439c2.15-0.332,4.298-0.661,6.447-0.993
		c1.037,4.13,0.369,7.602-3.77,9.727c-1.386-0.926-2.772-1.851-4.158-2.775C315.06,214.778,317.175,213.196,318.589,211.439z"/>
	<path fill-rule="evenodd" clip-rule="evenodd" fill="#1C1C0D" d="M323.278,193.386c-1.563-0.869-3.123-1.74-4.689-2.611
		c-1.259-1.913-1.536-3.812,0.081-5.684c2.169-0.414,4.334-0.827,6.502-1.241C326.602,187.438,325.083,190.441,323.278,193.386z"/>
	<path fill-rule="evenodd" clip-rule="evenodd" fill="#1C1C1C" d="M318.247,197.925c1.691-0.919,3.385-1.837,5.074-2.76
		c1.914,3.03,3.369,6.148,1.839,9.826c-2.194-0.397-4.389-0.796-6.585-1.194C317.091,201.919,316.927,199.962,318.247,197.925z"/>
	<path fill-rule="evenodd" clip-rule="evenodd" fill="#2F2F2F" d="M324.315,161.218c0.42,0.202,0.856,0.286,1.32,0.252
		c-0.143,2.465-0.287,4.936-0.43,7.403c-1.398,1.253-3.029,1.597-4.845,1.246c-1.177-0.386-2.039-1.134-2.598-2.238
		c-0.796-2.444-0.613-4.683,1.374-6.544C320.842,160.479,322.575,160.594,324.315,161.218z"/>
	<path fill-rule="evenodd" clip-rule="evenodd" fill="#101000" d="M325.148,182.379c-2.138-0.364-4.271-0.728-6.406-1.093
		c-1.646-2.069-1.404-4.1,0.118-6.109c1.969-1.536,4.041-1.791,6.235-0.488C325.114,177.252,325.131,179.815,325.148,182.379z"/>
	<path fill-rule="evenodd" clip-rule="evenodd" fill="#847A8E" d="M325.096,174.688c-2.124,0.241-4.247,0.481-6.37,0.723
		c-0.146-0.423-0.292-0.846-0.442-1.269c0.144-2.459,1.31-4.21,3.595-5.183c1.108-0.03,2.222-0.061,3.328-0.089
		C325.169,170.813,325.132,172.752,325.096,174.688z"/>
	<path fill-rule="evenodd" clip-rule="evenodd" fill="#330098" d="M343.438,241.878c-5.365,0.025-10.731,0.051-16.105,0.079
		C332.678,238.618,338.048,238.487,343.438,241.878z"/>
	<path fill-rule="evenodd" clip-rule="evenodd" fill="#838391" d="M345.683,179.807c-2.555-0.373-5.186-0.806-4.535-4.353
		c0.422-2.313,2.634-2.693,4.119-1.934c3.378,1.729,0.029,4.232,0.272,6.391L345.683,179.807z"/>
	<path fill-rule="evenodd" clip-rule="evenodd" fill="#F9F9F8" d="M285.919,182.604c0.662,1.146,1.324,2.293,1.986,3.438
		c1.213,1.253,1.587,2.688,0.94,4.341c-5.341,4.253-7.487-0.681-10.29-3.614c-1.883-1.972-3.979-3.629-6.529-1.474
		c-2.53,2.139-1.171,4.362,0.328,6.667c7.122,10.942,10.795,10.889,16.835-0.414c1.698-2.45,3.537-0.961,5.358-0.208
		c2.084,1.379,3.749,3.262,5.709,4.8c1.582,1.224,3.299,2.318,4.26,4.182c0.502,1.561,0.181,3.018-0.549,4.427
		c-0.693,0.765-1.498,1.394-2.379,1.926c-5.435,2.904-9.497,5.838-3.039,12.082c3.073,2.976,4.112,6.962-0.688,9.96
		c-0.397,0.328-0.691,0.727-0.889,1.194c-2.135,0.094-4.269,0.188-6.404,0.282c-2.406-1.359-4.455-3.229-6.785-4.717
		c-0.725-0.65-1.256-1.429-1.594-2.34c-0.285-2.939-1.357-5.465-3.802-7.289c-1.312-1.719-1.521-3.627-0.999-5.664
		c-2.304-3.066-4.168-6.773-8.99-6.165c-2.635-1.92-5.06-4.102-7.61-6.136c-2.357-4.188-7.426-6.535-8.084-11.871
		c-0.438-1.253-0.27-2.924-2.176-3.16c-1.584-0.869-3.168-1.737-4.754-2.605c-3.313-1.155-1.782-5.489-4.581-6.982
		c1.284-0.761,2.568-1.521,3.852-2.279c4.228,0.02,7.682,1.868,10.548,4.78c2.104,2.139,4.192,4.622,7.282,2.19
		c3.475-2.734,0.572-4.942-1.12-7.207c-2.407-3.222-4.595-6.567-2.617-10.873c0.759-0.699,1.518-1.399,2.275-2.099
		c4.747-1.394,6.867,2.845,10.112,4.681c2.203,1.839,4.203,3.887,6.054,6.079c1.618,2.91,4.34,4.784,6.687,7.022
		C285.866,177.663,286.112,180.082,285.919,182.604z"/>
	<path fill-rule="evenodd" clip-rule="evenodd" fill="#B1B1AE" d="M255.195,211.582c1.743-0.02,3.486-0.041,5.228-0.061
		c3.362,0.953,4.586,4.082,6.569,6.452c1.764,5.902-2.054,9.178-5.866,12.457c-1.979,0.041-3.96,0.082-5.94,0.123
		c-2.308-1.09-2.268-3.076-1.988-5.154c0.53-2.133,2.528-4.037,0.985-6.5c-0.472-0.826-0.797-1.694-1.045-2.605
		C252.972,214.352,252.878,212.437,255.195,211.582z"/>
	<path fill-rule="evenodd" clip-rule="evenodd" fill="#212110" d="M261.126,230.431c-2.746-5.385,6.984-6.658,3.994-12.121
		c-0.539-2.514,0.685-3.517,3.04-3.542c0.562,0.394,1.153,0.452,1.78,0.179c1.899-0.591,2.937,0.479,3.768,1.951
		c0.535,1.517,0.55,3.051,0.131,4.593c-1.45,3.177-3.159,6.199-5.674,8.693C265.82,230.267,263.474,230.349,261.126,230.431z"/>
	<path fill-rule="evenodd" clip-rule="evenodd" fill="#3D3D2F" d="M254.817,224.86c0.121,1.897,0.243,3.796,0.365,5.693
		c-2.516-0.002-5.033-0.004-7.553-0.004c-1.4-1.877-1.639-3.828-0.386-5.881c0.948-0.775,1.897-1.551,2.847-2.327
		c0.186-2.006,0.405-3.997,2.17-5.369c0.99-0.416,1.886-0.238,2.693,0.451l-0.178-0.083
		C256.566,219.837,256.487,222.345,254.817,224.86z"/>
	<path fill-rule="evenodd" clip-rule="evenodd" fill="#3F3F2E" d="M283.564,223.952c5.688-1.682,7.441,1.051,7.005,6.24
		c-2.717,0.002-5.436,0.006-8.153,0.009C281.408,227.863,281.598,225.744,283.564,223.952z"/>
	<path fill-rule="evenodd" clip-rule="evenodd" fill="#46463A" d="M278.783,229.821c-2.33,0.926-4.675,1.459-7.103,0.347
		c-1.384-2.11-1.102-4.153,0.236-6.159c1.398-0.969,2.898-1.623,4.652-1.504c1.135,0.171,2.135,0.635,3.011,1.375
		C280.788,226.059,280.998,228.104,278.783,229.821z"/>
	<path fill-rule="evenodd" clip-rule="evenodd" fill="#FEFEFE" d="M272.237,223.435c-0.186,2.244-0.371,4.489-0.557,6.733
		c-1.172,0.005-2.343,0.011-3.516,0.018c-1.022-3.991,0.856-6.468,4.249-8.155C272.354,222.498,272.296,222.966,272.237,223.435z"/>
	<path fill-rule="evenodd" clip-rule="evenodd" fill="#FEFEFE" d="M247.244,224.669c0.129,1.961,0.259,3.922,0.388,5.881
		c-1.27-0.014-2.539-0.023-3.809-0.039c0.06-1.991,0.117-3.98,0.175-5.969C245.081,224.585,246.163,224.628,247.244,224.669z"/>
	<path fill-rule="evenodd" clip-rule="evenodd" fill="#CBCBCB" d="M278.783,229.821c-0.991-1.92-0.452-3.681,0.568-5.389
		c0.508-0.745,1.196-1.218,2.088-1.385c0.899,0.074,1.647,0.449,2.242,1.127l-0.117-0.223c-0.382,2.084-0.765,4.166-1.147,6.249
		C281.206,230.075,279.994,229.947,278.783,229.821z"/>
	<path fill-rule="evenodd" clip-rule="evenodd" fill="#333333" d="M392.347,266.649c-3.021,3.922-5.751,1.344-8.521-0.381
		c-0.902-0.492-1.483-1.237-1.746-2.228c-0.236-2.935-0.592-5.859-0.768-8.804c0.063-1.539,0.591-2.909,1.543-4.121
		c4.195-2.553,7.444,2.261,11.418,1.467c1.891,0.659,2.97,1.977,3.205,3.97c-0.023,1.812-0.682,3.439-1.483,5.021
		c-0.551,1.139-1.179,2.246-1.884,3.303C393.533,265.476,392.942,266.063,392.347,266.649z"/>
	<path fill-rule="evenodd" clip-rule="evenodd" fill="#333333" d="M383.086,254.726c0.252,3.178,2.438,6.304,0.233,9.538
		c-1.709,1.964-4.162,2.101-6.449,2.643c-0.764-0.081-1.525-0.158-2.287-0.239c-3.415,0.775-4.939-1.379-6.191-3.971
		c-0.66-2.08-0.625-4.181-0.137-6.287c0.414-2.083,1.801-3.631,2.971-5.301c2.166,0.001,4.331,0.004,6.498,0.006
		C378.967,253.125,381.023,253.929,383.086,254.726z"/>
	<path fill-rule="evenodd" clip-rule="evenodd" fill="#A5A5A5" d="M363.55,264.054c-4.166-3.178-8.191-6.488-10.838-11.143
		c2.438-1.731,5.021-2.787,8.063-1.799c3.16,2.165,3.943,5.879,5.822,8.891C366.697,262.19,366.839,264.417,363.55,264.054z"/>
	<path fill-rule="evenodd" clip-rule="evenodd" fill="#595959" d="M365.701,260.134c-6.401-0.408-4.452-5.375-4.923-9.021
		c1.848,0.002,3.693,0.002,5.539,0.004c1.301,1.57,3.393,2.492,3.861,4.739c0.014,1.913,0.022,3.826,0.035,5.739
		C367.784,263.968,366.997,261.259,365.701,260.134z"/>
	<path fill-rule="evenodd" clip-rule="evenodd" fill="#3D3D33" d="M396.667,257.288c-0.799-1.567-1.599-3.137-2.395-4.705
		c3.143-3.963,6.116-2.252,9.066,0.273c-1.491,1.481-2.98,2.967-4.473,4.447C398.128,257.95,397.395,257.977,396.667,257.288z"/>
	<path fill-rule="evenodd" clip-rule="evenodd" fill="#DDDDDD" d="M383.086,254.726c-4.509,2.84-5.653,0.678-5.362-3.611
		c1.707,0.002,3.42,0.002,5.131,0.002C382.933,252.321,383.009,253.523,383.086,254.726z"/>
	<path fill-rule="evenodd" clip-rule="evenodd" fill="#DDDDDD" d="M370.179,255.855c-3.527,0.246-4.267-1.781-3.861-4.741
		c1.639-0.002,3.271-0.005,4.908-0.006C370.876,252.69,370.53,254.273,370.179,255.855z"/>
	<path fill-rule="evenodd" clip-rule="evenodd" fill="#9C9C9C" d="M376.19,306.416c-0.367-10.13,2.876-12.984,12.762-11.237
		c1.26,3.5-0.133,8.137,5.267,9.825c2.673,0.833,5.133,3.466,4.106,6.937c-1.102,3.723-5.191,3.848-7.991,5.195
		c-3.229,1.557-6.258-0.902-6.546-3.92C383.294,308.099,378.954,308.366,376.19,306.416z"/>
	<path fill-rule="evenodd" clip-rule="evenodd" fill="#444411" d="M370.011,306.516c0.496,2.396,0.857,4.915,4.217,4.792
		c1.029,1.494,2.057,2.99,3.088,4.492c-5.418-0.566-10.836-1.14-16.255-1.709c-0.653-0.878-0.899-1.865-0.806-2.951
		c1.175-2.48,3.041-4.301,5.405-5.648C367.245,305.241,368.812,305.104,370.011,306.516z"/>
	<path fill-rule="evenodd" clip-rule="evenodd" fill="#DBDBD4" d="M399.07,289.771c-2.376,1.031-4.752,2.063-7.136,3.098
		c-0.633-0.339-1.267-0.682-1.899-1.021c-0.366-0.354-0.393-0.729-0.077-1.133c-2.309-7.002,2.672-6.043,6.693-6.143
		c1.148,0.332,2.091,0.971,2.835,1.902C399.867,287.636,399.729,288.735,399.07,289.771z"/>
	<path fill-rule="evenodd" clip-rule="evenodd" fill="#D4D4D4" d="M407.306,300.854c1.531,4.396-4.857,2.197-4.605,5.525
		c-2.633-1.253-4.131-3.262-4.157-6.25C401.521,299.667,404.583,298.189,407.306,300.854z"/>
	<path fill-rule="evenodd" clip-rule="evenodd" fill="#383838" d="M272.685,218.1c-0.916-1.049-1.834-2.1-2.747-3.15
		c-0.382-6.075,4.814-3.419,7.452-4.767c2.718,1.588,0.887,4.228,1.463,6.311c0.499,0.789,0.346,1.459-0.369,2.031
		c-0.741,0.381-1.525,0.622-2.354,0.715C274.847,219.274,273.702,218.882,272.685,218.1z"/>
	<path fill-rule="evenodd" clip-rule="evenodd" fill="#0A0A0A" d="M261.364,197.485c5.188-0.887,7.151,1.705,7.035,6.532
		c-2.213,0.074-4.424,0.149-6.636,0.226c0.001,0.002-0.037-0.45-0.037-0.45c-2.229-1.262-2.155-3.149-1.423-5.218
		C260.656,198.211,261.009,197.847,261.364,197.485z"/>
	<path fill-rule="evenodd" clip-rule="evenodd" fill="#3F3F3A" d="M268.16,214.768c-1.013,1.181-2.025,2.361-3.04,3.542
		c-5.83,0.683-3.152-4.514-4.696-6.791C264.261,209.602,266.409,211.712,268.16,214.768z"/>
	<path fill-rule="evenodd" clip-rule="evenodd" fill="#4E4E40" d="M252.445,217.597c0.173,2.055-0.261,3.81-2.354,4.745
		c-2.016-1.031-2.195-2.868-2.114-4.82c-1.643-1.901-1.958-3.886-0.382-5.991c0.873-0.007,1.747-0.016,2.623-0.022
		C252.351,213.029,252.397,215.313,252.445,217.597z"/>
	<path fill-rule="evenodd" clip-rule="evenodd" fill="#181818" d="M252.445,217.597c-3.03-1.193-2.296-3.764-2.228-6.089
		c1.655,0.024,3.316,0.048,4.977,0.072c-0.08,1.95-0.161,3.897-0.242,5.846C254.118,217.482,253.282,217.538,252.445,217.597z"/>
	<path fill-rule="evenodd" clip-rule="evenodd" fill="#EDEDDD" d="M247.595,211.53c0.129,1.997,0.256,3.993,0.382,5.991
		c-1.485,0.021-2.975,0.043-4.462,0.065c0.102-2.022,0.205-4.047,0.307-6.07C245.079,211.521,246.336,211.525,247.595,211.53z"/>
	<path fill-rule="evenodd" clip-rule="evenodd" fill="#FCFC03" d="M270.211,164.13c-2.933-2.119-5.866-4.238-8.798-6.356
		c-0.104-0.574-0.229-1.146-0.374-1.71c19.101-2.074,38.267-0.279,57.392-0.958c4.654-0.167,5.517,2.548,5.877,6.116
		c-1.939,0.416-3.887,0.839-5.834,1.26c-1.059,0.975-2.311,1.563-3.715,1.826c-3.186,0.213-6.155,1.095-8.816,2.926
		c-0.896,0.276-1.804,0.32-2.727,0.162c-2.929-1.186-5.724-2.818-9.051-2.667c-1.403,0.02-2.801,0.004-4.202-0.011
		c-1.898,0.015-3.793,0.008-5.684,0.107c-2.407,0.15-4.778,0.718-7.208,0.555C274.715,165.344,272.834,162.732,270.211,164.13z"/>
	<path fill-rule="evenodd" clip-rule="evenodd" fill="#999999" d="M259.139,159.874c2.671,3.004,1.633,8.046,5.739,10.295
		c2.478,1.358,6.54,2.814,4.447,6.136c-1.992,3.16-5.681,5.857-9.217,7.266c-3.432,1.367-4.811-2.023-5.494-5.106
		c-1.129-5.071-8.715-1.985-9.567-7.48C245.853,162.343,250.308,158.332,259.139,159.874z"/>
	<path fill-rule="evenodd" clip-rule="evenodd" fill="#DDDDDD" d="M399.07,289.771c-0.104-0.801-0.212-1.601-0.316-2.4
		c2.675-4.143,5.836-3.09,9.11-0.855c0,0-0.092-0.313-0.09-0.313c-0.027,1.503-0.061,3.007-0.086,4.511
		C404.817,290.397,401.944,290.083,399.07,289.771z"/>
	<path fill-rule="evenodd" clip-rule="evenodd" fill="#F4F428" d="M379.058,275.774c-3.609-0.289-7.34-0.352-8.814-4.662
		c10.402,0.607,21.033-2.58,31.186,1.926c-0.366,0.377-0.734,0.753-1.094,1.137c-1.881,1.084-3.961,1.313-6.068,1.434
		c-1.537,0.117-3.082,0.131-4.625,0.148C386.118,275.549,382.587,276.964,379.058,275.774z"/>
	<path fill-rule="evenodd" clip-rule="evenodd" fill="#BCBCAB" d="M365.701,260.134c1.506,0.485,3.011,0.973,4.513,1.461
		c0.541,2.479,2.225,3.971,4.365,5.072c-1.249,2.727-3.637,1.986-5.805,1.9c-2.365-0.777-4.789-1.491-5.225-4.512
		C364.266,262.747,364.985,261.44,365.701,260.134z"/>
	<path fill-rule="evenodd" clip-rule="evenodd" fill="#CDCDCD" d="M407.899,273.433c-0.092,2.104-0.186,4.207-0.274,6.309
		c0-0.002,0.276-0.132,0.276-0.132c-1.428,1.366-3.076,1.536-4.879,0.905c-2.459-2.018-4.406-4.157-1.689-7.362
		c0,0,0.094-0.114,0.096-0.114C403.588,273.17,405.739,273.302,407.899,273.433z"/>
	<path fill-rule="evenodd" clip-rule="evenodd" fill="#3D3D3D" d="M392.347,266.649c-0.045-0.81-0.094-1.618-0.141-2.428
		c2.723-1.745,5.514-2.73,8.581-0.809c1.513,1.466,1.705,3.118,0.673,4.936C398.063,269.712,395.235,268.011,392.347,266.649z"/>
	<path fill-rule="evenodd" clip-rule="evenodd" fill="#DDDDDD" d="M376.87,266.906c1.229-3.134,3.74-3.123,6.449-2.643
		c0.121,0.679,0.291,1.348,0.506,2.005C381.849,270.204,379.383,268.812,376.87,266.906z"/>
	<path fill-rule="evenodd" clip-rule="evenodd" fill="#DDDDBB" d="M401.46,268.349c0.03-1.367,0.059-2.734,0.084-4.102
		c1.968-1.536,3.907-1.645,5.812,0.109c0.04,1.331,0.079,2.664,0.117,3.994C405.472,268.349,403.465,268.349,401.46,268.349z"/>
	<path fill-rule="evenodd" clip-rule="evenodd" fill="#4C4C0C" d="M407.355,264.356c-1.917-1.063-3.856-0.961-5.812-0.107
		c-3.111-0.01-6.227-0.02-9.338-0.027c0.853-0.824,1.702-1.646,2.553-2.469c1.945-1.515,3.881-1.649,5.807,0.032
		c2.344,0.141,4.684,0.284,7.027,0.428C407.62,262.938,407.543,263.653,407.355,264.356z"/>
	<path fill-rule="evenodd" clip-rule="evenodd" fill="#DDDDBB" d="M400.565,261.785c-1.935-0.011-3.869-0.019-5.807-0.029
		c0.094-1.722-0.395-3.69,1.908-4.468c0.73,0.006,1.467,0.012,2.199,0.016C401.153,258.146,400.739,260.011,400.565,261.785z"/>
	<path fill-rule="evenodd" clip-rule="evenodd" fill="#383838" d="M252.705,186.011c2.909,3.807,10.264,4.262,8.659,11.475
		l0.076,0.08c-2.464,1.484-2.102,5.209-5.014,6.338c-2.178,0.048-4.355,0.096-6.533,0.143c-1.631-1.956-1.233-3.894,0.053-5.822
		c0.686-3.38-0.188-6.443-1.892-9.341C249.604,187.926,251.154,186.968,252.705,186.011z"/>
	<path fill-rule="evenodd" clip-rule="evenodd" fill="#DDDDBB" d="M249.946,198.224c-0.018,1.941-0.034,3.883-0.053,5.822
		c-1.895,0.002-3.791,0.005-5.684,0.007c-0.054-1.146-0.104-2.292-0.154-3.437C246.019,199.818,247.983,199.021,249.946,198.224z"/>
	<path fill-rule="evenodd" clip-rule="evenodd" fill="#A6A6A6" d="M256.427,203.903c-0.348-3.71,0.812-6.228,5.014-6.338
		c0.096,2.076,0.19,4.151,0.286,6.228C259.96,203.829,258.192,203.866,256.427,203.903z"/>
	<path fill-rule="evenodd" clip-rule="evenodd" d="M403.775,279.448c1.374,0.055,2.751,0.107,4.126,0.161
		c-0.013,2.302-0.024,4.604-0.037,6.905c-3.039,0.285-6.074,0.571-9.11,0.855l0.123-1.011c-1.274-1.388-1.436-2.97-0.827-4.692
		C399.475,279.681,401.171,278.394,403.775,279.448z"/>
	<path fill-rule="evenodd" clip-rule="evenodd" fill="#070700" d="M347.329,312.258c-4.022,6.245-8.035,9.56-12.026-0.022
		c2.507-3.004-0.478-4.557-1.761-6.575c-0.891-2.004-0.899-3.97,0.167-5.909c2.024-2.199,4.589-2.379,7.301-1.995
		c0.984,0.239,1.893,0.674,2.726,1.248c1.826,2.224,2.891,4.96,4.742,7.187c0.732,1.297,0.996,2.681,0.766,4.154
		C348.931,311.308,348.29,311.944,347.329,312.258z"/>
	<path fill-rule="evenodd" clip-rule="evenodd" fill="#43433B" d="M347.329,312.258c-0.018-0.585,0.168-1.095,0.56-1.528
		c1.671-1.618,3.696-2.365,5.994-2.461c1.683-0.084,3.335,0.115,4.94,0.643c1.074,0.416,1.915,1.114,2.525,2.093
		c-0.096,1.026-0.194,2.054-0.291,3.085C356.572,312.806,350.694,321.948,347.329,312.258z"/>
	<path fill-rule="evenodd" clip-rule="evenodd" fill="#BCBCBC" d="M334.571,306.397c2.449,0.225,6.207-2.301,6.693,2.298
		c0.482,4.559-3.371,3.368-5.979,3.545c-0.721-0.226-1.456-0.446-2.191-0.667c-0.393-0.066-0.785-0.135-1.181-0.197
		c0.02-0.395,0.044-0.793,0.053-1.192c0.334-1.148,0.865-2.2,1.614-3.144C333.907,306.821,334.236,306.609,334.571,306.397z"/>
	<path fill-rule="evenodd" clip-rule="evenodd" fill="#444433" d="M332.731,311.294c0,0,0.352,0.291,0.357,0.285
		c-1.639,0.778,0.961,5.502-3.457,3.717c-0.528-1.564-1.053-3.127-1.574-4.691C329.813,309.489,331.39,309.591,332.731,311.294z"/>
	<path fill-rule="evenodd" clip-rule="evenodd" fill="#CBCBCB" d="M286.061,297.123c-3.06,5.354-6.144,8.634-9.38,0.118
		C279.792,296.079,282.834,289.269,286.061,297.123z"/>
	<path fill-rule="evenodd" clip-rule="evenodd" fill="#CBCBCB" d="M278.832,277.802c1.37-3.683,3.751-4.436,7.081-2.446
		c-0.309,2.613-1.056,5.15-3.901,5.815C279.58,281.739,279.295,279.51,278.832,277.802z"/>
	<path fill-rule="evenodd" clip-rule="evenodd" fill="#9B9B9B" d="M297.862,228.716c0.562-2.813,1.34-5.666-0.775-8.211
		c-8.463-10.19-8.178-11.319,4.143-16.23c4.87,4.824,8.809,10.447,13.313,15.585C312.566,229.562,304.858,228.47,297.862,228.716z"
		/>
	<path fill-rule="evenodd" clip-rule="evenodd" fill="#F2F2F2" d="M314.542,219.859c-7.563-2.527-11.466-8.178-13.313-15.585
		c0.707-0.029,1.415-0.027,2.123,0.01c1.144-0.871,2.027-0.658,2.651,0.637c2.132,2.101,4.264,4.199,6.397,6.297
		c1.803,1.725,3.578,3.46,2.178,6.295C314.567,218.295,314.556,219.077,314.542,219.859z"/>
	<path fill-rule="evenodd" clip-rule="evenodd" fill="#C3C3C3" d="M314.579,217.513c-0.726-2.098-1.453-4.197-2.179-6.295
		c2.064,0.074,4.128,0.147,6.19,0.222c1.258,2.422-1.352,3.882-1.482,5.958C316.265,217.437,315.423,217.474,314.579,217.513z"/>
	<path fill-rule="evenodd" clip-rule="evenodd" fill="#F7F709" d="M343.078,299.854c-2.842,0.06-5.684,0.122-8.528,0.182
		c-2.15,1.731-4.514,2.099-7.092,1.112c-1.764-2.46-1.477-5.225-1.19-7.99c1.394-1.826,3.386-2.383,5.525-2.631
		c2.015-0.199,4.04-0.159,6.056-0.229c1.945-0.125,3.873-0.418,5.815-0.628c3.456,0.255,6.92,0.095,10.395,0.151
		c3.375,1.047,6.354,2.418,5.595,6.842C354.967,302.093,348.878,300.217,343.078,299.854z"/>
	<path fill-rule="evenodd" clip-rule="evenodd" fill="#D2D22B" d="M332.731,268.345c2.057,1.633,4.111,3.267,6.166,4.901
		c1.949,2.272,0.854,3.89-1.134,5.315c-1.003,0.359-2.048,0.514-3.118,0.441c-3.664-0.945-6.307-3.35-8.664-6.154
		c0.087-1.387,0.174-2.771,0.26-4.158C328.301,266.606,330.489,266.964,332.731,268.345z"/>
	<path fill-rule="evenodd" clip-rule="evenodd" fill="#333333" d="M327.458,301.147c1.951-3.017,4.64-1.329,7.096-1.112
		c0.004,2.121,0.011,4.241,0.018,6.362l0.087-0.049c-1.547,1.14-1.138,3.227-2.227,4.59c0,0,0.298,0.357,0.3,0.357
		c-1.559-0.23-3.117-0.459-4.676-0.689C325.106,307.626,326.666,304.362,327.458,301.147z"/>
	<path fill-rule="evenodd" clip-rule="evenodd" fill="#353535" d="M325.981,272.849c3.971-0.697,6.434,1.438,8.416,4.475
		c1.327,1.738,0.049,2.695-1.098,3.705c-2.27,1.235-4.609,2.164-7.273,1.439C326.013,279.261,325.999,276.054,325.981,272.849z"/>
	<path fill-rule="evenodd" clip-rule="evenodd" fill="#313124" d="M332.315,292.335c-2.018,0.276-4.033,0.552-6.049,0.827
		c-0.063-2.505-0.128-5.007-0.193-7.507c1.787-1.275,3.713-1.273,5.711-0.641c1.438,0.615,2.511,1.627,3.256,2.996
		C335.726,290.452,334.628,291.774,332.315,292.335z"/>
	<path fill-rule="evenodd" clip-rule="evenodd" fill="#DDDDDD" d="M331.901,285.214c-1.941,0.146-3.888,0.293-5.828,0.441
		c-0.016-1.065-0.031-2.126-0.047-3.188c1.536-1.564,3.148-2.928,5.586-2.289C334.441,281.7,333.722,283.427,331.901,285.214z"/>
	<path fill-rule="evenodd" clip-rule="evenodd" fill="#0C0C0C" d="M332.731,268.345c-2.163,0.117-4.328,0.232-6.492,0.349
		c0.21-2.039,0.418-4.075,0.617-6.112C331.019,262.249,332.054,265.116,332.731,268.345z"/>
	<path fill-rule="evenodd" clip-rule="evenodd" fill="#FE4444" d="M362.692,188.825c2.464-5.66,4.948-4.781,7.443-0.026
		l-0.092-0.197c-2.049,1.343-3.82,3.445-6.721,2.498C363.112,190.341,362.901,189.583,362.692,188.825z"/>
	<path fill-rule="evenodd" clip-rule="evenodd" fill="#E0A8A8" d="M363.323,191.1c1.855-1.863,4.209-2.4,6.721-2.498
		C368.126,190.3,368.624,198.503,363.323,191.1z"/>
	<path fill-rule="evenodd" clip-rule="evenodd" fill="#9B9B9B" d="M352.325,269.884c5.842-0.693,21.166,8.691,21.709,14.082
		c0.754,7.379-4.441,9.061-10.594,9.008C350.14,283.843,348.308,280.03,352.325,269.884z"/>
	<path fill-rule="evenodd" clip-rule="evenodd" fill="#9B9B9B" d="M340.348,264.61c-5.257-1.475-9.177-4.078-8.2-10.396
		c0.495-3.175,2.416-5.214,5.733-5.449c6.075-0.431,9.532,2.368,10.104,8.522C347.993,262.39,345.686,265.081,340.348,264.61z"/>
	<path fill-rule="evenodd" clip-rule="evenodd" fill="#EEEEEC" d="M352.325,269.884c-3.681,11.25,8.646,14.8,11.115,23.09
		c-0.736,0.695-1.475,1.39-2.207,2.084c-1.163,1.292-1.85,1.074-2.053-0.652c-2.158-1.303-4.318-2.605-6.479-3.91
		c-2.838-1.326-3.48-4.459-5.411-6.526c-0.909-1.054-1.816-2.108-2.745-3.142c-1.755-2.091-3.986-3.957-3.553-7.136
		c0.074-0.97,0.146-1.94,0.222-2.912c3.696-0.608,7.079-4.501,11.165-1.072L352.325,269.884z"/>
	<path fill-rule="evenodd" clip-rule="evenodd" fill="#9D9D9D" d="M352.38,269.707c-3.744,0.14-6.97,5.63-11.165,1.072
		c-0.287-2.056-0.573-4.114-0.862-6.17c2.541-2.438,5.087-4.88,7.633-7.321C355.204,259.392,355.646,263.895,352.38,269.707z"/>
	<path fill-rule="evenodd" clip-rule="evenodd" fill="#0C0C0C" d="M398.745,281.804c0.045,1.52,0.086,3.037,0.132,4.556
		c-2.536,2.35-9.325-4.015-8.919,4.354c-2.877-0.074-3.803-2.21-4.668-4.412c0.467-2.301,1.71-4.201,3.081-6.047
		c0.601-0.736,1.325-1.313,2.162-1.759c1.368-0.516,2.771-0.615,4.202-0.366C396.679,278.69,398.2,279.72,398.745,281.804z"/>
	<path fill-rule="evenodd" clip-rule="evenodd" fill="#101010" d="M379.058,275.774c3.363-2.625,7.087-3.432,11.209-2.229
		c1.604,1.919,1.514,3.854,0.045,5.8l-0.449,0.477c-2.193,1.692-4.371,1.669-6.525-0.072
		C380.78,279.64,378.517,279.217,379.058,275.774z"/>
	<path fill-rule="evenodd" clip-rule="evenodd" fill="#C2C2C2" d="M363.618,299.521c0.381,0.574,0.299,1.074-0.243,1.496
		c1.805,3.682-1.189,4.711-3.407,6.189c-1.623,0.645-3.261,0.707-4.922,0.1c-1.018-0.614-1.697-1.492-2.059-2.625
		c-0.354-2.389-0.348-4.641,2.232-5.92C358.06,298.54,360.962,297.665,363.618,299.521z"/>
	<path fill-rule="evenodd" clip-rule="evenodd" fill="#C7C700" d="M363.618,299.521c-3.085,0.163-6.17,0.326-9.252,0.491
		c-1.869,1.523-4.016,2.156-6.408,2.01c-1.77-0.155-3.286-0.944-4.742-1.888c0,0-0.133-0.28-0.137-0.28
		c4.121-5.508,12.365,1.187,16.104-5.448c0.677,0.227,1.363,0.443,2.051,0.652C362.027,296.548,362.821,298.032,363.618,299.521z"/>
	<path fill-rule="evenodd" clip-rule="evenodd" fill="#313131" d="M340.993,273.691c1.492,2.028,2.984,4.06,4.476,6.087
		c-0.634,2.228-2.241,3.218-4.421,3.49c-1.025-0.056-1.989-0.331-2.883-0.842c-1.52-1.459-2.779-2.998-1.496-5.255
		c0.743-1.31,1.487-2.618,2.229-3.926C339.601,273.374,340.298,273.522,340.993,273.691z"/>
	<path fill-rule="evenodd" clip-rule="evenodd" fill="#CDCDCD" d="M383.337,279.749c2.175,0.023,4.352,0.047,6.527,0.072
		c-0.24,3.068-1.207,5.621-4.574,6.48C382.283,284.819,384.39,281.813,383.337,279.749z"/>
	<path fill-rule="evenodd" clip-rule="evenodd" fill="#424242" d="M359.905,306.597c-0.855-3.111,3.482-2.993,3.47-5.58
		c2.209,1.831,4.423,3.664,6.636,5.498c-1.633,0.051-3.268,0.101-4.9,0.15c-0.891,0.885-1.976,1.184-3.201,1.068
		C361.126,307.559,360.463,307.166,359.905,306.597z"/>
	<path fill-rule="evenodd" clip-rule="evenodd" fill="#56564B" d="M305.884,180.461c-3.617,1.486-7.348,1.892-11.195,1.127
		c-1.216-1.829-1.44-3.822-0.986-5.933c0.604-1.515,1.643-2.637,3.084-3.391c1.012-0.304,2.04-0.362,3.082-0.195
		c3.149,1.262,4.824,3.785,5.867,6.854C305.789,179.434,305.835,179.947,305.884,180.461z"/>
	<path fill-rule="evenodd" clip-rule="evenodd" fill="#252525" d="M285.919,182.604c-3.156-1.529-3.098-4.19-2.48-7.048
		c0.342-0.368,0.682-0.736,1.021-1.109c1.417-0.709,2.894-0.814,4.418-0.434c0.973,0.381,1.749,1.006,2.34,1.863
		c0.848,2.039,0.771,3.959-0.764,5.682C288.941,181.906,287.431,182.255,285.919,182.604z"/>
	<path fill-rule="evenodd" clip-rule="evenodd" fill="#CBCBCB" d="M287.604,190.15c0.101-1.367,0.202-2.733,0.303-4.105
		c2.623-0.696,5.035,3.579,7.771,0.325c2.571,0.363,2.56,2.295,2.56,4.221c-0.592,1.937-1.455,3.501-3.927,2.84
		c-1.403-0.827-2.806-1.652-4.208-2.48C288.928,191.752,288.095,191.485,287.604,190.15z"/>
	<path fill-rule="evenodd" clip-rule="evenodd" fill="#B7B799" d="M307.23,185.041c0.225,2.02,0.447,4.04,0.671,6.059
		c-0.438,0.333-0.879,0.665-1.318,1.001c-2.315,0.711-4.363,0.393-5.996-1.547c-0.944-2.182-1.318-4.236,1.302-5.592
		C303.671,184.989,305.452,185.016,307.23,185.041z"/>
	<path fill-rule="evenodd" clip-rule="evenodd" fill="#3D3D3D" d="M314.539,180.573c-2.885-0.036-5.768-0.075-8.65-0.112
		c-0.005,0-0.355-0.825-0.355-0.825c-0.669-2.537,0.652-4.113,2.606-5.389c1.587-0.658,3.212-0.762,4.879-0.342
		c1.098,0.376,1.932,1.074,2.51,2.076C316.054,177.696,315.857,179.257,314.539,180.573z"/>
	<path fill-rule="evenodd" clip-rule="evenodd" fill="#DDDDDD" d="M290.454,181.558c0.105-1.957,0.207-3.915,0.313-5.875
		c1.163-1.236,2.284-1.269,3.358,0.113c1.751,1.779,1.362,3.766,0.563,5.794C293.275,181.579,291.865,181.568,290.454,181.558z"/>
	<path fill-rule="evenodd" clip-rule="evenodd" fill="#36362B" d="M301.889,184.962c-0.194,1.978-0.389,3.956-0.585,5.935
		c-0.309,0.353-0.617,0.706-0.925,1.063c-1.315,0.689-2.654,0.858-4.033,0.188c-0.222-1.926-0.445-3.853-0.668-5.778
		C297.339,184.093,299.565,184.322,301.889,184.962z"/>
	<path fill-rule="evenodd" clip-rule="evenodd" fill="#EDEDDD" d="M314.539,180.573c0.126-1.655,0.251-3.311,0.38-4.968
		c1.33-1.257,2.666-1.56,4.012-0.022l-0.208-0.172c0.009,1.958,0.014,3.916,0.02,5.875
		C317.339,181.048,315.94,180.813,314.539,180.573z"/>
	<path fill-rule="evenodd" clip-rule="evenodd" fill="#EDEDDD" d="M318.67,185.091c-0.026,1.895-0.054,3.791-0.082,5.684
		c-3.29,0.617-4.48-0.99-4.298-4.056C315.392,185.213,316.896,184.786,318.67,185.091z"/>
	<path fill-rule="evenodd" clip-rule="evenodd" fill="#0D0D0D" d="M312.142,197.498c1.048,0.115,2.096,0.229,3.146,0.345
		c1.161,2.064,1.188,4.059-0.366,5.954c-2.417,0.116-4.836,0.236-7.253,0.354c-1.515-2.091-1.685-4.215-0.164-6.384
		C308.982,196.558,310.516,196.226,312.142,197.498z"/>
	<path fill-rule="evenodd" clip-rule="evenodd" fill="#CBCBCB" d="M307.784,197.546c-0.039,2.201-0.078,4.402-0.116,6.604
		c-0.507,0.359-1.063,0.612-1.664,0.767c-0.884-0.208-1.767-0.42-2.649-0.633c0.043-1.209,0.089-2.416,0.134-3.623
		c-1.981-3.375,0.42-3.64,2.788-3.926C306.777,197.004,307.279,197.274,307.784,197.546z"/>
	<path fill-rule="evenodd" clip-rule="evenodd" fill="#FEFEFE" d="M314.921,203.797c0.122-1.984,0.243-3.97,0.366-5.954
		c0.984,0.028,1.974,0.054,2.96,0.082c0.11,1.959,0.221,3.918,0.33,5.875C317.356,203.797,316.138,203.797,314.921,203.797z"/>
	<path fill-rule="evenodd" clip-rule="evenodd" fill="#DDDDDD" d="M312.142,197.498c-1.453,0.016-2.906,0.03-4.357,0.048
		l0.277,0.096c-1.946-2.241-1.955-4.479,0.014-6.711l-0.174,0.172C311.503,191.784,313.486,193.537,312.142,197.498z"/>
	<path fill-rule="evenodd" clip-rule="evenodd" fill="#212119" d="M318.931,175.583c-1.339,0.007-2.675,0.016-4.012,0.022
		c-1.088-0.141-2.176-0.282-3.265-0.423c-1.361-1.935-1.288-3.952-0.346-6.023c0.648-0.877,1.501-1.48,2.525-1.853
		c1.64-0.32,3.17-0.119,4.499,0.99c1.182,0.221,2.362,0.442,3.545,0.663C320.895,171.168,319.913,173.376,318.931,175.583z"/>
	<path fill-rule="evenodd" clip-rule="evenodd" fill="#FEFEFE" d="M318.333,168.297c-1.004,0.021-2.008,0.043-3.012,0.065
		c-2.817-1.832-2.46-3.824-0.305-5.911c1.152,0.011,2.307,0.019,3.457,0.03C318.427,164.421,318.378,166.358,318.333,168.297z"/>
	<path fill-rule="evenodd" clip-rule="evenodd" fill="#999999" d="M287.604,190.15c0.833,0.267,1.665,0.533,2.498,0.8
		c0.588,5.479-0.242,10.693-6.002,12.74c-5.588,1.985-8.92-0.697-10.053-6.639c-0.244-1.276-2.722-2.117-4.155-3.178
		c-2.397-1.779-5.003-3.596-3.368-7.134c1.355-2.942,2.585-6.394,6.55-6.617c3.432-0.192,6.974,0.754,7.847,4.457
		C281.841,188.484,283.641,190.367,287.604,190.15z"/>
	<path fill-rule="evenodd" clip-rule="evenodd" fill="#313127" d="M308.075,190.931c-0.004,2.236-0.009,4.475-0.014,6.711
		c-1.541,0.98-4.673-0.451-4.573,3.018c-1.487-0.549-3.441-0.535-3.44-2.869c-0.908-2.175-0.951-4.271,0.582-6.218l0.674-0.676
		C303.563,190.907,305.818,190.917,308.075,190.931z"/>
	<path fill-rule="evenodd" clip-rule="evenodd" fill="#161616" d="M283.438,175.556c-6.045,1.385-6.98-2.046-6.454-6.854
		c0.378-0.34,0.753-0.683,1.129-1.029c1.468-0.646,2.962-0.687,4.487-0.211c0.941,0.469,1.67,1.16,2.165,2.092
		c0.722,2.11,0.436,4.03-1.1,5.709L283.438,175.556z"/>
	<path fill-rule="evenodd" clip-rule="evenodd" fill="#D5D5D5" d="M300.63,191.572c0.174,2.108,1.644,4.335-0.582,6.218
		c-1.912-1.453-3.822-2.907-5.736-4.361c0.678-0.425,1.357-0.854,2.037-1.28C297.774,191.958,299.202,191.765,300.63,191.572z"/>
	<path fill-rule="evenodd" clip-rule="evenodd" fill="#111100" d="M270.211,164.13c2.345-3.399,5.193-1.59,7.945-0.767
		c0.702,2.136-0.043,3.896-1.434,5.484c0,0,0.258-0.147,0.261-0.146C271.818,171.484,272.845,165.097,270.211,164.13z"/>
	<path fill-rule="evenodd" clip-rule="evenodd" fill="#3F3F2E" d="M279.069,217.8c-0.023-0.443-0.098-0.879-0.217-1.307
		c8.48-1.761,4.095,4.57,4.829,7.682c-0.798-0.015-1.599-0.03-2.4-0.045C279.312,222.452,278.673,220.308,279.069,217.8z"/>
	<path fill-rule="evenodd" clip-rule="evenodd" fill="#181818" d="M254.817,224.86c-0.013-2.505-0.028-5.01-0.041-7.518
		c1.711,0.633,4.333-0.472,4.5,2.951C259.446,223.718,257.39,224.407,254.817,224.86z"/>
	<path fill-rule="evenodd" clip-rule="evenodd" fill="#FEFEFE" d="M272.685,218.1c1.105-0.106,2.207-0.212,3.314-0.318
		c2.705,2.162,3.096,4.267-0.162,6.274c-1.199-0.205-2.398-0.414-3.6-0.621c0.117-0.462,0.177-0.93,0.177-1.404
		C272.503,220.719,272.597,219.41,272.685,218.1z"/>
	<path fill-rule="evenodd" clip-rule="evenodd" fill="#181818" d="M275.837,224.056c1.144-2.063,0.99-4.16,0.162-6.274
		c1.021,0.007,2.046,0.011,3.07,0.019c2.959,1.334,2.272,3.942,2.212,6.33c-0.629,0.186-1.272,0.288-1.93,0.303
		C278.181,224.308,277.009,224.182,275.837,224.056z"/>
	<path fill-rule="evenodd" clip-rule="evenodd" fill="#FEFEFE" d="M359.685,306.388c1.805,0.092,3.614,0.186,5.424,0.275
		c0.398,2.882-1.01,4.199-3.764,4.341c0.004,0-0.823-0.495-0.823-0.495l-0.954,0.115
		C356.921,309.138,359.495,307.796,359.685,306.388z"/>
	<path fill-rule="evenodd" clip-rule="evenodd" fill="#343426" d="M300.21,173.919c-0.93-0.061-1.858-0.121-2.79-0.182
		c-2.436-0.663-3.873-2.308-4.595-4.665c-0.504-2.363-0.314-4.582,1.401-6.47c4.421-1.664,7.67-0.229,9.944,3.772
		C305.081,170.061,302.333,171.826,300.21,173.919z"/>
	<path fill-rule="evenodd" clip-rule="evenodd" fill="#4F4F47" d="M300.21,173.919c1.318-2.515,2.634-5.033,3.956-7.549
		c0.005,0.005,0.839,0.009,0.839,0.009c1.424-1.425,2.45-0.464,3.463,0.574c1.159,2.778,0.795,5.472-0.472,8.11
		c-0.819,1.525-1.64,3.051-2.46,4.574C302.577,178.832,301.672,176.116,300.21,173.919z"/>
	<path fill-rule="evenodd" clip-rule="evenodd" fill="#434336" d="M307.969,168.997c-0.987-0.873-1.974-1.747-2.962-2.62
		c1.059-7.111,6.125-4.013,10.01-3.926c0.102,1.97,0.201,3.941,0.305,5.911c-1.152,0.192-2.304,0.386-3.456,0.578
		C310.583,170.093,309.282,170.147,307.969,168.997z"/>
	<path fill-rule="evenodd" clip-rule="evenodd" fill="#2F2F21" d="M283.235,162.72c2.461,0.006,4.923,0.011,7.383,0.018
		c1.526,2.029,1.442,4.105,0.186,6.219c-0.844,0.777-1.831,1.258-2.959,1.453c-1.764,0.115-3.259-0.463-4.461-1.771l0.194,0.235
		C281.803,166.915,281.521,164.873,283.235,162.72z"/>
	<path fill-rule="evenodd" clip-rule="evenodd" fill="#D2D2BC" d="M283.235,162.72c0.112,2.052,0.229,4.102,0.343,6.153
		c-2.286-0.009-4.571-0.017-6.855-0.025c0.478-1.825,0.954-3.651,1.432-5.48C279.851,163.148,281.543,162.934,283.235,162.72z"/>
	<path fill-rule="evenodd" clip-rule="evenodd" fill="#EDEDDD" d="M290.547,168.569c0.024-1.943,0.047-3.889,0.071-5.835
		c1.203-0.043,2.406-0.089,3.608-0.134c0.103,2.045,0.21,4.091,0.313,6.137C293.15,170.103,291.826,169.846,290.547,168.569z"/>
	<path fill-rule="evenodd" clip-rule="evenodd" fill="#151515" d="M398.745,281.804c-1.678-0.828-3.354-1.652-5.03-2.48
		c-0.674-2.164-0.013-4.035,1.271-5.768c2.116-0.135,4.231-0.269,6.347-0.403c0.814,2.099,1.629,4.2,2.442,6.296
		C402.099,280.233,400.423,281.021,398.745,281.804z"/>
	<path fill-rule="evenodd" clip-rule="evenodd" fill="#DDDDDD" d="M394.986,273.556c1.944,2.444-0.53,3.915-1.271,5.768
		c-1.134,0.006-2.268,0.016-3.403,0.021c-0.014-1.934-0.031-3.867-0.045-5.8C391.839,273.55,393.411,273.551,394.986,273.556z"/>
	<path fill-rule="evenodd" clip-rule="evenodd" fill="#DDDDDD" d="M343.216,300.134c1.644-0.043,3.287-0.084,4.932-0.125
		c1.383,1.58,1.563,3.332,0.76,5.23c-0.321,0.344-0.648,0.684-0.973,1.023C343.905,306.111,342.886,303.64,343.216,300.134z"/>
	<path fill-rule="evenodd" clip-rule="evenodd" fill="#DDDDDD" d="M353.608,310.603c-1.906,0.043-3.814,0.085-5.721,0.126
		c0.018-1.488,0.033-2.978,0.047-4.466l-0.198,0.203c2.28-1.919,4.554-1.941,6.82,0.026l-0.21-0.222
		C355.664,307.98,356.272,309.571,353.608,310.603z"/>
	<path fill-rule="evenodd" clip-rule="evenodd" fill="#111111" d="M353.608,310.603c0.246-1.443,0.494-2.886,0.738-4.332
		c1.85,0.109,3.701,0.217,5.554,0.326c0.005,0-0.222-0.207-0.22-0.209c-0.037,1.412-0.074,2.823-0.113,4.236
		C357.581,310.617,355.594,310.608,353.608,310.603z"/>
	<path fill-rule="evenodd" clip-rule="evenodd" fill="#111100" d="M332.432,310.938c-0.091-1.936,0.022-3.771,2.227-4.59
		C333.8,307.821,335.329,310.454,332.432,310.938z"/>
	<path fill-rule="evenodd" clip-rule="evenodd" fill="#D2D2BC" d="M348.19,281.886c3.63,1.762,5.08,4.661,4.506,8.613
		c-2.412,3.484-5.271,2.563-8.211,0.814c-2.356-0.299-2.322-2.039-2.287-3.785C343.054,284.437,345.445,282.974,348.19,281.886z"/>
	<path fill-rule="evenodd" clip-rule="evenodd" fill="#9E9E8E" d="M339.146,283.21c0.376-0.457,0.823-0.824,1.343-1.104
		c1.115,0.245,1.727,0.954,1.915,2.062c-1.049,2.803-0.599,6.364-4.028,7.965c-2.02,0.068-4.041,0.135-6.062,0.203
		c0.944-1.229,1.884-2.457,2.825-3.686C334.898,285.674,335.496,283.318,339.146,283.21z"/>
	<path fill-rule="evenodd" clip-rule="evenodd" fill="#111100" d="M338.376,292.132c0.213-2.945,0.841-5.73,3.056-7.9
		c2.007-0.063,3.298,0.447,2.241,2.822c0.271,1.418,0.541,2.838,0.813,4.256C342.64,293.017,340.567,293.007,338.376,292.132z"/>
	<path fill-rule="evenodd" clip-rule="evenodd" fill="#57574C" d="M339.146,283.21c-1.333,1.813-2.671,3.627-4.007,5.439
		c-1.079-1.145-2.158-2.29-3.238-3.436c-0.096-1.679-0.19-3.355-0.289-5.035c1.623-0.275,2.785-1,2.787-2.855
		c0.754-0.051,1.51-0.102,2.27-0.151C337.494,279.185,338.319,281.197,339.146,283.21z"/>
	<path fill-rule="evenodd" clip-rule="evenodd" fill="#101010" d="M343.673,287.054c-0.747-0.941-1.497-1.883-2.241-2.826
		c-0.316-0.705-0.63-1.413-0.942-2.122c1.662-0.776,3.321-1.552,4.979-2.327c0.907,0.704,1.815,1.406,2.722,2.107
		C349.103,285.724,346.413,286.411,343.673,287.054z"/>
	<path fill-rule="evenodd" clip-rule="evenodd" fill="#212121" d="M354.557,306.492c-2.274-0.009-4.546-0.018-6.82-0.026
		c0.14-2.153,0.274-4.307,0.411-6.459c2.072,0,4.143,0,6.219,0.002C354.429,302.171,354.492,304.331,354.557,306.492z"/>
	<path fill-rule="evenodd" clip-rule="evenodd" fill="#2F2F2F" d="M290.547,168.569c1.333,0.057,2.663,0.111,3.993,0.168
		c0.959,1.666,1.92,3.332,2.88,5c-1.098,0.688-2.196,1.371-3.295,2.059c-1.12-0.037-2.239-0.075-3.358-0.113
		c-1.165-0.199-2.334-0.398-3.499-0.598c-1.26-1.988-1.271-3.984-0.03-5.984C288.339,168.923,289.442,168.748,290.547,168.569z"/>
	<path fill-rule="evenodd" clip-rule="evenodd" fill="#FEFEFE" d="M287.237,169.101c0.011,1.993,0.021,3.989,0.03,5.984
		c-1.202,0.062-2.403,0.121-3.604,0.18c-0.091-2.209-0.186-4.418-0.28-6.627C284.671,168.791,285.954,168.944,287.237,169.101z"/>
	<path fill-rule="evenodd" clip-rule="evenodd" fill="#DDDDDD" d="M307.969,168.997c1.299-0.02,2.596-0.039,3.896-0.057
		c-0.071,2.08-0.141,4.162-0.211,6.242c-1.219-0.039-2.439-0.08-3.658-0.119C306.686,173.046,306.879,171.024,307.969,168.997z"/>
</g>
</svg>
