<?xml version="1.0" encoding="utf-8"?>
<!-- Generator: Adobe Illustrator 16.0.3, SVG Export Plug-In . SVG Version: 6.00 Build 0)  -->
<!DOCTYPE svg PUBLIC "-//W3C//DTD SVG 1.1//EN" "http://www.w3.org/Graphics/SVG/1.1/DTD/svg11.dtd">
<svg version="1.1" id="flag-icon-css-wf" xmlns="http://www.w3.org/2000/svg" xmlns:xlink="http://www.w3.org/1999/xlink" x="0px"
	 y="0px" width="640px" height="480px" viewBox="0 0 640 480" enable-background="new 0 0 640 480" xml:space="preserve">
<rect fill="#FFFFFF" width="640" height="480"/>
<g id="g2529" transform="matrix(2.081984,0,0,2.081984,0,-3.623633e-3)">
	<path d="M244.439,47.05c-1.215-2.334-5.067-4.686-6.271-4.686c-0.418,0-0.6,0.224-0.672,0.358c-0.19,0.355-0.003,0.747,0.178,1.031
		c1.119,3.632-1.151,6.446-1.427,6.63l-0.157,0.086l-0.062,0.168c-0.025,0.068-0.033,0.138-0.032,0.208
		c-1.802,0.148-3.641,0.311-5.176,0.446c-1.956,0.173-3.646,0.322-3.916,0.322l-0.292,0.04l-0.141,0.226
		c-2.098,3.36-4.214,4.767-5.617,5.355c-0.43,0.175-0.898,0.264-1.392,0.265c-1.662,0-3.259-0.996-3.636-2.269
		c-0.332-1.123,0.356-2.306,1.934-3.329c0.832-0.53,2.562-0.655,4.235-0.776c3.14-0.227,7.048-0.509,6.93-3.82
		c-0.098-1.738-1.245-3.807-6.139-3.822c0.171-0.903,0.207-2.763-0.145-6.631l-0.051-0.565c0.622-1.411,0.429-2.955-0.588-4.491
		c-0.599-0.898-1.994-1.334-4.267-1.334c-1.835,0-3.78,0.292-4.61,0.416l-0.379,0.057l-0.029,0.382
		c-0.092,1.199-0.02,6.609,0.023,7.213l0.078,2.149l0.024,0.135c0.012,0.035,0.03,0.062,0.046,0.092
		c-0.56,0.187-1.114,0.378-1.66,0.568c-1.934,0.674-3.605,1.257-4.816,1.3c-1.45,0-4.173,0.684-5.308,2.521
		c-0.442,0.715-0.8,1.903,0.011,3.524c0.493,0.888,1.057,1.602,1.684,2.148l7.755,26.842c0.042,0.184,4.057,18.398-8.471,23.267
		c-0.729,0.05-1.421,0.076-2.06,0.076c-1.487,0-2.397-0.139-2.863-0.24c-0.11-0.044-0.219-0.072-0.288-0.089
		c-0.792-0.198-1.648-1.988-1.537-2.891c0.042-0.34,0.202-0.34,0.278-0.34c0.085,0,0.236,0.025,0.474,0.144
		c0.71,0.355,1.623,0.55,2.572,0.55c0.941,0,2.111-0.215,2.313-0.821c0.067-0.2,0.053-0.509-0.392-0.843
		c-1.047-0.786-2.229-5.325-2.675-7.348c0.58-0.015,1.923-0.081,3.285-0.353c1.787-0.358,3.537-1.399,3.61-1.443l0.223-0.134
		l-0.151-0.212c-0.018-0.025-1.781-2.493-2.831-3.892c-0.245-0.327-0.349-0.577-0.301-0.722c0.09-0.269,0.753-0.46,1.521-0.681
		c0.345-0.099,0.728-0.21,1.137-0.346c1.63-0.543,1.89-0.906,1.943-1.132c0.02-0.083,0.01-0.158-0.013-0.218
		c-0.014-0.376-0.173-2.292-1.917-2.989c-1.273-0.509-1.554-2.57-1.78-4.226c-0.062-0.454-0.12-0.882-0.195-1.254
		c-0.287-1.436-0.338-2.166-0.347-2.368l1.829-3.293l-0.146-0.128c-0.028-0.025-2.838-2.485-4.229-3.876
		c-1.083-1.083-1.751-1.963-1.99-2.295l2.87-3.587l-0.198-0.149c-0.06-0.045-1.485-1.099-3.639-1.459
		c-1.614-0.269-3.835-3.386-5.619-5.89c-0.442-0.621-0.87-1.221-1.272-1.758c-0.983-3.243-3.879-4.358-4.819-4.64l1.359-2.72
		l-0.122-0.122c-0.046-0.046-1.157-1.124-4.384-1.482c-2.391-0.266-4.139-1.092-5.99-1.967c-0.555-0.263-1.13-0.534-1.717-0.786
		c-2.23-0.956-6.799-2.547-7.653-2.843l-0.363-2.535h-5.51c-2.585,0-5.843-1.856-6.206-2.067c-0.207-0.238-1.465-1.611-2.938-1.611
		c-0.291,0-0.574,0.054-0.841,0.161c-0.209,0.084-0.505,0.126-0.879,0.126c-1.111,0-2.763-0.36-4.676-0.777
		c-2.096-0.456-4.47-0.974-6.708-1.133c-0.47-0.034-0.942-0.051-1.404-0.051c-3.228,0-5.389,0.807-6.312,1.152
		c-0.047,0.018-0.095,0.036-0.14,0.052c0-0.065,0-0.136,0.001-0.205c0.01-1.78-0.049-3.496-0.544-3.993
		c-0.109-0.109-0.241-0.167-0.381-0.167c-0.308,0-0.62,0.27-0.982,0.85c-1.696,2.714-6.942,4.49-9.373,4.838
		c-2.211,0.316-4.727,1.2-5.252,1.391l-3.604-1.802l-3.98,4.342c-0.508,0.253-5.731,2.837-8.048,3.498
		c-1.886,0.539-3.777,2.594-4.793,3.698c-0.242,0.262-0.491,0.533-0.572,0.604l-3.317-0.076l0.027,0.27
		c0.095,0.952,0.166,3.597-0.644,4.407c-1.538,1.645-4.407,5.697-4.308,9.307c-1.024,2.337-3.007,2.997-4.075,3.353
		c-0.815,0.272-1.353,2.303-1.498,2.919c-0.068,0.29-0.649,2.847-0.009,3.487c0.175,0.175,0.248,0.553,0.2,1.038
		c-0.097,0.982-0.646,2.094-1.224,2.479c-1.149,0.766-1.521,2.609-1.521,3.381c0,0.661,0,2.417-0.328,3.073
		c-0.349,0.699-0.797,4.383,0.399,5.579c0.802,0.802-0.107,3.812-0.772,6.01c-0.125,0.414-0.245,0.811-0.35,1.177
		c-0.694,2.427-1.106,6.058,0.016,8.302c1.058,2.116,0.994,3.062-0.339,5.061c-1.451,2.177-9.461,17.48-10.82,20.539
		c-1.165,2.778-2.18,5.883-0.875,7.855c0.854,1.29,2.564,1.922,5.21,1.931c0.371,0.025,2.766,0.053,4.013,0.046
		c0.003,0.166,0.006,0.331,0.01,0.494c0.039,1.633,0.073,3.046-1.381,4.774c-3.172,1.685-3.524,3.623-3.259,4.955
		c0.406,2.039,2.516,3.777,3.915,4.132c-0.883,1.596-1.945,6.505-0.696,7.98l0.082,0.062c0.849,0.396,3.21,0.48,5.041,0.48
		c0.633,0,1.158-0.01,1.446-0.018c2.205,2.631,1.535,6.122,0.944,9.206c-0.314,1.637-0.611,3.183-0.489,4.518
		c0.729,7.994,11.361,9.188,17.633,9.187c5.158,0,10.125-0.759,13.158-1.492c1.135,6.764,6.56,10.895,11.725,14.041
		c8.203,5.546,10.534,18.305,10.918,20.806l0.023,0.153l0.15,0.042c2.775,0.765,5.503,1.153,8.109,1.153
		c13.237,0,21.448-9.729,27.443-16.832c0.989-1.172,1.923-2.279,2.797-3.24c1.782-1.961,3.338-4.01,4.984-6.18
		c4.914-6.476,9.995-13.172,21.964-18.712l0.963-0.674l-0.001-0.127c-0.004-0.34-0.405-0.743-1.282-1.626
		c-2.88-2.902-10.529-10.605-14.153-28.477c0.232-0.197,1.587-0.313,2.407-0.383c1.825-0.156,2.811-0.266,2.852-0.796
		c0.099-0.258,0.098-1.045-3.357-4.499c-1.255-1.255-1.317-2.112-1.283-2.427l6.824-0.359l-0.07-0.283
		c-0.033-0.132-0.822-3.246-2.242-5.376c-0.457-0.685-0.48-1.976-0.065-3.541c0.319-1.204,0.845-2.392,1.468-3.405
		c0.284,0.392,0.772,0.634,1.357,0.634c0,0,0,0,0,0c0.373,0,0.766-0.093,1.138-0.265c0.212-0.063,0.419-0.141,0.625-0.226
		c-0.594,0.7-1.016,1.252-1.143,1.423l-0.194,0.258l0.166,0.277c1.549,2.582,3.445,6.169,4.357,11.029
		c0.788,4.203,3.183,11.525,10.353,13.33c6.343,1.761,9.894,4.253,10.855,7.618c0.653,2.285,1.308,5.282,1.947,8.906
		c0.018,0.103,0.035,0.196,0.055,0.28c-3.604,4.665-8.105,8.696-18.653,12.783l-0.106,0.05l-0.335,0.324l0.179,0.322
		c2.249,4.043,3.637,8.7,4.693,13.296l-12.838,11.529l-0.021,0.181c-0.159,1.372,0.878,4.799,2.925,7.261
		c1.364,1.641,2.956,2.568,4.602,2.681c0.199,0.014,0.395,0.02,0.587,0.02c0,0,0,0,0,0c3.898,0,6.809-2.777,7.822-7.434l0.538-1.023
		c2.783-5.287,7.063-9.687,13.47-13.848l0.205-0.134l0.013-0.245c0.304-5.988,1.838-14.454,3.55-17.023
		c8.64-12.591,2.754-19.833,2.499-20.136l-0.017-0.021l0.048-0.069l-0.01-0.168c-0.092-1.571-0.152-5.385-0.152-9.724
		c-0.093-6.546-4.836-8.318-9.423-10.032l-0.452-0.169c-4.784-1.794-9.857-3.956-11.211-6.394c-0.882-1.588-2.606-3.905-4.319-5.905
		c1.176,0.524,2.345,0.782,3.538,0.782c2.283,0,4.522-0.922,6.686-1.813c4.718-1.943,5.186-2.204,7.438-3.457l0.47-0.262
		c2.861-1.589,6.56-10.205,6.949-12.462c1.483-7.963,7.018-22.575,16.453-43.429l0.279-0.617l-0.675-0.059
		c-0.071-0.006-0.156-0.011-0.251-0.014c0.397-0.199,0.774-0.427,1.114-0.692l0.099-0.104
		C244.793,49.12,245.074,48.271,244.439,47.05z M213.657,31.771c0.935-0.136,2.556-0.348,4.079-0.348
		c1.846,0,3.078,0.322,3.466,0.905c0.911,1.376,1.041,2.627,0.398,3.824c-0.257,0.478-0.622,0.913-1.05,1.31
		c-0.172,0.11-0.36,0.248-0.59,0.423c-0.315,0.239-0.691,0.523-1.138,0.812c-1.913,1.075-4.139,1.63-5.026,1.63
		c-0.01,0-0.02,0-0.029,0l-0.067-1.848C213.662,37.935,213.601,33.409,213.657,31.771z M202.771,49.552l0.029,0.005
		c0.167-0.904,2.426-2.774,3.629-3.175l-0.152-0.455c-1.114,0.371-3.279,2.036-3.828,3.204c-0.167-0.237-0.329-0.487-0.481-0.762
		c-0.485-0.969-0.499-1.833-0.043-2.571c0.871-1.409,3.194-2.065,4.508-2.066c1.373-0.048,3.107-0.653,5.116-1.353
		c1.406-0.49,2.859-0.997,4.353-1.371c1.54-0.385,2.704-1.016,3.573-1.592c0.598-0.351,1.162-0.75,1.658-1.195l0.221,0.222
		l0.42-0.44c0.156,2.151,0.239,4.724,0.075,5.43c-0.311,0.045-0.614,0.093-0.914,0.144c-0.279,0.025-0.553,0.045-0.841,0.081
		c-0.663,0.083-1.379,0.333-2.101,0.681c-1.416,0.544-2.794,1.404-4.3,2.91c-0.691,0.691-2.65,2.515-4.875,3.463
		c-1.029,0.372-2.01,0.548-2.837,0.574c-0.57-0.034-1.109-0.168-1.608-0.417l0.304,0.056c0.167-0.904,2.426-2.774,3.629-3.175
		l-0.152-0.455c-1.208,0.403-3.651,2.326-3.932,3.486C203.694,50.49,203.21,50.083,202.771,49.552z M197.126,106.845l0.203,1.115
		l0.102,0.105c0.053,0.055,0.106,0.105,0.159,0.159c-0.368,0.094-0.754,0.269-1.148,0.501
		C196.76,108.122,196.996,107.488,197.126,106.845z M196.246,102.008l0.228,1.252c-0.313-0.433-0.719-0.814-1.216-1.133
		C195.548,102.105,195.901,102.068,196.246,102.008z M203.64,201.79c-1.741-0.271-5.267-2.944-6.089-3.908l-0.871-1.021
		l-0.494,0.421l0.871,1.022c0.802,0.94,3.864,3.287,5.867,3.97c-0.93,0.541-1.986,0.833-3.142,0.833
		c-0.171,0-0.345-0.006-0.522-0.018c-1.741-0.119-3.098-1.336-3.93-2.336c-1.744-2.098-2.746-5.098-2.721-6.366l11.975-10.754
		l2.107,12.695C206.18,198.767,205.109,200.637,203.64,201.79z M224.585,163.822c-1.805,2.708-3.357,11.049-3.701,17.267
		c-0.775,0.508-1.52,1.023-2.238,1.544c0.09-0.748,0.1-1.642,0.1-2.515c0-0.281-0.007-0.609-0.014-0.928
		c-0.01-0.47-0.024-1.113,0.003-1.233l0.108-0.382h-0.624v0.236l-0.062-0.018c-0.047,0.167-0.044,0.539-0.025,1.41
		c0.007,0.315,0.014,0.638,0.014,0.915c0,1.065-0.017,2.253-0.196,3.031c-1.395,1.048-2.683,2.124-3.862,3.233
		c0.058-0.278,0.118-0.566,0.118-1.114c-0.03-1.016-0.135-1.848-0.235-2.652c-0.087-0.696-0.177-1.416-0.22-2.258l-0.599,0.03
		c0.043,0.864,0.135,1.595,0.223,2.302c0.103,0.826,0.201,1.607,0.23,2.586c0,0.479-0.052,0.726-0.106,0.986
		c-0.046,0.218-0.091,0.448-0.113,0.799c-0.806,0.796-1.558,1.61-2.259,2.441c0.034-0.206,0.071-0.405,0.11-0.606
		c0.108-0.555,0.22-1.129,0.244-1.977c0-0.887-0.06-1.528-0.118-2.148c-0.045-0.481-0.091-0.978-0.113-1.628
		c-0.095-0.603-0.151-1.028-0.182-1.273c-0.038-0.297-0.065-0.527-0.356-0.514c-0.234,0.015-0.277,0.176-0.284,0.399l-0.001,0.079
		c0,0.026,0,0.053,0,0.08v0.128h0.058c0.034,0.257,0.087,0.652,0.169,1.157c0.019,0.63,0.066,1.137,0.112,1.628
		c0.06,0.635,0.115,1.234,0.115,2.084c-0.023,0.789-0.125,1.314-0.233,1.871c-0.09,0.462-0.183,0.94-0.221,1.562l0.012,0.001
		c-0.947,1.199-1.793,2.435-2.536,3.713c-0.363-1.633-0.701-3.365-1.054-5.176c-1.255-6.432-2.673-13.7-5.919-19.775
		c13.437-5.3,17.22-10.777,21.594-17.106c1.466-2.121,2.978-4.31,4.951-6.677C228.568,147.081,231.594,153.607,224.585,163.822z
		 M205.824,118.115c1.501,2.703,6.517,4.878,11.713,6.827l0.453,0.169c4.482,1.674,8.715,3.256,8.799,9.139
		c0,4.202,0.056,7.925,0.145,9.604l-2.932,4.149c0.102-0.554,0.19-1.04,0.194-1.862c0.348-0.993,0.124-2.395,0.027-3l-0.03-0.195
		l-0.595,0.081c0.007,0.053,0.018,0.123,0.032,0.209c0.091,0.568,0.303,1.9-0.015,2.747l-0.019,0.106
		c0,0.81-0.083,1.259-0.188,1.828l-0.034,0.186l0.495,0.091l-1.577,2.231c0.049-0.556,0.089-1.118,0.088-1.798l-0.06-0.866
		c-0.086-1.23-0.167-2.392-0.17-3.777c-0.095-0.644-0.15-1.1-0.182-1.364c-0.039-0.322-0.062-0.553-0.355-0.538
		c-0.234,0.014-0.277,0.172-0.286,0.406l-0.001,0.091c0,0.027,0,0.055,0,0.083v0.134h0.059c0.034,0.275,0.087,0.696,0.168,1.231
		c0,1.363,0.082,2.534,0.168,3.775l0.059,0.843c0,0.818-0.062,1.479-0.128,2.179c-0.018,0.19-0.036,0.383-0.053,0.579l-1.485,2.101
		c0.02-0.599,0.062-1.167,0.104-1.715c0.058-0.757,0.119-1.538,0.119-2.433c-0.024-0.82-0.123-1.429-0.228-2.074
		c-0.091-0.557-0.184-1.133-0.23-1.901c-0.083-0.517-0.136-0.896-0.17-1.136c-0.052-0.368-0.084-0.591-0.369-0.569
		c-0.209,0.015-0.265,0.138-0.28,0.348l-0.004,0.1c-0.001,0.053-0.001,0.11,0,0.171l0,0.291h0.095
		c0.032,0.227,0.076,0.517,0.132,0.861c0.045,0.768,0.14,1.359,0.233,1.932c0.102,0.625,0.197,1.215,0.22,1.987
		c0,0.862-0.06,1.633-0.117,2.378c-0.045,0.582-0.091,1.183-0.11,1.83l0.545,0.016l-0.556,0.787c-0.6-3.303-1.214-6.061-1.827-8.208
		c-1.061-3.714-4.829-6.422-11.533-8.283c-6.663-1.677-8.91-8.6-9.655-12.578c-0.907-4.836-2.752-8.438-4.31-11.067
		c0.471-0.611,1.053-1.303,1.675-1.978c0.911,4.276,3.936,11.524,6.237,13.978l2.344,2.5l0.351-0.328l-2.344-2.5
		c-2.251-2.401-5.386-9.954-6.184-14.077c0.437-0.455,0.887-0.891,1.329-1.275c0.423,0.586,0.817,1.095,1.167,1.547
		c1.141,1.469,1.895,2.439,2.342,4.337l0.625,2.657l0.467-0.11l-0.625-2.657c-0.47-2-1.293-3.058-2.43-4.522
		c-0.354-0.456-0.751-0.97-1.178-1.562c0.466-0.378,0.915-0.686,1.322-0.887c0.227,0.272,0.444,0.525,0.65,0.765
		c1.221,1.421,2.027,2.359,2.416,4.429l0.469,2.5l0.472-0.088l-0.469-2.5c-0.412-2.197-1.298-3.228-2.524-4.654
		c-0.173-0.202-0.356-0.415-0.544-0.638c0.147-0.042,0.289-0.072,0.418-0.072c0.196,0,0.349,0.053,0.483,0.168
		C200.746,111.078,204.438,115.623,205.824,118.115z M226.48,94.363c-0.402,2.333-4.058,10.451-6.47,11.792l-0.471,0.262
		c-2.211,1.231-2.671,1.487-7.337,3.408c-2.078,0.856-4.227,1.741-6.32,1.741c-2.541,0-4.908-1.255-7.66-4.065l-0.356-1.958
		c1.601,0.538,4.442,0.958,7.248,0.958c2.391,0,4.756-0.305,6.301-1.103l3.276-1.692l-0.22-0.427l-3.276,1.692
		c-3.091,1.597-10.441,1.155-13.419,0.031l-0.006,0.014l-0.567-3.119c0.574,0.106,1.488,0.213,2.823,0.213
		c0.682,0,1.423-0.028,2.2-0.084l0.137-0.03c13.39-5.129,9.174-24.213,9.123-24.43l-7.372-25.518
		c0.481,0.135,1.035,0.204,1.643,0.204c0.069,0,0.143-0.004,0.214-0.006c0.091,0.004,0.179,0.019,0.273,0.019c0,0,0,0,0.001,0
		c1.057,0,2.112-0.291,3.104-0.73c1.376-0.528,2.808-1.377,4.077-2.645c1.169-1.17,3.181-2.813,5.001-3.691
		c0.835-0.312,1.693-0.51,2.622-0.669c0.587-0.052,1.159-0.088,1.69-0.088c3.36,0,5.12,0.981,5.228,2.906
		c0.078,2.205-2.454,2.558-6.04,2.817c-1.875,0.135-3.645,0.263-4.685,0.926c-2.658,1.723-2.604,3.503-2.336,4.41
		c0.099,0.333,0.257,0.65,0.459,0.944l-0.006,0.003c2.807,4.934,1.924,21.133,1.347,22.956l-0.589,1.862l0.602,0.19l0.589-1.862
		c0.541-1.71,1.333-15.83-0.78-22.023c0.824,0.551,1.86,0.885,2.934,0.885c0.62,0,1.21-0.113,1.759-0.337
		c1.504-0.631,3.742-2.1,5.954-5.56c0.546-0.034,1.759-0.14,3.729-0.314c3.824-0.338,9.537-0.842,11.8-0.875
		C233.42,71.942,227.962,86.403,226.48,94.363z M243.695,49.011c-1.703,1.284-4.451,1.629-5.82,1.629
		c-0.22,0-0.401-0.008-0.548-0.02c0.952-1.22,2.251-4.028,1.248-7.204c1.233,0.431,4.096,2.319,5.012,4.078
		C243.908,48.11,243.944,48.607,243.695,49.011z"/>
	<path fill="#FEFFFF" d="M187.765,100.664c-2.944-2.355-11.188-6.183-12.955-8.538c-1.767-2.356-14.427-9.422-17.961-9.716
		c-3.532-0.294-7.949-2.65-7.949-2.65s6.625-0.11,3.387-0.699c-3.239-0.589-9.57-3.129-12.808-4.306
		c-3.239-1.178-5.889-1.178-9.422-1.178c-3.533,0-26.988-5.745-32.841-9.316c-4.417-1.472,20.954,5.893,23.898,6.188
		c5.005,0.736,6.588-0.258-1.656-4.233c-3.533-2.061-19.268-10.312-31.861-13.76c-1.289,1.289-0.821,1.688-3.176,3.455
		c-2.355,1.766-4.416,4.711-2.355,6.477c2.65,2.356,3.827,3.239,3.827,3.239s-4.711-1.472-5.594,0.295
		c-0.883,1.766-1.914,4.453,0,5.005c1.472,0.883,4.711,2.65,4.711,2.65s-7.36-0.883-5.594-0.589
		c-0.883,2.355-1.766,6.477,2.944,8.244c4.711,1.767,19.432,7.066,22.083,8.539c2.65,1.472,8.538,2.356,11.482,2.356
		c2.944,0,13.839,0.589,12.072,0.589l-6.478,1.766c-1.105,0.111,13.397,4.931,15.532,4.49c1.14-2.651,15.972-16.562,24.215,0.515
		c0.883,3.828-2.061,9.716-5.005,10.894c-2.944,1.177-4.416,2.65-5.594,5.889c-1.177,3.238-4.193,9.016-7.433,8.539
		c-4.456-2.908-6.405-2.65-4.344-0.295c2.282,3.239,7.618,3.387,10.305-0.589c2.245-2.76,4.268-9.899,8.832-11.777
		c2.356-0.883,5.3-6.478,5.3-6.478s4.122-0.294,5.889,1.472c1.766,1.766,6.183,1.766,8.833,1.472
		c2.65-0.294,7.103-1.288,5.631-1.288c-1.472,0,4.086-0.184,5.852,0.111C191.299,107.731,190.709,103.02,187.765,100.664z"/>
	<path fill="#FEFFFF" d="M141.758,114.381c-0.336,0-0.608,0.272-0.608,0.608v1.06l0.151,0.172c0.208,0.237,0.474,0.445,0.73,0.645
		c0.147,0.114,0.29,0.224,0.4,0.329l0.176,0.168h0.244c0.474,0,1.033-0.013,1.596-0.113l0.056-0.013
		c0.712-0.197,1.121-0.511,1.462-1.122l0.058-0.105l0.014-0.119c0.034-0.284,0.095-0.589,0.159-0.912
		c0.047-0.235,0.095-0.477,0.139-0.747l0.03-0.244c0.056-0.457,0.114-0.929,0.24-1.301l0.032-0.163
		c0.013-0.241,0.068-0.312,0.252-0.547l0.114-0.149c0.056-0.071,0.202-0.168,0.331-0.254c0.163-0.109,0.331-0.221,0.471-0.367
		c0.19-0.106,0.376-0.241,0.556-0.372c0.206-0.149,0.419-0.304,0.611-0.395l0.103-0.062c0.443-0.331,0.765-0.61,1.182-1.121
		c0.425-0.435,0.707-0.882,0.913-1.445l0.028-0.106c0.095-0.558-0.022-1.036-0.135-1.499c-0.023-0.096-0.047-0.194-0.07-0.296
		l-0.03-0.096c-0.204-0.503-0.531-0.945-0.877-1.391l-0.041-0.048c-0.465-0.486-1.134-0.585-1.264-0.6
		c-0.335-0.036-0.634,0.201-0.673,0.534c-0.038,0.333,0.201,0.635,0.534,0.673c0.106,0.012,0.362,0.08,0.506,0.215
		c0.272,0.351,0.525,0.695,0.671,1.031c0.021,0.091,0.042,0.179,0.064,0.266c0.09,0.368,0.162,0.662,0.125,0.955
		c-0.145,0.379-0.338,0.673-0.636,0.974l-0.04,0.045c-0.336,0.415-0.577,0.629-0.939,0.902c-0.271,0.137-0.522,0.319-0.746,0.481
		c-0.183,0.133-0.356,0.259-0.493,0.325l-0.137,0.08l-0.085,0.105c-0.036,0.044-0.178,0.139-0.272,0.201
		c-0.204,0.136-0.435,0.29-0.621,0.525l-0.109,0.142c-0.222,0.285-0.451,0.579-0.502,1.144c-0.149,0.472-0.213,0.999-0.271,1.467
		l-0.026,0.216c-0.039,0.235-0.084,0.463-0.129,0.686c-0.06,0.302-0.117,0.589-0.157,0.876c-0.141,0.226-0.285,0.338-0.64,0.439
		c-0.379,0.065-0.772,0.083-1.128,0.088c-0.093-0.078-0.195-0.158-0.299-0.24c-0.144-0.113-0.292-0.228-0.413-0.337v-0.582
		C142.366,114.653,142.094,114.381,141.758,114.381z"/>
	<path fill="#FEFFFF" d="M154.668,106.453c0.174,0.299,0.494,0.486,0.835,0.486c0.414,0,0.779-0.268,0.962-0.733
		c1.018-4.291,0.783-7.417-0.699-9.291c-1.018-1.288-2.572-1.94-4.619-1.94c-4.304,0-9.845,3.039-11.364,5.53
		c-0.421,0.716-0.532,1.227-0.34,1.563c0.121,0.212,0.351,0.329,0.647,0.33c0.105,0,0.215-0.016,0.309-0.044
		c0.151-0.045,0.222-0.117,0.253-0.188c1.344-2.121,6.769-5.471,10.727-5.471c1.429,0,2.492,0.439,3.157,1.305
		c1.033,1.343,1.119,3.683,0.255,6.955C154.369,105.714,154.532,106.218,154.668,106.453z"/>
	<path fill="#FEFFFF" d="M85.659,94.729l-0.875,0.634c1.053,1.453,2.291,2.754,3.702,3.907c-0.454,0.092-0.854,0.399-1.155,0.898
		c-0.808,1.341-0.798,3.715,0.021,5.08c0.37,0.617,0.875,0.988,1.474,1.099l-0.002,0.036c0.041,0.002,0.081,0.003,0.122,0.003
		c0.046,0,0.09-0.006,0.134-0.009c0.045,0.003,0.089,0.009,0.135,0.009c0.04,0,0.081-0.001,0.122-0.003l-0.002-0.036
		c0.599-0.112,1.104-0.482,1.474-1.099c0.638-1.063,0.778-2.732,0.43-4.055c2.382,1.423,5.134,2.52,8.252,3.278
		c-0.575,0.235-1.449,0.481-2.156,0.681c-2.371,0.669-5.618,1.586-7.293,3.708l0.848,0.67c1.458-1.847,4.386-2.673,6.739-3.338
		c2.065-0.583,3.429-0.968,3.533-1.961l0.05-0.483l-0.474-0.102C93.972,102.198,88.899,99.198,85.659,94.729z M89.812,105.371
		c-0.214,0.181-0.458,0.285-0.732,0.311c-0.284-0.027-0.534-0.14-0.754-0.333L89.812,105.371z M89.053,99.72l-0.223-0.003
		l0.009-0.167C88.911,99.606,88.98,99.664,89.053,99.72z M87.949,104.89c-0.679-1.133-0.69-3.253-0.022-4.363
		c0.113-0.188,0.24-0.327,0.375-0.427l-0.073,5.161C88.129,105.157,88.035,105.033,87.949,104.89z M90.211,104.89
		c-0.082,0.136-0.17,0.254-0.265,0.355l0.068-4.828c0.079,0.054,0.161,0.104,0.241,0.157
		C90.898,101.695,90.882,103.772,90.211,104.89z"/>
</g>
</svg>
