<?xml version="1.0" encoding="utf-8"?>
<!-- Generator: Adobe Illustrator 16.0.3, SVG Export Plug-In . SVG Version: 6.00 Build 0)  -->
<!DOCTYPE svg PUBLIC "-//W3C//DTD SVG 1.1//EN" "http://www.w3.org/Graphics/SVG/1.1/DTD/svg11.dtd">
<svg version="1.1" id="flag-icon-css-tj" xmlns="http://www.w3.org/2000/svg" xmlns:xlink="http://www.w3.org/1999/xlink" x="0px"
	 y="0px" width="640px" height="480px" viewBox="0 0 640 480" enable-background="new 0 0 640 480" xml:space="preserve">
<g>
	<g>
		<rect fill="#00AB39" width="640" height="480"/>
		<rect fill="#FFFFFF" width="640" height="240"/>
	</g>
	<g transform="translate(1.72,0.97)">
		<path fill="#D21034" stroke="#000000" stroke-width="1.8" d="M417.196,69.802c-0.008,0.015-0.014,0.033-0.023,0.048
			c0.024-0.014,0.046-0.034,0.072-0.048H417.196z M417.173,69.85c-40.283,22.275-76.34,45.452-111.783,74.988
			c-17.011,14.859-12.208,26.704-12.868,40.048c0.549,8.959-1.936,17.292-7.444,22.313c-12.607,2.549-25.227,5.114-37.832,7.664
			c-1.208-3.489-2.407-6.972-3.614-10.459c1.152-5.351,5.577-7.982,14.891-4.626c0.734-6.88-4.801-9.681-11.277-12.071
			c-2.225-1.732-4.987-3.063-4.626-9.013c-1.089-13.468,20.522,0.964,20.723,0.964c0.201,0-0.72-13.591-10.65-16.313
			c-5.415-1.917-7.707-7.627-5.639-11.855c4.332-8.644,12.487,0.676,18.723,1.012c-0.234-5.642-1.84-9.663-6.699-14.217
			c-2.615-1.609-9.039-2.819-9.205-5.518c-0.136-3.664,6.02-5.231,14.482-4.217c-1.764-5.135-7.455-8.458-15.278-10.867
			c-1.542-2.683-3.084-5.366-4.626-8.048c-2.19-4.056-3.173-4.165,1.903-11.855c4.562-2.951,10.622-7.122,15.182-10.073
			c-1.677-0.201-3.36-0.401-5.037-0.602c0.67-5.499,0.747-7.349,2.024-16.482c-4.893,6.687-11.007,5.492-16.506,8.241
			c0,0-15.676,2.783-20.723,9.446c-0.202,0-39.422-2-39.422-2c-8.359,1.164-15.498,3.533-16.892,11.663
			c-19.117,1.93-39.136,0.223-53.711,18.506c9.924-0.469,18.611-2.833,29.759-1.398c0,0,9.501,0.18,11.47,10.241
			c0.201,0.402,3.229,0.41,3.229,0.41c1.207,0.938,2.406,1.88,3.614,2.819c0.47-1.274,0.929-2.558,1.398-3.832
			c1.073,0.738,2.155,1.479,3.229,2.217c0.334-1.408,0.678-2.809,1.012-4.217c1.074,0.738,2.131,1.479,3.205,2.217
			c0.067-1.676,0.15-3.359,0.216-5.036c1.409,1.006,2.809,2.007,4.217,3.012v-6.626c0,0,15.57-0.036,20.314,9.855
			c0.202,0.201-43.694,8.068-86.098,4.434c4.091-2.012,8.175-4.037,12.266-6.048c-15.46-3.143-29.996-5.985-43.639-16.699
			c5.148,19.383,31.754,42.15,37.205,42.048c0,0.201-5.229-9.446-5.229-9.446c15.357,0.671,30.716,1.33,46.073,2
			c1.677,5.097,0.935,10.811,5.036,15.302c0,0-2.544,8.423,3.108,11.855c0.202,0.401,6.747-17.085,6.747-17.085
			s2.005,4.704,4.025,7.832c2.926-15.042,19.301-17.495,19.301-17.495s3.422,7.847,3.422,8.049
			c-5.118,0.74-11.482,11.169-8.049,16.891c-3.431,0.065-9.524,10.168-7.638,15.687c-2.885,2.871-10.069,6.698-8.241,18.722
			c-5.655,1.213-9.003,11.56-7.253,22.531c-8.751,8.146-6.603,23.098,1.205,29.156c-3.241,2.885-5.237,5.102-5.229,8.651
			c-3.082-1.146-5.922-0.188-7.253,1.831c-3.777-3.871-9.2-7.262-13.061-3.639c-0.999-4.58-6.964-9.618-13.493-9.035
			c0.382-4.83-2.125-10.809-9.036-12.892c0,0-1.399-22.638-8.266-29.976c-0.673-4.107,0.393-6.9,6.048-10.266
			c5.646-3.012,6.846-5.347,6.434-13.879c2.227-5.703,3.917-11.518-3.012-15.47c0.208,6.782-1.874,10.047-4.626,13.06
			c-3.29-0.479-4.438,3.361-6.651,5.037c-3.097-4.174,6.533-10.64-0.603-19.928c-0.402-0.403-4.98-12.124-16.289-11.855
			c5.376,3.147,7.649,8.444,7.639,13.879c-3.565,10.059-5.377,17.833-1.807,29.373c-4.698-7.038-7.363-20.42-11.253-22.747
			c-3.41-0.665-5.075-8.73-18.313-6.433c5.71,1.536,7.523,5.896,9.06,9.854c-3.501,1.807-1.762,6.569,0.795,9.856
			c-0.485,7.722,4.141,12.234,11.061,15.108c-1.14,10.528-2.283,21.038-3.421,31.566c-2.749-0.35-6.979,10.353-8.65,10.675
			c-2.69,1.674-7.389,6.176-2,7.445c-1.601,5.776-3.085,9.26-11.687,10.459c0,0,9.089,5.391,16.626-3.832
			c8.077-0.201,5.42-9.833,9.326-14.072c0-0.2,2.216-1.593,5.445-10.072c1.413,7.571,9.182,30.757,26.748,42.265
			c15.31,16.39,27.894,31.868,27.759,53.71c5.976-5.558,9.544-14.36,12.289-22.747c8.309-2.89,20.195-3.993,30.795-3.518
			c-1.819,3.826-3.854,7.496-1.229,9.977c-7.397,2.54-9.018,7.908-6.048,13.276c-7.797,5.295-8.311,8.698-8.434,17.494
			c-14.426,18.495-23.325,17.88-37.614,13.084c-4.693-2.755-11.956-6.719-15.301-4.626c-6.172-4.114-15.046-4.725-16.506,4.626
			c4.631-3.839,7.396-3.098,11.084,0.603c-0.742,1.879-1.362,3.75,1.397,4.819c-1.208,1.341-2.407,2.684-3.614,4.024
			c-6.641-1.021-15.572-0.964-17.904,8.65c3.411-2.826,10.98-3.489,17.084-0.796c1.14,0.403,2.282,0.803,3.422,1.205
			c0.134,1.543,0.276,3.085,0.409,4.627c0,0-9.046-1.397-11.469,13.276c8.481-9.022,14.481-6.649,14.481-6.649
			c3.27,4.783,15.299,4.063,23.953-3.808c12.154-6.795,15.697,2.971,23.542-3.422c6.505-4.852,14.201-1.625,19.494,4.023
			c6.103,2.29,12.492,4.174,17.519,0c0,0,6.14-3.917,12.265,2.41c0.067-7.135-4.989-10.926-11.855-11.06l-2.024-2.024
			c-6.438-1.343-13.671-0.798-19.301-4.023c2.654-10.075,6.521-19.203,14.073-26.964c9.32-9.992,16.182-14.535,27.952-29.832
			c-0.455,8.645,6.17,18.257,9.662,27.037c0,0,7.029-11.225,8.049-20.338c0.201,0,8.809-4.48,12.482-8.289
			c7.753,4.809,20.392-3.851,28.555-11.012c5.03,1.903,8.85,1.767,14.698,0c-4.694,9.554,2.715,18.416,14.482,22.119
			c1.088,8.435,9.607,10.201,22.53,10.266c0.545,4.963,8.242,5.639,8.242,5.639c-4.864,2.268-7.399,4.538-7.229,9.663
			c-4.984,0.033-8.76,1.287-10.072,7.035c-6.845,0.118-13.819,0.643-19.71,4.024c-6.305-0.979-13.974-3.591-18.917-8.65
			c-2.549-2.146-3.185-5.241-7.638-6.435c-2.822-3.335-6.199-2.591-7.252,0.604c-2.917-2.279-13.858-3.337-15.688,7.036
			c5.108-3.738,9.688-5.164,12.892-0.602c-1.746,3.164,4.253,4.978,9.446,6.239c3.683,0.229,10.214,3.584,12.265,9.253
			c-4.75,1.441-11.949,0.967-16.698-2.626c-4.223-3.533-9.925-3.112-13.061-0.795c-4.348-2.773-14.706,2.462-15.107,10.843
			c4.363-3.997,8.333-5.931,12.288-3.397c-1.968,0.468-1.22,0.66-1.012,1.807c3.353,1.945,6.696,3.887,10.049,5.832
			c-4.931,1.3-9.565,3.269-7.421,12.457c0,0,4.015-7.938,13.059-5.012c0.201-0.2,1.247,2.836,3.831,0.797
			c3.915-4.454,12.864-6.448,20.723-7.229c6.308-0.754,12.605-2.612,18.097,0.987c4.889-2.515,10.333-4.207,15.904-0.193
			c6.571,2.08,11.371,9.74,19.71,6.242c4.147-2.872,9.245-3.017,14.483,2.819c0.063-7.359-5.451-9.826-13.278-11.471
			c-1.812-1.073-3.61-2.155-5.421-3.228c-5.03-0.739-10.08,0.151-15.108-2.218c26.319-6.805,44.77-21.482,57.759-42.435
			c4.158,1.476,8.3,2.935,12.457,4.41c2.949,0.188,3.175,1.214,9.253,3.037c0.229-8.956-3.615-18.182-19.71-19.109l-21.133-8.047
			c-4.486-4.731-6.514-14.769-0.796-20.724c5.597-4.983,6.574-4.388,10.266-10.458c4.489-0.41,8.72,4.217,12.866,4.217
			c1.97,5.85,13.32,11.021,20.531,9.253c4.518,3.999,13.114,6.223,22.529,3.012c5.345,4.679,12.307,6.632,20.507,3.011
			c2.178,2.178,6.772,3.91,12.071,2.821c0.404,0,2.68,5.814,8.46,7.854c-2.521,2.449-0.972,13.082,1.613,16.891
			c-1.765,4.09-2.319,8.451-0.819,12.676c-5.829,3.747-7.015,6.536-4.41,12.868c-7.633,12.265-16.764,13.666-25.349,9.879
			c-3.086-1.945-6.167-3.911-9.254-5.855c-3.284-3.219-6.569-6.419-9.855-9.639c-1.672-1.57-5.135-2.064-5.854,1.398
			c0,0-12.646-2.82-13.663,7.854c5.242-5.104,12.675-0.609,12.675-0.409s-1.771,1.405-0.408,3.446
			c0.305-0.256,9.231,3.331,17.179,6.746c4.319,1.637,5.268,2.148,7.157,3.157c-2.07-0.948-4.517-2.022-7.157-3.157
			c-4.837-1.834-9.551-3.299-10.938-2.939c-4.504-0.42-9.279-0.979-11.47,2.41c-4.841,2.048-12.402,3.688-12.073,12.674
			c3.269-5.351,7.753-5.124,13.471-4.627c-0.135,0.403-0.252,0.803-0.386,1.205c6.207,2.827,5.029-0.77,10.818-1.301
			c4.841-0.443,11.7,1.29,15.325,2.506c-4.56,1.341-10.76,0.778-13.687,4.025c-0.537,1.073-2.413,0.634-1.59,3.204
			c0,0-8.894-0.23-11.277,12.072c9.043-5.791,15.896-5.615,16.097-5.615c0.201,0,2.818,0.604,2.818,0.604s10.86-7.253,11.062-7.253
			c0.202,0,10.517-4.568,15.276,0.602c4.155,2.043,8.601,2.174,12.892-0.409c8.456-3.678,16.371-3.936,24.146,1.229l7.035,4.217
			c1.005-0.671,2.007-1.354,3.013-2.025c0,0,7.964-2.248,13.807,4.843c-2.415-12.271-11.181-12.674-11.181-12.674
			c-0.671-0.604-1.354-1.203-2.024-1.807c-4.157-1.61-8.299-3.235-12.457-4.844c-1.815-4.493-6.375-8.069-1.831-13.47
			c4.642-23.076,10.192-40.406,1.204-63.784c8.382,3.622,14.654,14.818,25.156,10.868c0-9.39-34.562-27.215-60.962-41.542
			c43.252-2.214,95.235-34.142,75.252-74.723c3.152-9.79,6.294-19.583,9.446-29.373c4.449,8.962,13.458,15.794,21.541,18.698
			c-6.662-12.719-10.486-51.608-6.65-78.458c-17.429,21.53-36.675,40.637-57.133,60.048c10.063,2.352,18.855,0.696,28.58-0.506
			c-2.751,5.633-5.421,11.283-8.17,16.917c-26.582-15.567-57.791-3.886-58.024,16.891c0.909,24.228,30.864,27.671,48.145,19.229
			c-3.426,22.089-54.193,13.952-54.193,13.952c-18.037-6.217-35.172-5.152-54.119-5.012c3.937-12.114,25.801-22.864,42.456-18.121
			c-23.318-26.146,3.298-58.608,35.398-68.603c-34.988-11.54-4.861-38.213,21.325-57.325c0,0-75.306,31.692-82.168,31.59
			C403.175,108.844,409.012,83.49,417.173,69.85L417.173,69.85z M180.811,100.284c1.753,0.009,3.813,0.18,5.445,0.579
			c3.396,0.827,7.528,1.302,7.471,2.313c-1.572,2.631-5.434,5.806-9.23,5.614c-3.794-0.191-5.988-2.466-7.252-8.169
			C177.633,100.411,179.058,100.275,180.811,100.284z M497.8,189.634c4.937-0.068,10.852,2.021,16.626,8.144
			c-2.775,7.996-26.866,12.103-28.481,0.265C485.456,194.464,490.583,189.732,497.8,189.634L497.8,189.634z"/>
		<path fill="none" stroke="#000000" stroke-width="1.8" stroke-linejoin="round" d="M205.687,170.18l3.652,5.314 M209.173,175.661
			c0,0,0,7.139,1.494,7.307 M207.346,186.786c0.166,0.167,3.82,6.31,3.82,6.31 M200.703,194.757c0.166,0,4.65,5.148,4.65,5.148
			 M209.249,195.911c0,0.166,4.242,8.146,4.574,8.146 M203.694,201.4c0,0,1.494,9.632,2.822,9.3 M197.416,219.049l4.284,6.431
			 M205.354,212.195c0,0,2.326,9.133,4.151,8.302 M211.327,206.71c0.167,0.166,4.323,6.148,5.484,5.319 M215.816,214.353
			l3.985,7.971 M209.173,220.496c0.166,0.333,3.321,9.467,3.321,9.467 M201.534,225.313c0,0,2.99,10.13,5.646,8.469
			 M200.372,238.764c0,0,0.166,5.313,2.823,5.645 M205.023,236.107c0,0.166,2.657,3.819,2.657,3.819 M212.612,229.788l2.207,3.496
			 M219.635,223.321l3.322,4.151 M204.225,175.703c0.167,4.483,7.276-1.579,10.101-5.399 M201.202,191.27
			c0,0,7.805-5.48,13.784-13.783 M198.711,204.389c5.48-1.495,15.563-13.689,17.556-20.166 M197.548,216.511
			c1.497,0.664,20.331-12.901,20.83-22.866 M197.051,226.973c0-0.167,17.218-4.39,24.359-23.321 M196.127,241.302
			c0,0,27.495-16.486,28.989-28.609 M410.769,268.987c0,0-1.772,14.229-16.054,16.387 M415.253,294.394
			c0.166-0.166,13.617-14.945,10.131-19.429 M446.473,280.113c0,0-0.166,10.296-8.636,17.437 M463.245,283.103
			c0,0,0.333,12.454-4.981,17.436 M478.688,290.575c0,0-5.959,11.663-8.117,12.825 M478.429,311.246c0,0,7.84,1.953,10.33-3.195
			 M480.462,328.163c0,0,7.248,1.309,10.568-5.664 M479.685,341.224c0,0,5.865,4.927,9.851-1.548 M395.504,245.264
			c0,0-0.666,25.241,34.871,30.389c39.689,10.961,58.454,5.148,60.779,49.652c-1.495,16.938-3.6,36.07-15.888,28.763
			 M357.815,268.516c0,0,5.646,10.129,12.454,9.466c8.967-2.659,12.288,2.822,12.288,2.822 M333.571,278.645
			c0,0,14.945,7.307,27.73-4.484 M335.231,268.184c1.327,17.436-20.094,27.399-28.563,25.739 M336.246,334.999
			c0.167,0,11.605-6.866,9.281-11.683 M313.476,324.811c0.333-0.332,19.263-2.159,22.751-8.968 M304.676,296.911
			c0-0.166,26.868,0.075,28.694,5.057 M340.379,280.969c0,0-26.239,44.838,22.251,44.838 M312.646,280.305
			c0,0-5.647,16.772-13.618,22.419 M284.748,274.495c0,0,9.744,18.852-0.055,28.151 M259.341,279.807
			c0.166,0.333,3.154,26.736-3.489,34.209 M246.721,280.639c0,0,0.995,16.771-3.986,22.749c-4.983,5.979,1.167,18.395,1.167,18.395
			 M183.371,329.846c0,0,3.565,6.258,8.548,4.098 M189.427,316.176c0,0,7.972,3.487,10.628,2.158 M198.063,287.946
			c0,0-11.791,3.32-7.306,17.269c6.808,5.481,13.451,4.649,13.451,4.649 M174.814,347.228c-0.166,0,1.329,10.962,8.968,2.656
			c5.313-11.124,22.086-42.51,25.906-53.305 M217.492,291.433c0,0-8.137-6.312-7.805,2.49c-0.167,5.479,2.49,6.809,2.49,6.809
			c0.332,3.984,3.82,9.63,6.643,4.482c1.163-4.981-0.83-7.14-0.83-7.14 M222.64,289.107c-7.307-0.499-11.292,15.609,2.823,5.481
			 M230.279,283.628c0,0-1.826,2.491-4.65-0.166c-1.495-2.656-6.807,11.957,2.492,12.454c1.661-4.317,6.809-5.479,6.809-5.479
			 M239.247,276.653c0,0-4.152,1.992-5.647,1.66c-4.981,1.162-3.986,12.787,2.325,12.123c2.158-2.49,4.483-5.979,4.483-5.979
			 M200.089,261.456c-0.167,0-16.479,25.652,9.095,32.461 M407.129,222.843c0,0-9.965,8.47-0.665,22.086
			c-30.889-0.497-47.492,13.783-48.821,23.415c-39.357-2.822-32.216,8.802-45.004,12.62c-17.104-14.281-42.179-6.31-40.519,7.972
			c-11.458-16.108-29.061-8.304-31.219-4.317c-2.159,3.985-1.329-19.762-1.329-19.762s-11.458,5.148-19.431,14.613
			c0.167-6.311,0-16.605,0-19.928c-9.575,1.938-18.819,2.047-28.728,1.827 M165.508,254.062c0,0,14.281,7.971,31.883-2.823
			 M164.345,225.334c0,0,11.126,9.962,32.051,6.808 M171.321,202.417c0,0,2.49,8.137,26.404,8.635 M179.42,183.599
			c0,0,9.005,11.013,21.127,9.353 M187.097,167.877c0,0,3.487,5.978,16.772,6.974 M194.9,150.439c0,0,6.976,7.639,14.947,6.311
			 M236.396,88.357c0,0,3.089-3.089,8.237-1.544 M234.167,104.656c0,0-9.609-0.343-8.924-4.118
			c0.688-4.29,10.125-7.377,10.125-7.377s12.525-8.064,14.413-10.811 M193.158,126.276l12.183,23.336l5.834-8.751l3.089,6.005
			l4.976-8.75l8.579,5.49l-3.26-10.638l7.206-0.514c0,0-1.887-5.148-8.408-6.178c1.717-1.373,7.722-5.319,7.722-5.319
			s-3.431-3.946-8.75-4.118c1.716-1.888,4.117-6.52,3.947-6.52c-0.171,0-5.32-1.202-5.32-1.202s12.183,3.946,21.62-1.544
			 M219.249,88.708c0.171,0.171-0.688,4.804-3.262,7.549 M172.234,101.576c0,0,7.537-2.074,13.177-0.898
			c5.586,1.148,13.076,3.129,13.076,3.129s8.921-1.202,11.839-3.261 M153.53,106.552c0,0-1.029,3.603-1.371,6.005
			c0,1.715-5.492,3.946-5.492,3.946 M156.964,99.174c0,0,4.804,6.005,4.975,9.437c0.172,3.431-3.603,6.005-3.603,6.005
			 M107.376,140.182l-4.977-8.064l4.461-1.544 M197.232,251.419c-3.985-5.148,2.99-84.196,17.77-104.783
			c-5.147,37.197,11.957,75.226,16.274,75.059 M152.316,124.546c0,0,6.726,2.574,20.675-8.469 M191.837,142.815l10.005,0.124
			 M502.173,80.858c0,0-166.701,77.896-169.13,82.021c28.148-8.495,147.53-28.392,150.446-26.693
			c-7.037,1.698-151.904,34.941-158.696,42.951c36.154-1.213,111.868,11.646,123.751,24.022
			c-25.722-5.823-102.646-17.228-126.181-12.133c17.229,4.126,83.23,46.833,83.23,53.627c-9.949-9.462-89.299-42.223-92.453-39.067
			c18.198,10.92,43.921,51.443,43.92,61.392c-5.338-8.492-51.2-57.752-53.868-54.598c4.853,6.795,14.469,64.942,9.553,67.637
			c0-7.036-17.804-57.931-19.261-59.386c-3.64,0.97-26.333,62.094-21.837,67.777c-2.912-20.383,0.484-62.924,6.064-61.226
			c-9.947,1.456-41.698,43.32-38.302,49.872c0.972-10.435,2.391-17.355,20.347-52.055c-19.898,1.212-61.148,27.178-68.187,36.399
			c5.582-16.5,40.524-44.408,55.811-46.349 M319.336,154.328c17.619-9.777,72.065-29.73,108.383-44.371 M285.138,206.945
			c0,0,12.01-0.171,24.021-32.771c11.836-44.608,105.694-94.366,107.583-103.634 M126.297,251.798c0,0-2.788,5.94-6.22,7.657
			 M139.759,260.8c0,0-3.723,7.233-4.582,10.665 M152.642,264.337c0,0,3.125,9.873,0.551,14.507 M116.768,238.706
			c-9.436,5.32,5.37,38.935,50.152,42.195 M159.714,262.714c0,0-1.2,6.004,7.207,18.017c-2.402,13.383,10.174,23.9,15.151,25.616
			 M156.109,142.098c0-0.172,1.373-3.604,1.373-3.604l1.529,3.966l2.463-0.064l1.625-3.977l1.334,3.992h2.447l1.509-4.433
			l2.28,4.197l1.936,0.099l1.525-5.112l3.144,3.662l1.142-0.441l0.979-5.114l3.106,3.577l0.891-0.523l1.44-5.039l2.58,3.747
			l1.299-0.423l1.206-4.235l2.398,3.892 M153.348,142.547l18.717-0.278c5.955-0.089,15.763-8.342,26.744-5.768 M113.898,182.591
			c0,0,3.088,6.692,7.379,2.917 M106.692,187.052c0,0-6.006,16.129,1.201,19.902 M98.113,169.208c0,0,0,3.774,7.893-2.059
			 M73.564,253.966c0,0,6.348,1.887,5.319,6.691 M75.962,179.841c0,0,3.946,1.887,7.721-3.946 M117.828,365.497
			c6.176-0.344,7.506,2.445,13.126,2.445c6.475,0.196,12.782-2.445,21.019-4.678 M204.992,378.193c-0.172,0-2.917,5.834-0.515,8.749
			 M116.967,378.708c0,0,9.782-8.064,14.928-3.088c4.977,1.717,7.721,1.372,7.721,1.372 M122.12,355.719
			c0,0,2.402,6.176-5.663,5.318 M114.056,369.96c0,0,5.146,3.26-0.687,7.549 M117.144,383.343c0,0,7.035,1.029,2.917,6.692
			 M344.377,340.596c0,0,19.104,1.978,19.981,3.404c2.197-2.307,19.256-16.124-1.715-18.101
			C359.132,340.285,344.706,340.815,344.377,340.596L344.377,340.596z M337.569,350.148c7.137,5.709,4.212,9.13,26.612-5.91
			 M327.357,357.287c0,0,10.541,11.309,18.227-2.417 M307.264,361.348l-14.273,7.466 M267.297,379.355c0,0,8.674-7.467,12.737-3.514
			c4.062,3.953,21.3-3.403,21.3-3.403 M273.776,346.965c0,0,2.965,5.93-2.745,6.697 M262.467,365.521c0,0,3.008,5.574-2.811,7.112
			 M269.165,380.674c0,0,9.003,0.438,5.819,7.245 M353.381,379.465c0,0-4.941,4.173-1.317,8.895 M425.077,349.491
			c0,0,5.71,2.744-1.098,7.466 M418.27,366.839c0,0,4.282,4.503,1.427,8.234 M430.239,384.077c0,0,5.927,1.646,5.271,6.587
			 M513.242,379.685c0,0-4.94,3.622-2.306,8.345 M425.239,235.378c11.858-1.428,28.877,24.924,37.55,30.085 M514.661,198.05
			c0,0,6.008,5.244,0.723,17.893 M525.797,177.878c1.672,1.3,8.127,4.746,12.391,12.72 M542.283,138.427
			c0,0.109-8.344,22.508-8.344,22.508 M551.616,137.329c0,0-1.646,19.982-4.063,24.045 M514.43,197.787
			c-2.776,7.998-26.865,12.089-28.48,0.25C485.129,192.011,500.217,182.715,514.43,197.787z"/>
		<path stroke="#000000" stroke-width="1.8" stroke-linejoin="round" d="M180.626,100.349l9.268,1.715
			C189.894,102.064,183.371,110.816,180.626,100.349z"/>
	</g>
</g>
</svg>
