<?xml version="1.0" encoding="utf-8"?>
<!-- Generator: Adobe Illustrator 16.0.3, SVG Export Plug-In . SVG Version: 6.00 Build 0)  -->
<!DOCTYPE svg PUBLIC "-//W3C//DTD SVG 1.1//EN" "http://www.w3.org/Graphics/SVG/1.1/DTD/svg11.dtd">
<svg version="1.1" id="flag-icon-css-ad" xmlns="http://www.w3.org/2000/svg" xmlns:xlink="http://www.w3.org/1999/xlink" x="0px"
	 y="0px" width="640px" height="480px" viewBox="0 0 640 480" enable-background="new 0 0 640 480" xml:space="preserve">
<g>
	<rect fill="#0155A5" width="640" height="480"/>
	<g transform="scale(130,90)">
		<path fill="#FFFFFF" d="M0,2.286V3.81l1.524,1.524h1.524L0,2.286z"/>
		<polygon fill="#FFFFFF" points="4.923,4.161 0.762,0 0,0 0,0.762 4.571,5.333 4.923,5.333 		"/>
		<polygon fill="#FFFFFF" points="4.923,1.114 3.81,0 2.286,0 4.923,2.637 		"/>
	</g>
	<g>
		<path id="pomp" fill="#EE3E34" d="M322.597,274.768c-21.069-19.189-24.69-51.008-8.469-74.438
			c8.862-12.801,25.126-16.892,36.327-9.138c8.876,6.008,10.313,19.896,3.343,32.315c-1.107,1.6-0.708,3.796,0.892,4.903
			c1.601,1.108,3.796,0.709,4.903-0.891c9.172-10.896,22.675-14.439,31.424-8.246c11.2,7.755,13.096,24.418,4.234,37.218
			C379.029,279.922,347.974,287.734,322.597,274.768z"/>
	</g>
	<g>
		<path id="pomp_1_" fill="#EE3E34" d="M45.264,357.053c-21.071-19.189-24.69-51.006-8.469-74.438
			c8.862-12.801,25.126-16.891,36.327-9.138c8.876,6.009,10.313,19.896,3.343,32.316c-1.108,1.6-0.709,3.795,0.892,4.902
			c1.6,1.107,3.795,0.709,4.903-0.892c9.171-10.896,22.675-14.439,31.423-8.246c11.201,7.755,13.097,24.418,4.235,37.219
			C101.697,362.208,70.641,370.02,45.264,357.053z"/>
	</g>
	<path fill="#EE3E34" d="M640,142.006c-1.065,0.992-2.096,2.065-3.074,3.228c-1.107,1.6-3.303,1.999-4.903,0.892
		s-2-3.303-0.892-4.903c6.97-12.42,5.533-26.307-3.343-32.315c-11.201-7.754-27.465-3.664-36.327,9.137
		c-16.222,23.431-12.601,55.249,8.47,74.438c12.79,6.535,27.021,7.787,40.069,4.426V142.006z"/>
	<g>
		<path id="pomp_3_" fill="#EE3E34" d="M137.708,146.767c-21.07-19.188-24.69-51.006-8.469-74.437
			c8.861-12.801,25.126-16.892,36.327-9.138c8.876,6.009,10.313,19.895,3.343,32.315c-1.107,1.6-0.708,3.795,0.892,4.903
			c1.601,1.107,3.795,0.709,4.903-0.892c9.173-10.896,22.676-14.438,31.424-8.246c11.201,7.754,13.097,24.417,4.235,37.218
			C194.14,151.923,163.085,159.734,137.708,146.767z"/>
	</g>
	<g>
		<path id="pomp_4_" fill="#EE3E34" d="M507.486,402.767c-21.07-19.188-24.69-51.005-8.47-74.437
			c8.862-12.802,25.127-16.893,36.328-9.138c8.875,6.008,10.312,19.896,3.343,32.315c-1.109,1.6-0.709,3.796,0.891,4.902
			c1.601,1.108,3.796,0.71,4.903-0.892c9.172-10.896,22.676-14.438,31.425-8.246c11.2,7.755,13.096,24.418,4.234,37.22
			C563.918,407.923,532.862,415.733,507.486,402.767z"/>
	</g>
	<g>
		<path id="pomp_5_" fill="#EE3E34" d="M479.788,109.307c-21.068-19.188-24.689-51.006-8.469-74.437
			c8.863-12.801,25.127-16.892,36.327-9.138c8.877,6.009,10.313,19.895,3.344,32.315c-1.107,1.6-0.708,3.796,0.892,4.903
			s3.795,0.708,4.902-0.892c9.173-10.896,22.676-14.439,31.425-8.246c11.201,7.754,13.096,24.417,4.234,37.218
			C536.222,114.462,505.166,122.274,479.788,109.307z"/>
	</g>
	<g>
		<path id="pomp_6_" fill="#EE3E34" d="M165.405,440.226c-21.07-19.188-24.69-51.005-8.469-74.436
			c8.862-12.802,25.126-16.893,36.327-9.139c8.876,6.01,10.313,19.896,3.343,32.315c-1.108,1.601-0.709,3.796,0.891,4.903
			c1.601,1.108,3.795,0.709,4.903-0.892c9.173-10.896,22.676-14.438,31.424-8.246c11.201,7.755,13.097,24.418,4.234,37.219
			C221.837,445.382,190.781,453.193,165.405,440.226z"/>
	</g>
</g>
</svg>
