<?xml version="1.0" encoding="utf-8"?>
<!-- Generator: Adobe Illustrator 16.0.3, SVG Export Plug-In . SVG Version: 6.00 Build 0)  -->
<!DOCTYPE svg PUBLIC "-//W3C//DTD SVG 1.1//EN" "http://www.w3.org/Graphics/SVG/1.1/DTD/svg11.dtd">
<svg version="1.1" id="flag-icon-css-ad" xmlns="http://www.w3.org/2000/svg" xmlns:xlink="http://www.w3.org/1999/xlink" x="0px"
	 y="0px" width="640px" height="480px" viewBox="0 0 640 480" enable-background="new 0 0 640 480" xml:space="preserve">
<g>
	<rect fill="#FFFFFF" width="640" height="480"/>
	<path fill="#008C00" d="M119.5,238.987c40.759,0,78.65-12.209,110.265-33.145l34.163,34.162l-34.163,34.163
		c-31.615-20.937-69.506-33.146-110.265-33.146 M319.475,440.997c0-40.759-12.209-78.649-33.145-110.265l34.162-34.162
		l34.163,34.162c-20.937,31.615-33.146,69.506-33.146,110.265 M521.51,241.022c-40.759,0-78.649,12.21-110.265,33.146
		l-34.163-34.163l34.163-34.163c31.615,20.937,69.506,33.146,110.265,33.146 M321.522,39.001c0,40.759,12.21,78.65,33.146,110.265
		l-34.163,34.163l-34.163-34.163c20.936-31.615,33.145-69.506,33.145-110.265"/>
	
		<rect x="280.502" y="200.001" transform="matrix(-0.7071 -0.7071 0.7071 -0.7071 377.4227 636.3375)" fill="#008C00" width="80" height="80"/>
	<path fill="none" stroke="#000000" stroke-width="9.6" d="M238.478,105.651l216.375,216.374c14.449,14.449,14.449,37.877,0,52.326
		l0,0c-14.449,14.449-37.877,14.449-52.326,0L186.152,157.977c-14.45-14.45-14.45-37.876,0-52.326l0,0
		C200.601,91.202,224.028,91.202,238.478,105.651z"/>
	<path fill="none" stroke="#000000" stroke-width="9.6" d="M454.853,157.977L238.478,374.352c-14.449,14.449-37.876,14.449-52.326,0
		l0,0c-14.45-14.449-14.45-37.877,0-52.326l216.375-216.375c14.449-14.449,37.877-14.449,52.326,0l0,0
		C469.302,120.101,469.302,143.527,454.853,157.977z"/>
	<path fill="none" stroke="#000000" stroke-width="5.069" d="M321.383,441.005c0-110.456,89.543-199.999,200-199.999
		c0.006,0,0.01,0,0.016,0"/>
	<path fill="none" stroke="#000000" stroke-width="5.069" d="M521.397,238.996c-110.457,0.008-200.007-89.528-200.015-199.984
		c0-0.006,0-0.012,0-0.017"/>
	<path fill="none" stroke="#000000" stroke-width="5.069" d="M119.388,241.005c110.457,0.001,200,89.543,200,199.999"/>
	<path fill="none" stroke="#000000" stroke-width="5.069" d="M319.402,38.995c0.002,110.457-89.541,200-199.998,200.001
		c-0.006,0-0.011,0-0.017,0"/>
</g>
</svg>
