<?xml version="1.0" encoding="utf-8"?>
<!-- Generator: Adobe Illustrator 16.0.3, SVG Export Plug-In . SVG Version: 6.00 Build 0)  -->
<!DOCTYPE svg PUBLIC "-//W3C//DTD SVG 1.1//EN" "http://www.w3.org/Graphics/SVG/1.1/DTD/svg11.dtd">
<svg version="1.1" id="flag-icon-css-hn" xmlns="http://www.w3.org/2000/svg" xmlns:xlink="http://www.w3.org/1999/xlink" x="0px"
	 y="0px" width="640px" height="480px" viewBox="0 0 640 480" enable-background="new 0 0 640 480" xml:space="preserve">
<g>
	<rect fill-rule="evenodd" clip-rule="evenodd" fill="#E2121C" width="640" height="480"/>
	<path fill-rule="evenodd" clip-rule="evenodd" fill="#FBDF03" d="M327.084,232.188c19.988-1.625,36.743,8.296,52.428,20.478
		c16.2,12.582,25.418,29.873,31.371,49.123c3.01,9.73,5.295,19.619,5.883,29.82c0.526,9.158-1.072,18.104-3.299,26.926
		c-4.192,16.605-10.151,32.441-21.234,45.848c-13.148,15.904-29.768,26.816-49.742,31.619c-21.767,5.234-42.067,0.457-60.786-11.711
		c-17.756-11.541-29.907-27.525-37.666-46.982c-5.687-14.262-9.898-29.066-8.869-44.5c2.245-33.629,13.749-63.031,41.812-83.852
		c9.875-7.324,20.741-13.017,32.841-15.862C315.125,231.849,320.595,232.197,327.084,232.188z"/>
	<path fill-rule="evenodd" clip-rule="evenodd" fill="#FBDE03" d="M78.758,59.134c3.332,6.627,6.825,12.674,10.262,18.753
		c1.182,2.09,0.763,4.379,0.18,6.58c-0.809,3.055-1.763,6.074-2.499,9.146c-0.536,2.241-0.278,4.382,2.003,5.658
		c2.199,1.229,4.095,0.254,5.68-1.202c4.781-4.392,8.574-9.554,11.083-15.543c2.006-4.789,0.656-7.315-4.319-8.885
		c-3.592-1.133-4.308-2.111-3.798-5.818c0.611-4.451-0.52-8.417-3.001-12.064c-1.393-2.047-2.836-4.061-4.419-6.323
		c2.96-0.47,5.492-0.257,7.919,1.056c5.254,2.842,9.9,6.451,13.882,10.903c1.468,1.641,2.373,3.378,2.391,5.795
		c0.022,3.033,1.427,5.891,3.25,8.258c3.883,5.042,3.794,10.013,1.116,15.593c-2.478,5.163-4.258,10.658-6.386,15.99
		c-0.755,1.894-0.465,3.452,0.855,5.053c2.229,2.703,4.449,5.421,7.011,7.799c3.717,3.449,5.309,7.526,4.509,12.564
		c-0.64,4.027-1.125,8.079-1.781,12.103c-0.146,0.897-0.205,2.187-1.584,2.199c-1.198,0.01-2.015-0.774-2.457-1.837
		c-0.807-1.944-1.146-3.998-1.181-6.095c-0.036-2.083-0.072-4.163-0.492-6.218c-0.763-3.736-3.945-6.949-7.667-7.727
		c-1.915-0.4-3.505,0.306-4.718,1.671c-2.65,2.982-4.462,6.449-5.064,10.412c-0.579,3.807,1.091,6.805,3.888,9.249
		c2.793,2.441,6.126,3.986,9.415,5.604c4.116,2.026,8.195,4.13,11.493,7.414c4.137,4.118,3.832,8.258-0.84,11.812
		c-1.539,1.171-3.307,1.937-5.102,2.602c-9.488,3.517-19.274,5.804-29.324,6.95c-1.236,0.141-2.501,0.148-3.745,0.075
		c-2.726-0.162-3.529-1.736-1.979-4.002c1.799-2.629,4.467-4.18,7.292-5.495c2.111-0.982,4.245-1.914,5.943-3.609
		c1.395-1.392,1.478-2.7,0.04-4.07c-5.167-4.924-10.942-8.953-17.444-11.926c-1.594-0.729-3.107-0.488-4.545,0.329
		c-5.468,3.108-10.373,6.938-14.686,11.524c-1.533,1.631-1.356,3.044,0.275,4.473c1.467,1.284,3.174,2.119,4.921,2.915
		c2.742,1.249,5.378,2.686,7.455,4.923c0.78,0.841,1.706,1.842,1.249,3.088c-0.51,1.391-1.916,1.429-3.177,1.479
		c-6.827,0.271-13.373-1.522-19.988-2.777c-4.087-0.775-8.143-1.709-12.054-3.185c-2.774-1.047-5.23-2.555-7.218-4.775
		c-2.737-3.059-2.795-6.297-0.092-9.408c2.672-3.075,6.134-5.087,9.675-6.97c3.085-1.64,6.292-3.081,9.256-4.916
		c8.567-5.305,9.069-15.849,1.161-22.222c-1.541-1.241-3.224-1.641-5.132-0.87c-3.833,1.55-6.327,4.105-6.903,8.398
		c-0.421,3.142-0.02,6.348-0.839,9.443c-0.211,0.799-0.379,1.655-0.8,2.343c-0.87,1.422-2.326,1.328-3.117-0.157
		c-0.309-0.58-0.5-1.237-0.655-1.881c-1.008-4.216-1.61-8.496-2.053-12.808c-0.358-3.487,0.759-6.346,3.096-8.88
		c2.934-3.183,5.996-6.247,8.661-9.682c1.213-1.564,1.499-3.025,0.778-4.834c-2.399-6.03-4.577-12.156-7.173-18.099
		c-1.88-4.304-1.7-8.068,0.957-11.991c2.324-3.433,4.447-7.057,4.267-11.507c-0.049-1.208,0.836-2.165,1.58-3.052
		c3.937-4.698,8.5-8.678,13.764-11.838c0.356-0.214,0.731-0.401,1.11-0.571c1.632-0.734,3.523-1.55,4.902-0.096
		c1.473,1.555-0.077,3.196-0.959,4.452c-3.057,4.356-4.551,8.979-3.589,14.353c0.418,2.338-0.708,4.006-3.155,4.637
		c-1.042,0.269-2.08,0.631-3.043,1.106c-2.291,1.128-3.241,2.979-2.804,5.541c0.242,1.415,0.705,2.747,1.367,4
		c2.466,4.675,5.531,8.918,9.37,12.563c0.894,0.848,1.934,1.605,3.029,2.165c2.332,1.19,3.802,0.475,4.507-2.034
		c0.844-3.001,0.511-6.077-0.389-8.886c-1.85-5.775-0.466-10.807,2.568-15.685C73.37,67.946,75.951,63.703,78.758,59.134z"/>
	<path fill-rule="evenodd" clip-rule="evenodd" fill="#FBDE03" d="M560.204,59.118c3.339,6.558,6.742,12.561,10.191,18.539
		c1.236,2.145,0.875,4.527,0.258,6.819c-0.8,2.972-1.74,5.908-2.45,8.9c-0.545,2.296-0.448,4.57,1.972,5.898
		c2.309,1.267,4.23,0.155,5.873-1.366c4.64-4.296,8.269-9.379,10.813-15.146c2.131-4.831,0.729-7.55-4.261-9.128
		c-3.578-1.132-4.339-2.185-3.794-5.827c0.652-4.363-0.467-8.254-2.859-11.843c-1.419-2.129-2.921-4.203-4.536-6.518
		c3.046-0.512,5.636-0.211,8.133,1.157c4.491,2.461,8.533,5.506,12.124,9.145c2.169,2.198,3.975,4.393,4.008,7.934
		c0.03,3.24,1.861,6.223,3.787,8.846c3.104,4.228,3.15,8.403,1.033,13.11c-2.557,5.684-4.606,11.594-6.925,17.387
		c-0.763,1.904-0.45,3.445,0.853,5.052c2.365,2.918,4.832,5.74,7.514,8.355c3.207,3.126,4.725,6.755,4.053,11.253
		c-0.639,4.278-1.162,8.574-1.827,12.848c-0.141,0.907-0.201,2.184-1.567,2.213c-1.202,0.026-2.012-0.772-2.463-1.826
		c-0.797-1.857-1.068-3.833-1.184-5.842c-0.118-2.075-0.172-4.167-0.485-6.216c-0.598-3.909-3.829-7.177-7.663-7.989
		c-1.805-0.382-3.356,0.212-4.539,1.489c-2.836,3.062-4.713,6.664-5.267,10.825c-0.51,3.829,1.257,6.762,4.074,9.167
		c2.819,2.407,6.165,3.922,9.443,5.554c4.105,2.044,8.182,4.145,11.445,7.474c3.787,3.863,3.635,7.601-0.409,11.165
		c-1.595,1.405-3.504,2.257-5.447,2.986c-9.631,3.61-19.575,5.937-29.796,7.07c-0.743,0.083-1.5,0.105-2.247,0.075
		c-1.374-0.056-3.065,0.37-3.777-1.218c-0.78-1.742,0.548-2.99,1.611-4.139c1.962-2.121,4.491-3.409,7.085-4.576
		c1.906-0.857,3.74-1.812,5.216-3.354c1.187-1.241,1.331-2.481,0.074-3.702c-5.305-5.151-11.29-9.318-18.07-12.3
		c-1.404-0.617-2.804-0.234-4.077,0.484c-5.479,3.091-10.367,6.937-14.688,11.516c-1.524,1.614-1.414,3.027,0.228,4.472
		c1.463,1.287,3.164,2.135,4.914,2.924c2.671,1.203,5.242,2.597,7.287,4.73c0.886,0.926,2.056,2.006,1.364,3.473
		c-0.612,1.299-2.038,1.28-3.295,1.307c-7.496,0.16-14.683-1.755-21.908-3.348c-4.794-1.057-9.586-2.189-13.929-4.618
		c-6.668-3.729-7.142-9.612-1.187-14.406c3.203-2.579,6.834-4.431,10.502-6.228c2.989-1.465,5.993-2.912,8.604-5.028
		c4.454-3.61,5.586-7.775,3.546-13.107c-0.776-2.03-1.766-3.956-3.053-5.709c-2.514-3.426-4.962-3.861-8.619-1.829
		c-4.011,2.228-5.171,5.874-5.298,10.071c-0.079,2.583-0.065,5.175-0.743,7.688c-0.298,1.102-0.59,2.383-2.063,2.511
		c-1.609,0.139-1.883-1.233-2.152-2.3c-1.266-5.013-2.128-10.09-2.282-15.278c-0.087-2.909,1.363-5.081,3.163-7.107
		c2.654-2.988,5.304-5.982,8.031-8.903c1.786-1.914,2.162-3.856,1.121-6.345c-2.407-5.755-4.433-11.673-6.942-17.38
		c-1.894-4.305-1.667-8.069,0.984-11.983c2.326-3.433,4.436-7.066,4.26-11.508c-0.044-1.125,0.753-2.02,1.436-2.85
		c4.004-4.87,8.712-8.93,14.137-12.15c0.286-0.17,0.588-0.313,0.892-0.45c1.635-0.734,3.501-1.524,4.901-0.078
		c1.409,1.456-0.014,3.049-0.862,4.243c-3.191,4.486-4.665,9.284-3.702,14.824c0.366,2.109-0.708,3.696-2.936,4.288
		c-0.802,0.213-1.592,0.49-2.364,0.795c-3.348,1.324-4.644,3.494-3.449,6.899c2.455,6.996,6.749,12.807,12.666,17.257
		c2.932,2.204,4.976,1.155,5.563-2.511c0.551-3.448-0.222-6.813-1.033-10.122c-0.702-2.861-0.648-5.601,0.48-8.311
		C552.362,70.911,556.569,65.414,560.204,59.118z"/>
	<path fill-rule="evenodd" clip-rule="evenodd" fill="#FBDE03" d="M82.758,301.57c0.842,1.699,1.519,3.027,2.163,4.369
		c1.836,3.83,3.423,7.863,5.987,11.219c3.139,4.113,3.039,8.213,1.43,12.705c-0.896,2.502-1.732,5.039-1.877,7.738
		c-0.098,1.813,0.468,3.289,2.097,4.217c1.645,0.936,3.333,0.691,4.688-0.422c5.846-4.801,10.234-10.738,12.627-17.92
		c1.198-3.594-0.466-5.895-4.301-7.148c-4.419-1.443-4.83-2.057-4.236-6.652c0.555-4.299-0.845-8.045-3.188-11.523
		c-1.338-1.986-2.75-3.926-4.298-6.127c2.892-0.594,5.358-0.271,7.681,0.943c5.672,2.969,10.609,6.879,14.753,11.768
		c1.157,1.365,1.868,2.848,1.729,4.775c-0.147,2.041,0.812,3.898,1.698,5.684c0.962,1.936,2.041,3.818,3.169,5.664
		c1.939,3.174,2.039,6.309,0.52,9.74c-4.214,9.521-6.929,19.611-10.884,29.236c-1.742,4.238-3.692,8.35-6.169,12.24
		c-5.125,8.051-3.672,14.193,4.462,19.152c2.765,1.686,5.747,3.014,8.623,4.516c2.812,1.469,5.53,3.096,7.919,5.197
		c5.538,4.871,4.889,10.314-1.665,13.723c-4.91,2.555-10.233,3.969-15.561,5.311c-6.542,1.646-13.123,3.139-19.917,3.246
		c-1.292,0.021-2.862,0.309-3.513-1.232c-0.65-1.537,0.4-2.713,1.346-3.77c2.044-2.285,4.687-3.703,7.439-4.934
		c1.834-0.82,3.586-1.742,5.031-3.189c1.275-1.277,1.544-2.57,0.165-3.887c-5.282-5.041-11.169-9.203-17.861-12.182
		c-1.424-0.635-2.778-0.373-4.07,0.346c-5.574,3.102-10.532,6.986-14.908,11.635c-1.681,1.787-1.246,3.209,0.457,4.615
		c1.629,1.346,3.548,2.154,5.412,3.078c2.542,1.26,5.068,2.582,6.948,4.777c0.729,0.852,1.664,1.824,1.02,3.109
		c-0.56,1.115-1.74,1.172-2.829,1.24c-3.942,0.252-7.808-0.34-11.663-1.066c-6.622-1.25-13.274-2.365-19.69-4.51
		c-2.961-0.988-5.65-2.455-7.832-4.734c-3.229-3.377-3.279-6.717-0.127-10.146c2.635-2.865,5.947-4.803,9.336-6.609
		c3.231-1.721,6.606-3.195,9.725-5.098c6.287-3.834,7.655-7.895,5.028-14.809c-2.602-6.852-6.44-13.143-9.197-19.943
		c-3.63-8.949-6.193-18.289-10.097-27.135c-0.927-2.102-0.705-4.262,0.332-6.281c0.949-1.85,2.06-3.617,3.03-5.457
		c1.437-2.727,2.901-5.445,2.704-8.697c-0.076-1.248,0.697-2.217,1.434-3.111c4.065-4.926,8.825-9.055,14.35-12.281
		c0.287-0.168,0.591-0.309,0.896-0.441c1.574-0.68,3.387-1.357,4.693-0.01c1.409,1.453,0.027,3.076-0.827,4.256
		c-3.242,4.475-4.647,9.297-3.748,14.82c0.346,2.129-0.687,3.689-2.898,4.322c-1.116,0.32-2.242,0.672-3.28,1.18
		c-2.422,1.186-3.538,3.203-2.739,5.76c2.332,7.457,6.822,13.494,13.052,18.123c2.713,2.016,4.665,0.961,5.307-2.389
		c0.63-3.285,0.063-6.535-0.83-9.627c-1.201-4.158-0.454-7.883,1.45-11.557C76.014,312.057,79.418,307.119,82.758,301.57z"/>
	<path fill-rule="evenodd" clip-rule="evenodd" fill="#FBDE03" d="M562.188,293.865c3.291,6.639,6.79,12.59,10.187,18.598
		c1.173,2.074,0.875,4.369,0.284,6.58c-0.752,2.813-1.615,5.596-2.345,8.412c-0.247,0.953-0.354,1.979-0.315,2.963
		c0.124,3.244,3.084,5.008,6.019,3.615c1.215-0.576,2.24-1.439,3.161-2.416c3.627-3.836,6.653-8.104,9.081-12.789
		c0.456-0.881,0.83-1.826,1.091-2.783c1.041-3.816-0.155-6.027-3.912-7.375c-4.99-1.789-5.105-1.961-4.554-7.178
		c0.435-4.109-0.909-7.707-3.163-11.039c-1.377-2.035-2.794-4.043-4.346-6.285c3.065-0.566,5.629-0.154,8.032,1.137
		c5.412,2.906,10.115,6.717,14.164,11.334c1.298,1.479,2.045,3.082,1.97,5.193c-0.085,2.373,1.116,4.494,2.195,6.559
		c1.117,2.139,2.384,4.199,3.487,6.344c0.995,1.934,1.239,4.021,0.366,6.045c-4.457,10.328-7.235,21.266-11.521,31.656
		c-1.558,3.777-3.221,7.494-5.616,10.836c-0.146,0.203-0.271,0.42-0.402,0.631c-5.383,8.768-3.899,14.787,4.976,19.975
		c3.879,2.268,8.117,3.869,11.889,6.346c2.303,1.514,4.577,3.055,6.228,5.328c2.047,2.818,1.996,5.537-0.159,8.234
		c-1.22,1.527-2.727,2.688-4.527,3.443c-10.832,4.545-22.112,7.266-33.825,8.094c-1.524,0.107-3.655,0.762-4.428-1.256
		c-0.738-1.928,0.872-3.236,2.116-4.447c2-1.943,4.477-3.154,6.975-4.316c7.29-3.393,7.534-5.111,1.296-10.154
		c-4.152-3.357-8.582-6.305-13.412-8.633c-1.816-0.877-3.46-0.842-5.205,0.156c-5.316,3.041-10.126,6.73-14.326,11.178
		c-2.018,2.135-1.849,3.293,0.431,5.152c1.635,1.332,3.601,2.064,5.447,3.018c2.666,1.379,5.375,2.738,7.143,5.305
		c1.332,1.932,0.887,3.07-1.418,3.561c-3.594,0.768-7.136-0.045-10.647-0.658c-7.704-1.344-15.407-2.729-22.792-5.43
		c-1.884-0.689-3.702-1.514-5.347-2.67c-4.422-3.109-4.936-8.146-1.161-11.998c3.018-3.078,6.783-5.07,10.597-6.961
		c3.056-1.516,6.196-2.871,9.038-4.789c4.858-3.281,6.205-6.764,4.781-12.455c-1.2-4.801-3.386-9.215-5.545-13.617
		c-5.582-11.383-9.408-23.473-14.279-35.141c-0.918-2.199-0.779-4.422,0.295-6.529c0.907-1.777,1.976-3.473,2.91-5.236
		c1.479-2.797,3.02-5.58,2.798-8.92c-0.058-0.873,0.38-1.627,0.891-2.287c4.34-5.6,9.564-10.172,15.828-13.523
		c0.22-0.117,0.446-0.236,0.685-0.301c1.387-0.379,2.92-0.781,4.017,0.346c1.19,1.223,0.04,2.502-0.5,3.65
		c-0.457,0.973-1.112,1.854-1.712,2.754c-1.907,2.869-2.755,6.021-2.643,9.457c0.196,5.977,0.185,5.977-5.325,8.373
		c-3.032,1.32-4.27,3.453-3.2,6.615c2.409,7.123,6.758,12.979,12.749,17.477c2.869,2.154,4.812,1.172,5.471-2.332
		c0.633-3.369-0.039-6.678-0.896-9.875c-0.964-3.594-0.595-6.912,0.976-10.178C554.983,304.941,558.662,299.787,562.188,293.865z"/>
	<path fill-rule="evenodd" clip-rule="evenodd" fill="#FEFDFD" d="M607.325,247.799c-2.021,0.09-3.538-1.021-4.795-2.338
		c-2.545-2.666-5.713-3.539-9.224-3.758c-14.651-0.912-29.304-0.285-43.955-0.037c-30.725,0.521-61.449,1.098-92.175,1.598
		c-1.556,0.023-2.625,0.492-3.657,1.627c-2.185,2.398-4.459,4.715-6.993,6.77c-1.194,0.969-2.286,1.092-3.621,0.35
		c-9.315-5.191-18.247-10.961-26.731-17.428c-1.372-1.046-1.322-1.856-0.018-2.869c7.78-6.031,16.057-11.266,24.877-15.643
		c1.528-0.758,3.074-0.624,4.246,0.347c4.512,3.739,10.027,3.792,15.359,4.227c24.99,2.041,50.05,2.744,75.101,3.589
		c17.146,0.578,34.291,1.244,51.452,0.977c2.742-0.043,5.485-0.271,8.222-0.493c2.532-0.205,4.5-1.309,6.025-3.474
		c3.079-4.371,4.381-4.644,9.129-2.046c5.209,2.851,9.985,6.306,14.051,10.68c1.262,1.358,1.966,2.796,1.316,4.742
		C624.085,240.162,613.252,247.883,607.325,247.799z"/>
	<path fill-rule="evenodd" clip-rule="evenodd" fill="#FBDE03" d="M281.702,92.686c6.233-3.834,12.015-7.447,17.865-10.948
		c1.378-0.825,1.89-1.737,1.902-3.369c0.047-6.404-0.452-12.827,0.454-19.211c0.058-0.412,0.076-0.832,0.156-1.239
		c0.582-2.965,1.039-3.168,3.768-1.757c4.234,2.189,7.992,5.112,11.893,7.803c4.202,2.899,8.417,3.155,12.937,0.893
		c3.57-1.786,7.228-3.396,10.808-5.163c1.785-0.881,2.326-0.247,2.499,1.535c0.41,4.236,0.487,8.478,0.499,12.726
		c0.004,1.415,0.056,2.831,0.095,4.245c0.149,5.361,2.735,8.88,7.834,10.658c3.06,1.066,6.051,2.337,9.039,3.595
		c0.895,0.376,1.979,0.843,2.009,2.006c0.031,1.205-1.089,1.602-1.985,1.984c-2.294,0.977-4.604,1.925-6.944,2.785
		c-6.796,2.497-9.841,7.521-10.034,14.569c-0.091,3.324,0.176,6.665-0.436,9.97c-0.599,3.238-1.81,3.997-4.86,2.853
		c-2.823-1.059-5.392-2.652-7.849-4.346c-7.245-4.998-14.465-5.607-22.032-0.648c-2.625,1.72-5.516,3.07-8.487,4.199
		c-1.806,0.686-2.362,0.174-2.406-1.684c-0.14-5.938,0.681-11.8,1.344-17.667c0.192-1.698-0.254-2.551-1.642-3.406
		C292.753,99.758,287.451,96.334,281.702,92.686z"/>
	<path fill-rule="evenodd" clip-rule="evenodd" fill="#FBDE03" d="M526.517,194.768c16.853,0.985,33.189,2.319,49.52,3.77
		c5.718,0.508,11.448,0.998,17.202,0.693c4.1-0.217,5.025-1.02,5.703-5.007c0.357-2.11,1.623-2.299,3.29-1.673
		c3.084,1.157,5.635,3.187,8.21,5.158c1.716,1.313,3.464,2.606,4.831,4.312c1.192,1.487,1.008,2.865-0.682,3.714
		c-4.091,2.058-8.432,3.525-12.768,4.958c-1.805,0.596-2.706-0.756-3.297-2.275c-1.708-4.39-2.172-4.724-6.99-4.349
		c-23.242,1.806-46.518,2.851-69.826,3.161c-1.989,0.026-3.995,0.147-5.97-0.311c-1.258-0.291-1.628-0.826-0.539-1.775
		c4.447-3.871,4.401-4.647-0.155-8.672c-0.366-0.323-0.882-0.654-0.739-1.2c0.19-0.729,0.928-0.581,1.473-0.646
		C519.526,194.176,523.259,194.839,526.517,194.768z"/>
	<path fill-rule="evenodd" clip-rule="evenodd" fill="#1724A9" d="M540.85,261.938c-11.484,0.379-22.969,0.758-34.453,1.133
		c-0.665,0.021-1.338,0.053-1.997-0.016c-1.455-0.146-3.434,0.43-4.149-0.982c-0.635-1.25,1.219-2.104,1.946-3.139
		c1.374-1.957,0.981-3.859-1.311-5.49c-0.454-0.324-1.243-0.4-1.14-1.119c0.125-0.861,0.99-0.807,1.606-0.848
		c4.753-0.309,9.482,0.211,14.214,0.52c19.688,1.289,39.341,3.158,59.072,3.777c1.414,0.045,2.833,0.057,4.245-0.016
		c2.307-0.119,3.837-1.121,4.467-3.553c0.842-3.252,1.403-3.465,4.276-1.904c3.976,2.156,7.499,4.938,10.708,8.123
		c1.334,1.324,1.267,2.359-0.476,3.254c-3.714,1.908-7.499,3.57-11.677,4.209c-1.567,0.24-2.644-0.107-3.018-1.746
		c-0.693-3.043-2.872-3.785-5.629-3.775c-9.914,0.039-19.807,0.629-29.705,1.086c-2.329,0.107-4.656,0.248-6.984,0.373
		C540.848,261.861,540.849,261.898,540.85,261.938z"/>
</g>
</svg>
