<?xml version="1.0" encoding="utf-8"?>
<!-- Generator: Adobe Illustrator 16.0.3, SVG Export Plug-In . SVG Version: 6.00 Build 0)  -->
<!DOCTYPE svg PUBLIC "-//W3C//DTD SVG 1.1//EN" "http://www.w3.org/Graphics/SVG/1.1/DTD/svg11.dtd">
<svg version="1.1" id="flag-icon-css-wf" xmlns="http://www.w3.org/2000/svg" xmlns:xlink="http://www.w3.org/1999/xlink" x="0px"
	 y="0px" width="640px" height="480px" viewBox="0 0 640 480" enable-background="new 0 0 640 480" xml:space="preserve">
<g>
	<path fill="#032EA1" d="M-2.25-2.25h644.5v484.5H-2.25V-2.25z"/>
	<path fill="#E00025" d="M-2.25,118.875h644.5v242.25H-2.25V118.875z"/>
	<g transform="translate(117.143 -434.934)">
		<g>
			<path fill="#FFFFFF" stroke="#000000" stroke-width="0.96" stroke-linejoin="bevel" d="M132.369,661.036h137.84v53.039h-137.84
				V661.036z"/>
			<path fill="#FFFFFF" stroke="#000000" stroke-width="0.96" stroke-linejoin="bevel" d="M263.099,690.325h4.343v19.979h-4.343
				V690.325z M132.369,680.453h137.84v6.165h-137.84V680.453z M132.369,672.095h137.84v5.438h-137.84V672.095z"/>
			<path fill="#FFFFFF" stroke="#000000" stroke-width="0.945" stroke-linejoin="bevel" d="M132.369,663.749h137.84v5.274h-137.84
				V663.749z"/>
			<path fill="#FFFFFF" stroke="#000000" stroke-width="0.96" stroke-linejoin="bevel" d="M168.658,690.325h4.344v19.979h-4.344
				V690.325z M227.998,690.325h4.343v19.979h-4.343V690.325z M133.458,690.325h4.344v19.979h-4.344V690.325z M141.974,690.325h4.344
				v19.979h-4.344V690.325z M151.058,690.325h4.345v19.979h-4.345V690.325z M160.142,690.325h4.345v19.979h-4.345V690.325z
				 M236.234,690.325h4.343v19.979h-4.343V690.325z M245.318,690.325h4.344v19.979h-4.344V690.325z M254.402,690.325h4.344v19.979
				h-4.344V690.325z"/>
			<path fill="#FFFFFF" stroke="#000000" stroke-width="0.96" d="M78.455,716.863c2.133-1.087,4.563-3.614,5.36-6.444h233.856
				c0.795,2.83,3.228,5.357,5.359,6.444H78.455z"/>
		</g>
		<path fill="#FFFFFF" stroke="#000000" stroke-width="0.96" d="M197.752,580.294c0,0-0.174-4.981,2.726-5.035
			c2.902,0.053,2.725,5.035,2.725,5.035H197.752z M182.623,646.356v-6.706c-0.096-3.354-3.343-3.595-3.438-6.04
			c0,0-0.419-3.666,0.549-5.338c1.313,4.902,3.701,4.001,3.701,1.986c0-1.76-1.353-3.396-4.128-7.667
			c-0.886-1.366-0.34-5.645,0.905-7.174c0.479,3.719,1.031,5.498,2.628,5.498c0.975,0,1.771-0.634,1.771-2.497
			c0-2.37-1.604-3.566-2.396-5.723c-0.92-2.517-0.284-5.083,1.243-6.516c0.657,3.669,0.461,5.131,2.093,5.131
			c3.286-1.038,0-5.796-0.702-6.997c-0.807-1.399,1.086-4.191,1.086-4.191c1.045,3.258,1.381,3.525,2.507,3.222
			c1.422-0.382,1.24-2.491-0.496-4.194c-1.096-1.079-0.979-2.68,0.197-3.966c1.182,2.308,2.693,2.168,2.838,0.796l-0.949-5.319h20.9
			l-1.037,5.148c-0.297,1.473,1.691,1.792,2.926-0.624c1.178,1.287,1.293,2.889,0.198,3.965c-1.734,1.705-1.919,3.813-0.497,4.194
			c1.126,0.303,1.463,0.037,2.508-3.222c0,0,1.698,1.902,1.086,4.192c-0.703,1.199-3.989,5.959-0.703,6.998
			c1.632,0,1.437-1.464,2.092-5.133c1.529,1.435,2.163,4,1.241,6.518c-0.786,2.155-2.393,3.352-2.393,5.723
			c0,1.863,0.796,2.498,1.769,2.498c1.6,0,2.15-1.781,2.632-5.499c1.242,1.529,1.791,5.808,0.903,7.173
			c-2.773,4.271-4.128,5.907-4.128,7.667c0,2.016,2.387,2.916,3.702-1.986c0.966,1.67,0.544,5.338,0.544,5.338
			c-0.093,2.445-3.34,2.686-3.436,6.04v6.706H182.623z M191.369,590.615l-0.48-3.785h19.184l-0.479,3.785H191.369z M192.654,586.75
			l-0.413-3.113h16.478l-0.412,3.113H192.654z M195.269,583.528l-0.274-3.113h10.971l-0.273,3.113H195.269z M235.265,716.863
			c-2.456-0.945-6.029-3.536-6.029-6.142v-29.43l3.196-4.067h-63.925l3.065,4.07v29.429c0,2.604-2.456,5.196-4.909,6.141
			L235.265,716.863z"/>
		<path fill="#FFFFFF" stroke="#000000" stroke-width="0.96" stroke-linejoin="bevel" d="M179.874,690.325h4.344v19.979h-4.344
			V690.325z M216.599,690.325h4.344v19.979h-4.344V690.325z"/>
		<path fill="#FFFFFF" stroke="#000000" stroke-width="0.96" d="M167.362,643.728v33.498h65.436v-7.215l0.095-26.286
			c-2.675,1.053-3.146,3.478-3.146,3.478v14.265H170.7v-14.265c0,0-0.66-2.425-3.336-3.475H167.362z"/>
		<path fill="#FFFFFF" stroke="#000000" stroke-width="0.96" d="M223.916,716.863c-2.141-0.945-6.798-3.536-6.798-6.142v-32.934
			c0.457-1.839,2.951-2.925,4.554-4.067h-43.39c2.065,1.093,4.368,2.002,5.19,4.069v32.935c0,2.604-3.682,5.196-5.821,6.142
			L223.916,716.863z"/>
		<path fill="#FFFFFF" stroke="#000000" stroke-width="0.96" d="M229.741,674.07v-23.725h-5.947v-2.313h-47.045v2.313h-5.947v23.725
			H229.741z M214.54,716.863c-2.095-0.945-5.147-3.536-5.147-6.142v-28.117l1.723-2.556h-21.428l1.72,2.556v28.119
			c0,2.606-3.052,5.196-5.147,6.141L214.54,716.863z"/>
		<path fill="#FFFFFF" stroke="#000000" stroke-width="0.981" d="M194.978,680.053h10.86v36.794h-10.86V680.053z"/>
		<path fill="#FFFFFF" stroke="#000000" stroke-width="0.96" stroke-linejoin="bevel" d="M211.537,671.961
			c0.023-2.422,7.071-2.531,10.697-4.597h-43.548c3.627,2.064,10.509,2.234,10.509,4.597l1.474,4.702l18.026,0.724L211.537,671.961z
			"/>
		<path fill="#FFFFFF" stroke="#000000" stroke-width="0.96" d="M220.05,646.356c0-5.936,0.249-8.22,2.071-8.22v18.872
			c-4.469,1.623-7.66,7.328-7.66,7.328h-28.112c0,0-3.193-5.705-7.663-7.328v-18.872c2.246,0,2.262,2.388,2.262,8.22H220.05z
			 M222.122,643.922c0-6.805,5.876-7.57,5.876-7.57v6.056c-2.236-0.097-3.314,1.912-3.314,4.897c0,2.988,1.801,3.037,1.801,3.037
			v17.188h-4.36L222.122,643.922z"/>
		<path fill="#FFFFFF" stroke="#000000" stroke-width="0.96" d="M178.711,643.922c0-6.805-5.875-7.57-5.875-7.57v6.056
			c2.235-0.097,3.313,1.912,3.313,4.897c0,2.988-1.8,3.037-1.8,3.037v17.188h4.359L178.711,643.922z"/>
		<g>
			<path fill="none" stroke="#000000" stroke-width="0.8" d="M190.29,597.033h20.748 M187.832,603.514h25.34 M185.373,611.374
				h30.166 M182.805,620.98h35.775 M181.982,631.93h36.853"/>
			<path fill="none" stroke="#000000" stroke-width="0.96" d="M170.801,667.65h58.939 M189.503,667.661h21.847v8.03h-21.847V667.661
				z"/>
		</g>
		<g>
			<path fill="#FFFFFF" stroke="#000000" stroke-width="0.96" d="M186.766,649.869c3.621,4.348,3.286,11.725,3.246,16.073h21.005
				c-0.042-4.348-0.377-11.725,3.245-16.073H186.766z M198.576,600.049l-2.878-1.482v-4.236c1.175,0.351,2.497,0.497,2.626,2.372
				c0.409-2.677,1.147-2.547,2.31-3.589c1.159,1.042,1.898,0.912,2.308,3.589c0.13-1.875,1.45-2.019,2.628-2.374v4.237l-2.88,1.482
				L198.576,600.049z"/>
			<path fill="#FFFFFF" stroke="#000000" stroke-width="0.96" d="M198.382,607.002l-4.78-3.286v-3.903
				c1.675,0.387,3.557,0.544,3.74,2.604c0.584-2.936,1.636-4.452,3.288-5.596c1.654,1.144,2.705,2.66,3.29,5.596
				c0.183-2.06,2.065-2.217,3.742-2.604v3.903l-4.782,3.286H198.382z"/>
			<path fill="#FFFFFF" stroke="#000000" stroke-width="0.96" d="M198.043,617.843l-5.496-4.827v-5.737
				c1.925,0.57,4.09,0.802,4.303,3.823c0.669-4.312,1.879-6.541,3.778-8.221c1.901,1.68,3.113,3.908,3.782,8.22
				c0.213-3.02,2.374-3.253,4.301-3.824v5.735l-5.494,4.828L198.043,617.843z M208.181,624.251l-4.971,6.875h-5.628l-4.972-6.875
				H208.181z M189.746,635.793c2.486,1.36,3.403,4.067,3.67,9.15h13.99c0.267-5.083,1.183-7.79,3.67-9.15H189.746z"/>
			<path fill="#FFFFFF" stroke="#000000" stroke-width="0.96" stroke-linejoin="bevel" d="M211.281,624.251v-6.907
				c-2.36,0.65-3.892,2.047-4.572,3.946c0-2.293-3.017-7.579-6.308-10.21c-3.299,2.945-6.367,7.728-6.306,10.21
				c-0.561-1.806-2.211-3.294-4.571-3.946v6.907H211.281z"/>
			<path fill="#FFFFFF" stroke="#000000" stroke-width="0.96" stroke-linejoin="bevel" d="M212.336,635.793v-6.905
				c-2.59,0.65-4.266,2.046-5.015,3.946c0-2.292-3.308-7.58-6.913-10.21c-3.617,2.945-6.979,7.727-6.912,10.21
				c-0.615-1.807-2.425-3.295-5.016-3.946v6.905H212.336z"/>
			<path fill="#FFFFFF" stroke="#000000" stroke-width="0.96" stroke-linejoin="bevel" d="M215.243,649.966v-7.968
				c-3.223,0.833-5.223,3.214-6.238,4.604c0-4.313-4.869-10.889-8.6-13.043c-3.828,2.211-8.601,9.005-8.601,13.043
				c-1.041-1.381-3.016-3.771-6.237-4.604v7.968H215.243z"/>
			<path fill="#FFFFFF" stroke="#000000" stroke-width="0.96" stroke-linejoin="bevel" d="M213.498,667.65v-8.19
				c-2.841,1.114-3.691,3.851-4.585,5.713c0.352-8.31-4.678-17.237-8.508-19.502c-3.831,2.265-8.956,11.386-8.509,19.502
				c-0.918-1.85-1.743-4.599-4.584-5.713v8.19H213.498z"/>
			<path fill="#FFFFFF" stroke="#000000" stroke-width="0.96" d="M211.511,680.053v-8.191c-2.977,0.708-3.161,1.805-4.107,3.641
				c0.352-4.962-3.162-10.623-6.993-12.888c-3.831,2.265-7.345,7.926-6.993,12.888c-0.945-1.835-1.063-2.932-4.106-3.641v8.191
				H211.511z"/>
		</g>
		<g id="a">
			<path fill="#FFFFFF" stroke="#000000" stroke-width="0.96" d="M83.816,710.418v-24.758c-0.812-3.152-3.488-5.94-5.499-6.499
				v-21.795l4.529,2.451l5.175,22.784v27.817H83.816z"/>
			<path fill="#FFFFFF" stroke="#000000" stroke-width="0.96" d="M83.816,710.516v-24.855c-0.812-3.151-3.488-5.939-5.499-6.498
				v-23.308c3.04,0,4.529,3.965,4.529,3.965l5.175,22.783v27.724L83.816,710.516z"/>
			<path fill="#FFFFFF" stroke="#000000" stroke-width="0.96" d="M80.594,716.863c2.096-0.945,5.148-3.536,5.148-6.142v-30.943
				l-1.438-2.554h52.718l-2.056,2.554v30.943c0,2.605,2.095,5.196,4.189,6.142H80.594z"/>
			<path fill="#FFFFFF" stroke="#000000" stroke-width="0.96" d="M128.516,716.863c-2.095-0.945-5.147-3.536-5.147-6.142v-29.43
				l4.386-4.07l-35.838,0.003l4.384,4.067v29.43c0,2.605-3.052,5.196-5.148,6.142H128.516z"/>
			<path fill="#FFFFFF" stroke="#000000" stroke-width="0.96" d="M123.49,716.863c-2.095-0.945-5.148-3.536-5.148-6.142v-26.604
				l2.871-4.07h-22.77l2.872,4.07v26.604c0,2.605-3.053,5.196-5.147,6.142H123.49z"/>
			<path fill="#FFFFFF" stroke="#000000" stroke-width="0.96" d="M104.388,680.053h10.88v36.813h-10.88V680.053z"/>
			<path fill="#FFFFFF" stroke="#000000" stroke-width="0.96" stroke-linejoin="bevel" d="M89.587,690.325h4.345v19.979h-4.345
				V690.325z M126.833,690.325h4.345v19.979h-4.345V690.325z M85.881,656.628h5.233v20.481h-5.233V656.628z M85.881,652.775h5.202
				v3.803h-5.202V652.775z"/>
			<path fill="#FFFFFF" stroke="#000000" stroke-width="1.034" stroke-linejoin="bevel" d="M128.916,661.036h7.461v15.813h-7.461
				V661.036z"/>
			<path fill="#FFFFFF" stroke="#000000" stroke-width="0.96" d="M91.029,676.952v-35.053c1.493,0,1.723,5.135,5.148,5.135
				c1.78,0,1.592-2.126,0.591-3.859c-0.887-1.537-1.983-3.656-0.494-7.607c1.023,3.023,3.771,3.982,3.265,2.087
				c-0.873-3.256-3.385-3.792-1.502-8.845c0.655,4.216,3.359,4.03,2.703,1.58c-0.739-2.763-2.269-3.894-0.382-7.787
				c1.058,4.421,2.485,4.16,2.485,1.417c0-4.052-0.155-8.425,5.091-10.047c0,0,0.303-3.716,2.194-3.716
				c1.893,0,2.197,3.716,2.197,3.716c5.244,1.624,5.09,5.996,5.09,10.048c0,2.744,1.429,3.004,2.485-1.417
				c1.887,3.894,0.357,5.025-0.382,7.786c-0.659,2.451,2.047,2.638,2.702-1.579c1.884,5.053-0.627,5.589-1.502,8.844
				c-0.506,1.896,2.24,0.937,3.263-2.085c1.49,3.949,0.395,6.069-0.492,7.607c-1.001,1.731-1.19,3.861,0.594,3.861
				c3.423,0,3.653-5.136,5.146-5.136v35.053L91.029,676.952z M82.834,650.475v26.744h3.04v-26.813
				C84.779,649.852,83.75,649.767,82.834,650.475L82.834,650.475z"/>
			<path fill="#FFFFFF" stroke="#000000" stroke-width="0.96" d="M82.929,667.783c3.77,1.925,7.504,4.159,8.448,9.438h-8.448
				V667.783z M135.216,659.777v17.449h2.464v-17.493C136.911,659.372,135.859,659.315,135.216,659.777z"/>
			<path fill="#FFFFFF" stroke="#000000" stroke-width="0.96" d="M137.686,667.65c-3.769,1.926-7.504,4.158-8.448,9.439h8.448
				V667.65z"/>
			<g>
				<path fill="#FFFFFF" stroke="#000000" stroke-width="0.96" d="M112.758,626.891l2.198-1.848v-2.366
					c-0.805,0.079-1.242,0.355-1.836,1.134c-0.506-1.568-1.616-2.792-3.104-3.552c-1.49,0.761-2.6,1.929-3.104,3.497
					c-0.594-0.778-1.033-1-1.837-1.079v2.366l2.199,1.848H112.758z"/>
				<path fill="#FFFFFF" stroke="#000000" stroke-width="0.96" d="M113.934,632.815l1.021-2.212v-3.076
					c-0.804,0.081-1.243,0.361-1.837,1.15c-0.504-1.59-1.616-2.832-3.103-3.602c-1.489,0.772-2.599,1.958-3.105,3.547
					c-0.594-0.788-1.032-1.013-1.836-1.093v3.075l1.022,2.21H113.934z"/>
				<path fill="#FFFFFF" stroke="#000000" stroke-width="0.96" d="M114.091,640.844l3.264-3.982v-3.927
					c-1.194,0.132-1.846,0.609-2.728,1.944c-0.75-2.691-2.397-3.279-4.609-4.584c-2.211,1.306-3.86,1.798-4.61,4.49
					c-0.882-1.337-1.533-1.715-2.725-1.85v3.927l3.262,3.982H114.091z"/>
				<path fill="#FFFFFF" stroke="#000000" stroke-width="0.96" d="M115.048,648.73c0,0,3.803-3.319,4.029-5.141v-4.199
					c-1.474,0.172-2.867,0.555-3.957,2.279c-0.926-3.476-2.374-4.445-5.102-6.132c-2.729,1.687-4.175,2.656-5.102,6.132
					c-1.089-1.726-2.483-2.107-3.957-2.28v4.198c0.479,1.822,4.029,5.141,4.029,5.141L115.048,648.73z"/>
				<path fill="#FFFFFF" stroke="#000000" stroke-width="0.96" d="M116.671,663.29c0,0,5.208-5.767,5.33-8.015v-6.547
					c-1.951,0.27-3.794,1.609-5.233,4.299c-1.226-5.42-3.137-9.198-6.747-11.826c-3.61,2.628-5.524,6.406-6.747,11.828
					c-1.44-2.691-3.286-4.034-5.235-4.302v6.548c0.374,2.246,5.33,8.013,5.33,8.013L116.671,663.29z"/>
				<path fill="#FFFFFF" stroke="#000000" stroke-width="0.96" d="M116.671,671.901c0,0,4.453-4.533,5.33-6.5v-6.547
					c-1.951,0.27-3.794,1.611-5.233,4.299c-1.226-5.419-3.137-8.521-6.747-11.15c-3.61,2.628-5.524,5.731-6.747,11.152
					c-1.44-2.693-3.286-4.034-5.235-4.303v6.548c1.131,1.967,5.33,6.5,5.33,6.5L116.671,671.901z"/>
				<path fill="#FFFFFF" stroke="#000000" stroke-width="0.96" d="M118.464,676.904c-1.301-5.654-2.418-9.848-8.678-14.099
					c-6.257,4.251-7.376,8.444-8.675,14.099H118.464z"/>
				<path fill="#FFFFFF" stroke="#000000" stroke-width="0.96" d="M121.685,680.053v-8.191c-2.841,1.114-5.41,2.762-6.359,4.596
					c-1.056-4.547-3.096-6.549-5.634-9.302c-2.541,2.752-4.24,4.755-5.299,9.302c-0.948-1.834-3.516-3.482-6.359-4.596v8.191
					H121.685z"/>
			</g>
		</g>
		<g transform="matrix(-1 0 0 1 390.74 0)">
			<g id="a_1_">
				<path fill="#FFFFFF" stroke="#000000" stroke-width="0.96" d="M317.43,710.418v-24.758c0.812-3.152,3.488-5.94,5.499-6.499
					v-21.795l-4.53,2.451l-5.176,22.784v27.817H317.43z"/>
				<path fill="#FFFFFF" stroke="#000000" stroke-width="0.96" d="M317.43,710.516v-24.855c0.812-3.151,3.488-5.939,5.499-6.498
					v-23.308c-3.041,0-4.53,3.965-4.53,3.965l-5.176,22.783v27.724L317.43,710.516z"/>
				<path fill="#FFFFFF" stroke="#000000" stroke-width="0.96" d="M320.652,716.863c-2.096-0.945-5.147-3.536-5.147-6.142v-30.943
					l1.437-2.554h-52.718l2.058,2.554v30.943c0,2.605-2.095,5.196-4.191,6.142H320.652z"/>
				<path fill="#FFFFFF" stroke="#000000" stroke-width="0.96" d="M272.728,716.863c2.097-0.945,5.148-3.536,5.148-6.142v-29.43
					l-4.385-4.07l35.838,0.003l-4.385,4.067v29.43c0,2.605,3.053,5.196,5.147,6.142H272.728z"/>
				<path fill="#FFFFFF" stroke="#000000" stroke-width="0.96" d="M277.755,716.863c2.095-0.945,5.147-3.536,5.147-6.142v-26.604
					l-2.87-4.07h22.769l-2.871,4.07v26.604c0,2.605,3.054,5.196,5.148,6.142H277.755z"/>
				<path fill="#FFFFFF" stroke="#000000" stroke-width="0.96" d="M296.856,680.053h-10.878v36.813h10.878V680.053z"/>
				<path fill="#FFFFFF" stroke="#000000" stroke-width="0.96" stroke-linejoin="bevel" d="M311.658,690.325h-4.344v19.979h4.344
					V690.325z M274.412,690.325h-4.344v19.979h4.344V690.325z M315.365,656.628h-5.233v20.481h5.233V656.628z M315.365,652.775
					h-5.202v3.803h5.202V652.775z"/>
				<path fill="#FFFFFF" stroke="#000000" stroke-width="1.034" stroke-linejoin="bevel" d="M272.329,661.036h-7.462v15.813h7.462
					V661.036z"/>
				<path fill="#FFFFFF" stroke="#000000" stroke-width="0.96" d="M310.216,676.952v-35.053c-1.492,0-1.722,5.135-5.147,5.135
					c-1.78,0-1.592-2.126-0.592-3.859c0.888-1.537,1.983-3.656,0.494-7.607c-1.022,3.023-3.771,3.982-3.264,2.087
					c0.871-3.256,3.385-3.792,1.502-8.845c-0.656,4.216-3.36,4.03-2.704,1.58c0.739-2.763,2.269-3.894,0.384-7.787
					c-1.058,4.421-2.485,4.16-2.485,1.417c0-4.052,0.154-8.425-5.092-10.047c0,0-0.303-3.716-2.195-3.716
					c-1.891,0-2.195,3.716-2.195,3.716c-5.244,1.624-5.09,5.996-5.09,10.048c0,2.744-1.429,3.004-2.485-1.417
					c-1.888,3.894-0.356,5.025,0.382,7.786c0.658,2.451-2.047,2.638-2.701-1.579c-1.884,5.053,0.627,5.589,1.502,8.844
					c0.507,1.896-2.241,0.937-3.263-2.085c-1.491,3.949-0.395,6.069,0.493,7.607c1,1.731,1.189,3.861-0.594,3.861
					c-3.424,0-3.653-5.136-5.146-5.136v35.053L310.216,676.952z M318.412,650.475v26.744h-3.04v-26.813
					C316.467,649.852,317.496,649.767,318.412,650.475L318.412,650.475z"/>
				<path fill="#FFFFFF" stroke="#000000" stroke-width="0.96" d="M318.316,667.783c-3.769,1.925-7.503,4.159-8.448,9.438h8.448
					V667.783z M266.03,659.777v17.449h-2.465v-17.493C264.335,659.372,265.386,659.315,266.03,659.777z"/>
				<path fill="#FFFFFF" stroke="#000000" stroke-width="0.96" d="M263.559,667.65c3.77,1.926,7.504,4.158,8.449,9.439h-8.449
					V667.65z"/>
				<g>
					<path fill="#FFFFFF" stroke="#000000" stroke-width="0.96" d="M288.487,626.891l-2.197-1.848v-2.366
						c0.805,0.079,1.242,0.355,1.836,1.134c0.505-1.568,1.616-2.792,3.104-3.552c1.489,0.761,2.6,1.929,3.104,3.497
						c0.594-0.778,1.032-1,1.837-1.079v2.366l-2.199,1.848H288.487z"/>
					<path fill="#FFFFFF" stroke="#000000" stroke-width="0.96" d="M287.312,632.815l-1.021-2.212v-3.076
						c0.805,0.081,1.242,0.361,1.836,1.15c0.506-1.59,1.616-2.832,3.104-3.602c1.489,0.772,2.599,1.958,3.104,3.547
						c0.594-0.788,1.032-1.013,1.836-1.093v3.075l-1.022,2.21H287.312z"/>
					<path fill="#FFFFFF" stroke="#000000" stroke-width="0.96" d="M287.155,640.844l-3.265-3.982v-3.927
						c1.194,0.132,1.846,0.609,2.728,1.944c0.751-2.691,2.398-3.279,4.61-4.584c2.21,1.306,3.86,1.798,4.609,4.49
						c0.882-1.337,1.533-1.715,2.726-1.85v3.927l-3.262,3.982H287.155z"/>
					<path fill="#FFFFFF" stroke="#000000" stroke-width="0.96" d="M286.198,648.73c0,0-3.803-3.319-4.03-5.141v-4.199
						c1.474,0.172,2.868,0.555,3.957,2.279c0.927-3.476,2.374-4.445,5.103-6.132c2.729,1.687,4.175,2.656,5.102,6.132
						c1.09-1.726,2.483-2.107,3.957-2.28v4.198c-0.479,1.822-4.029,5.141-4.029,5.141L286.198,648.73z"/>
					<path fill="#FFFFFF" stroke="#000000" stroke-width="0.96" d="M284.575,663.29c0,0-5.208-5.767-5.33-8.015v-6.547
						c1.95,0.27,3.794,1.609,5.233,4.299c1.225-5.42,3.137-9.198,6.745-11.826c3.61,2.628,5.524,6.406,6.747,11.828
						c1.442-2.691,3.286-4.034,5.235-4.302v6.548c-0.372,2.246-5.33,8.013-5.33,8.013L284.575,663.29z"/>
					<path fill="#FFFFFF" stroke="#000000" stroke-width="0.96" d="M284.575,671.901c0,0-4.452-4.533-5.33-6.5v-6.547
						c1.95,0.27,3.794,1.611,5.233,4.299c1.225-5.419,3.137-8.521,6.745-11.15c3.61,2.628,5.524,5.731,6.747,11.152
						c1.442-2.693,3.286-4.034,5.235-4.303v6.548c-1.129,1.967-5.33,6.5-5.33,6.5L284.575,671.901z"/>
					<path fill="#FFFFFF" stroke="#000000" stroke-width="0.96" d="M282.782,676.904c1.3-5.654,2.417-9.848,8.676-14.099
						c6.259,4.251,7.377,8.444,8.677,14.099H282.782z"/>
					<path fill="#FFFFFF" stroke="#000000" stroke-width="0.96" d="M279.559,680.053v-8.191c2.843,1.114,5.412,2.762,6.359,4.596
						c1.057-4.547,3.097-6.549,5.635-9.302c2.54,2.752,4.239,4.755,5.3,9.302c0.947-1.834,3.516-3.482,6.358-4.596v8.191H279.559z"
						/>
				</g>
			</g>
		</g>
		<g>
			<path fill="#FFFFFF" stroke="#000000" stroke-width="0.96" d="M72.281,716.536v7.478h256.652v-7.478H72.281z M67.634,724.081
				v9.751h265.942v-9.751H67.634z M333.577,733.832l-265.942,0.072l-7.773-0.072v12.865h281.492v-12.863L333.577,733.832z
				 M52.03,746.781l0.002,15.152h297.157l-0.003-15.152H52.03z M349.189,761.933v0.024H52.032v-0.024H44.2v15.153h312.817v-15.153
				H349.189z"/>
			<path fill="#FFFFFF" stroke="#000000" stroke-width="1.045" d="M100.137,716.572h19.387v60.483h-19.387V716.572z"/>
			<path fill="#FFFFFF" stroke="#000000" stroke-width="1.043" d="M104.425,716.572h10.801v60.485h-10.801V716.572z"/>
			<path fill="#FFFFFF" stroke="#000000" stroke-width="1.045" d="M190.581,716.572h19.388v60.483h-19.388V716.572z"/>
			<path fill="#FFFFFF" stroke="#000000" stroke-width="1.043" d="M195.003,716.572h10.801v60.485h-10.801V716.572z"/>
			<path fill="#FFFFFF" stroke="#000000" stroke-width="1.045" d="M281.558,716.572h19.386v60.483h-19.386V716.572z"/>
			<path fill="#FFFFFF" stroke="#000000" stroke-width="1.043" d="M285.846,716.572h10.801v60.485h-10.801V716.572z"/>
		</g>
		<g>
			<path fill="none" stroke="#000000" stroke-width="0.96" d="M83.816,710.418h233.856 M104.232,769.455h11.196 M104.232,761.885
				h11.196 M104.232,754.315h11.196 M104.232,746.745h11.196 M104.232,739.174h11.196 M104.232,731.604h11.196 M104.232,724.034
				h11.196 M195.051,769.467h10.424 M195.051,761.893h10.424 M195.051,754.318h10.424 M195.051,746.745h10.424 M195.051,739.17
				h10.424 M195.051,731.596h10.424 M195.051,724.02h10.424 M285.652,769.455h11.197 M285.652,761.885h11.197 M285.652,754.315
				h11.197 M285.652,746.745h11.197 M285.652,739.174h11.197 M285.652,731.604h11.197 M285.652,724.034h11.197"/>
		</g>
	</g>
</g>
</svg>
