<?xml version="1.0" encoding="utf-8"?>
<!-- Generator: Adobe Illustrator 16.0.3, SVG Export Plug-In . SVG Version: 6.00 Build 0)  -->
<!DOCTYPE svg PUBLIC "-//W3C//DTD SVG 1.1//EN" "http://www.w3.org/Graphics/SVG/1.1/DTD/svg11.dtd">
<svg version="1.1" id="flag-icon-css-hn" xmlns="http://www.w3.org/2000/svg" xmlns:xlink="http://www.w3.org/1999/xlink" x="0px"
	 y="0px" width="640px" height="480px" viewBox="0 0 640 480" enable-background="new 0 0 640 480" xml:space="preserve">
<g>
	<g>
		<rect y="240" fill="#278E43" width="640" height="240"/>
		<rect fill="#ED2024" width="640" height="240"/>
		<rect y="160.08" fill="#FFFFFF" width="640" height="159.84"/>
	</g>
	<polygon fill="#FEBD11" points="378.838,244.433 439.666,231.053 377.53,226.893 431.713,196.178 371.114,210.518 413.835,165.201 
		360.151,196.764 387.618,140.865 345.624,186.85 355.395,125.338 328.818,181.658 320.024,120 320.023,120.007 320.022,120 
		311.229,181.651 284.65,125.325 294.42,186.829 252.419,140.839 279.884,196.73 226.193,165.165 268.91,210.475 208.304,196.136 
		262.48,226.846 200.337,231.007 261.159,244.385 203.003,266.68 265.065,261.533 216.065,299.979 216.072,299.977 216.066,299.981 
		273.854,276.77 238.363,327.951 286.742,288.738 267.915,348.106 302.586,296.376 302.094,358.656 319.976,299.007 337.86,358.663 
		337.368,296.391 372.044,348.128 353.218,288.766 401.603,327.982 366.115,276.809 423.91,300.021 423.905,300.017 
		423.912,300.019 374.917,261.578 436.987,266.724 	"/>
</g>
</svg>
