<?xml version="1.0" encoding="utf-8"?>
<!-- Generator: Adobe Illustrator 16.0.3, SVG Export Plug-In . SVG Version: 6.00 Build 0)  -->
<!DOCTYPE svg PUBLIC "-//W3C//DTD SVG 1.1//EN" "http://www.w3.org/Graphics/SVG/1.1/DTD/svg11.dtd">
<svg version="1.1" id="flag-icon-css-hn" xmlns="http://www.w3.org/2000/svg" xmlns:xlink="http://www.w3.org/1999/xlink" x="0px"
	 y="0px" width="640px" height="480px" viewBox="0 0 640 480" enable-background="new 0 0 640 480" xml:space="preserve">
<rect fill="#FFFFFF" width="640" height="480"/>
<path d="M240,280h400V0H0v64h240c59.647,0,108,48.353,108,108S299.647,280,240,280z"/>
<path fill="#D40000" d="M640,368H240c-48.601,0-88-39.399-88-88c0-48.602,39.399-88,88-88c24.301,0,44,19.7,44,44s-19.699,44-44,44
	c35.346,0,64-28.654,64-64c0-35.346-28.654-64-64-64H0v328h640V368z"/>
</svg>
