<?xml version="1.0" encoding="utf-8"?>
<!-- Generator: Adobe Illustrator 16.0.3, SVG Export Plug-In . SVG Version: 6.00 Build 0)  -->
<!DOCTYPE svg PUBLIC "-//W3C//DTD SVG 1.1//EN" "http://www.w3.org/Graphics/SVG/1.1/DTD/svg11.dtd">
<svg version="1.1" id="flag-icon-css-hn" xmlns="http://www.w3.org/2000/svg" xmlns:xlink="http://www.w3.org/1999/xlink" x="0px"
	 y="0px" width="640px" height="480px" viewBox="0 0 640 480" enable-background="new 0 0 640 480" xml:space="preserve">
<rect id="bg" fill="#FFFFFF" width="640" height="480"/>
<g id="g3772">
	<polygon fill="#FF9600" points="0,0 0,240 313.924,240 640,0 	"/>
	<polygon fill="#FFFFFF" points="0,480 640,480 313.924,240 0,240 	"/>
</g>
<g id="g3815">
	<path fill="#C92013" d="M158.711,25.751l-72.796-0.013L34.432,77.204L34.419,150l51.465,51.482l72.796,0.013l51.483-51.466
		l0.012-72.795L158.711,25.751z M97.208,174.442l-35.366-35.379l0.009-50.024l35.378-35.367l50.025,0.009l35.366,35.379
		l-0.009,50.024l-35.378,35.366L97.208,174.442z"/>
	<path fill="#C92013" d="M166.576,76.431H78.473v14.117h24.314v26.537h-0.532c-18.646,0-20.66,12.038-20.66,17.213
		c0,9.061,6,18.234,17.468,18.234c11.76,0,17.723-6.779,17.723-20.149v-1.298h26.89v24.254h13.922V90.548h8.977V76.431z
		 M102.787,132.383c0,4.749-0.775,5.695-0.79,5.717c-0.006,0.004-0.65,0.432-2.933,0.432c-2.301,0-3.468-1.424-3.468-4.234
		c0-1.652,0-3.213,6.66-3.213h0.532V132.383z M143.677,117.085h-26.89V90.548h26.89V117.085z"/>
</g>
</svg>
