<?xml version="1.0" encoding="utf-8"?>
<!-- Generator: Adobe Illustrator 16.0.3, SVG Export Plug-In . SVG Version: 6.00 Build 0)  -->
<!DOCTYPE svg PUBLIC "-//W3C//DTD SVG 1.1//EN" "http://www.w3.org/Graphics/SVG/1.1/DTD/svg11.dtd">
<svg version="1.1" id="flag-icon-css-hn" xmlns="http://www.w3.org/2000/svg" xmlns:xlink="http://www.w3.org/1999/xlink" x="0px"
	 y="0px" width="640px" height="480px" viewBox="0 0 640 480" enable-background="new 0 0 640 480" xml:space="preserve">
<g>
	<rect fill="#FFFFFF" width="640.962" height="480"/>
	<rect fill="#0C4076" width="640.962" height="322.459"/>
	<rect fill="#C6363C" width="640.962" height="161.23"/>
	<g>
		<path fill="#EDB92E" stroke="#FFFFFF" d="M307.42,90.192c-0.561-0.353-1.218-0.54-1.879-0.54
			c-0.448-0.004-0.891,0.086-1.304,0.251c-0.032-0.025-0.066-0.047-0.099-0.072c0.014-0.021,0.03-0.04,0.043-0.061
			c0.366-0.574,0.555-1.254,0.557-1.935c0.011-1.229-0.651-2.433-1.694-3.075c-0.56-0.354-1.217-0.54-1.878-0.541v0.001
			c-0.785-0.008-1.555,0.273-2.173,0.752c0.051-0.245,0.085-0.493,0.086-0.743c0.01-1.229-0.651-2.433-1.694-3.075
			c-0.56-0.354-1.218-0.539-1.878-0.541v0c-1.22-0.011-2.409,0.666-3.037,1.714c-0.017,0.026-0.028,0.056-0.043,0.083
			c0.143-0.396,0.224-0.815,0.225-1.238c0.01-1.227-0.651-2.432-1.693-3.075c-0.56-0.353-1.217-0.539-1.878-0.539
			c-1.072-0.01-2.12,0.513-2.784,1.351c0.001-0.044,0.009-0.089,0.009-0.133h0c0.01-1.221-0.644-2.419-1.677-3.063
			c-0.563-0.36-1.228-0.55-1.895-0.551l0,0c-1.136-0.011-2.242,0.582-2.896,1.51c0-0.011,0.002-0.022,0.002-0.034v0
			c0.01-1.234-0.659-2.445-1.71-3.084c-0.557-0.346-1.208-0.528-1.861-0.529c-0.396-0.003-0.786,0.072-1.157,0.202
			c-0.282-0.4-0.639-0.747-1.057-1.004c-0.579-0.364-1.259-0.557-1.942-0.558c-0.71-0.006-1.408,0.22-2.001,0.606
			c-0.135-1.052-0.747-2.037-1.648-2.598c-0.563-0.361-1.228-0.55-1.895-0.551c-1.021-0.009-2.019,0.468-2.686,1.238
			c-0.101-1.134-0.758-2.208-1.745-2.778c-0.54-0.322-1.166-0.49-1.792-0.491c-1.079-0.009-2.134,0.524-2.795,1.376
			c-0.258-0.872-0.84-1.648-1.632-2.1c-0.535-0.315-1.154-0.479-1.775-0.48c-1.207-0.011-2.386,0.655-3.014,1.689
			c-0.103,0.165-0.187,0.339-0.261,0.518c-0.222-0.901-0.791-1.716-1.583-2.204c-0.557-0.352-1.213-0.538-1.87-0.538
			c-1.215-0.011-2.399,0.664-3.025,1.707c-0.146,0.236-0.255,0.492-0.342,0.755c-0.263-0.788-0.788-1.488-1.497-1.925
			c-0.558-0.352-1.213-0.538-1.871-0.538c-1.208-0.01-2.386,0.656-3.014,1.69c-0.355,0.568-0.542,1.238-0.542,1.909
			c-0.002,0.203,0.021,0.404,0.055,0.604c-0.318-0.005-0.636-0.019-0.954-0.022c0.653-1.067,1.105-2.254,1.303-3.492l0.063-0.602
			l0.066-0.953c0-0.356-0.025-0.712-0.063-1.068l-0.109-0.766l-0.066-0.276c-0.171-0.772-0.429-1.525-0.786-2.231
			c-1.259-2.573-3.747-4.465-6.528-5.057v-3.699h2.463c0.135,0.733,0.686,1.376,1.415,1.551l0.472,0.059
			c0.94,0.021,1.785-0.746,1.914-1.669c0.769-0.099,1.451-0.695,1.632-1.458l0.062-0.489c0.022-0.956-0.752-1.827-1.688-1.942
			c-0.11-0.759-0.691-1.432-1.44-1.612l-0.478-0.061c-0.946-0.022-1.791,0.754-1.917,1.682h-2.433V44.51
			c0.744-0.123,1.391-0.713,1.567-1.455l0.06-0.483c0.021-0.941-0.729-1.804-1.649-1.937c-0.097-0.772-0.68-1.466-1.441-1.651
			l-0.483-0.061c-0.954-0.022-1.807,0.769-1.919,1.708c-0.755,0.113-1.417,0.705-1.593,1.456l-0.061,0.485
			c-0.021,0.934,0.717,1.79,1.627,1.933v2.951h-2.429c-0.108-0.761-0.688-1.438-1.438-1.621l-0.483-0.062
			c-0.939-0.021-1.785,0.746-1.914,1.668c-0.769,0.099-1.45,0.694-1.631,1.458l-0.061,0.489c-0.023,0.956,0.751,1.827,1.688,1.942
			c0.11,0.759,0.69,1.432,1.439,1.612l0.479,0.062c0.918,0.02,1.748-0.712,1.904-1.61h2.445v3.701
			c-0.794,0.167-1.568,0.426-2.293,0.795c-2.536,1.254-4.385,3.719-5.008,6.474l-0.07,0.284c-0.026,0.136-0.043,0.273-0.064,0.411
			l-0.105,0.999l-0.012,0.434v0c0.001,0.396,0.029,0.79,0.077,1.183l0.066,0.38c0.156,0.963,0.44,1.906,0.881,2.777
			c0.12,0.245,0.268,0.473,0.409,0.706c-0.319,0.003-0.638,0.017-0.957,0.022c0.034-0.2,0.057-0.401,0.055-0.604
			c-0.001-0.671-0.188-1.341-0.543-1.909c-0.627-1.034-1.806-1.701-3.014-1.69c-0.657,0-1.313,0.186-1.87,0.538
			c-0.709,0.437-1.234,1.137-1.498,1.925c-0.086-0.264-0.196-0.52-0.342-0.756c-0.626-1.043-1.811-1.718-3.025-1.707
			c-0.657,0-1.313,0.186-1.87,0.538c-0.792,0.488-1.361,1.303-1.583,2.205c-0.074-0.179-0.159-0.354-0.261-0.519
			c-0.629-1.034-1.808-1.7-3.015-1.689c-0.62,0.001-1.24,0.165-1.774,0.48c-0.792,0.452-1.374,1.228-1.632,2.1
			c-0.661-0.852-1.715-1.385-2.794-1.376c-0.627,0.001-1.253,0.169-1.792,0.491c-0.986,0.571-1.644,1.644-1.746,2.778
			c-0.667-0.77-1.664-1.247-2.685-1.238c-0.667,0-1.332,0.19-1.895,0.551c-0.901,0.562-1.514,1.546-1.649,2.598
			c-0.593-0.387-1.29-0.613-2-0.606h0c-0.683,0.001-1.363,0.194-1.942,0.558c-0.418,0.258-0.774,0.604-1.057,1.004
			c-0.371-0.13-0.761-0.206-1.157-0.202h0c-0.653,0.001-1.305,0.183-1.86,0.529c-1.052,0.64-1.722,1.851-1.71,3.084v0
			c0,0.012,0.002,0.023,0.002,0.034c-0.654-0.929-1.76-1.521-2.896-1.51v0c-0.667,0.001-1.332,0.191-1.895,0.551
			c-1.033,0.644-1.688,1.842-1.677,3.063c0,0.045,0.008,0.09,0.009,0.135c-0.664-0.838-1.712-1.362-2.784-1.352h0
			c-0.661,0-1.318,0.187-1.878,0.539c-1.042,0.643-1.704,1.848-1.693,3.075c0,0.422,0.082,0.841,0.224,1.237
			c-0.016-0.026-0.027-0.056-0.043-0.082c-0.627-1.048-1.818-1.725-3.037-1.714v0c-0.66,0.001-1.319,0.187-1.878,0.541
			c-1.042,0.642-1.704,1.847-1.694,3.075h0c0.001,0.25,0.035,0.498,0.086,0.743c-0.618-0.479-1.388-0.76-2.173-0.752v-0.001
			c-0.661,0.001-1.318,0.187-1.878,0.541c-1.042,0.642-1.704,1.846-1.694,3.075h0c-0.059,0.601,0.191,1.36,0.556,1.935l-1.358-0.119
			c-0.661,0-1.318,0.187-1.878,0.54c-1.042,0.642-1.704,1.847-1.693,3.074c0.002,0.667,0.096,1.405,0.534,1.901l1.924,1.727
			c-0.9,0.642-1.465,1.729-1.456,2.84c0.001,0.649,0.182,1.3,0.526,1.852c0.609,1.002,1.752,1.648,2.923,1.638
			c0.148,0,0.296-0.013,0.443-0.032c-0.653,0.651-1.046,1.562-1.039,2.49c0.001,0.657,0.186,1.313,0.537,1.869
			c0.611,0.994,1.749,1.631,2.913,1.622c0.191,0,0.38-0.022,0.568-0.054c-0.62,0.647-0.989,1.534-0.982,2.437
			c0,0.65,0.182,1.299,0.526,1.852c0.063,0.103,0.134,0.199,0.207,0.294c-0.066,0.09-0.142,0.174-0.191,0.278
			c-0.284,0.596-0.162,1.293,0.103,1.873c0.216,0.447,0.558,0.848,0.976,1.124l0.839,0.182c0.921,0.098,1.848,0.024,2.759-0.136
			c0.048,0.104,0.106,0.202,0.144,0.312c0.277,0.791,0.554,1.585,0.95,2.325c0.387,0.749,0.942,1.417,1.623,1.914
			c0.014,0.322,0.145,0.647,0.331,0.904l0.105,0.141c0.077,0.081,0.161,0.154,0.236,0.237l0.319,0.398
			c-0.117,0.462-0.064,0.966,0.109,1.408c0.221,0.583,0.643,1.112,1.225,1.36c0.07,0.031,0.144,0.044,0.216,0.065
			c0.085,0.249,0.194,0.489,0.354,0.691c0.116,0.212,0.242,0.417,0.387,0.61c0.2,0.274,0.474,0.518,0.787,0.662
			c0.141,0.59,0.338,1.191,0.397,1.584l1.594,3.042c0.633,0.78,1.301,1.574,2.031,2.294c0.779,1.267,1.499,2.572,2.183,3.891
			c0.119,0.153,0.29,0.522,0.471,0.92c-0.591,0.158-0.943,0.391-1.104,0.516c-0.497,0.387-0.711,1.032-0.655,1.612
			c0.05,0.516,0.603,1.704,2.637,1.495c0.056-0.006,0.119-0.012,0.176-0.018c0.058,0.276,0.116,0.553,0.173,0.829
			c-0.028,0.031-0.057,0.062-0.085,0.09c-0.573,0.742-0.772,1.668-0.833,2.595c-0.078,0.064-0.161,0.124-0.231,0.197
			c-0.864,0.89-1.125,2.215-0.987,3.417c0.089-0.01,0.178-0.021,0.268-0.031c-0.089,0.01-0.178,0.021-0.267,0.031
			c0.117,0.982,0.494,1.962,1.181,2.685c0.405,0.439,0.947,0.727,1.525,0.86c0.462,0.892,1.03,1.831,1.969,2.271
			c0.05,0.24,0.101,0.48,0.151,0.72c-0.729,0.274-1.111,0.831-1.081,1.402c-0.038,0.699,0.532,1.381,1.61,1.545
			c0.244,0.067,0.518,0.116,0.821,0.144c32.67,2.827,67.567,2.826,100.237,0c0.304-0.027,0.577-0.077,0.821-0.144
			c1.077-0.164,1.647-0.846,1.61-1.545c0.031-0.571-0.352-1.127-1.079-1.402c0.05-0.24,0.101-0.481,0.151-0.721
			c0.938-0.439,1.506-1.378,1.967-2.27c0.578-0.134,1.12-0.42,1.525-0.86c0.688-0.723,1.064-1.703,1.182-2.685
			c0.139-1.202-0.123-2.527-0.987-3.417c-0.071-0.074-0.153-0.133-0.231-0.197c-0.061-0.927-0.26-1.853-0.833-2.595
			c-0.027-0.028-0.056-0.059-0.084-0.089c0.058-0.278,0.116-0.557,0.175-0.835c1.513,0.123,2.419-0.242,2.741-1.253
			c0.289-0.91-0.232-1.696-1.024-2.083c-0.206-0.101-0.438-0.167-0.673-0.233c0.871-1.723,1.786-3.423,2.807-5.06l1.687-2.231
			c0.968-0.252,1.516-2.204,1.917-3.303c0.125-0.202,0.219-0.665,0.279-1.168c0.31-0.145,0.582-0.387,0.78-0.66
			c0.145-0.193,0.271-0.398,0.388-0.61c0.159-0.203,0.268-0.443,0.353-0.691c0.073-0.021,0.147-0.035,0.217-0.066
			c0.58-0.249,1.003-0.778,1.224-1.36c0.173-0.442,0.227-0.946,0.109-1.408c0.018-0.022,0.035-0.044,0.053-0.066
			c0.082-0.087,0.154-0.179,0.22-0.275c0.017-0.018,0.029-0.039,0.046-0.057c0.074-0.083,0.159-0.156,0.235-0.237l0.105-0.141
			c0.186-0.257,0.316-0.582,0.33-0.905c0.68-0.496,1.235-1.166,1.622-1.914c0.396-0.74,0.673-1.535,0.95-2.325
			c0.038-0.11,0.096-0.208,0.144-0.312c0.911,0.16,1.838,0.234,2.759,0.136c0.045-0.005,0.091-0.013,0.137-0.019
			c0.156,0.065,0.351,0.052,0.499-0.033c0.032-0.017,0.061-0.041,0.092-0.059l0.111-0.072c0.418-0.275,0.76-0.677,0.976-1.124
			c0.264-0.58,0.387-1.276,0.104-1.873c-0.05-0.104-0.125-0.188-0.192-0.278c0.073-0.095,0.144-0.191,0.207-0.294
			c0.344-0.552,0.525-1.202,0.526-1.852c0.007-0.902-0.362-1.79-0.982-2.437c0.188,0.032,0.378,0.053,0.568,0.054
			c1.164,0.009,2.302-0.627,2.913-1.622c0.352-0.556,0.535-1.211,0.537-1.869c0.008-0.929-0.386-1.839-1.04-2.49
			c0.147,0.019,0.295,0.032,0.444,0.032c1.17,0.01,2.313-0.636,2.923-1.638c0.345-0.551,0.525-1.202,0.526-1.852
			c0.008-1.112-0.556-2.198-1.456-2.84c0.021-0.073,0.04-0.147,0.06-0.221c0.766-0.273,1.443-0.802,1.864-1.505
			c0.352-0.568,0.533-1.234,0.534-1.901C309.123,92.04,308.462,90.834,307.42,90.192z M205.624,70.349
			c0.003,0.008,0.005,0.017,0.009,0.025c-0.005,0-0.009,0.001-0.014,0.001C205.621,70.367,205.622,70.358,205.624,70.349z
			 M186.103,131.403c-2.232,0.318-3.82-1.884-5.243-3.293c-0.774-0.665-1.308-1.854-1.937-2.233c0.075-0.054,0.13-0.168,0.134-0.371
			c-0.155-0.653,0.31-0.832,0.463-1.208c0.011,0.001,0.018-0.002,0.03-0.001c0.001,0,0.002,0,0.003,0
			c-0.064,0.198-0.027,0.318,0.363,0.198c0.872-0.232,0.271-2.133-0.161-1.463c0,0,0,0-0.001,0
			c-0.009-0.004-0.018-0.005-0.027-0.009c0.055-0.483-0.712-0.574-1.364-0.438c0.019-0.075,0.04-0.15,0.058-0.224
			c0.092-0.434,0.104-0.88,0.108-1.321c-0.027-1.64-0.279-3.294-0.883-4.822c-0.392-0.966-0.977-1.94-1.93-2.43
			c-0.193-0.101-0.398-0.163-0.608-0.206c-0.044-0.153-0.093-0.306-0.151-0.454c-0.183-0.448-0.463-0.897-0.911-1.115
			c-0.311-0.157-0.68-0.153-1.007-0.049v0c-0.192,0.067-0.377,0.159-0.529,0.297c-0.329,0.284-0.462,0.734-0.45,1.16
			c0.009,0.375,0.097,0.739,0.22,1.092c-0.546,0.604-0.771,1.447-0.748,2.252c0.049,1.483,0.597,2.898,1.256,4.208
			c0.497,0.937,1.042,1.872,1.798,2.623c0.004,0.003,0.008,0.007,0.012,0.01c-0.521,0.139-0.956,0.401-0.715,0.707
			c-0.001,0.001-0.001,0.002-0.002,0.003c-0.113-0.166-0.246-0.191-0.39,0.189c-0.439,0.821,1.35,1.642,1.11,0.907
			c0.181,0.103,0.582,0.059,0.589,0.461l0.577,1.238c-0.339,1.925-0.209,4.722-2.198,5.715c-2.013-0.315-2.868-2.644-3.81-4.205
			c-0.196-0.266-0.503-1.056-0.787-1.725c0.574,0.192,1.042,0.625,1.491,1.018c0.503,0.437,0.924,0.979,1.497,1.329
			c0.086,0.057,0.175,0.066,0.258,0.044c0.371,0.143,0.778,0.203,1.167,0.103l0.224-0.05c0.282,0.014,0.237-0.152,0.134-0.349
			l-0.413-1.375h0c-0.346-0.56-0.681-1.165-0.733-1.834l-0.021-0.202c-0.107-0.484-0.171-0.987-0.057-1.477l0.006-0.031
			c0.102-0.513,0.55-0.934,0.457-1.489l-0.003-0.031c-0.103-0.735-0.359-1.447-0.719-2.094c-0.38-0.668-0.977-1.368-1.803-1.394
			l-0.03-0.002c-0.363-0.003-0.735,0-1.082-0.117c-0.648-0.234-0.918-0.94-1.162-1.527l-0.73-1.154
			c-0.028-0.148-0.108-0.278-0.224-0.371l-0.045-0.029c-0.098-0.066-0.208-0.113-0.329-0.114c-0.79,0.003-1.382,0.796-1.391,1.548
			l-0.001,0.032c-0.02,0.885-0.081,1.785,0.067,2.662c-0.006-0.001-0.012-0.002-0.018-0.004c-0.088-0.231-0.191-0.458-0.298-0.67h0
			c-0.498-0.947-0.748-2.107-0.372-3.142l0.107-0.26c0.271-0.583,0.461-1.211,0.503-1.856c0.034-0.535-0.058-1.197-0.574-1.481
			c-0.152-0.077-0.309-0.102-0.468-0.103c-0.455-1.527-0.427-3.19-0.1-4.749l0.198-0.742l-0.159-1.068l-0.392-0.652
			c-0.144-0.206-0.287-0.412-0.431-0.617c-0.369-0.528-0.738-1.056-1.104-1.587c-0.196-0.284-0.386-0.573-0.58-0.858
			c-0.297-0.449-0.599-0.898-0.901-1.35c-0.475-0.758-0.98-1.519-1.417-2.31c-0.393-0.737-0.72-1.504-0.949-2.313
			c-0.047-0.189-0.09-0.381-0.12-0.576c-0.003-0.027-0.007-0.055-0.01-0.082c-0.016-0.168-0.012-0.331,0.003-0.489
			c0.006-0.054,0.01-0.108,0.02-0.162c0.019-0.118,0.048-0.231,0.082-0.344c0.028-0.09,0.056-0.179,0.092-0.266
			c0.032-0.077,0.067-0.151,0.104-0.226c0.053-0.104,0.108-0.206,0.171-0.305c0.044-0.07,0.091-0.139,0.14-0.207
			c0.058-0.081,0.118-0.161,0.181-0.239c0.088-0.108,0.178-0.215,0.275-0.318c0.017-0.019,0.034-0.037,0.051-0.055
			c0.408-0.425,0.873-0.806,1.298-1.156l0.762-0.606l0.467-0.328c0.185-0.131,0.367-0.267,0.557-0.391
			c0.174-0.114,0.354-0.221,0.532-0.33c0.171-0.105,0.341-0.211,0.515-0.312c0.305-0.171,0.616-0.331,0.924-0.495
			c0.395-0.208,0.788-0.417,1.188-0.614c0.163-0.081,0.328-0.159,0.492-0.238c0.53-0.255,1.062-0.504,1.599-0.743
			c0.168-0.075,0.337-0.15,0.506-0.223c0.459-0.201,0.922-0.394,1.386-0.585c0.31-0.126,0.619-0.255,0.931-0.378
			c0.188-0.075,0.379-0.146,0.568-0.22c0.414-0.16,0.828-0.317,1.244-0.471c0.019,0.315,0.058,0.627,0.118,0.939
			c0.007,0.043,0.017,0.086,0.024,0.129c0.021,0.097,0.031,0.196,0.056,0.292l0.197,0.722c-0.002,0.001-0.003,0.001-0.005,0.002v0
			c0,0,0,0,0,0c0.684,2.206,1.395,4.404,2.103,6.602c0.133,0.413,0.262,0.827,0.395,1.24c0.892,2.764,1.783,5.529,2.646,8.302
			c0.051,0.257,0.104,0.509,0.201,0.676l0.087,0.243c0,0,0,0,0.001,0.001c-0.001,0-0.001,0-0.002,0
			c0.046,0.115,0.124,0.206,0.21,0.289c0.01,0.01,0.021,0.018,0.031,0.028c0.066,0.06,0.137,0.115,0.213,0.166
			c0.061,0.041,0.122,0.082,0.186,0.12c0.061,0.036,0.121,0.072,0.177,0.109l3.213,3.154c-0.004,0.004-0.007,0.006-0.012,0.01
			l-0.689,0.52c-0.314,0.248-0.49,0.664-0.401,1.071c0.203,0.995,0.885,1.797,1.511,2.56l0.099,0.114
			c0.885,0.984,2.075,1.604,3.09,2.433l0.108,0.092c0.131,0.115,0.258,0.236,0.376,0.364c0.164,0.157,0.296,0.343,0.427,0.529
			l-0.457,0.563c-0.508-0.267-1.07-0.436-1.531-0.792l-0.056-0.04c-0.502-0.368-0.961-0.791-1.436-1.194l-0.05-0.044
			c-0.483-0.407-0.967-0.826-1.518-1.141l-0.047-0.026c-0.506-0.268-1.029-0.529-1.59-0.663c-0.373-0.108-0.863-0.044-1.069,0.313
			c-0.074,0.008-0.09,0.062-0.077,0.14l0.749,2.696c0.097,0.635-0.365,1.149-0.767,1.576c-0.33,0.355-0.452,0.855-0.435,1.333
			c0.057,1.043,0.5,2.045,1.125,2.872c0.266,0.362,0.713,0.427,1.113,0.551l0.265,0.128c0.399,0.234,0.711,0.571,0.956,0.961
			l0.183,0.225c0.428,0.477,0.616,1.116,0.768,1.726l0.006,0.029c0.065,0.334,0.252,0.604,0.443,0.873
			c0.047,0.083,0.099,0.161,0.16,0.233l0.363,0.306l0.176,0.05c0.11,0.019,0.226,0.018,0.336-0.004
			c0.718-0.182,1.2-0.813,1.647-1.361l0.065-0.085c0.542-0.771,0.717-1.726,1.13-2.563l0.032-0.06
			c0.039-0.071,0.082-0.142,0.13-0.209c0.084-0.145,0.213-0.25,0.344-0.351c-0.071,0.721-0.031,1.947,0.035,2.403
			C187.735,127.153,188.078,130.04,186.103,131.403z M224.648,114.167c-0.174-0.188-0.468-0.28-0.674-0.414l-0.984-0.67
			c-0.614-0.592-1.118-1.285-1.692-1.914l-1.075-0.975c-0.114-0.075-0.229-0.149-0.345-0.221c-0.774-0.441-1.687-1.01-2.599-0.675
			c-0.401,0.206-0.587,0.567-0.663,0.974l-0.002,0.01c-0.079,0.431-0.034,0.912,0.021,1.314c0.001,0,0.002,0,0.003,0.001
			c0.003,0.021,0.003,0.042,0.006,0.062c0,0,0,0-0.001,0c0.032,0.246,0.06,0.504,0.057,0.758l-0.03,0.318l-0.099,0.358
			c-0.034,0.084-0.062,0.17-0.114,0.247c0,0-0.001,0.001-0.001,0.001h0c-0.06,0.056-0.128,0.097-0.197,0.14
			c-0.13,0.075-0.261,0.149-0.4,0.208c-0.137,0.06-0.271,0.125-0.398,0.198l-0.211,0.13c-0.256,0.162-0.496,0.35-0.714,0.56
			c-0.053,0.051-0.09,0.113-0.14,0.167l-0.397,0.496l-0.059,0.081l-0.139,0.315c-0.033,0.115-0.05,0.233-0.057,0.354
			c-0.003,0.021-0.005,0.042-0.007,0.064c0,0.012-0.003,0.022-0.003,0.034c-0.021,0.196-0.021,0.392,0.023,0.547
			c0.006,0.083,0.012,0.167,0.015,0.25c0,0-0.001,0-0.001,0c-0.003,0.154-0.018,0.308-0.028,0.462
			c-0.04,0.197-0.03,0.484,0.034,0.708c0.005,0.025,0.017,0.049,0.023,0.074c0.009,0.025,0.019,0.049,0.03,0.072
			c0.029,0.084,0.054,0.17,0.105,0.25c0.001,0.002,0.003,0.004,0.005,0.006c0,0,0.001,0.001,0.001,0.002
			c0.147,0.241,0.33,0.456,0.528,0.656c0.056,0.057,0.116,0.106,0.175,0.16l0.523,0.41c0.029,0.02,0.053,0.046,0.083,0.065
			c0.001,0,0.001,0,0.002,0.001c0.089,0.056,0.18,0.111,0.271,0.163c0.014,0.01,0.032,0.014,0.046,0.022
			c0.106,0.059,0.216,0.111,0.327,0.16c0.096,0.041,0.182,0.097,0.274,0.143l0.338,0.297c0.048,0.087,0.096,0.173,0.124,0.267
			c0.018,0.061,0.022,0.125,0.033,0.188c0.012,0.071,0.028,0.141,0.033,0.214c0.006,0.103,0.004,0.207,0,0.311
			c-0.001,0.03,0,0.061-0.002,0.091c-0.006,0.09-0.015,0.178-0.023,0.267c-0.009,0.079-0.017,0.16-0.026,0.236c0,0-0.001,0-0.001,0
			c-0.027,0.211-0.053,0.441-0.066,0.673c0,0.012,0,0.024-0.001,0.037c-0.011,0.228-0.001,0.456,0.038,0.674
			c0,0.002,0,0.003,0,0.005h0c0,0,0.001,0,0.001,0c0.008,0.042,0.012,0.083,0.022,0.124c0,0.002,0,0.001,0,0.003
			c-0.012,0.111,0.016,0.148,0.058,0.163c0.084,0.228,0.214,0.435,0.427,0.597c0.658,0.409,1.476,0.085,2.107-0.225l0.993-0.585
			c0.697-0.486,1.242-1.149,1.783-1.797l0.984-1.091c0.413-0.464,1.008-0.636,1.495-0.978c0.267,3.292-0.06,6.921-2.669,9.162
			c-3.401,2.684-8.24,0.127-10.012-3.304c-0.669-0.929-0.888-2.277-1.329-2.93c0.268-0.191,0.742-0.72,0.717-1.151l1.105-0.609
			c0.96-0.105,0.829-1.782,0.133-1.952l-1.808-0.414c0.15-0.355,0.261-0.727,0.354-1.1c0.363-1.608,0.505-3.285,0.274-4.923
			c-0.156-1.024-0.496-2.101-1.299-2.798c-0.162-0.142-0.345-0.251-0.536-0.344c-0.007-0.151-0.016-0.303-0.037-0.453
			c-0.07-0.484-0.233-0.992-0.617-1.318c-0.266-0.232-0.629-0.319-0.976-0.297c-0.202,0.019-0.404,0.064-0.583,0.161
			c-0.383,0.194-0.617,0.594-0.707,1.004c-0.082,0.369-0.084,0.746-0.048,1.12c-0.676,0.455-1.093,1.223-1.26,2.01
			c-0.302,1.454-0.103,2.96,0.229,4.39c0.248,0.969,0.542,1.943,1.041,2.814c-0.714,0.077-1.56,0.413-1.33,0.899
			c-0.002,0.001-0.004,0.002-0.005,0.003c-0.207-0.148-0.637,0.022-0.518,0.588c-0.239,0.707,1.213,1.455,1.125,0.829
			c0.209,0.139,0.738,0.106,0.765,0.576c0.303,0.706,0.538,0.796,0.797,1.025c-0.293,0.362-0.947,1.459-1.009,2.18
			c-0.973,2.206-2.124,5.487-4.982,5.485c-3.177-0.899-4.745-4.251-6.372-6.86c-0.175-0.244-0.519-0.959-0.848-1.605
			c0.046-0.09,0.084-0.183,0.123-0.276c0.419,0.239,0.91,0.339,1.306,0.628l0.218,0.15c0.951,0.729,1.735,1.689,2.77,2.315
			l0.127,0.07c0.366,0.191,0.741,0.369,1.13,0.506c0.58,0.203,1.351,0.394,1.833-0.109c0.111-0.142,0.18-0.296,0.22-0.459
			c0.067-0.041,0.025-0.232,0.041-0.345c0,0,0,0,0,0c0-0.004-0.001-0.008-0.001-0.012c0.003-0.201-0.022-0.406-0.064-0.608
			c-0.007-0.034-0.015-0.066-0.022-0.1c-0.033-0.144-0.07-0.284-0.108-0.418c-0.001-0.008-0.007-0.006-0.008-0.013
			c-0.013-0.042-0.021-0.086-0.035-0.128h-0.001c0,0,0-0.001,0-0.001l-0.13-0.499c-0.018-0.08-0.036-0.16-0.047-0.241
			c-0.009-0.064-0.01-0.129-0.014-0.194s-0.008-0.13-0.005-0.195c0.002-0.052,0.014-0.104,0.021-0.156
			c0.017-0.101,0.034-0.202,0.077-0.298l0.004-0.007c0.004-0.007,0.009-0.014,0.013-0.021c0.025-0.036,0.059-0.063,0.09-0.092
			l0.882-0.639l0.58-0.618c0.15-0.198,0.275-0.414,0.38-0.639l0.074-0.153l0.001-0.002c0.053-0.126,0.08-0.254,0.09-0.383
			c0.002-0.028-0.002-0.057-0.002-0.085c0.003-0.104,0.001-0.208-0.012-0.313c-0.002-0.015-0.006-0.03-0.008-0.046
			c-0.022-0.152-0.053-0.303-0.086-0.452c-0.021-0.098-0.043-0.196-0.061-0.292c0,0,0,0,0-0.001c0,0,0,0,0.001,0
			c-0.031-0.258-0.041-0.527-0.082-0.788c-0.004-0.027-0.013-0.052-0.018-0.079c-0.019-0.098-0.042-0.195-0.076-0.288l-0.228-0.385
			l-0.635-0.653c-0.062-0.049-0.133-0.084-0.198-0.13c-0.163-0.115-0.323-0.234-0.498-0.327l-0.56-0.246l-0.729-0.278l-0.136-0.165
			c-0.067-0.089-0.132-0.18-0.177-0.281c-0.024-0.053-0.037-0.112-0.057-0.168c-0.028-0.082-0.06-0.163-0.079-0.249
			c-0.016-0.071-0.025-0.144-0.036-0.217c-0.012-0.081-0.027-0.161-0.036-0.242c-0.003-0.031-0.005-0.061-0.008-0.092l-0.085-1.154
			c-0.033-0.254-0.083-0.505-0.165-0.748c-0.008-0.03-0.028-0.056-0.038-0.085c-0.005-0.011,0.002-0.009-0.005-0.022
			c-0.005-0.105-0.035-0.139-0.072-0.15c-0.214-0.426-0.624-0.765-1.121-0.694c-0.851,0.132-1.5,0.775-2.093,1.354l-0.103,0.107
			c-0.84,0.934-1.229,2.165-1.877,3.222c-0.074,0.089-0.022,0.151,0.06,0.208c-0.054-0.031-0.103-0.063-0.13-0.098
			c-0.089,0.136-0.189,0.264-0.296,0.385c-0.267,0.35-0.71,0.535-0.942,0.907c-0.205-0.207-0.424-0.399-0.661-0.568
			c0.072-0.352,0.145-0.703,0.312-1.026c0.064-0.097,0.006-0.152-0.083-0.198c0.057,0.023,0.108,0.049,0.14,0.08
			c0.602-1.135,1.507-2.104,1.955-3.321c0.046-0.1-0.018-0.143-0.109-0.173c0.058,0.014,0.113,0.03,0.148,0.055
			c0.141-0.454,0.27-0.917,0.353-1.386c0.127-0.774,0.23-1.707-0.339-2.335c-0.169-0.164-0.367-0.258-0.576-0.311
			c-0.209-1.043,0.14-2.155,0.611-3.088l0.492-0.849c0.074-0.088,0.149-0.177,0.223-0.266c0.29-0.234,0.357-0.526,0.31-0.819
			c-0.001-0.015-0.003-0.03-0.005-0.045c-0.008-0.04-0.021-0.079-0.033-0.119c-0.004-0.013-0.005-0.024-0.01-0.037
			c-0.002-0.005-0.005-0.011-0.008-0.017c-0.096-0.271-0.273-0.533-0.463-0.738c-0.181-0.257-0.358-0.517-0.539-0.774
			c-0.308-0.442-0.616-0.883-0.918-1.329c-0.188-0.276-0.37-0.556-0.554-0.833c-0.292-0.438-0.582-0.879-0.866-1.322
			c-0.216-0.339-0.427-0.682-0.638-1.024c-0.261-0.422-0.515-0.849-0.765-1.277c-0.182-0.312-0.362-0.624-0.538-0.938
			c-0.316-0.569-0.618-1.145-0.91-1.727c-0.167-0.334-0.332-0.671-0.491-1.011c-0.023-0.051-0.046-0.102-0.069-0.153
			c-0.069-0.149-0.132-0.301-0.199-0.452c-0.322-0.745-0.617-1.511-0.857-2.291c-0.073-0.242-0.15-0.483-0.209-0.728
			c-0.013-0.051-0.021-0.104-0.033-0.155c-0.086-0.373-0.159-0.748-0.208-1.127c-0.001-0.01-0.002-0.021-0.003-0.032
			c-0.049-0.392-0.073-0.787-0.075-1.185c0-0.048,0.001-0.097,0.002-0.146c0.003-0.296,0.033-0.594,0.067-0.893
			c0.031-0.232,0.054-0.464,0.107-0.696c0.004-0.051,0.019-0.104,0.033-0.157c0.119-0.276,0.273-0.549,0.29-0.77l0.092-0.152
			c0.066-0.12,0.151-0.224,0.223-0.338c0.101-0.11,0.188-0.24,0.246-0.373c0.055-0.077,0.099-0.163,0.156-0.237
			c0.75-0.932,1.652-1.686,2.651-2.3c0.978-0.594,2.045-1.065,3.113-1.461c0.006-0.002,0.012-0.004,0.018-0.007
			c0.224-0.083,0.446-0.157,0.669-0.234c0.196-0.065,0.392-0.13,0.588-0.191c0.752-0.225,1.508-0.428,2.269-0.611
			c0.207-0.048,0.415-0.094,0.623-0.139c0.561-0.127,1.124-0.242,1.688-0.348c0.472-0.087,0.945-0.168,1.418-0.244
			c0.353-0.056,0.707-0.111,1.061-0.161c0.54-0.076,1.082-0.144,1.624-0.207c0.359-0.041,0.718-0.08,1.078-0.115
			c0.47-0.046,0.941-0.088,1.413-0.125c0.514-0.04,1.028-0.077,1.543-0.107c0.288-0.018,0.576-0.034,0.865-0.048
			c0.743-0.037,1.486-0.068,2.229-0.089c0.06-0.002,0.121-0.004,0.181-0.005c0.864-0.023,1.729-0.038,2.592-0.046
			c0.034,0,0.068,0,0.102-0.001c0.585-0.005,1.169-0.004,1.753-0.005c0.553,0.002,1.105,0.004,1.657,0.009
			c0.121,0.016,0.24,0.028,0.355,0.037c0.11,0.021,0.228,0.021,0.344-0.001c0.013-0.002,0.023-0.006,0.036-0.009
			c0.008-0.001,0.015-0.004,0.022-0.005c0.057,0.826,0.115,1.652,0.174,2.479c0.008,0.123,0.015,0.246,0.023,0.369
			c0.023,0.297,0.043,0.596,0.065,0.894c0.137,1.994,0.256,3.988,0.305,5.984c0.062,3.108-0.084,6.212-0.631,9.277
			c-0.282,1.486-0.638,2.959-1.026,4.422c-0.192,0.621-0.417,1.246-0.524,1.88c-0.069,0.203-0.111,0.39-0.054,0.521
			c-0.001,0.022-0.002,0.043-0.002,0.065c-0.1,0.022-0.167,0.093-0.121,0.237c0.024,0.237,0.112,0.438,0.237,0.614
			c0.092,0.186,0.235,0.339,0.374,0.391c0.337,0.276,0.752,0.493,1.086,0.722c0.153,0.127,0.295,0.215,0.421,0.238
			c0.779,0.504,1.531,1.063,2.082,1.793c0.132,0.197,0.255,0.4,0.346,0.625c0.008,0.026,0.02,0.045,0.03,0.068
			c-0.397,0.164-0.725,0.494-0.748,0.948c-0.052,0.911,0.455,1.732,0.902,2.486l0.081,0.128c0.734,1.075,1.86,1.779,2.759,2.699
			l0.095,0.101c0.128,0.143,0.25,0.295,0.359,0.455c0.292,0.371,0.399,0.867,0.72,1.21
			C225.166,113.568,224.886,113.85,224.648,114.167z M267.51,90.411c-0.067,0.152-0.13,0.305-0.2,0.455
			c-0.023,0.052-0.046,0.103-0.07,0.154c-0.159,0.34-0.324,0.676-0.49,1.01c-0.291,0.58-0.593,1.155-0.908,1.722
			c-0.179,0.32-0.362,0.638-0.546,0.955c-0.247,0.422-0.497,0.842-0.754,1.258c-0.213,0.346-0.426,0.692-0.646,1.035
			c-0.286,0.447-0.578,0.891-0.872,1.333c-0.179,0.27-0.355,0.541-0.538,0.809c-0.357,0.525-0.72,1.046-1.083,1.567l-0.844,1.284
			c-0.003,0.006-0.006,0.013-0.009,0.019c-0.006,0.014-0.006,0.027-0.011,0.042c-0.012,0.038-0.023,0.076-0.031,0.114
			c-0.002,0.016-0.004,0.031-0.006,0.046c-0.048,0.293,0.02,0.585,0.31,0.819c0.074,0.088,0.148,0.177,0.222,0.266l0.492,0.849
			c0.471,0.934,0.82,2.045,0.611,3.088c-0.21,0.053-0.408,0.147-0.576,0.311c-0.57,0.628-0.467,1.561-0.34,2.335
			c0.083,0.469,0.211,0.932,0.353,1.386l0.04,0.118c0.448,1.218,1.353,2.187,1.955,3.321l0.057,0.118
			c0.167,0.323,0.241,0.674,0.312,1.026c-0.237,0.169-0.456,0.361-0.661,0.568c-0.232-0.371-0.676-0.557-0.941-0.906
			c-0.107-0.122-0.208-0.25-0.297-0.385l-0.07-0.11c-0.648-1.058-1.038-2.288-1.877-3.222l-0.104-0.107
			c-0.591-0.579-1.242-1.221-2.092-1.354c-0.497-0.07-0.907,0.268-1.121,0.694c-0.037,0.011-0.067,0.044-0.072,0.15
			c-0.008,0.014,0,0.013-0.005,0.025c-0.01,0.028-0.029,0.054-0.037,0.083c-0.081,0.243-0.132,0.494-0.165,0.747
			c-0.034,0.247-0.05,0.496-0.058,0.744l0,0.03c-0.006,0.114-0.015,0.233-0.024,0.352c-0.004,0.042-0.006,0.084-0.011,0.126
			c-0.007,0.076-0.022,0.151-0.033,0.227c-0.012,0.076-0.021,0.152-0.038,0.227c-0.019,0.083-0.049,0.162-0.077,0.242
			c-0.02,0.059-0.034,0.12-0.059,0.176c-0.038,0.084-0.096,0.159-0.148,0.236l-0.085,0.135l-0.079,0.073
			c-0.002,0.002-0.004,0-0.007,0.002c-0.227,0.113-0.473,0.188-0.714,0.272c-0.091,0.033-0.185,0.058-0.271,0.104
			c-0.023,0.011-0.046,0.022-0.07,0.034c-0.01,0.005-0.022,0.007-0.032,0.013l-0.703,0.431c-0.062,0.043-0.13,0.077-0.189,0.124
			l-0.648,0.646l-0.034,0.056l-0.256,0.622c-0.005,0.028-0.014,0.055-0.019,0.084c-0.019,0.121-0.032,0.244-0.042,0.367
			c-0.001,0.01-0.002,0.021-0.003,0.031l-0.1,0.699c-0.029,0.129-0.053,0.259-0.074,0.39c-0.005,0.031-0.013,0.063-0.017,0.094
			c-0.012,0.094-0.012,0.187-0.011,0.28l0.087,0.497l0.001,0.002l0.04,0.095c0.074,0.168,0.181,0.318,0.28,0.472
			c0.046,0.072,0.079,0.151,0.13,0.219c0.172,0.229,0.368,0.44,0.584,0.625l0,0l0,0l0.294,0.238
			c0.079,0.073,0.172,0.128,0.268,0.182c0.11,0.069,0.218,0.14,0.319,0.219c0.032,0.029,0.065,0.056,0.09,0.092
			c0.004,0.007,0.009,0.014,0.013,0.021l0.004,0.007c0.043,0.096,0.06,0.196,0.077,0.297c0.007,0.052,0.019,0.104,0.021,0.157
			c0.003,0.065-0.001,0.131-0.005,0.197c-0.004,0.063-0.004,0.127-0.013,0.19l-0.331,1.305c-0.007,0.033-0.015,0.065-0.022,0.098
			c-0.041,0.199-0.066,0.401-0.064,0.601c0,0.006-0.002,0.012-0.002,0.019c0,0,0,0,0.001,0.001c0.015,0.113-0.027,0.306,0.041,0.345
			c0.04,0.162,0.109,0.317,0.22,0.458c0.483,0.502,1.254,0.312,1.833,0.109l1.258-0.576c1.034-0.626,1.818-1.587,2.77-2.315
			l0.217-0.15c0.396-0.29,0.886-0.39,1.306-0.628c0.041,0.096,0.079,0.192,0.127,0.285c-1.77,3.103-3.398,6.85-6.824,8.373
			c-2.768,0.557-4.167-2.632-5.101-4.7c-0.532-0.99-0.716-2.356-1.202-2.947c0.206,0.017,0.467-0.131,0.533-0.56
			c0.036-0.75,0.628-0.743,0.921-1.057c0.015,0.006,0.025,0.003,0.041,0.01c0.003,0.001,0.005,0,0.008,0.001
			c-0.122,0.181-0.104,0.318,0.326,0.297c0.965,0.017,0.921-2.139,0.272-1.631c-0.004-0.003-0.006-0.009-0.01-0.012
			c-0.003-0.003-0.006-0.004-0.01-0.007c0.006-0.004,0.013-0.003,0.019-0.008c0.062-0.493-0.652-0.818-1.357-0.887
			c0.5-0.872,0.794-1.848,1.043-2.817c0.331-1.43,0.53-2.936,0.229-4.39c-0.167-0.787-0.584-1.555-1.26-2.009
			c0.036-0.375,0.034-0.751-0.047-1.121c-0.09-0.411-0.325-0.811-0.708-1.004c-0.18-0.097-0.381-0.142-0.583-0.161c0,0,0,0,0,0
			c-0.346-0.022-0.71,0.065-0.976,0.297c-0.383,0.327-0.546,0.834-0.617,1.318c-0.02,0.15-0.03,0.302-0.036,0.453
			c-0.191,0.092-0.374,0.202-0.536,0.344c-0.804,0.698-1.143,1.774-1.3,2.798c-0.231,1.638-0.088,3.315,0.274,4.923
			c0.094,0.374,0.205,0.746,0.355,1.101l-1.25,0.111c-1.281,0.313-0.771,1.862-0.055,2.039c0.411,0.256,0.772,0.189,0.73,0.822
			c0.18,0.612,0.366,0.98,0.622,1.121c-0.963,3.83-4.237,7.624-8.453,7.37c-4.098-0.324-5.704-4.997-5.537-8.556
			c-0.017-0.304,0.035-1.023,0.081-1.708c0.487,0.341,1.081,0.513,1.493,0.977l0.984,1.091c0.541,0.647,1.085,1.311,1.782,1.797
			l0.993,0.585c0.632,0.31,1.451,0.634,2.108,0.225c0.213-0.162,0.343-0.369,0.427-0.597c0.042-0.014,0.07-0.051,0.058-0.163
			c0.001-0.004-0.001-0.002,0-0.006l0.023-0.126c0.04-0.218,0.048-0.446,0.038-0.674c0-0.012-0.001-0.024-0.001-0.037
			c-0.012-0.232-0.039-0.461-0.066-0.673c0,0,0,0-0.001,0c-0.01-0.076-0.018-0.157-0.026-0.236
			c-0.009-0.088-0.018-0.177-0.023-0.267c-0.002-0.03,0-0.061-0.002-0.091c-0.004-0.104-0.007-0.208,0-0.311
			c0.005-0.071,0.021-0.139,0.032-0.208c0.011-0.065,0.016-0.131,0.034-0.193c0.025-0.086,0.071-0.165,0.113-0.246l0.349-0.318
			l2.228-1.778l0,0c0.002-0.003,0.005-0.006,0.007-0.01c0.052-0.081,0.077-0.167,0.106-0.252c0.011-0.021,0.019-0.042,0.028-0.065
			c0.008-0.027,0.02-0.053,0.025-0.081c0.063-0.224,0.072-0.51,0.033-0.706c-0.01-0.154-0.023-0.308-0.027-0.462c0,0,0,0-0.001,0
			c0.002-0.083,0.009-0.167,0.015-0.251c0.043-0.154,0.043-0.348,0.022-0.543c0-0.016-0.004-0.03-0.004-0.046
			c-0.001-0.015-0.003-0.029-0.005-0.044c-0.006-0.125-0.025-0.247-0.059-0.365c-0.003-0.018-0.007-0.04-0.01-0.056
			c-0.03-0.091-0.071-0.18-0.123-0.26l-2.523-1.976c0,0,0-0.001-0.001-0.001c-0.054-0.078-0.082-0.165-0.116-0.25l-0.099-0.36
			l-0.028-0.328l0.085-2.13c-0.076-0.407-0.263-0.769-0.663-0.974c-0.912-0.335-1.825,0.234-2.599,0.675
			c-0.117,0.072-0.231,0.146-0.346,0.221l-1.075,0.975c-0.574,0.629-1.079,1.321-1.692,1.914l-0.984,0.67
			c-0.207,0.134-0.5,0.226-0.673,0.413c-0.235-0.312-0.511-0.59-0.819-0.828c0.013-0.013,0.029-0.021,0.04-0.036
			c0.334-0.477,0.501-1.06,0.903-1.495l0.125-0.145c0.887-0.941,2.021-1.644,2.788-2.702l0.066-0.098
			c0.237-0.371,0.461-0.751,0.645-1.153c0.284-0.628,0.566-1.454,0.098-2.065c-0.146-0.163-0.322-0.27-0.511-0.343
			c0.01-0.023,0.022-0.042,0.03-0.068c0.092-0.227,0.216-0.434,0.351-0.633c0.543-0.73,1.318-1.277,2.087-1.785
			c0.124-0.027,0.263-0.114,0.412-0.237c0.323-0.222,0.722-0.431,1.054-0.694c0.132-0.02,0.277-0.192,0.384-0.392
			c0.136-0.184,0.234-0.392,0.26-0.642c0.046-0.145-0.021-0.215-0.122-0.237c-0.001-0.021-0.001-0.041-0.003-0.062
			c0.065-0.142,0.007-0.354-0.072-0.58c-0.128-0.732-0.366-1.447-0.593-2.163c-0.372-1.418-0.71-2.845-0.977-4.285
			c-0.095-0.561-0.181-1.123-0.252-1.687c-0.289-2.112-0.372-4.23-0.354-6.35c0.002-0.22,0.002-0.441,0.007-0.662
			c0.009-0.458,0.023-0.917,0.04-1.376c0.009-0.239,0.014-0.478,0.024-0.716c0.068-1.549,0.17-3.099,0.273-4.647
			c0.078-1.123,0.159-2.245,0.236-3.367c0.008,0.001,0.015,0.004,0.023,0.005c0.012,0.002,0.022,0.007,0.035,0.009
			c0.117,0.022,0.234,0.022,0.345,0.001c0.115-0.009,0.234-0.021,0.355-0.037c0.552-0.005,1.104-0.007,1.657-0.009
			c0.584,0,1.168,0,1.753,0.005c0.034,0,0.067,0,0.101,0.001c0.864,0.008,1.729,0.022,2.593,0.046
			c0.06,0.001,0.119,0.003,0.179,0.005c0.744,0.021,1.488,0.052,2.232,0.089c0.287,0.015,0.575,0.031,0.862,0.048
			c0.516,0.03,1.031,0.067,1.545,0.107c0.471,0.037,0.94,0.079,1.41,0.125c0.361,0.035,0.721,0.075,1.082,0.116
			c0.541,0.062,1.081,0.13,1.62,0.206c0.356,0.05,0.71,0.105,1.065,0.162c0.472,0.075,0.944,0.156,1.414,0.243
			c0.566,0.107,1.131,0.222,1.694,0.35c0.206,0.045,0.412,0.09,0.617,0.138c0.762,0.183,1.52,0.387,2.273,0.612
			c0.193,0.061,0.386,0.124,0.58,0.188c0.227,0.078,0.453,0.154,0.68,0.238c0.001,0.001,0.003,0.001,0.004,0.002
			c1.07,0.397,2.141,0.869,3.121,1.463c1,0.616,1.904,1.37,2.654,2.304c0.056,0.073,0.1,0.158,0.153,0.233
			c0.059,0.133,0.146,0.264,0.247,0.375l0.605,1.261c0.015,0.053,0.029,0.106,0.033,0.157c0.054,0.231,0.076,0.461,0.107,0.692
			c0.034,0.3,0.064,0.6,0.068,0.898c0.001,0.048,0.002,0.096,0.002,0.144c-0.001,0.397-0.026,0.792-0.075,1.184
			c-0.001,0.011-0.002,0.022-0.004,0.034c-0.048,0.378-0.122,0.753-0.208,1.125c-0.012,0.052-0.021,0.104-0.033,0.155
			c-0.06,0.247-0.138,0.491-0.212,0.735C268.124,88.906,267.831,89.669,267.51,90.411z M297.86,95.651
			c-0.031,0.198-0.074,0.391-0.122,0.583c-0.229,0.808-0.556,1.575-0.949,2.312c-0.435,0.788-0.937,1.545-1.411,2.299
			c-0.317,0.474-0.634,0.945-0.946,1.417c-0.167,0.245-0.33,0.493-0.498,0.737c-0.457,0.665-0.918,1.327-1.381,1.987
			c-0.065,0.093-0.13,0.187-0.196,0.281l-0.062,0.119c-0.084,0.058-0.158,0.163-0.222,0.302c-0.025,0.05-0.049,0.103-0.072,0.157
			c-0.009,0.017-0.017,0.036-0.025,0.053c-0.033,0.066-0.065,0.132-0.096,0.202c-0.013,0.029-0.022,0.06-0.034,0.089
			c-0.028,0.069-0.055,0.137-0.074,0.208c-0.008,0.028-0.007,0.056-0.013,0.083c-0.015,0.073-0.03,0.146-0.03,0.219
			c0,0.002,0.001,0.003,0.001,0.005c0.001,0.098,0.016,0.195,0.056,0.291l0.22,0.734c0.327,1.559,0.354,3.221-0.101,4.749
			c-0.159,0.001-0.316,0.026-0.468,0.103c-0.517,0.284-0.608,0.946-0.574,1.481c0.042,0.645,0.232,1.273,0.503,1.856l0.107,0.26
			c0.376,1.035,0.126,2.194-0.373,3.142c0,0,0,0,0,0c-0.107,0.212-0.21,0.439-0.298,0.671c-0.006,0.001-0.011,0.002-0.017,0.003
			c0.148-0.877,0.086-1.777,0.066-2.662l-0.001-0.032c-0.009-0.752-0.601-1.545-1.391-1.548c-0.121,0-0.231,0.048-0.329,0.114
			l-0.046,0.029c-0.115,0.093-0.196,0.223-0.224,0.371c-0.027,0.014-0.054,0.028-0.072,0.063c-0.261,0.336-0.513,0.687-0.659,1.09
			c-0.243,0.587-0.514,1.293-1.161,1.527c-0.348,0.117-0.72,0.113-1.083,0.117l-0.031,0.002c-0.826,0.026-1.422,0.726-1.802,1.394
			c-0.36,0.647-0.617,1.359-0.72,2.094l-0.003,0.031c-0.093,0.555,0.355,0.976,0.457,1.489l0.006,0.031
			c0.115,0.49,0.05,0.993-0.056,1.477l-0.021,0.202c-0.053,0.67-0.388,1.274-0.733,1.834c0,0-0.001,0-0.001,0
			c-0.283,0.406-0.292,0.913-0.413,1.375c-0.102,0.196-0.147,0.362,0.135,0.349c0.05,0.024,0.041-0.012,0.019-0.063
			c0.045,0.068,0.104,0.12,0.205,0.113c0.389,0.101,0.797,0.041,1.168-0.103c0.083,0.022,0.172,0.012,0.258-0.044
			c0.572-0.35,0.993-0.892,1.497-1.329c0.449-0.392,0.917-0.825,1.49-1.018c-0.91,2.091-1.886,4.235-3.687,5.667
			c-1.765,1.007-2.505-1.582-2.742-2.873c-0.301-1.054-0.22-2.325-0.511-3l1.634-0.984c0.908,0.101,0.976-1.943,0.406-1.391
			c-0.002-0.003-0.003-0.007-0.005-0.01c-0.002-0.002-0.005-0.003-0.008-0.005c0.135-0.334-0.245-0.573-0.71-0.697
			c0.003-0.003,0.007-0.006,0.011-0.009c-0.061-0.068-0.122-0.137-0.183-0.206c0.061,0.068,0.123,0.137,0.184,0.206
			c0.756-0.751,1.301-1.687,1.798-2.623c0.659-1.31,1.207-2.725,1.256-4.208c0.024-0.806-0.201-1.649-0.749-2.252
			c0.124-0.353,0.211-0.717,0.22-1.092c0.013-0.425-0.122-0.875-0.45-1.16c-0.152-0.138-0.337-0.23-0.529-0.297
			c-0.327-0.104-0.696-0.108-1.007,0.049c-0.448,0.217-0.728,0.667-0.911,1.115c-0.059,0.148-0.107,0.301-0.151,0.454
			c-0.209,0.043-0.415,0.105-0.608,0.206c-0.954,0.49-1.538,1.464-1.93,2.43c-0.604,1.528-0.856,3.183-0.884,4.822
			c0.004,0.441,0.016,0.888,0.107,1.321c0,0,0,0,0,0c0.018,0.073,0.039,0.149,0.057,0.223c-0.668-0.143-1.059-0.155-1.606,0.166
			l-0.26,0.357c-0.665,0.553,0.56,1.917,0.673,1.279c0.139,0.149,0.466,0.265,0.437,0.568c0.073,0.687,0.073,0.687,0.325,0.967
			c-0.4,0.261-1.438,1.188-1.738,1.809c-1.513,1.526-3.167,3.971-5.573,3.673c-1.914-1.302-1.635-4.067-1.778-6.124
			c-0.06-0.425,0.077-1.809,0.081-2.62c0.114,0.091,0.224,0.188,0.299,0.315l0.162,0.269c0.414,0.838,0.588,1.792,1.13,2.563
			l0.065,0.085c0.447,0.549,0.929,1.18,1.647,1.361c0.11,0.022,0.225,0.023,0.335,0.004l0.541-0.357l0.602-1.105l0.006-0.029
			c0.152-0.61,0.34-1.249,0.768-1.726l0.183-0.225c0.245-0.391,0.558-0.728,0.956-0.961l0.264-0.128
			c0.399-0.124,0.847-0.188,1.113-0.551c0.624-0.827,1.067-1.829,1.124-2.872c0.017-0.478-0.104-0.978-0.435-1.333
			c-0.014,0.013-0.028,0.026-0.042,0.04c0,0,0,0,0,0c0.014-0.013,0.028-0.026,0.042-0.039c-0.401-0.426-0.863-0.94-0.766-1.576
			c0.021-0.178,0.069-0.35,0.123-0.52c0.049-0.106,0.1-0.21,0.147-0.313c-0.009-0.002-0.02-0.01-0.029-0.013
			c0.005-0.012,0.01-0.024,0.015-0.037c0.014-0.004,0.032,0.002,0.044-0.011c0.255-0.559,0.584-1.171,0.449-1.803
			c0.013-0.078-0.003-0.132-0.077-0.14c-0.206-0.357-0.696-0.421-1.069-0.313c-0.561,0.133-1.083,0.395-1.59,0.663l-0.047,0.026
			c-0.55,0.315-1.035,0.734-1.518,1.141l-0.051,0.044c-0.474,0.403-0.933,0.826-1.436,1.194l-0.055,0.04
			c-0.461,0.356-1.023,0.525-1.532,0.792c-0.041,0.025-0.064,0.068-0.1,0.1c-0.095-0.233-0.218-0.453-0.356-0.663
			c0.13-0.187,0.263-0.372,0.427-0.529c0.118-0.128,0.245-0.25,0.376-0.364l0.108-0.092c1.016-0.829,2.205-1.449,3.091-2.433
			l0.098-0.114c0.625-0.763,1.309-1.565,1.511-2.56c0.088-0.407-0.086-0.823-0.401-1.071c-0.003-0.046-0.032-0.084-0.143-0.097
			c-0.043-0.027-0.058-0.022-0.072-0.016c-0.011-0.005-0.021-0.011-0.032-0.016c-0.001-0.005-0.003-0.01-0.004-0.015
			c-0.001,0.003-0.003,0.007-0.004,0.011l-0.458-0.129c-0.048-0.008-0.093-0.03-0.142-0.036c0.033-0.055,0.072-0.106,0.106-0.16
			c0,0,0.001,0,0.001,0l0.058-0.062c-0.004-0.004-0.008-0.005-0.012-0.01c0.748-1.155,1.757-2.139,2.86-2.943c0,0,0,0,0-0.001
			s0,0,0,0l0.104-0.063c0.074-0.01,0.154-0.046,0.25-0.147c0.056-0.036,0.116-0.072,0.175-0.108c0.065-0.039,0.126-0.08,0.188-0.121
			c0.075-0.05,0.145-0.105,0.21-0.164c0.011-0.01,0.023-0.02,0.034-0.03c0.086-0.083,0.163-0.173,0.209-0.288c0,0-0.001,0-0.002,0
			c0,0,0-0.001,0.001-0.001l0.087-0.244c0.096-0.166,0.149-0.416,0.2-0.67c0.843-2.709,1.712-5.409,2.584-8.109
			c0.298-0.924,0.587-1.851,0.884-2.775l2.067-7.35c0.425,0.158,0.849,0.319,1.272,0.482c0.175,0.068,0.35,0.134,0.524,0.203
			c0.323,0.127,0.643,0.26,0.964,0.392c0.451,0.186,0.902,0.374,1.349,0.569c0.18,0.078,0.36,0.158,0.54,0.238
			c0.523,0.234,1.043,0.477,1.561,0.726c0.176,0.085,0.354,0.168,0.529,0.256c0.385,0.19,0.765,0.393,1.146,0.593
			c0.32,0.17,0.643,0.335,0.959,0.514c0.162,0.094,0.322,0.194,0.482,0.292c0.187,0.115,0.376,0.227,0.56,0.348
			c0.201,0.131,0.394,0.274,0.589,0.414c0.143,0.102,0.29,0.198,0.43,0.305l0.156,0.11c0.016,0.02,0.034,0.039,0.053,0.058
			c0.077,0.078,0.174,0.154,0.283,0.228c0.096,0.068,0.192,0.136,0.271,0.208c0.424,0.349,0.887,0.729,1.295,1.153
			c0.02,0.021,0.039,0.042,0.059,0.063c0.094,0.101,0.182,0.205,0.269,0.311c0.064,0.08,0.126,0.162,0.185,0.245
			c0.047,0.066,0.093,0.133,0.136,0.201c0.063,0.101,0.12,0.205,0.173,0.31c0.037,0.073,0.072,0.146,0.103,0.222
			c0.037,0.088,0.065,0.178,0.094,0.269c0.033,0.112,0.063,0.226,0.082,0.344c0.009,0.053,0.013,0.106,0.019,0.16
			c0.015,0.16,0.02,0.323,0.003,0.493C297.867,95.6,297.863,95.625,297.86,95.651z"/>
		<g>
			<path fill="#0C4076" stroke="#FFFFFF" d="M283.849,147.182c-0.554-0.689-1.338-1.105-2.267-1.201
				c-3.373-0.347-6.159,1.271-6.391,3.573c-0.233,2.309,2.254,4.464,5.545,4.803c0.123,0.013,0.243,0.019,0.36,0.019c0,0,0,0,0,0
				c2.159,0,3.372-1.989,3.585-3.837C284.831,149.25,284.527,148.027,283.849,147.182z"/>
			<path fill="#C6363C" stroke="#FFFFFF" d="M255.603,144.03c-3.368-0.201-6.103,1.514-6.243,3.833
				c-0.14,2.316,2.433,4.367,5.734,4.571c0.182,0.011,0.362,0.017,0.541,0.017c0,0,0,0,0,0c3.118,0,5.57-1.654,5.702-3.849
				C261.477,146.286,258.905,144.235,255.603,144.03z"/>
			<path fill="#0C4076" stroke="#FFFFFF" d="M228.155,143.22c-3.308,0-5.999,1.888-5.999,4.209c0,2.322,2.691,4.21,5.999,4.21
				c3.309,0,6-1.889,6-4.21C234.155,145.108,231.464,143.22,228.155,143.22z"/>
			<path fill="#C6363C" stroke="#FFFFFF" d="M200.71,144.03c-3.302,0.205-5.874,2.256-5.733,4.573
				c0.133,2.194,2.584,3.849,5.703,3.849c0.178,0,0.358-0.005,0.54-0.017c3.302-0.205,5.874-2.255,5.734-4.571
				C206.814,145.545,204.082,143.824,200.71,144.03z"/>
			<path fill="#0C4076" stroke="#FFFFFF" d="M181.124,149.554c-0.232-2.302-3.025-3.915-6.392-3.573
				c-0.929,0.096-1.713,0.511-2.267,1.201c-0.679,0.845-0.982,2.068-0.833,3.356c0.212,1.849,1.425,3.838,3.585,3.838
				c0.118,0,0.238-0.006,0.36-0.019C178.868,154.018,181.355,151.863,181.124,149.554z"/>
		</g>
		<path fill="#C6363C" stroke="#FFFFFF" d="M138.104,160.473v145.816v0.002c0,26.095,10.114,49.785,26.427,66.953
			c16.313,17.168,38.829,27.812,63.626,27.812h0.003c24.8,0,47.313-10.644,63.626-27.811c16.314-17.167,26.428-40.859,26.428-66.953
			V160.481c-60.036-0.005-120.078,0.008-180.114-0.001L138.104,160.473z"/>
		<g>
			<path fill="#FFFFFF" stroke="#21231E" stroke-width="0.9939" d="M260.436,378.993c-2.635-3.878-4.76-8.47-6.694-13.764
				c0.641-0.279,1.804-0.417,2.388-1.365c0.793-1.283-0.446-5.715-2.112-7.746c-2.202-2.685-4.144-5.848-5.942-9.473
				c-0.025-0.092-0.05-0.185-0.075-0.276c0.503-0.219,1.202-0.438,1.583-1.243c0.607-1.285-0.342-5.717-1.619-7.748
				c-4.178-6.65-7.136-16.238-10.22-28.519c0.078-0.505,0.123-0.89,0.122-1.1l-0.418-0.086c-2.116-8.516-4.313-18.293-7.02-29.251
				c-0.076-0.421-0.153-0.844-0.231-1.269c0.319-1.37,0.643-2.752,0.973-4.158c-0.13-0.071-0.25-0.123-0.371-0.177
				c0.006-0.038,0.012-0.075,0.019-0.114c-0.133-0.057-0.255-0.095-0.379-0.136c0.003-0.042,0.006-0.082,0.009-0.125
				c-0.14-0.043-0.267-0.069-0.395-0.097c0-0.042-0.001-0.082-0.002-0.124c-0.143-0.028-0.271-0.041-0.401-0.055
				c-0.004-0.04-0.008-0.078-0.012-0.118c-0.145-0.014-0.275-0.013-0.406-0.013c-0.007-0.04-0.015-0.078-0.022-0.118
				c-0.146,0.002-0.276,0.016-0.407,0.029c-0.01-0.041-0.021-0.08-0.031-0.121c-0.226,0.026-0.426,0.069-0.614,0.119
				c-0.188-0.05-0.388-0.093-0.615-0.119c-0.01,0.041-0.021,0.08-0.031,0.121c-0.131-0.014-0.261-0.027-0.407-0.029
				c-0.008,0.04-0.015,0.078-0.022,0.118c-0.129,0.001-0.256,0-0.399,0.013c-0.004,0.04-0.008,0.078-0.012,0.118
				c-0.13,0.014-0.259,0.026-0.402,0.055c0,0.042-0.001,0.082-0.002,0.124c-0.128,0.027-0.255,0.054-0.395,0.097
				c0.003,0.042,0.006,0.081,0.009,0.123c-0.125,0.041-0.249,0.08-0.385,0.138c0.006,0.039,0.012,0.076,0.019,0.115
				c-0.121,0.053-0.241,0.104-0.37,0.176c0.331,1.406,0.654,2.788,0.973,4.158c-0.078,0.425-0.155,0.847-0.231,1.269
				c-2.708,10.966-4.907,20.748-7.024,29.269l-0.414,0.086c-0.001,0.208,0.043,0.59,0.12,1.088
				c-3.084,12.277-6.042,21.863-10.218,28.513c-1.276,2.031-2.226,6.463-1.619,7.748c0.38,0.806,1.08,1.024,1.583,1.243
				c-0.025,0.092-0.05,0.185-0.076,0.276c-1.798,3.625-3.74,6.788-5.942,9.473c-1.666,2.031-2.905,6.463-2.112,7.746
				c0.584,0.948,1.747,1.086,2.388,1.365c-1.934,5.294-4.059,9.886-6.694,13.764c-1.456,2.144-2.522,6.436-1.535,7.807
				c0.743,1.03,2.057,1.238,2.772,1.58l1.571,0.452h0l0,0.001c0.788,0.094,2.115,0.827,3.292,0.35
				c1.562-0.634,1.809-5.224,2.93-7.625c-0.587,1.875-2.171,6.813-0.651,8.535c0.84,0.952,2.169,1.028,2.916,1.296l1.607,0.296
				l0,0.001c0.792,0.015,2.062,0.417,3.185-0.175c0.726-0.382,1.084-1.598,1.337-3.042c-0.059,1.439,0.126,2.785,0.859,3.479
				c0.923,0.872,2.252,0.828,3.02,1.026l1.627,0.149l0-0.001v-0.001c0.791-0.057,2.091,0.228,3.156-0.463
				c0.809-0.524,1.193-2.156,1.397-3.956c-0.034,1.806,0.114,3.462,0.879,4.063c0.998,0.785,2.318,0.62,3.101,0.749h1.634
				c0.782-0.128,2.103,0.035,3.101-0.749c0.767-0.604,0.914-2.266,0.879-4.076c0.204,1.805,0.588,3.443,1.399,3.97
				c1.065,0.69,2.365,0.406,3.156,0.463l0,0.001v0.001l1.627-0.149c0.767-0.198,2.097-0.154,3.02-1.026
				c0.725-0.686,0.915-2.009,0.862-3.429c0.253,1.421,0.611,2.614,1.329,2.992c1.123,0.592,2.392,0.189,3.185,0.175v-0.001
				l1.607-0.296c0.747-0.268,2.074-0.344,2.915-1.296c1.52-1.723-0.063-6.66-0.651-8.535c1.122,2.401,1.368,6.991,2.93,7.625
				c1.176,0.478,2.503-0.256,3.292-0.35l0-0.001h-0.001l1.571-0.452c0.716-0.342,2.03-0.55,2.772-1.58
				C262.958,385.429,261.893,381.137,260.436,378.993z M247.252,369.91c-0.004-0.014-0.008-0.026-0.012-0.039
				C247.244,369.884,247.248,369.896,247.252,369.91z"/>
			<g>
				<g>
					<path fill="#EDB92E" stroke="#21231E" stroke-width="0.9939" d="M265.79,312.754c1.721,0.073,3.832,1.059,10,6.414
						c2.692,5.504,5.406,11.038,9.147,15.81c1.277,0.844,2.278,1.433,3.29,1.768c1.056,0.349,8.833,0.092,9.022-0.234
						c2.42-2.197,6.118-0.632,4.884,1.688c0.959,0.91-1.152,4.238-2.849,2.858c-1.558-1.269-6.979-0.072-8.786-0.728
						c0.683,1.629,5.582,2.689,9.005,2.938c3.128,0.134,2.921,3.26,1.631,5.656c-1.466,0.936-0.263-0.246-0.795,0.438
						c-1.4,2.079-4.397,1.809-4.497-0.224c-0.104-2.104-7.41-4.844-8.505-6.458c1.34,3.194,4.428,6.175,5.962,9.303
						c1.647,1.656,2.648,1.987,0.519,5.327c-2.363-0.27-2.502-0.898-3.957,0.479c-3.231-0.354-3.753-1.314-3.23-3.876
						c0.553-2.704-1.708-7.598-2.459-8.98c-0.694-1.275-0.863-2.6-1.539-3.398c-1.171-1.388-6.755-4.165-8.186-3.403
						c-2.632,1.404-4.641,0.555-4.973-1.998c0.848-0.656,0.212-4.282,2.033-4.436c1.489-0.126,2.372,0.334,3.739,1.453
						c2.155,1.762,3.262,2.7,3.971,2.504c1.681-0.463-3.044-2.783-7.341-8.429C265.923,319.404,265.514,315.431,265.79,312.754
						L265.79,312.754L265.79,312.754z"/>
					<g transform="matrix(-1,0,0,1,964.29686,0)">
						<path id="path1214_5_" fill="#EDB92E" stroke="#21231E" stroke-width="0.9939" d="M264.847,375.44
							c4.28,3.43,8.195-4.417,4.4-14.786c-2.808-7.673-16.534-4.695-8.889,5.627c0.363,0.488,0.874,0.262,0.801-0.297
							c-0.435-2.116,0.915-3.346,2.997-2.955c5.684,1.064,5.863,11.859-0.319,9.404C262.708,372.36,263.718,374.535,264.847,375.44
							L264.847,375.44L264.847,375.44z"/>
					</g>
					<path fill="#EDB92E" stroke="#21231E" stroke-width="0.9939" d="M301.771,339.636c2.155-1.264,3.395-1.214,4.231-0.272
						c0.46,0.517,1.047,0.248,0.704-0.563c-1.435-3.394-3.722-3.816-5.773-2.226c-0.575,0.532-1.036,0.989-1.498,1.446
						C299.78,338.531,301.493,339.245,301.771,339.636L301.771,339.636z"/>
					<path fill="#EDB92E" stroke="#21231E" stroke-width="0.9939" d="M270.89,336.6c-2.289-1.56-4.434-1.863-5.609-0.988
						c-0.646,0.48-1.285,0.136-0.716-0.664c2.374-3.343,5.156-3.513,7.255-1.628c0.57,0.618,1.023,1.145,1.475,1.671
						C272.578,335.778,270.99,336.666,270.89,336.6L270.89,336.6z"/>
					<path fill="#EDB92E" stroke="#21231E" stroke-width="0.9939" d="M288.921,355.764c-0.069-0.137,0.526-2.923,1.457-3.793
						c0.726,0.581,1.539,1.094,2.304,1.894c2.29,2.393,2.279,5.917-1.297,8.989c-0.883,0.76-1.286-0.041-0.929-0.913
						C291.066,360.449,290.324,358.545,288.921,355.764L288.921,355.764z"/>
					<path fill="#EDB92E" stroke="#21231E" stroke-width="0.9939" d="M297.854,348.444c2.126,0.883,2.859,2.003,2.782,3.474
						c-0.042,0.81,0.488,1.11,0.788,0.17c2.6-6.043-0.098-7.173-3.993-6.953C297.207,346.187,297.761,348.406,297.854,348.444
						L297.854,348.444L297.854,348.444z"/>
					<path id="path1214_4_" fill="#EDB92E" stroke="#21231E" stroke-width="0.9939" d="M278.893,375.44
						c-4.28,3.43-8.195-4.417-4.4-14.786c2.808-7.673,16.534-4.695,8.889,5.627c-0.363,0.488-0.873,0.262-0.8-0.297
						c0.434-2.116-0.916-3.346-2.998-2.955c-5.685,1.064-5.863,11.859,0.319,9.404C281.032,372.36,280.022,374.535,278.893,375.44
						L278.893,375.44L278.893,375.44z"/>
					<path fill="#EDB92E" stroke="#21231E" stroke-width="0.9939" d="M272.282,342.119l0.003,0.069
						c0.558,1.801,2.637,4.051,4.255,5.739c2.508,2.616,1.915,6.581,0.179,8.687c-1.894,2.299-2.739,4.887-3.119,6.897
						c-0.284,1.239-0.792,4.015-0.422,8.334c0.182,2.126,1.467,3.222,2.67,4.174c0.611,0.485-0.26,1.641-2.282,3.159
						c-0.221,0.166-0.829,0.583-1.12,1.636c-0.111,0.254-1.049,0.254-1.161,0c-0.291-1.053-0.898-1.47-1.121-1.636
						c-2.021-1.519-2.892-2.674-2.28-3.159c1.203-0.952,2.488-2.048,2.67-4.174c0.37-4.318-0.139-7.095-0.423-8.334
						c-0.38-2.011-1.225-4.599-3.118-6.897c-1.736-2.106-2.33-6.071,0.179-8.687c1.619-1.688,3.697-3.938,4.255-5.739l0.004-0.069
						c0.027-0.351,0.221-0.525,0.415-0.525C272.061,341.594,272.254,341.769,272.282,342.119L272.282,342.119z"/>
					<path fill="#EDB92E" d="M274.964,367.007h-6.186c-1.064,0-1.936,0.855-1.936,1.902l0,0c0,1.046,0.871,1.901,1.936,1.901h6.186
						c1.064,0,1.936-0.855,1.936-1.901l0,0C276.899,367.862,276.028,367.007,274.964,367.007z"/>
					<path fill="#21231E" d="M268.778,367.275h6.186v-0.535h-6.186V367.275z M266.575,368.91h0.534
						c-0.015-0.817,0.675-1.552,1.482-1.624c0.191,0.037,0.211-0.074,0.187-0.239c-0.028-0.111,0.082-0.363-0.113-0.303
						c-0.99,0.034-1.9,0.814-2.057,1.797C266.586,368.662,266.577,368.786,266.575,368.91z M267.109,368.91
						c-0.177-0.001-0.357-0.001-0.534,0H267.109z M268.778,371.079v-0.535c-0.826,0.018-1.602-0.661-1.662-1.491
						c0.051-0.201-0.149-0.133-0.282-0.143c-0.137,0-0.329-0.047-0.252,0.156c0.057,1.001,0.897,1.868,1.886,1.99
						C268.57,371.07,268.674,371.078,268.778,371.079L268.778,371.079z M274.963,370.544h-6.186v0.535h6.186V370.544z
						 M277.167,368.91h-0.535c0.015,0.816-0.675,1.552-1.482,1.624c-0.19-0.037-0.211,0.074-0.187,0.239
						c0.028,0.11-0.081,0.363,0.113,0.304c0.991-0.035,1.9-0.815,2.057-1.798C277.155,369.158,277.165,369.034,277.167,368.91
						L277.167,368.91z M276.632,368.91c0.177,0.001,0.357,0.001,0.535,0H276.632z M274.964,366.74v0.535
						c0.826-0.018,1.602,0.662,1.662,1.491c-0.051,0.202,0.15,0.134,0.282,0.144c0.137,0,0.329,0.047,0.253-0.157
						c-0.058-1.008-0.911-1.881-1.909-1.992C275.156,366.748,275.06,366.742,274.964,366.74L274.964,366.74z"/>
				</g>
				<g>
					<path fill="#EDB92E" stroke="#21231E" stroke-width="0.9939" d="M190.53,312.754c-1.721,0.073-3.832,1.059-10,6.414
						c-2.692,5.504-5.406,11.038-9.146,15.81c-1.277,0.844-2.278,1.433-3.291,1.768c-1.056,0.349-8.833,0.092-9.022-0.234
						c-2.42-2.197-6.118-0.632-4.883,1.688c-0.959,0.91,1.152,4.238,2.849,2.858c1.558-1.269,6.979-0.072,8.785-0.728
						c-0.683,1.629-5.581,2.689-9.005,2.938c-3.129,0.134-2.921,3.26-1.631,5.656c1.466,0.936,0.262-0.246,0.794,0.438
						c1.4,2.079,4.397,1.809,4.498-0.224c0.104-2.104,7.41-4.844,8.505-6.458c-1.34,3.194-4.428,6.175-5.962,9.303
						c-1.647,1.656-2.648,1.987-0.519,5.327c2.364-0.27,2.502-0.898,3.957,0.479c3.231-0.354,3.753-1.314,3.23-3.876
						c-0.554-2.704,1.707-7.598,2.459-8.98c0.694-1.275,0.863-2.6,1.538-3.398c1.171-1.388,6.756-4.165,8.186-3.403
						c2.631,1.404,4.641,0.555,4.972-1.998c-0.848-0.656-0.212-4.282-2.033-4.436c-1.488-0.126-2.371,0.334-3.739,1.453
						c-2.156,1.762-3.262,2.7-3.972,2.504c-1.681-0.463,3.044-2.783,7.341-8.429C190.397,319.404,190.806,315.431,190.53,312.754
						L190.53,312.754L190.53,312.754z"/>
					<g transform="matrix(-1,0,0,1,801.63351,0)">
						<path id="path1214_7_" fill="#EDB92E" stroke="#21231E" stroke-width="0.9939" d="M191.472,375.44
							c-4.279,3.43-8.195-4.417-4.4-14.786c2.808-7.673,16.534-4.695,8.889,5.627c-0.362,0.488-0.873,0.262-0.801-0.297
							c0.435-2.116-0.915-3.346-2.997-2.955c-5.685,1.064-5.864,11.859,0.318,9.404C193.611,372.36,192.601,374.535,191.472,375.44
							L191.472,375.44L191.472,375.44z"/>
					</g>
					<path fill="#EDB92E" stroke="#21231E" stroke-width="0.9939" d="M154.548,339.636c-2.156-1.264-3.395-1.214-4.231-0.272
						c-0.46,0.517-1.047,0.248-0.704-0.563c1.435-3.394,3.721-3.816,5.773-2.226c0.575,0.532,1.036,0.989,1.498,1.446
						C156.54,338.531,154.827,339.245,154.548,339.636L154.548,339.636z"/>
					<path fill="#EDB92E" stroke="#21231E" stroke-width="0.9939" d="M185.429,336.6c2.289-1.56,4.434-1.863,5.609-0.988
						c0.646,0.48,1.285,0.136,0.716-0.664c-2.374-3.343-5.156-3.513-7.255-1.628c-0.57,0.618-1.023,1.145-1.475,1.671
						C183.742,335.778,185.33,336.666,185.429,336.6L185.429,336.6z"/>
					<path fill="#EDB92E" stroke="#21231E" stroke-width="0.9939" d="M167.398,355.764c0.069-0.137-0.525-2.923-1.458-3.793
						c-0.725,0.581-1.538,1.094-2.303,1.894c-2.29,2.393-2.279,5.917,1.297,8.989c0.883,0.76,1.286-0.041,0.929-0.913
						C165.253,360.449,165.995,358.545,167.398,355.764L167.398,355.764z"/>
					<path fill="#EDB92E" stroke="#21231E" stroke-width="0.9939" d="M158.466,348.444c-2.126,0.883-2.86,2.003-2.782,3.474
						c0.042,0.81-0.488,1.11-0.788,0.17c-2.6-6.043,0.097-7.173,3.993-6.953C159.112,346.187,158.559,348.406,158.466,348.444
						L158.466,348.444L158.466,348.444z"/>
					<path id="path1214_6_" fill="#EDB92E" stroke="#21231E" stroke-width="0.9939" d="M177.427,375.44
						c4.279,3.43,8.195-4.417,4.399-14.786c-2.808-7.673-16.534-4.695-8.889,5.627c0.363,0.488,0.873,0.262,0.8-0.297
						c-0.434-2.116,0.916-3.346,2.998-2.955c5.685,1.064,5.863,11.859-0.319,9.404c-1.128-0.073-0.118,2.102,1.01,3.007H177.427
						L177.427,375.44z"/>
					<path fill="#EDB92E" stroke="#21231E" stroke-width="0.9939" d="M184.038,342.119l-0.003,0.069
						c-0.558,1.801-2.637,4.051-4.255,5.739c-2.508,2.616-1.915,6.581-0.179,8.687c1.894,2.299,2.738,4.887,3.118,6.897
						c0.284,1.239,0.792,4.015,0.422,8.334c-0.182,2.126-1.467,3.222-2.67,4.174c-0.611,0.485,0.259,1.641,2.281,3.159
						c0.221,0.166,0.829,0.583,1.12,1.636c0.111,0.254,1.05,0.254,1.161,0c0.291-1.053,0.899-1.47,1.121-1.636
						c2.021-1.519,2.892-2.674,2.281-3.159c-1.204-0.952-2.488-2.048-2.67-4.174c-0.37-4.318,0.139-7.095,0.422-8.334
						c0.38-2.011,1.226-4.599,3.119-6.897c1.735-2.106,2.329-6.071-0.18-8.687c-1.619-1.688-3.697-3.938-4.255-5.739l-0.003-0.069
						c-0.028-0.351-0.221-0.525-0.415-0.525C184.258,341.594,184.065,341.769,184.038,342.119L184.038,342.119z"/>
					<path fill="#EDB92E" d="M181.355,367.007h6.186c1.064,0,1.936,0.855,1.936,1.902l0,0c0,1.046-0.872,1.901-1.936,1.901h-6.186
						c-1.064,0-1.936-0.855-1.936-1.901l0,0C179.42,367.862,180.291,367.007,181.355,367.007z"/>
					<path fill="#21231E" d="M187.542,367.275h-6.186v-0.535h6.186V367.275z M189.745,368.91h-0.535
						c0.015-0.817-0.675-1.552-1.482-1.624c-0.19,0.037-0.211-0.074-0.187-0.239c0.028-0.111-0.081-0.363,0.113-0.303
						c0.991,0.034,1.9,0.814,2.057,1.797C189.733,368.662,189.743,368.786,189.745,368.91L189.745,368.91z M189.21,368.91
						c0.177-0.001,0.357-0.001,0.535,0H189.21z M187.542,371.079v-0.535c0.826,0.018,1.602-0.661,1.662-1.491
						c-0.051-0.201,0.15-0.133,0.282-0.143c0.137,0,0.329-0.047,0.252,0.156c-0.057,1.001-0.897,1.868-1.886,1.99
						C187.749,371.07,187.645,371.078,187.542,371.079L187.542,371.079z M181.355,370.544h6.186v0.535h-6.186V370.544z
						 M179.153,368.91h0.534c-0.015,0.816,0.675,1.552,1.482,1.624c0.191-0.037,0.211,0.074,0.187,0.239
						c-0.028,0.11,0.082,0.363-0.113,0.304c-0.99-0.035-1.9-0.815-2.057-1.798C179.164,369.158,179.154,369.034,179.153,368.91
						L179.153,368.91z M179.687,368.91c-0.177,0.001-0.357,0.001-0.534,0H179.687z M181.355,366.74v0.535
						c-0.825-0.018-1.602,0.662-1.662,1.491c0.051,0.202-0.149,0.134-0.281,0.144c-0.138,0-0.33,0.047-0.253-0.157
						c0.057-1.008,0.911-1.881,1.909-1.992C181.164,366.748,181.259,366.742,181.355,366.74L181.355,366.74z"/>
				</g>
				<path fill="#FFFFFF" stroke="#21231E" stroke-width="0.9939" d="M312.069,206.295l-0.352-1.622
					c-0.762-2.846-2.54-5.343-4.798-7.204l-45.59,29.166l1.209,57.751c0.213,1.209,0.6,2.394,1.134,3.504
					c-0.71-0.91-1.435-1.806-2.345-2.523c-0.405-0.291-0.918-0.517-1.424-0.384c0,0.012,0.004,0.017,0.005,0.028l-25.42,21.557
					l-5.001,10.702c-2.112,4.372-0.697,8.856,2.63,13.117c0.2-0.847,0.521-1.683,0.933-2.519c0.426,2.228,1.548,4.44,3.232,6.598
					c0.828-3.499,2.063-6.729,4.509-10.54c0.584,1.48,1.453,2.949,2.579,4.392c1.063-4.49,2.797-8.539,6.905-13.946
					c2.128,4.011,3.801,8.322,4.292,12.861c0.068,0.574,0.121,1.15,0.163,1.727c0.149,0.059,0.298,0.118,0.447,0.177
					c-0.059-0.058-0.103-0.101-0.141-0.139c0.179,0.114,0.365,0.017,0.555-0.254c1.243-1.197,2.362-2.591,3.184-4.126
					c0.889,3.084,2.889,5.907,5.746,7.444c0.024-0.036,0.043-0.07,0.065-0.105c-0.006,0.032-0.002,0.057,0.015,0.068
					c-0.016,0.01-0.027,0.013-0.046,0.025l-0.034,0.012c0.227,0.222,0.371-0.016,0.292-0.082c0.025-0.012,0.045-0.019,0.075-0.034
					c0.797-1.627,1.261-3.375,1.477-5.161c1.405,1.311,3.091,2.309,4.967,2.781c0.015-0.039,0.024-0.074,0.036-0.112
					c0.001,0.03,0.009,0.051,0.026,0.06c-0.015,0.016-0.026,0.021-0.042,0.04l-0.02,0.013c0.278,0.156,0.355-0.104,0.262-0.15
					c0.021-0.018,0.04-0.03,0.065-0.053c0.655-3.078,0.244-6.269-0.699-9.25c1.739,1.904,4.193,3.097,6.752,3.378
					c1.813,0.228,3.653,0.089,5.444-0.243l0.125-0.465c-3.038-2.573-5.538-5.744-7.445-9.233c-0.433-0.776-0.838-1.569-1.23-2.368
					c0.289,0.018,0.578,0.036,0.867,0.043c0.015-0.051,0.007-0.08,0.014-0.123c0.015,0.011,0.032,0.009,0.05-0.002
					c-0.021,0.042-0.042,0.083-0.063,0.125c0.616,0.191,0.543-0.243,0.189-0.374c-0.016,0.03-0.031,0.062-0.046,0.092
					c0.014-0.068,0.018-0.151-0.002-0.25c-2.278-2.922-4.197-6.151-5.393-9.67c-0.572-1.624-1.023-3.287-1.401-4.966l-0.128-0.523
					c-0.33-1.233-0.853-2.411-1.531-3.491l0.974-1.291c0.835-1.55,1.393-3.223,1.751-4.941c0.057,1.68,0.111,3.36,0.198,5.039
					l0.152,1.438c0.433,2.987,1.864,5.883,4.211,7.822l1.188-1.282c0.229-0.396,0.437-0.804,0.631-1.217
					c0.197,3.824,0.699,7.623,1.723,11.326c0.959,3.111,2.443,6.528,5.583,7.964l4.038,6.535l1.188-1.512
					c0.212-0.479,0.408-0.964,0.609-1.447c0.885,4.729,2.408,9.725,6.274,12.858c0.451,0.195,0.857,0.885,1.377,0.565
					c-0.044-0.038-0.086-0.079-0.126-0.122c0.558-0.064,0.634-1.455,1.005-1.925c0.678-1.66,1.194-3.358,1.596-5.079
					c1.415,2.825,3.469,5.28,6.384,6.678c1.247,0.605,2.595,0.979,3.963,1.181l-0.122-2.16c-2.31-11.04-2.091-22.496-0.308-33.597
					l0.374-2.312c1.767-11.419,3.866-22.884,3.712-34.482c-0.034-1.556-0.144-3.109-0.303-4.659
					c1.042-3.906,1.254-8.004,1.362-12.029l0.036-2.031C314.88,230.967,314.354,218.483,312.069,206.295z M264.694,331.727
					c0.003-0.01,0.008-0.021,0.01-0.029c0.015-0.031,0.028-0.065,0.043-0.098c0.009-0.003,0.019-0.006,0.029-0.009
					C264.747,331.637,264.72,331.683,264.694,331.727z M271.42,329.16c0.006-0.031,0.01-0.064,0.017-0.096
					c0.008-0.006,0.017-0.012,0.026-0.017c-0.016,0.05-0.031,0.099-0.045,0.146C271.418,329.184,271.421,329.171,271.42,329.16z
					 M275.484,310.689c-0.013,0.055-0.018,0.095-0.024,0.138c-0.008-0.015-0.015-0.029-0.025-0.041
					C275.452,310.754,275.468,310.722,275.484,310.689z"/>
				<path fill="#FFFFFF" stroke="#21231E" stroke-width="0.9939" d="M226.831,317.271l-5.001-10.702l-29.185-18.678l2.811-60.898
					L158.167,198.4c-11.026,0.931-12.804,3.428-13.566,6.273c-0.016,0.487-0.571,1.412-0.151,1.647
					c-0.061-0.012-0.115-0.03-0.201-0.025c-2.285,12.188-2.811,24.671-2.561,37.067l0.036,2.031
					c0.109,4.025,0.32,8.123,1.363,12.029c-0.159,1.55-0.27,3.104-0.303,4.659c-0.154,11.599,1.945,23.063,3.712,34.482l0.375,2.312
					c1.783,11.101,2.002,22.557-0.308,33.597c-0.335,0.497-0.338,2.906-0.194,1.631c0.024,0.027,0.049,0.055,0.074,0.082
					c-0.015,0.06-0.028,0.125-0.042,0.184c0.008-0.001,0.017-0.003,0.025-0.004c-0.011,0.077-0.016,0.159,0.015,0.268
					c1.369-0.201,2.716-0.575,3.963-1.181c2.915-1.397,4.969-3.852,6.384-6.677c0.402,1.721,0.917,3.418,1.595,5.078
					c0.372,0.47,0.448,1.86,1.006,1.925c-0.041,0.043-0.083,0.084-0.126,0.122c0.52,0.319,0.924-0.37,1.376-0.565
					c3.866-3.134,5.39-8.128,6.274-12.858c0.201,0.483,0.397,0.969,0.609,1.447c0.049,0.569,1.483,2.206,0.861,1.089
					c0.013,0.002,0.025,0.004,0.038,0.006c0.042,0.066,0.085,0.142,0.125,0.201c0.002-0.002,0.004-0.004,0.006-0.005
					c0.031,0.071,0.074,0.145,0.157,0.221c2.036-1.686,3.077-4.166,3.776-6.676c0.119,0.118,0.172,0.076,0.078-0.258
					c0.027,0.049,0.056,0.105,0.083,0.15c0,0,0,0,0.001,0c0.013,0.075,0.038,0.155,0.099,0.248c3.14-1.436,4.624-4.853,5.583-7.964
					c1.024-3.703,1.525-7.501,1.723-11.326c0.194,0.413,0.401,0.82,0.631,1.217c0.299,0.329,0.542,1.237,0.956,1.121l0.232,0.161
					c2.347-1.939,3.778-4.835,4.21-7.822l0.152-1.438c0.088-1.679,0.142-3.357,0.199-5.037c0.359,1.718,0.916,3.391,1.751,4.939
					l0.765,1.258c0.069,0.011,0.14,0.022,0.209,0.033c-0.679,1.08-1.201,2.258-1.531,3.491l-0.129,0.523
					c-0.377,1.679-0.829,3.342-1.4,4.966c-1.196,3.519-3.115,6.748-5.393,9.67c-0.02,0.099-0.016,0.181-0.002,0.249
					c-0.016-0.03-0.031-0.061-0.046-0.091c-0.354,0.131-0.427,0.565,0.188,0.374c-0.021-0.042-0.042-0.083-0.063-0.125
					c0.018,0.011,0.034,0.013,0.049,0.002c0.007,0.043-0.001,0.072,0.014,0.123c0.289-0.007,0.578-0.025,0.867-0.043
					c-0.392,0.799-0.797,1.592-1.23,2.368c-1.907,3.489-4.407,6.66-7.445,9.233c0.005,0.029,0.01,0.049,0.015,0.075
					c-0.011-0.024-0.022-0.048-0.037-0.056c-0.473,0.29-0.373,0.425,0.148,0.445c-0.014-0.033-0.026-0.079-0.037-0.128
					c0.017,0.029,0.033,0.033,0.048,0.013c-0.003,0.04-0.012,0.07-0.011,0.115c1.791,0.332,3.632,0.471,5.444,0.243
					c2.558-0.281,5.013-1.474,6.752-3.378c-0.943,2.981-1.354,6.172-0.699,9.25c0.025,0.022,0.043,0.035,0.065,0.053
					c-0.094,0.047-0.017,0.307,0.261,0.15l-0.02-0.013c-0.016-0.019-0.027-0.024-0.042-0.04c0.017-0.008,0.024-0.028,0.026-0.058
					c0.012,0.037,0.021,0.072,0.036,0.11c1.875-0.473,3.562-1.471,4.967-2.781c0.215,1.786,0.679,3.535,1.477,5.161
					c0.03,0.016,0.05,0.022,0.075,0.034c-0.08,0.067,0.065,0.304,0.291,0.082l-0.034-0.012c-0.019-0.013-0.03-0.016-0.046-0.025
					c0.018-0.012,0.021-0.036,0.015-0.068c0.022,0.035,0.041,0.069,0.065,0.105c2.856-1.537,4.857-4.359,5.746-7.444
					c0.822,1.536,1.94,2.929,3.183,4.126c0.19,0.271,0.376,0.367,0.555,0.254c-0.038,0.038-0.081,0.081-0.141,0.139
					c0.148-0.059,0.298-0.118,0.447-0.177c0.042-0.576,0.094-1.152,0.163-1.727c0.491-4.539,2.164-8.851,4.292-12.86
					c4.107,5.406,5.841,9.455,6.904,13.945c1.126-1.442,1.995-2.911,2.579-4.392c2.446,3.812,3.681,7.041,4.509,10.54
					c1.684-2.157,2.806-4.371,3.232-6.598c0.412,0.836,0.733,1.672,0.934,2.519C227.528,326.127,228.943,321.643,226.831,317.271z
					 M180.859,310.827c-0.006-0.043-0.011-0.083-0.024-0.138c0.016,0.032,0.033,0.064,0.049,0.097
					C180.874,310.798,180.867,310.813,180.859,310.827z M173.242,322.879c0.007-0.047,0.014-0.099,0.021-0.155
					c0.007,0.027,0.015,0.055,0.022,0.081C173.266,322.823,173.256,322.854,173.242,322.879z M184.856,329.048
					c0.009,0.005,0.018,0.011,0.026,0.017c0.006,0.031,0.01,0.064,0.016,0.096c-0.001,0.01,0.002,0.022,0.002,0.033
					C184.887,329.146,184.872,329.098,184.856,329.048z M191.544,331.591c0.01,0.003,0.02,0.006,0.029,0.01
					c0.015,0.03,0.027,0.063,0.042,0.094c0.002,0.011,0.008,0.022,0.011,0.032C191.6,331.683,191.572,331.638,191.544,331.591z"/>
				<g>
					<path fill="#FFFFFF" stroke="#21231E" d="M257.306,221.583c0.853-0.176,1.725-0.423,2.61-0.734
						c-4.101-2.573-7.502-5.683-11.546-11.889c-4.142-6.357,1.816-17.709,4.258-23.731c5.104-3.784,9.916-9.34,11.442-16.668
						c0.605-3.941-10.259-2.516-17.733,1.014c-9.134,4.315-10.378,3.12-13.634,3.85c-1.158,5.6,1.267,6.075,3.597,5.798
						c-5.033,8.076-7.133,16.116-8.137,27.677c-1.005-11.561-3.106-19.601-8.139-27.677c2.332,0.275,4.756-0.198,3.597-5.798
						c-3.256-0.73-4.499,0.466-13.634-3.85c-7.473-3.53-18.339-4.956-17.734-1.014c1.527,7.327,6.338,12.883,11.442,16.668
						c2.443,6.022,8.401,17.374,4.259,23.731c-4.043,6.206-7.445,9.316-11.546,11.889c0.886,0.312,1.757,0.558,2.61,0.734
						c-0.62,0.847-5.938,2.507-6.562,2.065c-4.07-2.881-8.038-9.649-11.499-13.578c-9.805-11.132-14.697-19.725-12.968-26.655
						c2.464-7.463,11.249-15.84-0.389-14.394c-11.637,1.447-21.283,17.427-24.381,36.651c-1.149,7.133-1.815,13.105-2.593,17.992
						c6.352-2.268,9.166-4.532,10.856-7.321c-0.759,2.652-1.33,5.169-1.711,7.571c5.196-0.92,8.966-3.474,10.316-8.135
						c0.546-1.888,1.219-3.457,1.917-4.759c1.596,0.569,3.667,0.535,6.185-0.083c0.956,2.284,8.114,10.266,11.961,16.13
						c4.343,6.622,10.872,11.685,13.022,11.961c1.077,0.137,1.408-2.254,1.168-5.549c11.353,0.081,22.699,0.148,33.824-0.231
						c11.125,0.379,22.47,0.312,33.823,0.231c-0.24,3.295,0.09,5.686,1.167,5.549c2.15-0.276,8.679-5.339,13.022-11.961
						c3.847-5.866,11.005-13.846,11.961-16.13c2.518,0.618,4.589,0.652,6.185,0.083c0.698,1.302,1.37,2.872,1.917,4.759
						c1.35,4.661,5.12,7.214,10.315,8.135c-0.382-2.403-0.951-4.92-1.71-7.571c1.688,2.789,4.503,5.053,10.854,7.321
						c-0.778-4.887-1.444-10.859-2.593-17.992c-3.098-19.225-12.745-35.204-24.381-36.651c-11.637-1.446-2.853,6.931-0.389,14.394
						c1.729,6.931-3.163,15.523-12.968,26.655c-3.461,3.928-7.428,10.696-11.499,13.578c-0.624,0.442-5.942-1.218-6.562-2.065
						H257.306z"/>
					<g id="g3535_3_">
						<path fill="#EDB92E" d="M205.82,190.354c-1.094,0.957-4.707,0.971-9.65,1.288c-7.964,0.28-12.575-2.125-13.597-7.226
							c2.988,3.563,6.551,5.325,10.601,4.321c5.462-1.353,8.587-2.325,9.833-2.083C203.845,186.952,205.071,188.471,205.82,190.354
							L205.82,190.354z"/>
						<path fill="#21231E" d="M196.178,191.913c-0.015-0.312-0.124-0.671,0.323-0.556c2.515-0.183,5.049-0.19,7.541-0.603
							c0.556-0.119,1.146-0.236,1.601-0.599c0.203,0.215,0.507,0.461,0.08,0.6c-1.172,0.617-2.536,0.665-3.827,0.803
							C199.992,191.712,198.083,191.787,196.178,191.913L196.178,191.913z M182.776,184.247c-0.302,0.242-0.544,0.446-0.048,0.171
							c0.243-0.079,0.157,0.509,0.29,0.695c0.539,2.01,1.977,3.72,3.819,4.67c2.629,1.377,5.671,1.636,8.591,1.614
							c0.238,0.069,0.798-0.203,0.738,0.183c0.162,0.453-0.292,0.327-0.589,0.349c-3.052,0.039-6.229-0.231-8.979-1.666
							c-1.899-0.981-3.405-2.711-4.024-4.766c-0.108-0.337-0.191-0.68-0.265-1.025C182.465,184.397,182.62,184.321,182.776,184.247
							L182.776,184.247z M193.107,188.481c0.12,0.33,0.202,0.636-0.259,0.607c-2.357,0.52-4.878,0-6.9-1.297
							c-1.367-0.85-2.547-1.971-3.581-3.199c0.243-0.255,0.481-0.46,0.669-0.041c1.766,2.031,4.091,3.777,6.826,4.129
							C190.945,188.825,192.049,188.743,193.107,188.481L193.107,188.481z M203.094,186.406c-0.149,0.263-0.052,0.636-0.412,0.486
							c-1.453,0.023-2.856,0.468-4.262,0.792c-1.729,0.436-3.453,0.89-5.184,1.317c-0.122-0.331-0.2-0.635,0.26-0.616
							c2.61-0.628,5.189-1.399,7.828-1.903C201.906,186.393,202.509,186.289,203.094,186.406L203.094,186.406z M205.994,190.559
							c-0.209-0.329-0.411-0.433-0.443-0.148c-0.53-1.248-1.221-2.505-2.322-3.336c-0.39-0.093-0.281-0.344-0.146-0.637
							c0.231-0.004,0.517,0.248,0.727,0.407c1.034,0.916,1.737,2.149,2.257,3.414C206.042,190.358,206.019,190.459,205.994,190.559
							L205.994,190.559z"/>
						<path fill="#21231E" d="M194.507,171.21c0.015,0.283,0.03,0.566,0.045,0.848c-0.361,0.037-0.595-0.449-0.338-0.708
							C194.288,171.268,194.397,171.215,194.507,171.21z M202.714,173.313c-0.096,0.266-0.192,0.532-0.289,0.798
							c-1.908-0.678-3.787-1.481-5.78-1.886c-0.688-0.134-1.392-0.204-2.093-0.166c-0.015-0.282-0.031-0.566-0.046-0.848
							c2.048-0.104,4.021,0.586,5.922,1.264C201.191,172.752,201.957,173.04,202.714,173.313L202.714,173.313z M207.477,174.707
							c0.042,0.279,0.085,0.56,0.127,0.838c-0.754,0.065-1.489-0.191-2.207-0.39c-1.005-0.306-1.987-0.678-2.972-1.042
							c0.097-0.267,0.193-0.532,0.289-0.799c1.389,0.506,2.77,1.069,4.224,1.356C207.115,174.697,207.301,174.728,207.477,174.707
							L207.477,174.707z M207.604,175.545c-0.042-0.28-0.085-0.559-0.127-0.838c0.356-0.075,0.636,0.39,0.405,0.67
							C207.817,175.467,207.712,175.529,207.604,175.545z"/>
						<path fill="#21231E" d="M220.11,179.573c0.035-0.209,0.069-0.418,0.104-0.628c0.212,0.025,0.335,0.29,0.225,0.47
							C220.376,179.532,220.237,179.594,220.11,179.573z M214.81,178.459c0.057-0.205,0.114-0.409,0.171-0.614
							c1.717,0.484,3.473,0.81,5.232,1.099c-0.035,0.209-0.069,0.419-0.104,0.628C218.329,179.278,216.547,178.947,214.81,178.459z
							 M214.981,177.845c-0.057,0.205-0.114,0.41-0.171,0.614c-0.212-0.05-0.307-0.339-0.164-0.504
							C214.723,177.854,214.86,177.812,214.981,177.845z"/>
						<path fill="#21231E" d="M200.961,176.982c-0.138,0.248-0.276,0.495-0.414,0.741c-1.446-0.815-2.475-2.178-3.311-3.581
							c-0.416-0.696-0.791-1.416-1.178-2.128c0.248-0.135,0.495-0.272,0.743-0.407c0.866,1.589,1.685,3.257,3.012,4.522
							C200.162,176.456,200.545,176.75,200.961,176.982L200.961,176.982z M205.05,174.208c0.249,0.133,0.498,0.267,0.747,0.4
							c-0.625,1.146-1.404,2.271-2.526,2.978c-0.699,0.442-1.603,0.616-2.385,0.296c-0.091-0.062-0.335-0.091-0.314-0.2
							c0.13-0.234,0.261-0.467,0.391-0.7c0.514,0.31,1.174,0.265,1.687-0.021c0.902-0.487,1.542-1.331,2.075-2.183
							C204.838,174.592,204.947,174.397,205.05,174.208L205.05,174.208z"/>
						<path fill="#21231E" d="M199.913,176.456l-1.177-1.18c-0.574-0.725-0.242-1.693,0.996-2.902
							c0.905,0.393,1.63,0.695,2.354,0.998C201.604,175.004,200.879,176.032,199.913,176.456L199.913,176.456z"/>
						<path fill="#21231E" d="M196.511,220.547c-0.079,0.191-0.13,0.439-0.225,0.595c-0.308-0.105-0.227-0.61,0.099-0.612
							C196.428,220.527,196.471,220.535,196.511,220.547z M209.341,218.651c0.148,0.151,0.297,0.302,0.445,0.454
							c-1.535,1.531-3.537,2.595-5.68,2.951c-2.624,0.451-5.318-0.036-7.805-0.906c0.07-0.2,0.14-0.401,0.21-0.601
							c2.517,0.88,5.266,1.367,7.909,0.797C206.282,220.955,207.996,219.988,209.341,218.651L209.341,218.651z M210.894,217.11
							c0.15,0.15,0.299,0.3,0.449,0.451c-0.517,0.516-1.035,1.032-1.556,1.545c-0.148-0.152-0.297-0.303-0.445-0.455
							C209.861,218.14,210.378,217.625,210.894,217.11z M211.342,217.561c-0.137-0.153-0.339-0.309-0.437-0.462
							c0.218-0.221,0.622,0.038,0.516,0.328C211.409,217.478,211.375,217.527,211.342,217.561L211.342,217.561z"/>
						<path fill="#21231E" d="M212.048,214.275c-0.21-0.029-0.42-0.058-0.63-0.087c0.024-0.286,0.448-0.375,0.585-0.123
							C212.042,214.127,212.057,214.204,212.048,214.275z M209.088,222.835c0.053,0.205,0.107,0.41,0.16,0.616
							c-0.124-0.146-0.247-0.292-0.37-0.438c1.167-2.59,2.008-5.331,2.439-8.141c0.037-0.228,0.07-0.457,0.101-0.685
							c0.21,0.028,0.42,0.057,0.63,0.086c-0.388,2.904-1.183,5.751-2.346,8.44c-0.08,0.187-0.162,0.373-0.244,0.558
							C209.335,223.127,209.211,222.981,209.088,222.835L209.088,222.835z M208.878,223.013c0.194,0.086,0.387,0.172,0.581,0.259
							c-0.103,0.277-0.553,0.232-0.6-0.06C208.843,223.146,208.853,223.074,208.878,223.013z M217.074,217.889
							c0.174,0.122,0.347,0.244,0.521,0.365c-1.368,1.965-3.41,3.372-5.602,4.28c-0.891,0.374-1.811,0.674-2.745,0.917
							c-0.054-0.205-0.107-0.411-0.16-0.615c2.427-0.636,4.818-1.672,6.661-3.414C216.24,218.958,216.687,218.443,217.074,217.889
							L217.074,217.889z M217.595,218.254c-0.174-0.122-0.347-0.243-0.521-0.365c0.152-0.243,0.571-0.13,0.576,0.158
							C217.658,218.119,217.633,218.196,217.595,218.254z"/>
						<path fill="#21231E" d="M216.95,213.694c-0.211,0.02-0.422,0.039-0.633,0.059c-0.041-0.277,0.334-0.464,0.53-0.263
							C216.906,213.542,216.94,213.62,216.95,213.694z M219.333,222.141c0.127,0.17,0.256,0.339,0.383,0.509
							c-0.152-0.036-0.331-0.03-0.466-0.092c-1.7-2.449-2.561-5.388-2.884-8.327c-0.019-0.16-0.033-0.32-0.048-0.48
							c0.21-0.019,0.421-0.039,0.632-0.058c0.263,2.856,1.018,5.726,2.591,8.153c0.079,0.123,0.162,0.244,0.245,0.364
							C219.635,222.188,219.482,222.162,219.333,222.141L219.333,222.141z M219.264,222.579c0.174-0.122,0.348-0.243,0.521-0.365
							c0.176,0.226-0.073,0.582-0.346,0.488C219.368,222.684,219.307,222.637,219.264,222.579z M223.387,215.803
							c0.206,0.051,0.411,0.103,0.616,0.155c-0.639,2.595-2.098,5.02-4.234,6.651c-0.117,0.08-0.188-0.196-0.285-0.268
							c-0.118-0.122-0.2-0.238,0.003-0.317C221.454,220.478,222.794,218.218,223.387,215.803L223.387,215.803z M224.003,215.958
							c-0.205-0.052-0.411-0.104-0.616-0.155c0.052-0.276,0.469-0.328,0.588-0.075C224.013,215.798,224.022,215.883,224.003,215.958
							z"/>
						<path fill="#EDB92E" d="M187.187,169.394c-8.932,0.966-8.505,6.808-0.156,15.071c1.598,1.581,2.146,1.529,2.487-0.113
							c0.596-2.872,3.772-4.569,5.44-2.381c1.135,1.49,0.881,2.343,4.664,1.814c4.777,4.009,8.667,6.828,2.416,6.593
							c-2.75-0.104-4.869,1.5-8.453,1.36c1.061,2.058,1.25,2.296,1.822,2.47c3.474,0.688,7.134-1.484,10.638-0.838
							c7.677,1.417-12.3-20.762-12.053-21.639C194.623,169.5,189.189,165.499,187.187,169.394L187.187,169.394z"/>
						<path fill="#21231E" d="M187.219,184.275c-0.343,0.666-0.687,0.048-1.03-0.281c-2.185-2.3-4.372-4.771-5.455-7.805
							c-0.603-1.626-0.537-3.674,0.79-4.933c1.489-1.455,3.64-1.882,5.636-2.128c0.287,0.659-0.351,0.581-0.818,0.649
							c-1.831,0.312-3.906,0.855-4.96,2.524c-0.979,1.669-0.292,3.706,0.536,5.287C183.262,180.113,185.214,182.26,187.219,184.275
							L187.219,184.275z M189.257,184.297c0.665-0.066,0.499,0.443,0.305,0.873c-0.156,0.631-0.916,0.927-1.443,0.535
							c-0.48-0.277-0.88-0.667-1.275-1.05c0.298-0.563,0.594-0.204,0.915,0.124c0.314,0.216,0.706,0.707,1.119,0.506
							C189.114,185.015,189.174,184.634,189.257,184.297L189.257,184.297z M195.171,181.81c-0.406,0.578-0.647,0-1.044-0.256
							c-1.934-1.069-4.035,0.979-4.347,2.853c-0.705,0.069-0.459-0.492-0.278-0.928c0.629-1.632,2.35-3.114,4.188-2.688
							C194.288,180.936,194.801,181.326,195.171,181.81L195.171,181.81z M199.793,183.581c-0.442,0.48-0.014,0.521-0.789,0.552
							c-1.189,0.123-2.711,0.266-3.479-0.87c-0.271-0.367-0.498-0.766-0.778-1.128c0.373-0.52,0.625-0.121,0.849,0.281
							c0.352,0.674,0.961,1.275,1.775,1.245c0.79,0.096,1.59-0.139,2.364-0.097L199.793,183.581L199.793,183.581L199.793,183.581z
							 M202.027,190.646c-0.188-0.685,0.413-0.519,0.879-0.523c0.692-0.053,1.539,0.032,2.069-0.49
							c0.109-0.676-0.56-1.185-0.948-1.662c-1.428-1.435-3.038-2.669-4.577-3.979c0.278-0.672,0.661-0.136,1.026,0.161
							c1.614,1.403,3.403,2.66,4.71,4.373c0.444,0.521,0.532,1.48-0.206,1.784C204.07,190.728,203.006,190.653,202.027,190.646
							L202.027,190.646z M193.822,191.617c-0.68,0.552-0.382-0.297,0.175-0.138c2.447,0.084,4.689-1.07,7.084-1.338
							c0.326,0.047,1.111-0.279,0.955,0.281c0.024,0.434-0.668,0.123-0.978,0.257c-2.3,0.294-4.462,1.357-6.813,1.334
							C193.839,191.969,193.307,192.188,193.822,191.617L193.822,191.617z M195.459,193.946c0.076,0.646-0.399,0.541-0.739,0.186
							c-0.61-0.651-0.944-1.5-1.372-2.271c0.471-0.461,0.64,0.022,0.832,0.442c0.373,0.575,0.588,1.416,1.305,1.65L195.459,193.946
							L195.459,193.946L195.459,193.946z M206.094,193.108c0.079,0.667-0.427,0.477-0.886,0.429
							c-3.328-0.204-6.517,1.575-9.852,0.934c-0.07-0.666,0.428-0.472,0.887-0.42C199.571,194.283,202.757,192.503,206.094,193.108
							L206.094,193.108z M193.735,171.66c0.53,0.023,0.687,0.322,0.945,0.754c3.909,5.225,8.23,10.165,11.653,15.741
							c0.751,1.355,1.654,2.745,1.734,4.336c-0.001,0.727-0.655,1.241-1.356,1.209c-0.54,0.176-0.996-0.366-0.464-0.576
							c0.512,0.122,1.31,0.027,1.287-0.657c-0.142-1.634-1.108-3.046-1.904-4.434c-3.36-5.368-7.526-10.161-11.317-15.216
							C194.082,172.456,193.741,172.113,193.735,171.66L193.735,171.66z M187.216,169.661c0.035-0.688-0.467-0.252,0.035-0.878
							c0.797-1.265,2.509-1.578,3.831-1.027c1.458,0.58,2.889,1.738,3.207,3.343c0.192,0.512-0.208,0.944-0.539,0.485
							c0.109-1.21-0.92-2.17-1.832-2.807c-1.132-0.791-2.907-1.158-3.951-0.029C187.651,169.003,187.57,169.464,187.216,169.661
							L187.216,169.661z"/>
						<path fill="#21231E" d="M187.698,169.098c-0.202,0.071-0.404,0.142-0.605,0.212c-0.096-0.234,0.16-0.5,0.398-0.411
							C187.586,168.928,187.666,169.009,187.698,169.098z M191.837,174.763c-0.138,0.163-0.276,0.325-0.414,0.488
							c-1.656-1.397-3.105-3.092-3.99-5.084c-0.125-0.28-0.239-0.567-0.341-0.856c0.202-0.07,0.403-0.141,0.605-0.212
							c0.667,1.916,1.901,3.591,3.367,4.974C191.315,174.311,191.574,174.54,191.837,174.763z M191.422,175.251
							c0.138-0.163,0.276-0.325,0.414-0.488c0.202,0.153,0.115,0.513-0.135,0.556C191.604,175.343,191.496,175.317,191.422,175.251
							L191.422,175.251z"/>
						<path fill="#21231E" d="M186.341,172.843c0.411,0.043,0.698,0.404,0.641,0.808c-0.058,0.403-0.438,0.696-0.848,0.653
							c-0.412-0.043-0.699-0.405-0.642-0.809C185.549,173.092,185.929,172.8,186.341,172.843z"/>
						<path fill="#21231E" d="M161.664,193.466c0.322-0.255,0.714,0.291,0.371,0.514
							C161.911,193.811,161.786,193.632,161.664,193.466z M149.475,223.637c0.791-5.434,2.694-10.633,4.559-15.774
							c1.824-4.584,3.587-9.302,6.535-13.302c0.249-0.709,1.742-1.469,1.235-0.389c-2.413,2.505-3.712,5.834-5.164,8.941
							c-2.64,6.289-5.018,12.742-6.375,19.44C150.025,223.159,150.5,223.982,149.475,223.637L149.475,223.637z"/>
					</g>
					<g transform="matrix(-1,0,0,1,964.29721,0)">
						<g id="g3535_2_">
							<path fill="#EDB92E" d="M250.5,190.354c1.094,0.957,4.706,0.971,9.65,1.288c7.964,0.28,12.575-2.125,13.598-7.226
								c-2.988,3.563-6.552,5.325-10.601,4.321c-5.462-1.353-8.587-2.325-9.833-2.083
								C252.474,186.952,251.248,188.471,250.5,190.354L250.5,190.354z"/>
							<path fill="#21231E" d="M260.142,191.913c0.015-0.312,0.124-0.671-0.323-0.556c-2.514-0.183-5.049-0.19-7.541-0.603
								c-0.555-0.119-1.145-0.236-1.601-0.599c-0.202,0.215-0.507,0.461-0.079,0.6c1.172,0.617,2.535,0.665,3.827,0.803
								C256.328,191.712,258.236,191.787,260.142,191.913L260.142,191.913z M273.544,184.247c0.302,0.242,0.544,0.446,0.048,0.171
								c-0.243-0.079-0.158,0.509-0.29,0.695c-0.539,2.01-1.977,3.72-3.818,4.67c-2.63,1.377-5.671,1.636-8.592,1.614
								c-0.238,0.069-0.798-0.203-0.738,0.183c-0.162,0.453,0.292,0.327,0.589,0.349c3.052,0.039,6.229-0.231,8.979-1.666
								c1.898-0.981,3.405-2.711,4.024-4.766c0.108-0.337,0.191-0.68,0.265-1.025C273.854,184.397,273.699,184.321,273.544,184.247
								L273.544,184.247z M263.212,188.481c-0.12,0.33-0.202,0.636,0.26,0.607c2.356,0.52,4.878,0,6.9-1.297
								c1.367-0.85,2.548-1.971,3.581-3.199c-0.243-0.255-0.481-0.46-0.669-0.041c-1.765,2.031-4.091,3.777-6.827,4.129
								C265.375,188.825,264.27,188.743,263.212,188.481L263.212,188.481z M253.226,186.406c0.149,0.263,0.051,0.636,0.412,0.486
								c1.452,0.023,2.856,0.468,4.262,0.792c1.729,0.436,3.453,0.89,5.184,1.317c0.121-0.331,0.199-0.635-0.26-0.616
								c-2.611-0.628-5.19-1.399-7.829-1.903C254.413,186.393,253.81,186.289,253.226,186.406L253.226,186.406z M250.325,190.559
								c0.209-0.329,0.411-0.433,0.443-0.148c0.531-1.248,1.221-2.505,2.323-3.336c0.39-0.093,0.281-0.344,0.146-0.637
								c-0.23-0.004-0.517,0.248-0.727,0.407c-1.034,0.916-1.736,2.149-2.257,3.414
								C250.277,190.358,250.301,190.459,250.325,190.559L250.325,190.559z"/>
							<path fill="#21231E" d="M261.813,171.21c-0.016,0.283-0.031,0.566-0.046,0.848c0.361,0.037,0.595-0.449,0.338-0.708
								C262.032,171.268,261.922,171.215,261.813,171.21z M253.605,173.313c0.096,0.266,0.192,0.532,0.289,0.798
								c1.909-0.678,3.788-1.481,5.78-1.886c0.688-0.134,1.392-0.204,2.093-0.166c0.015-0.282,0.03-0.566,0.045-0.848
								c-2.048-0.104-4.021,0.586-5.922,1.264C255.129,172.752,254.363,173.04,253.605,173.313L253.605,173.313z M248.842,174.707
								c-0.042,0.279-0.084,0.56-0.127,0.838c0.754,0.065,1.49-0.191,2.207-0.39c1.004-0.306,1.986-0.678,2.971-1.042
								c-0.096-0.267-0.193-0.532-0.289-0.799c-1.389,0.506-2.769,1.069-4.224,1.356
								C249.204,174.697,249.019,174.728,248.842,174.707L248.842,174.707z M248.715,175.545c0.042-0.28,0.085-0.559,0.127-0.838
								c-0.355-0.075-0.636,0.39-0.404,0.67C248.502,175.467,248.607,175.529,248.715,175.545z"/>
							<path fill="#21231E" d="M236.209,179.573c-0.034-0.209-0.068-0.418-0.103-0.628c-0.212,0.025-0.335,0.29-0.225,0.47
								C235.943,179.532,236.083,179.594,236.209,179.573z M241.509,178.459c-0.057-0.205-0.114-0.409-0.17-0.614
								c-1.717,0.484-3.473,0.81-5.232,1.099c0.035,0.209,0.069,0.419,0.103,0.628C237.991,179.278,239.773,178.947,241.509,178.459
								z M241.339,177.845c0.057,0.205,0.114,0.41,0.17,0.614c0.213-0.05,0.307-0.339,0.165-0.504
								C241.597,177.854,241.459,177.812,241.339,177.845z"/>
							<path fill="#21231E" d="M255.358,176.982c0.138,0.248,0.276,0.495,0.414,0.741c1.446-0.815,2.476-2.178,3.31-3.581
								c0.416-0.696,0.791-1.416,1.178-2.128c-0.247-0.135-0.495-0.272-0.742-0.407c-0.866,1.589-1.685,3.257-3.012,4.522
								C256.158,176.456,255.774,176.75,255.358,176.982L255.358,176.982z M251.271,174.208c-0.25,0.133-0.498,0.267-0.748,0.4
								c0.625,1.146,1.404,2.271,2.526,2.978c0.699,0.442,1.603,0.616,2.386,0.296c0.091-0.062,0.336-0.091,0.314-0.2
								c-0.13-0.234-0.261-0.467-0.391-0.7c-0.514,0.31-1.174,0.265-1.688-0.021c-0.901-0.487-1.542-1.331-2.075-2.183
								C251.482,174.592,251.372,174.397,251.271,174.208L251.271,174.208z"/>
							<path fill="#21231E" d="M256.406,176.456l1.177-1.18c0.574-0.725,0.243-1.693-0.996-2.902
								c-0.905,0.393-1.629,0.695-2.354,0.998C254.716,175.004,255.441,176.032,256.406,176.456L256.406,176.456z"/>
							<path fill="#21231E" d="M259.809,220.547c0.079,0.191,0.13,0.439,0.225,0.595c0.307-0.105,0.227-0.61-0.099-0.612
								C259.891,220.527,259.849,220.535,259.809,220.547z M246.978,218.651c-0.148,0.151-0.297,0.302-0.445,0.454
								c1.536,1.531,3.537,2.595,5.681,2.951c2.624,0.451,5.318-0.036,7.804-0.906c-0.07-0.2-0.14-0.401-0.21-0.601
								c-2.517,0.88-5.266,1.367-7.909,0.797C250.038,220.955,248.324,219.988,246.978,218.651L246.978,218.651z M245.426,217.11
								c-0.149,0.15-0.299,0.3-0.449,0.451c0.517,0.516,1.036,1.032,1.556,1.545c0.148-0.152,0.297-0.303,0.445-0.455
								C246.458,218.14,245.941,217.625,245.426,217.11z M244.977,217.561c0.137-0.153,0.339-0.309,0.437-0.462
								c-0.217-0.221-0.621,0.038-0.515,0.328C244.912,217.478,244.945,217.527,244.977,217.561z"/>
							<path fill="#21231E" d="M244.271,214.275c0.21-0.029,0.42-0.058,0.63-0.087c-0.023-0.286-0.448-0.375-0.584-0.123
								C244.277,214.127,244.263,214.204,244.271,214.275z M247.231,222.835c-0.054,0.205-0.107,0.41-0.16,0.616
								c0.123-0.146,0.247-0.292,0.37-0.438c-1.167-2.59-2.009-5.331-2.439-8.141c-0.037-0.228-0.07-0.457-0.102-0.685
								c-0.21,0.028-0.42,0.057-0.63,0.086c0.389,2.904,1.184,5.751,2.347,8.44c0.08,0.187,0.162,0.373,0.244,0.558
								C246.984,223.127,247.108,222.981,247.231,222.835L247.231,222.835z M247.441,223.013c-0.194,0.086-0.387,0.172-0.581,0.259
								c0.103,0.277,0.553,0.232,0.599-0.06C247.477,223.146,247.467,223.074,247.441,223.013z M239.246,217.889
								c-0.174,0.122-0.348,0.244-0.521,0.365c1.368,1.965,3.41,3.372,5.602,4.28c0.891,0.374,1.812,0.674,2.746,0.917
								c0.053-0.205,0.106-0.411,0.16-0.615c-2.428-0.636-4.819-1.672-6.661-3.414C240.079,218.958,239.634,218.443,239.246,217.889
								L239.246,217.889z M238.725,218.254c0.174-0.122,0.348-0.243,0.521-0.365c-0.152-0.243-0.571-0.13-0.577,0.158
								C238.662,218.119,238.687,218.196,238.725,218.254z"/>
							<path fill="#21231E" d="M239.37,213.694c0.211,0.02,0.422,0.039,0.633,0.059c0.041-0.277-0.334-0.464-0.53-0.263
								C239.414,213.542,239.38,213.62,239.37,213.694z M236.986,222.141c-0.127,0.17-0.255,0.339-0.383,0.509
								c0.152-0.036,0.331-0.03,0.465-0.092c1.7-2.449,2.562-5.388,2.885-8.327c0.018-0.16,0.032-0.32,0.048-0.48
								c-0.211-0.019-0.421-0.039-0.632-0.058c-0.262,2.856-1.018,5.726-2.59,8.153c-0.079,0.123-0.162,0.244-0.245,0.364
								C236.685,222.188,236.837,222.162,236.986,222.141L236.986,222.141z M237.056,222.579c-0.174-0.122-0.347-0.243-0.521-0.365
								c-0.176,0.226,0.073,0.582,0.345,0.488C236.951,222.684,237.013,222.637,237.056,222.579z M232.933,215.803
								c-0.206,0.051-0.411,0.103-0.617,0.155c0.639,2.595,2.098,5.02,4.234,6.651c0.118,0.08,0.188-0.196,0.286-0.268
								c0.118-0.122,0.2-0.238-0.003-0.317C234.866,220.478,233.526,218.218,232.933,215.803L232.933,215.803z M232.316,215.958
								c0.206-0.052,0.411-0.104,0.617-0.155c-0.052-0.276-0.47-0.328-0.588-0.075C232.307,215.798,232.297,215.883,232.316,215.958
								z"/>
							<path fill="#EDB92E" d="M269.133,169.394c8.932,0.966,8.505,6.808,0.156,15.071c-1.598,1.581-2.146,1.529-2.487-0.113
								c-0.596-2.872-3.772-4.569-5.44-2.381c-1.135,1.49-0.881,2.343-4.663,1.814c-4.777,4.009-8.667,6.828-2.416,6.593
								c2.75-0.104,4.869,1.5,8.452,1.36c-1.06,2.058-1.25,2.296-1.822,2.47c-3.473,0.688-7.133-1.484-10.637-0.838
								c-7.677,1.417,12.3-20.762,12.053-21.639C261.697,169.5,267.13,165.499,269.133,169.394L269.133,169.394z"/>
							<path fill="#21231E" d="M269.101,184.275c0.343,0.666,0.687,0.048,1.03-0.281c2.186-2.3,4.373-4.771,5.455-7.805
								c0.603-1.626,0.538-3.674-0.79-4.933c-1.489-1.455-3.64-1.882-5.635-2.128c-0.287,0.659,0.351,0.581,0.818,0.649
								c1.831,0.312,3.907,0.855,4.96,2.524c0.978,1.669,0.291,3.706-0.537,5.287C273.057,180.113,271.105,182.26,269.101,184.275
								L269.101,184.275z M267.063,184.297c-0.664-0.066-0.499,0.443-0.304,0.873c0.155,0.631,0.915,0.927,1.443,0.535
								c0.479-0.277,0.88-0.667,1.275-1.05c-0.298-0.563-0.594-0.204-0.915,0.124c-0.314,0.216-0.705,0.707-1.119,0.506
								C267.206,185.015,267.146,184.634,267.063,184.297L267.063,184.297z M261.148,181.81c0.406,0.578,0.646,0,1.044-0.256
								c1.935-1.069,4.035,0.979,4.347,2.853c0.705,0.069,0.458-0.492,0.278-0.928c-0.628-1.632-2.35-3.114-4.188-2.688
								C262.032,180.936,261.518,181.326,261.148,181.81z M256.526,183.581c0.442,0.48,0.014,0.521,0.789,0.552
								c1.189,0.123,2.712,0.266,3.479-0.87c0.271-0.367,0.498-0.766,0.779-1.128c-0.374-0.52-0.626-0.121-0.849,0.281
								c-0.353,0.674-0.961,1.275-1.776,1.245c-0.79,0.096-1.59-0.139-2.363-0.097L256.526,183.581L256.526,183.581L256.526,183.581
								z M254.292,190.646c0.187-0.685-0.413-0.519-0.88-0.523c-0.691-0.053-1.539,0.032-2.068-0.49
								c-0.109-0.676,0.559-1.185,0.948-1.662c1.427-1.435,3.038-2.669,4.577-3.979c-0.277-0.672-0.661-0.136-1.026,0.161
								c-1.614,1.403-3.403,2.66-4.711,4.373c-0.444,0.521-0.532,1.48,0.206,1.784C252.25,190.728,253.314,190.653,254.292,190.646
								L254.292,190.646z M262.497,191.617c0.68,0.552,0.383-0.297-0.174-0.138c-2.447,0.084-4.69-1.07-7.084-1.338
								c-0.327,0.047-1.111-0.279-0.954,0.281c-0.024,0.434,0.668,0.123,0.977,0.257c2.3,0.294,4.461,1.357,6.813,1.334
								C262.481,191.969,263.013,192.188,262.497,191.617L262.497,191.617z M260.86,193.946c-0.075,0.646,0.399,0.541,0.739,0.186
								c0.609-0.651,0.944-1.5,1.372-2.271c-0.471-0.461-0.639,0.022-0.832,0.442c-0.373,0.575-0.587,1.416-1.305,1.65
								L260.86,193.946L260.86,193.946L260.86,193.946z M250.226,193.108c-0.079,0.667,0.426,0.477,0.886,0.429
								c3.328-0.204,6.517,1.575,9.852,0.934c0.07-0.666-0.429-0.472-0.886-0.42C256.748,194.283,253.563,192.503,250.226,193.108
								L250.226,193.108z M262.585,171.66c-0.531,0.023-0.687,0.322-0.946,0.754c-3.909,5.225-8.229,10.165-11.653,15.741
								c-0.751,1.355-1.654,2.745-1.735,4.336c0.001,0.727,0.656,1.241,1.356,1.209c0.54,0.176,0.997-0.366,0.464-0.576
								c-0.512,0.122-1.31,0.027-1.287-0.657c0.142-1.634,1.108-3.046,1.905-4.434c3.359-5.368,7.525-10.161,11.317-15.216
								C262.238,172.456,262.58,172.113,262.585,171.66L262.585,171.66z M269.104,169.661c-0.035-0.688,0.466-0.252-0.036-0.878
								c-0.796-1.265-2.508-1.578-3.831-1.027c-1.458,0.58-2.889,1.738-3.208,3.343c-0.192,0.512,0.208,0.944,0.54,0.485
								c-0.109-1.21,0.92-2.17,1.832-2.807c1.131-0.791,2.907-1.158,3.951-0.029C268.668,169.003,268.75,169.464,269.104,169.661
								L269.104,169.661z"/>
							<path fill="#21231E" d="M268.623,169.098c0.202,0.071,0.403,0.142,0.605,0.212c0.096-0.234-0.161-0.5-0.398-0.411
								C268.734,168.928,268.654,169.009,268.623,169.098z M264.483,174.763c0.138,0.163,0.276,0.325,0.414,0.488
								c1.656-1.397,3.105-3.092,3.989-5.084c0.125-0.28,0.239-0.567,0.341-0.856c-0.202-0.07-0.403-0.141-0.605-0.212
								c-0.668,1.916-1.901,3.591-3.368,4.974C265.004,174.311,264.746,174.54,264.483,174.763z M264.897,175.251
								c-0.138-0.163-0.276-0.325-0.414-0.488c-0.201,0.153-0.115,0.513,0.135,0.556
								C264.715,175.343,264.823,175.317,264.897,175.251z"/>
							<path fill="#21231E" d="M269.979,172.843c-0.411,0.043-0.698,0.404-0.641,0.808c0.057,0.403,0.437,0.696,0.849,0.653
								c0.411-0.043,0.698-0.405,0.641-0.809C270.77,173.092,270.39,172.8,269.979,172.843z"/>
							<path fill="#21231E" d="M294.655,193.466c-0.321-0.255-0.714,0.291-0.37,0.514
								C294.408,193.811,294.534,193.632,294.655,193.466z M306.845,223.637c-0.791-5.434-2.694-10.633-4.559-15.774
								c-1.824-4.584-3.587-9.302-6.535-13.302c-0.249-0.709-1.742-1.469-1.235-0.389c2.413,2.505,3.712,5.834,5.164,8.941
								c2.64,6.289,5.018,12.742,6.375,19.44C306.295,223.159,305.819,223.982,306.845,223.637L306.845,223.637z"/>
						</g>
					</g>
					<path fill="#21231E" d="M223.302,212.706c-0.198,0.06-0.28,0.235-0.24,0.461c0.053,0.862,0.152,1.718,0.31,2.566
						c0.187,1.024,0.486,2.028,0.833,3.008c0.531,1.415,1.204,2.776,2.036,4.039c0.494,0.778,1.061,1.521,1.63,2.237
						c0.115,0.103,0.357,0.108,0.5,0.05c0.287-0.271,0.519-0.625,0.771-0.94c0.451-0.612,0.883-1.237,1.279-1.887
						c0.78-1.326,1.453-2.719,1.927-4.183c0.389-1.242,0.689-2.516,0.814-3.813c0.059-0.427,0.091-0.857,0.096-1.288
						c-0.041-0.196-0.286-0.321-0.466-0.217c-0.243,0.111-0.151,0.47-0.188,0.731c-0.078,0.991-0.225,1.976-0.449,2.944
						c-0.234,0.997-0.572,1.967-0.959,2.915c-0.44,1.063-1.003,2.069-1.607,3.046c-0.455,0.679-0.92,1.354-1.433,1.99
						c-0.556-0.721-1.093-1.458-1.573-2.232c-0.729-1.151-1.32-2.388-1.8-3.662c-0.415-1.154-0.719-2.346-0.908-3.557
						c-0.102-0.669-0.131-1.363-0.205-2.026C223.601,212.758,223.479,212.686,223.302,212.706L223.302,212.706z"/>
				</g>
				<g>
					<path fill="#C6363C" d="M264.185,225.427v58.344v0.002c0,10.433-4.046,19.905-10.571,26.769
						c-6.526,6.864-15.531,11.12-25.451,11.12h-0.003c-9.919-0.001-18.925-4.256-25.45-11.119
						c-6.526-6.863-10.571-16.337-10.572-26.771v-58.343h72.048L264.185,225.427z"/>
					<path id="path1563_7_" fill="#FFFFFF" stroke="#21231E" stroke-width="0.9939" d="M240.525,255.094v-21.138
						c4.6-1.237,15.802-5.707,16.384,4.092c0.27,4.529-5.611,7.517-7.196,3.516c-0.75-1.893,0.066-3.234,1.173-3.667
						c1.194-0.467,2.379,0.5,2.063,1.941c4.761-2.493-4.254-7.784-8.325-0.896c-1.186,2.005,2,4.096,2.005,5.583
						c0.003,1.487-3.131,3.715-2.005,5.586c4.122,6.854,13.087,1.596,8.325-0.896c0.316,1.44-0.869,2.407-2.063,1.94
						c-1.105-0.433-1.923-1.773-1.173-3.668c1.586-4,7.466-1.012,7.196,3.518C256.327,260.801,245.125,256.331,240.525,255.094
						L240.525,255.094z"/>
					<path fill="#FFFFFF" stroke="#21231E" stroke-width="0.9939" d="M264.185,261.214v15.037h-28.518v44.578
						c-2.421,0.543-4.933,0.83-7.504,0.83h-0.003c-2.572,0-5.082-0.286-7.502-0.83v-44.578h-28.519v-15.037h28.519v-35.786h15.01
						v35.786H264.185L264.185,261.214z"/>
					<path id="path1563_6_" fill="#FFFFFF" stroke="#21231E" stroke-width="0.9939" d="M215.794,255.094v-21.138
						c-4.6-1.237-15.801-5.707-16.384,4.092c-0.27,4.529,5.611,7.517,7.196,3.516c0.751-1.893-0.067-3.234-1.173-3.667
						c-1.194-0.467-2.379,0.5-2.063,1.941c-4.761-2.493,4.254-7.784,8.325-0.896c1.186,2.005-2.001,4.096-2.005,5.583
						c-0.004,1.487,3.13,3.715,2.005,5.586c-4.122,6.854-13.087,1.596-8.325-0.896c-0.316,1.44,0.869,2.407,2.063,1.94
						c1.106-0.433,1.923-1.773,1.173-3.668c-1.586-4-7.466-1.012-7.196,3.518C199.992,260.801,211.194,256.331,215.794,255.094
						L215.794,255.094z"/>
					<path id="path1563_5_" fill="#FFFFFF" stroke="#21231E" stroke-width="0.9939" d="M215.794,303.511v-21.139
						c-4.6-1.237-15.801-5.707-16.384,4.092c-0.27,4.529,5.611,7.518,7.196,3.517c0.751-1.894-0.067-3.235-1.173-3.668
						c-1.194-0.467-2.379,0.5-2.063,1.941c-4.761-2.492,4.254-7.783,8.325-0.896c1.186,2.005-2.001,4.096-2.005,5.582
						c-0.004,1.488,3.13,3.715,2.005,5.586c-4.122,6.854-13.087,1.596-8.325-0.896c-0.316,1.441,0.869,2.408,2.063,1.941
						c1.106-0.434,1.923-1.774,1.173-3.668c-1.586-4.001-7.466-1.013-7.196,3.517C199.992,309.217,211.194,304.747,215.794,303.511
						L215.794,303.511z"/>
					<path id="path1563_4_" fill="#FFFFFF" stroke="#21231E" stroke-width="0.9939" d="M240.525,303.511v-21.139
						c4.6-1.237,15.802-5.707,16.384,4.092c0.27,4.529-5.611,7.518-7.196,3.517c-0.75-1.894,0.066-3.235,1.173-3.668
						c1.194-0.467,2.379,0.5,2.063,1.941c4.761-2.492-4.254-7.783-8.325-0.896c-1.186,2.005,2,4.096,2.005,5.582
						c0.003,1.488-3.131,3.715-2.005,5.586c4.122,6.854,13.087,1.596,8.325-0.896c0.316,1.441-0.869,2.408-2.063,1.941
						c-1.105-0.434-1.923-1.774-1.173-3.668c1.586-4.001,7.466-1.013,7.196,3.517C256.327,309.217,245.125,304.747,240.525,303.511
						L240.525,303.511z"/>
					<path fill="#21231E" d="M191.535,224.798c0.042,20.396-0.083,40.793,0.063,61.188c0.644,14.972,10.572,29.294,24.837,34.271
						c12.053,4.472,26.336,1.391,35.673-7.385c8.708-7.804,13.251-19.717,12.675-31.298c0-18.926,0-37.852,0-56.777
						C240.366,224.797,215.949,224.796,191.535,224.798L191.535,224.798z M192.752,226.068h70.828
						c-0.042,19.95,0.083,39.903-0.063,59.852c-0.606,14.33-10.058,28.085-23.66,33.004c-11.604,4.454-25.447,1.635-34.565-6.755
						c-8.609-7.57-13.121-19.209-12.54-30.593C192.752,263.073,192.752,244.57,192.752,226.068L192.752,226.068z"/>
				</g>
			</g>
		</g>
	</g>
</g>
</svg>
