<?xml version="1.0" encoding="utf-8"?>
<!-- Generator: Adobe Illustrator 16.0.3, SVG Export Plug-In . SVG Version: 6.00 Build 0)  -->
<!DOCTYPE svg PUBLIC "-//W3C//DTD SVG 1.1//EN" "http://www.w3.org/Graphics/SVG/1.1/DTD/svg11.dtd">
<svg version="1.1" id="flag-icon-css-hn" xmlns="http://www.w3.org/2000/svg" xmlns:xlink="http://www.w3.org/1999/xlink" x="0px"
	 y="0px" width="640px" height="480px" viewBox="0 0 640 480" enable-background="new 0 0 640 480" xml:space="preserve">
<g>
	<rect fill="#009543" width="640" height="480"/>
	<rect fill="#FFFFFF" width="640" height="336"/>
	<rect fill="#00209F" width="640" height="144"/>
	<path d="M383.723,280.496l-6.4,2.782L338.4,231.799l0.142-0.292c0.539-1.109,13.163-27.376,10.494-46.157
		c-2.476-17.424-10.246-26.56-24.279-28.366l0.003-1.218c0,0-2.801-2.912-5.537-2.854l-0.001-0.002
		c-2.734,0.059-5.404,3.089-5.404,3.089l0.007,1.04c-13.611,2.086-22.317,12.455-24.153,29.127
		c-2.044,18.585,10.006,44.238,10.52,45.321l0.61,1.287l-37.71,50.779l-7.235-2.5l-12.646,26.977c0,0,31.28,19.588,76.681,19.052
		c49.829-0.592,76.901-19.953,76.901-19.953L383.723,280.496z M324.747,162.026c11.336,1.699,17.226,9.156,19.338,24.026
		c2.053,14.442-6.246,34.777-9.104,41.224l-7.231-9.564l-0.07-19.119h8.275l-11.262-10.574L324.747,162.026z M294.641,186.712
		c1.545-14.029,8.306-22.598,19.221-24.609l0.192,26.269l-10.221,10.707h8.273l-0.069,18.565l-7.628,10.271h-0.347
		C301.599,222.323,293.012,201.525,294.641,186.712z M260.07,292.111l2.397,7.377l-7.009,1.475
		C255.459,300.963,259.518,292.849,260.07,292.111z M256.741,305.021l7.377-2.398h0.001l1.475,5.902L256.741,305.021z
		 M267.446,292.286l10.328,3.137l2.396,5.164l-9.036,2.581L267.446,292.286z M274.449,311.481l-1.291-4.426l8.483-2.768
		l4.795,10.144L274.449,311.481z M286.438,297.822l10.327,2.214l2.951,4.426l-9.037,3.504L286.438,297.822z M293.818,315.536
		l-1.476-3.873l9.59-3.32l5.901,9.222L293.818,315.536z M305.799,300.783l16.781,0.737l1.477,3.504l-13.095,4.795L305.799,300.783z
		 M316.133,317.931l-2.767-4.796l12.909-4.795l6.086,9.037L316.133,317.931z M330.518,301.15l11.988-1.475l2.766,4.058
		l-10.328,4.979L330.518,301.15z M339.916,316.453l-2.766-4.426l10.328-5.164l6.27,7.376L339.916,316.453z M350.807,298.927
		l11.064-3.32l2.951,3.137l-8.668,6.823L350.807,298.927z M360.576,312.574l-2.213-3.873l8.299-6.271l5.348,7.193L360.576,312.574z
		 M368.512,293.216l9.59-3.873l2.029,2.951l-5.717,8.483L368.512,293.216z M377.916,302.806l4.059-6.086l3.504,7.008l-7.008,2.396
		L377.916,302.806z"/>
</g>
</svg>
