<?xml version="1.0" encoding="utf-8"?>
<!-- Generator: Adobe Illustrator 16.0.3, SVG Export Plug-In . SVG Version: 6.00 Build 0)  -->
<!DOCTYPE svg PUBLIC "-//W3C//DTD SVG 1.1//EN" "http://www.w3.org/Graphics/SVG/1.1/DTD/svg11.dtd">
<svg version="1.1" id="flag-icon-css-tj" xmlns="http://www.w3.org/2000/svg" xmlns:xlink="http://www.w3.org/1999/xlink" x="0px"
	 y="0px" width="640px" height="480px" viewBox="0 0 640 480" enable-background="new 0 0 640 480" xml:space="preserve">
<g>
	<path fill="#006600" d="M0,0h640v480H0V0z"/>
	<path fill="#FFFFFF" d="M0,0h640v342.857H0V0z"/>
	<path fill="#CC0000" d="M0,0h640v137.143H0V0z"/>
</g>
<g>
	<path fill="#F8C300" d="M384.948,333.029c-42.489-12.648-87.408-12.648-129.897,0l-3.13-10.516
		c44.538-13.258,91.619-13.258,136.158,0L384.948,333.029z"/>
	<g>
		<path id="b_2_" fill="#F8C300" d="M373.174,306.73c-8.57,9-19.08,7.48-24.804-4.075c0,0,4.309-1.276,8.262-0.691
			c0.31-3.206,3.135-6.83,5.905-8.368c1.625,2.164,3.594,6.063,3.203,9.684C371.182,304.374,373.173,306.73,373.174,306.73
			L373.174,306.73z"/>
		<path id="b_1_" fill="#F8C300" d="M332.644,301.336c-6.99,10.276-17.607,10.487-25.137,0.018c0,0,4.045-1.961,8.04-2.027
			c-0.217-3.213,1.98-7.248,4.464-9.217c1.956,1.869,4.533,5.396,4.736,9.033c5.548,0.193,7.896,2.195,7.896,2.195V301.336z"/>
		<path id="b" fill="#F8C300" d="M291.776,302.613c-5.224,11.277-15.665,13.214-24.798,4.109c0,0,3.671-2.593,7.602-3.309
			c-0.737-3.137,0.774-7.475,2.904-9.822c2.234,1.527,5.351,4.588,6.144,8.143C289.133,301.021,291.776,302.614,291.776,302.613
			L291.776,302.613z"/>
	</g>
	<path fill="#F8C300" d="M402.19,290.07c-13.897,5.537-29.651-1.241-35.188-15.139c-4.244,3.982-9.7,6.428-15.496,6.949
		c-14.334,1.287-26.996-9.289-28.284-23.622V237.67c0.145-4.731,4.098-8.45,8.829-8.306c2.958,0.09,5.661,1.701,7.148,4.26
		c3.518-10.604-2.227-22.052-12.831-25.57c-10.604-3.518-22.051,2.227-25.569,12.831c-1.372,4.136-1.372,8.604,0,12.739v-0.001
		c2.379-4.092,7.625-5.481,11.718-3.103c2.559,1.487,4.169,4.19,4.26,7.148v20.59c-1.288,14.333-13.951,24.909-28.284,23.622
		c-5.797-0.521-11.252-2.967-15.497-6.949c-5.536,13.897-21.29,20.676-35.187,15.139c-2.046-0.814-3.984-1.876-5.773-3.16
		c2.503,24.979,39.944,19.878,42.734-4.409c11.761,20.646,37.618,14.737,45.191-10.547h0.076
		c7.572,25.284,33.43,31.192,45.19,10.547c2.79,24.287,40.231,29.388,42.734,4.409C406.174,288.194,404.235,289.256,402.19,290.07z"
		/>
	<g>
		<path id="c_6_" fill="#F8C300" d="M405.647,274.819l27.102-19.69H399.25l27.102,19.69l-10.353-31.86L405.647,274.819z"/>
		<path id="c_5_" fill="#F8C300" d="M392.786,226.819l27.102-19.69h-33.499l27.102,19.69l-10.352-31.859L392.786,226.819z"/>
		<path id="c_4_" fill="#F8C300" d="M357.647,191.681l27.102-19.69H351.25l27.102,19.69L368,159.821L357.647,191.681z"/>
		<path id="c" fill="#F8C300" d="M330.352,178.819l-27.101-19.69h33.5l-27.102,19.69L320,146.959L330.352,178.819z"/>
		<path id="c_1_" fill="#F8C300" d="M282.352,191.681l-27.102-19.69h33.5l-27.102,19.69L272,159.821L282.352,191.681z"/>
		<path id="c_2_" fill="#F8C300" d="M247.213,226.819l-27.101-19.69h33.499l-27.102,19.69l10.352-31.859L247.213,226.819z"/>
		<path id="c_3_" fill="#F8C300" d="M234.353,274.819l-27.102-19.69h33.499l-27.101,19.69L224,242.959L234.353,274.819z"/>
	</g>
</g>
</svg>
