<?xml version="1.0" encoding="utf-8"?>
<!-- Generator: Adobe Illustrator 16.0.3, SVG Export Plug-In . SVG Version: 6.00 Build 0)  -->
<!DOCTYPE svg PUBLIC "-//W3C//DTD SVG 1.1//EN" "http://www.w3.org/Graphics/SVG/1.1/DTD/svg11.dtd">
<svg version="1.1" id="flag-icon-css-cn" xmlns="http://www.w3.org/2000/svg" xmlns:xlink="http://www.w3.org/1999/xlink" x="0px"
	 y="0px" width="640px" height="480px" viewBox="0 0 640 480" enable-background="new 0 0 640 480" xml:space="preserve">
<g>
	<path fill="#DE2910" d="M0,0h640v480H0V0z"/>
	<g>
		<path id="a" fill="#FFDE00" d="M77.664,178.32L119.999,48l42.335,130.32L51.456,97.68h137.086L77.664,178.32z"/>
		<path id="a_1_" fill="#FFDE00" d="M264.22,50.109l-44.516,10.222l30.009-34.433l-4.061,45.52l-23.487-39.198L264.22,50.109z"/>
		<path id="a_2_" fill="#FFDE00" d="M309.187,107.024l-44.996-7.843l41.014-20.099l-21.397,40.382l-6.446-45.239L309.187,107.024z"
			/>
		<path id="a_3_" fill="#FFDE00" d="M302.769,186.925l-37.885-25.513l45.645-1.624l-36.006,28.145l12.565-43.935L302.769,186.925z"
			/>
		<path id="a_4_" fill="#FFDE00" d="M246.289,239.22l-25.091-38.165l42.73,16.132l-44.083,12.053l28.559-35.672L246.289,239.22z"/>
	</g>
</g>
</svg>
